<svg viewBox="0 0 795.3333740234375 400" xmlns="http://www.w3.org/2000/svg"><g><g><g><g><g><line x1="50" y1="378" x2="45" y2="378" style="visibility: inherit;" fill="rgb(0, 0, 0)" stroke="rgb(204, 204, 204)" stroke-width="1px"></line><line x1="50" y1="343.6363636363636" x2="45" y2="343.6363636363636" style="visibility: inherit;" fill="rgb(0, 0, 0)" stroke="rgb(204, 204, 204)" stroke-width="1px"></line><line x1="50" y1="309.27272727272725" x2="45" y2="309.27272727272725" style="visibility: inherit;" fill="rgb(0, 0, 0)" stroke="rgb(204, 204, 204)" stroke-width="1px"></line><line x1="50" y1="274.90909090909093" x2="45" y2="274.90909090909093" style="visibility: inherit;" fill="rgb(0, 0, 0)" stroke="rgb(204, 204, 204)" stroke-width="1px"></line><line x1="50" y1="240.54545454545453" x2="45" y2="240.54545454545453" style="visibility: inherit;" fill="rgb(0, 0, 0)" stroke="rgb(204, 204, 204)" stroke-width="1px"></line><line x1="50" y1="206.18181818181816" x2="45" y2="206.18181818181816" style="visibility: inherit;" fill="rgb(0, 0, 0)" stroke="rgb(204, 204, 204)" stroke-width="1px"></line><line x1="50" y1="171.81818181818184" x2="45" y2="171.81818181818184" style="visibility: inherit;" fill="rgb(0, 0, 0)" stroke="rgb(204, 204, 204)" stroke-width="1px"></line><line x1="50" y1="137.4545454545455" x2="45" y2="137.4545454545455" style="visibility: inherit;" fill="rgb(0, 0, 0)" stroke="rgb(204, 204, 204)" stroke-width="1px"></line><line x1="50" y1="103.09090909090912" x2="45" y2="103.09090909090912" style="visibility: inherit;" fill="rgb(0, 0, 0)" stroke="rgb(204, 204, 204)" stroke-width="1px"></line><line x1="50" y1="68.72727272727275" x2="45" y2="68.72727272727275" style="visibility: inherit;" fill="rgb(0, 0, 0)" stroke="rgb(204, 204, 204)" stroke-width="1px"></line><line x1="50" y1="34.363636363636374" x2="45" y2="34.363636363636374" style="visibility: inherit;" fill="rgb(0, 0, 0)" stroke="rgb(204, 204, 204)" stroke-width="1px"></line><line x1="50" y1="0" x2="45" y2="0" style="visibility: inherit;" fill="rgb(0, 0, 0)" stroke="rgb(204, 204, 204)" stroke-width="1px"></line></g><g transform="translate(40, 0)"><text x="0" y="378" dx="0em" dy="0.3em" style="text-anchor: end; visibility: hidden; font-family: Roboto, sans-serif; font-size: 12px; font-weight: 200;" fill="rgb(50, 49, 63)" stroke="none" stroke-width="1px">-0.2</text><text x="0" y="343.6363636363636" dx="0em" dy="0.3em" style="text-anchor: end; visibility: inherit; font-family: Roboto, sans-serif; font-size: 12px; font-weight: 200;" fill="rgb(50, 49, 63)" stroke="none" stroke-width="1px">0</text><text x="0" y="309.27272727272725" dx="0em" dy="0.3em" style="text-anchor: end; visibility: inherit; font-family: Roboto, sans-serif; font-size: 12px; font-weight: 200;" fill="rgb(50, 49, 63)" stroke="none" stroke-width="1px">0.2</text><text x="0" y="274.90909090909093" dx="0em" dy="0.3em" style="text-anchor: end; visibility: inherit; font-family: Roboto, sans-serif; font-size: 12px; font-weight: 200;" fill="rgb(50, 49, 63)" stroke="none" stroke-width="1px">0.4</text><text x="0" y="240.54545454545453" dx="0em" dy="0.3em" style="text-anchor: end; visibility: inherit; font-family: Roboto, sans-serif; font-size: 12px; font-weight: 200;" fill="rgb(50, 49, 63)" stroke="none" stroke-width="1px">0.6</text><text x="0" y="206.18181818181816" dx="0em" dy="0.3em" style="text-anchor: end; visibility: inherit; font-family: Roboto, sans-serif; font-size: 12px; font-weight: 200;" fill="rgb(50, 49, 63)" stroke="none" stroke-width="1px">0.8</text><text x="0" y="171.81818181818184" dx="0em" dy="0.3em" style="text-anchor: end; visibility: inherit; font-family: Roboto, sans-serif; font-size: 12px; font-weight: 200;" fill="rgb(50, 49, 63)" stroke="none" stroke-width="1px">1</text><text x="0" y="137.4545454545455" dx="0em" dy="0.3em" style="text-anchor: end; visibility: inherit; font-family: Roboto, sans-serif; font-size: 12px; font-weight: 200;" fill="rgb(50, 49, 63)" stroke="none" stroke-width="1px">1.2</text><text x="0" y="103.09090909090912" dx="0em" dy="0.3em" style="text-anchor: end; visibility: inherit; font-family: Roboto, sans-serif; font-size: 12px; font-weight: 200;" fill="rgb(50, 49, 63)" stroke="none" stroke-width="1px">1.4</text><text x="0" y="68.72727272727275" dx="0em" dy="0.3em" style="text-anchor: end; visibility: inherit; font-family: Roboto, sans-serif; font-size: 12px; font-weight: 200;" fill="rgb(50, 49, 63)" stroke="none" stroke-width="1px">1.6</text><text x="0" y="34.363636363636374" dx="0em" dy="0.3em" style="text-anchor: end; visibility: inherit; font-family: Roboto, sans-serif; font-size: 12px; font-weight: 200;" fill="rgb(50, 49, 63)" stroke="none" stroke-width="1px">1.8</text><text x="0" y="0" dx="0em" dy="0.3em" style="text-anchor: end; visibility: hidden; font-family: Roboto, sans-serif; font-size: 12px; font-weight: 200;" fill="rgb(50, 49, 63)" stroke="none" stroke-width="1px">2</text></g><line x1="50" y1="0" x2="50" y2="378" fill="rgb(0, 0, 0)" stroke="rgb(204, 204, 204)" stroke-width="1px"></line></g></g><g transform="translate(50, 0)" clip-path="url(#clip_0)"><clipPath id="clip_0"><rect width="745" height="378"></rect></clipPath><g><g><g><line x1="0" y1="0" x2="0" y2="378" fill="rgb(0, 0, 0)" stroke="rgb(60, 60, 60)" stroke-width="1px" opacity="0.25"></line><line x1="62.111083333333326" y1="0" x2="62.111083333333326" y2="378" fill="rgb(0, 0, 0)" stroke="rgb(60, 60, 60)" stroke-width="1px" opacity="0.25"></line><line x1="124.22216666666665" y1="0" x2="124.22216666666665" y2="378" fill="rgb(0, 0, 0)" stroke="rgb(60, 60, 60)" stroke-width="1px" opacity="0.25"></line><line x1="186.33325" y1="0" x2="186.33325" y2="378" fill="rgb(0, 0, 0)" stroke="rgb(60, 60, 60)" stroke-width="1px" opacity="0.25"></line><line x1="248.4443333333333" y1="0" x2="248.4443333333333" y2="378" fill="rgb(0, 0, 0)" stroke="rgb(60, 60, 60)" stroke-width="1px" opacity="0.25"></line><line x1="310.55541666666664" y1="0" x2="310.55541666666664" y2="378" fill="rgb(0, 0, 0)" stroke="rgb(60, 60, 60)" stroke-width="1px" opacity="0.25"></line><line x1="372.6665" y1="0" x2="372.6665" y2="378" fill="rgb(0, 0, 0)" stroke="rgb(60, 60, 60)" stroke-width="1px" opacity="0.25"></line><line x1="434.7775833333333" y1="0" x2="434.7775833333333" y2="378" fill="rgb(0, 0, 0)" stroke="rgb(60, 60, 60)" stroke-width="1px" opacity="0.25"></line><line x1="496.8886666666666" y1="0" x2="496.8886666666666" y2="378" fill="rgb(0, 0, 0)" stroke="rgb(60, 60, 60)" stroke-width="1px" opacity="0.25"></line><line x1="558.99975" y1="0" x2="558.99975" y2="378" fill="rgb(0, 0, 0)" stroke="rgb(60, 60, 60)" stroke-width="1px" opacity="0.25"></line><line x1="621.1108333333333" y1="0" x2="621.1108333333333" y2="378" fill="rgb(0, 0, 0)" stroke="rgb(60, 60, 60)" stroke-width="1px" opacity="0.25"></line><line x1="683.2219166666666" y1="0" x2="683.2219166666666" y2="378" fill="rgb(0, 0, 0)" stroke="rgb(60, 60, 60)" stroke-width="1px" opacity="0.25"></line><line x1="745.333" y1="0" x2="745.333" y2="378" fill="rgb(0, 0, 0)" stroke="rgb(60, 60, 60)" stroke-width="1px" opacity="0.25"></line></g><g><line x1="0" y1="378" x2="745.333" y2="378" fill="rgb(0, 0, 0)" stroke="rgb(60, 60, 60)" stroke-width="1px" opacity="0.25"></line><line x1="0" y1="343.6363636363636" x2="745.333" y2="343.6363636363636" fill="rgb(0, 0, 0)" stroke="rgb(60, 60, 60)" stroke-width="1px" opacity="0.25"></line><line x1="0" y1="309.27272727272725" x2="745.333" y2="309.27272727272725" fill="rgb(0, 0, 0)" stroke="rgb(60, 60, 60)" stroke-width="1px" opacity="0.25"></line><line x1="0" y1="274.90909090909093" x2="745.333" y2="274.90909090909093" fill="rgb(0, 0, 0)" stroke="rgb(60, 60, 60)" stroke-width="1px" opacity="0.25"></line><line x1="0" y1="240.54545454545453" x2="745.333" y2="240.54545454545453" fill="rgb(0, 0, 0)" stroke="rgb(60, 60, 60)" stroke-width="1px" opacity="0.25"></line><line x1="0" y1="206.18181818181816" x2="745.333" y2="206.18181818181816" fill="rgb(0, 0, 0)" stroke="rgb(60, 60, 60)" stroke-width="1px" opacity="0.25"></line><line x1="0" y1="171.81818181818184" x2="745.333" y2="171.81818181818184" fill="rgb(0, 0, 0)" stroke="rgb(60, 60, 60)" stroke-width="1px" opacity="0.25"></line><line x1="0" y1="137.4545454545455" x2="745.333" y2="137.4545454545455" fill="rgb(0, 0, 0)" stroke="rgb(60, 60, 60)" stroke-width="1px" opacity="0.25"></line><line x1="0" y1="103.09090909090912" x2="745.333" y2="103.09090909090912" fill="rgb(0, 0, 0)" stroke="rgb(60, 60, 60)" stroke-width="1px" opacity="0.25"></line><line x1="0" y1="68.72727272727275" x2="745.333" y2="68.72727272727275" fill="rgb(0, 0, 0)" stroke="rgb(60, 60, 60)" stroke-width="1px" opacity="0.25"></line><line x1="0" y1="34.363636363636374" x2="745.333" y2="34.363636363636374" fill="rgb(0, 0, 0)" stroke="rgb(60, 60, 60)" stroke-width="1px" opacity="0.25"></line><line x1="0" y1="0" x2="745.333" y2="0" fill="rgb(0, 0, 0)" stroke="rgb(60, 60, 60)" stroke-width="1px" opacity="0.25"></line></g></g></g><g><g><line x1="0" y1="343.6363636363636" x2="745.333" y2="343.6363636363636" fill="rgb(0, 0, 0)" stroke="rgb(153, 153, 153)" stroke-width="1.5px"></line></g></g><g><g><line x1="62.111083333333326" y1="0" x2="62.111083333333326" y2="378" fill="rgb(0, 0, 0)" stroke="rgb(153, 153, 153)" stroke-width="1.5px"></line></g></g><g><g><g><g><g><path stroke="rgb(0, 153, 136)" stroke-width="2px" d="M62.111083333333326,44.59470846436243L74.5333,121.55669038945982L86.95551666666667,128.65344676104462L99.37773333333332,159.25944523377856L111.79995,178.8537574898113L124.22216666666665,174.82904239134356L136.6443833333333,182.16966130516747L149.0666,186.25714448365298L161.48881666666668,182.52827606417918L173.91103333333334,182.63087202202192L186.33325,184.06551539897922L198.75546666666665,186.44540775905958L211.1776833333333,185.1550111445514L223.5999,185.5961594256488L236.02211666666665,185.36214888095859L248.4443333333333,186.25991983847186L260.86654999999996,186.69766805388713L273.2887666666666,186.77993530576882L285.71098333333333,186.68632084673104L298.1332,186.63537106730723L310.55541666666664,186.65180813182485L322.97763333333336,186.6727308251641L335.39985,186.70229705897248L347.8220666666667,186.69009983539584L360.2442833333333,186.7937403917313L372.6665,186.74405027519575L385.0887166666667,186.74362014640462L397.5109333333333,186.77887022495273L409.93315,186.81023890321907L422.3553666666666,186.80035618218508L434.7775833333333,186.79449823769656L447.1998,186.78548601540652L459.6220166666667,186.78262873129412L472.0442333333333,186.78245463154533L484.46645,186.7855474623767L496.8886666666666,186.78734990683472L509.3108833333333,186.78332513028928L521.7330999999999,186.78195281462237L534.1553166666666,186.78340705958283L546.5775333333332,186.7840317704461L558.99975,186.78334561261264L571.4219666666667,186.78443117575213L583.8441833333333,186.7846462401477L596.2664,186.78454382853076L608.6886166666666,186.78472816944125L621.1108333333333,186.7846462401477L633.53305,186.7846667224711L645.9552666666667,186.7846769636328L658.3774833333333,186.78470768711784L670.7997,186.78471792827955" style="fill: none;" fill="none"></path></g><g><path stroke="rgb(51, 187, 238)" stroke-width="2px" d="M62.111083333333326,50.65643158825966L74.5333,35.039192546497745L86.95551666666667,76.02067578922622L99.37773333333332,77.6469927484339L111.79995,82.41613789038229L124.22216666666665,81.11608386039738L136.6443833333333,82.50923005017373L149.0666,73.92260995778176L161.48881666666668,61.597842953421875L173.91103333333334,77.36919099634345L186.33325,90.67651553587484L198.75546666666665,64.52900680628693L211.1776833333333,74.48777870698413L223.5999,70.59542038223962L236.02211666666665,71.50301261381674L248.4443333333333,65.4898530786688L260.86654999999996,65.41363835334782L273.2887666666666,69.77151892401957L285.71098333333333,77.62573209675881L298.1332,74.78167956525633L310.55541666666664,74.29082068529999L322.97763333333336,77.53534360365438L335.39985,70.03139864314691L347.8220666666667,67.76314518668437L360.2442833333333,65.91828183694324L372.6665,64.61593378673903L385.0887166666667,63.54423718018969L397.5109333333333,58.6576463959434L409.93315,56.81442163207316L422.3553666666666,56.89958713271403L434.7775833333333,57.82520380887123L447.1998,57.11456959897824L459.6220166666667,59.14592450315305L472.0442333333333,58.410588611256046L484.46645,58.52111122824931L496.8886666666666,59.043820121071576L509.3108833333333,56.4343106746674L521.7330999999999,57.760827866467594L534.1553166666666,57.82467126846318L546.5775333333332,56.84160167520698L558.99975,55.61108513311911L571.4219666666667,54.913641539487L583.8441833333333,53.85136680169543L596.2664,55.463428063826164L608.6886166666666,54.89344596862797L621.1108333333333,55.52729194814511L633.53305,55.70331703532831L645.9552666666667,55.795774243094726L658.3774833333333,55.53245349363852L670.7997,55.79694173552775" style="fill: none;" fill="none"></path></g><g><path stroke="rgb(204, 51, 17)" stroke-width="2px" d="M62.111083333333326,287.667861960151L74.5333,296.5016678517515L86.95551666666667,300.52615252408117L99.37773333333332,301.59729610789907L111.79995,302.560828124935L124.22216666666665,303.2684181495146L136.6443833333333,303.55756198818034L149.0666,303.5572726753625L161.48881666666668,303.55946684425527L173.91103333333334,303.62399128350347L186.33325,303.69368238882583L198.75546666666665,303.7425250492313L211.1776833333333,303.7674878808585L223.5999,303.77659995447505L236.02211666666665,303.79063034599477L248.4443333333333,303.79310614683413L260.86654999999996,303.79474473270506L273.2887666666666,303.79545137286186L285.71098333333333,303.7957253239372L298.1332,303.7964729287408L310.55541666666664,303.7966623902321L322.97763333333336,303.79676736213946L335.39985,303.796982426535L347.8220666666667,303.797031072053L360.2442833333333,303.79707203669983L372.6665,303.79710532047534L385.0887166666667,303.7971232425083L397.5109333333333,303.797115561637L409.93315,303.7971232425083L422.3553666666666,303.79711812192744L434.7775833333333,303.7971206822179L447.1998,303.79711812192744L459.6220166666667,303.7971258027987L472.0442333333333,303.7971258027987L484.46645,303.7971258027987L496.8886666666666,303.7971258027987L509.3108833333333,303.7971206822179L521.7330999999999,303.7971206822179L534.1553166666666,303.7971206822179L546.5775333333332,303.7971206822179L558.99975,303.7971206822179L571.4219666666667,303.7971206822179L583.8441833333333,303.7971206822179L596.2664,303.7971206822179L608.6886166666666,303.7971206822179L621.1108333333333,303.7971206822179L633.53305,303.7971206822179L645.9552666666667,303.7971206822179L658.3774833333333,303.7971206822179L670.7997,303.7971206822179" style="fill: none;" fill="none"></path></g><g><path stroke="rgb(0, 119, 187)" stroke-width="2px" d="M62.111083333333326,287.94965776530177L74.5333,295.13981353152883L86.95551666666667,297.47902799736374L99.37773333333332,298.1137239933014L111.79995,299.02520274574107L124.22216666666665,296.37982363050634L136.6443833333333,296.168753288009L149.0666,295.5893032388254L161.48881666666668,296.0557215864008L173.91103333333334,295.2432902292772L186.33325,291.73883638598704L198.75546666666665,291.9471672177315L211.1776833333333,292.0747208866206L223.5999,290.60327077453786L236.02211666666665,289.43943443623454L248.4443333333333,289.4949773766778L260.86654999999996,288.50426787679845L273.2887666666666,288.8586223125458L285.71098333333333,288.4181141040542L298.1332,287.8060766783628L310.55541666666664,287.37638825720006L322.97763333333336,286.932157386433L335.39985,286.595786430619L347.8220666666667,286.20147098194474L360.2442833333333,286.0034478794445L372.6665,285.731621845202L385.0887166666667,285.6151235103607L397.5109333333333,285.56844941594386L409.93315,285.5192252722654L422.3553666666666,285.7749317180027L434.7775833333333,285.60351003300065L447.1998,285.57004703716797L459.6220166666667,285.43454110622406L472.0442333333333,285.165905193849L484.46645,284.8970490964976L496.8886666666666,284.74971462379807L509.3108833333333,284.4426077875224L521.7330999999999,284.4070043888959L534.1553166666666,284.4633922251788L546.5775333333332,284.38770491968506L558.99975,284.4479997591539L571.4219666666667,284.4143882664767L583.8441833333333,284.3501096151092L596.2664,284.3260070410642L608.6886166666666,284.33195715600795L621.1108333333333,284.34307393702596L633.53305,284.2897379669276L645.9552666666667,284.33681146665054L658.3774833333333,284.2914123968645L670.7997,284.27958897568965" style="fill: none;" fill="none"></path></g><g><path stroke="rgb(255, 112, 67)" stroke-width="2px" d="M62.111083333333326,256.83223615993154L74.5333,269.60251418027013L86.95551666666667,274.37022555958146L99.37773333333332,276.86334420334214L111.79995,278.170142038302L124.22216666666665,278.98441680453044L136.6443833333333,279.4399180737409L149.0666,279.7241307930513L161.48881666666668,279.90503067320043L173.91103333333334,280.0064591386102L186.33325,280.06768592379314L198.75546666666665,280.10816923596644L211.1776833333333,280.1307714798234L223.5999,280.1445458423008L236.02211666666665,280.1529333537275L248.4443333333333,280.15823315490377L260.86654999999996,280.16152568838817L273.2887666666666,280.1635227149183L285.71098333333333,280.1646594838663L298.1332,280.16540708866984L310.55541666666664,280.16584233804184L322.97763333333336,280.1660983670842L335.39985,280.16625710509044L347.8220666666667,280.1663185520606L360.2442833333333,280.16635951670736L372.6665,280.16636975786906L385.0887166666667,280.16636975786906L397.5109333333333,280.16636975786906L409.93315,280.16636975786906L422.3553666666666,280.1663748784499L434.7775833333333,280.16636975786906L447.1998,280.16636975786906L459.6220166666667,280.16636975786906L472.0442333333333,280.16636975786906L484.46645,280.16636975786906L496.8886666666666,280.16636975786906L509.3108833333333,280.16636975786906L521.7330999999999,280.16636975786906L534.1553166666666,280.16636975786906L546.5775333333332,280.16636975786906L558.99975,280.16636975786906L571.4219666666667,280.16636975786906L583.8441833333333,280.16636975786906L596.2664,280.16636975786906L608.6886166666666,280.16636975786906L621.1108333333333,280.16636975786906L633.53305,280.16636975786906L645.9552666666667,280.16636975786906L658.3774833333333,280.16636975786906L670.7997,280.16636975786906" style="fill: none;" fill="none"></path></g></g></g></g></g><g><g opacity="0.950736"><span fill="rgb(0, 0, 0)" stroke="none" stroke-width="1px">Alt + Scroll to Zoom</span></g></g></g><g transform="translate(50, 378)" clip-path="url(#clip_1)"><clipPath id="clip_1"><rect width="745" height="22"></rect></clipPath><g><g><line x1="0" y1="0" x2="0" y2="5" style="visibility: inherit;" fill="rgb(0, 0, 0)" stroke="rgb(204, 204, 204)" stroke-width="1px"></line><line x1="62.111083333333326" y1="0" x2="62.111083333333326" y2="5" style="visibility: inherit;" fill="rgb(0, 0, 0)" stroke="rgb(204, 204, 204)" stroke-width="1px"></line><line x1="124.22216666666665" y1="0" x2="124.22216666666665" y2="5" style="visibility: inherit;" fill="rgb(0, 0, 0)" stroke="rgb(204, 204, 204)" stroke-width="1px"></line><line x1="186.33325" y1="0" x2="186.33325" y2="5" style="visibility: inherit;" fill="rgb(0, 0, 0)" stroke="rgb(204, 204, 204)" stroke-width="1px"></line><line x1="248.4443333333333" y1="0" x2="248.4443333333333" y2="5" style="visibility: inherit;" fill="rgb(0, 0, 0)" stroke="rgb(204, 204, 204)" stroke-width="1px"></line><line x1="310.55541666666664" y1="0" x2="310.55541666666664" y2="5" style="visibility: inherit;" fill="rgb(0, 0, 0)" stroke="rgb(204, 204, 204)" stroke-width="1px"></line><line x1="372.6665" y1="0" x2="372.6665" y2="5" style="visibility: inherit;" fill="rgb(0, 0, 0)" stroke="rgb(204, 204, 204)" stroke-width="1px"></line><line x1="434.7775833333333" y1="0" x2="434.7775833333333" y2="5" style="visibility: inherit;" fill="rgb(0, 0, 0)" stroke="rgb(204, 204, 204)" stroke-width="1px"></line><line x1="496.8886666666666" y1="0" x2="496.8886666666666" y2="5" style="visibility: inherit;" fill="rgb(0, 0, 0)" stroke="rgb(204, 204, 204)" stroke-width="1px"></line><line x1="558.99975" y1="0" x2="558.99975" y2="5" style="visibility: inherit;" fill="rgb(0, 0, 0)" stroke="rgb(204, 204, 204)" stroke-width="1px"></line><line x1="621.1108333333333" y1="0" x2="621.1108333333333" y2="5" style="visibility: inherit;" fill="rgb(0, 0, 0)" stroke="rgb(204, 204, 204)" stroke-width="1px"></line><line x1="683.2219166666666" y1="0" x2="683.2219166666666" y2="5" style="visibility: inherit;" fill="rgb(0, 0, 0)" stroke="rgb(204, 204, 204)" stroke-width="1px"></line><line x1="745.333" y1="0" x2="745.333" y2="5" style="visibility: inherit;" fill="rgb(0, 0, 0)" stroke="rgb(204, 204, 204)" stroke-width="1px"></line></g><g transform="translate(0, 8)"><text x="0" y="0" dx="0em" dy="0.95em" style="text-anchor: middle; visibility: hidden; font-family: Roboto, sans-serif; font-size: 12px; font-weight: 200;" fill="rgb(50, 49, 63)" stroke="none" stroke-width="1px">-5</text><text x="62.111083333333326" y="0" dx="0em" dy="0.95em" style="text-anchor: middle; visibility: inherit; font-family: Roboto, sans-serif; font-size: 12px; font-weight: 200;" fill="rgb(50, 49, 63)" stroke="none" stroke-width="1px">0</text><text x="124.22216666666665" y="0" dx="0em" dy="0.95em" style="text-anchor: middle; visibility: inherit; font-family: Roboto, sans-serif; font-size: 12px; font-weight: 200;" fill="rgb(50, 49, 63)" stroke="none" stroke-width="1px">5</text><text x="186.33325" y="0" dx="0em" dy="0.95em" style="text-anchor: middle; visibility: inherit; font-family: Roboto, sans-serif; font-size: 12px; font-weight: 200;" fill="rgb(50, 49, 63)" stroke="none" stroke-width="1px">10</text><text x="248.4443333333333" y="0" dx="0em" dy="0.95em" style="text-anchor: middle; visibility: inherit; font-family: Roboto, sans-serif; font-size: 12px; font-weight: 200;" fill="rgb(50, 49, 63)" stroke="none" stroke-width="1px">15</text><text x="310.55541666666664" y="0" dx="0em" dy="0.95em" style="text-anchor: middle; visibility: inherit; font-family: Roboto, sans-serif; font-size: 12px; font-weight: 200;" fill="rgb(50, 49, 63)" stroke="none" stroke-width="1px">20</text><text x="372.6665" y="0" dx="0em" dy="0.95em" style="text-anchor: middle; visibility: inherit; font-family: Roboto, sans-serif; font-size: 12px; font-weight: 200;" fill="rgb(50, 49, 63)" stroke="none" stroke-width="1px">25</text><text x="434.7775833333333" y="0" dx="0em" dy="0.95em" style="text-anchor: middle; visibility: inherit; font-family: Roboto, sans-serif; font-size: 12px; font-weight: 200;" fill="rgb(50, 49, 63)" stroke="none" stroke-width="1px">30</text><text x="496.8886666666666" y="0" dx="0em" dy="0.95em" style="text-anchor: middle; visibility: inherit; font-family: Roboto, sans-serif; font-size: 12px; font-weight: 200;" fill="rgb(50, 49, 63)" stroke="none" stroke-width="1px">35</text><text x="558.99975" y="0" dx="0em" dy="0.95em" style="text-anchor: middle; visibility: inherit; font-family: Roboto, sans-serif; font-size: 12px; font-weight: 200;" fill="rgb(50, 49, 63)" stroke="none" stroke-width="1px">40</text><text x="621.1108333333333" y="0" dx="0em" dy="0.95em" style="text-anchor: middle; visibility: inherit; font-family: Roboto, sans-serif; font-size: 12px; font-weight: 200;" fill="rgb(50, 49, 63)" stroke="none" stroke-width="1px">45</text><text x="683.2219166666666" y="0" dx="0em" dy="0.95em" style="text-anchor: middle; visibility: inherit; font-family: Roboto, sans-serif; font-size: 12px; font-weight: 200;" fill="rgb(50, 49, 63)" stroke="none" stroke-width="1px">50</text><text x="745.333" y="0" dx="0em" dy="0.95em" style="text-anchor: middle; visibility: hidden; font-family: Roboto, sans-serif; font-size: 12px; font-weight: 200;" fill="rgb(50, 49, 63)" stroke="none" stroke-width="1px">55</text></g><line x1="0" y1="0" x2="745.333" y2="0" fill="rgb(0, 0, 0)" stroke="rgb(204, 204, 204)" stroke-width="1px"></line></g></g></g></g></svg>