<svg viewBox="0 0 603 400" xmlns="http://www.w3.org/2000/svg"><g><g><g><g><g><line x1="50" y1="378" x2="45" y2="378" style="visibility: inherit;" fill="rgb(0, 0, 0)" stroke="rgb(204, 204, 204)" stroke-width="1px"></line><line x1="50" y1="346.50000000000034" x2="45" y2="346.50000000000034" style="visibility: inherit;" fill="rgb(0, 0, 0)" stroke="rgb(204, 204, 204)" stroke-width="1px"></line><line x1="50" y1="315.0000000000003" x2="45" y2="315.0000000000003" style="visibility: inherit;" fill="rgb(0, 0, 0)" stroke="rgb(204, 204, 204)" stroke-width="1px"></line><line x1="50" y1="283.5000000000002" x2="45" y2="283.5000000000002" style="visibility: inherit;" fill="rgb(0, 0, 0)" stroke="rgb(204, 204, 204)" stroke-width="1px"></line><line x1="50" y1="252.00000000000023" x2="45" y2="252.00000000000023" style="visibility: inherit;" fill="rgb(0, 0, 0)" stroke="rgb(204, 204, 204)" stroke-width="1px"></line><line x1="50" y1="220.50000000000023" x2="45" y2="220.50000000000023" style="visibility: inherit;" fill="rgb(0, 0, 0)" stroke="rgb(204, 204, 204)" stroke-width="1px"></line><line x1="50" y1="189.00000000000017" x2="45" y2="189.00000000000017" style="visibility: inherit;" fill="rgb(0, 0, 0)" stroke="rgb(204, 204, 204)" stroke-width="1px"></line><line x1="50" y1="157.50000000000014" x2="45" y2="157.50000000000014" style="visibility: inherit;" fill="rgb(0, 0, 0)" stroke="rgb(204, 204, 204)" stroke-width="1px"></line><line x1="50" y1="126.0000000000001" x2="45" y2="126.0000000000001" style="visibility: inherit;" fill="rgb(0, 0, 0)" stroke="rgb(204, 204, 204)" stroke-width="1px"></line><line x1="50" y1="94.50000000000009" x2="45" y2="94.50000000000009" style="visibility: inherit;" fill="rgb(0, 0, 0)" stroke="rgb(204, 204, 204)" stroke-width="1px"></line><line x1="50" y1="63.00000000000007" x2="45" y2="63.00000000000007" style="visibility: inherit;" fill="rgb(0, 0, 0)" stroke="rgb(204, 204, 204)" stroke-width="1px"></line><line x1="50" y1="31.500000000000014" x2="45" y2="31.500000000000014" style="visibility: inherit;" fill="rgb(0, 0, 0)" stroke="rgb(204, 204, 204)" stroke-width="1px"></line><line x1="50" y1="0" x2="45" y2="0" style="visibility: inherit;" fill="rgb(0, 0, 0)" stroke="rgb(204, 204, 204)" stroke-width="1px"></line></g><g transform="translate(40, 0)"><text x="0" y="378" dx="0em" dy="0.3em" style="text-anchor: end; visibility: hidden; font-family: Roboto, sans-serif; font-size: 12px; font-weight: 200;" fill="rgb(50, 49, 63)" stroke="none" stroke-width="1px">0.81</text><text x="0" y="346.50000000000034" dx="0em" dy="0.3em" style="text-anchor: end; visibility: inherit; font-family: Roboto, sans-serif; font-size: 12px; font-weight: 200;" fill="rgb(50, 49, 63)" stroke="none" stroke-width="1px">0.82</text><text x="0" y="315.0000000000003" dx="0em" dy="0.3em" style="text-anchor: end; visibility: inherit; font-family: Roboto, sans-serif; font-size: 12px; font-weight: 200;" fill="rgb(50, 49, 63)" stroke="none" stroke-width="1px">0.83</text><text x="0" y="283.5000000000002" dx="0em" dy="0.3em" style="text-anchor: end; visibility: inherit; font-family: Roboto, sans-serif; font-size: 12px; font-weight: 200;" fill="rgb(50, 49, 63)" stroke="none" stroke-width="1px">0.84</text><text x="0" y="252.00000000000023" dx="0em" dy="0.3em" style="text-anchor: end; visibility: inherit; font-family: Roboto, sans-serif; font-size: 12px; font-weight: 200;" fill="rgb(50, 49, 63)" stroke="none" stroke-width="1px">0.85</text><text x="0" y="220.50000000000023" dx="0em" dy="0.3em" style="text-anchor: end; visibility: inherit; font-family: Roboto, sans-serif; font-size: 12px; font-weight: 200;" fill="rgb(50, 49, 63)" stroke="none" stroke-width="1px">0.86</text><text x="0" y="189.00000000000017" dx="0em" dy="0.3em" style="text-anchor: end; visibility: inherit; font-family: Roboto, sans-serif; font-size: 12px; font-weight: 200;" fill="rgb(50, 49, 63)" stroke="none" stroke-width="1px">0.87</text><text x="0" y="157.50000000000014" dx="0em" dy="0.3em" style="text-anchor: end; visibility: inherit; font-family: Roboto, sans-serif; font-size: 12px; font-weight: 200;" fill="rgb(50, 49, 63)" stroke="none" stroke-width="1px">0.88</text><text x="0" y="126.0000000000001" dx="0em" dy="0.3em" style="text-anchor: end; visibility: inherit; font-family: Roboto, sans-serif; font-size: 12px; font-weight: 200;" fill="rgb(50, 49, 63)" stroke="none" stroke-width="1px">0.89</text><text x="0" y="94.50000000000009" dx="0em" dy="0.3em" style="text-anchor: end; visibility: inherit; font-family: Roboto, sans-serif; font-size: 12px; font-weight: 200;" fill="rgb(50, 49, 63)" stroke="none" stroke-width="1px">0.9</text><text x="0" y="63.00000000000007" dx="0em" dy="0.3em" style="text-anchor: end; visibility: inherit; font-family: Roboto, sans-serif; font-size: 12px; font-weight: 200;" fill="rgb(50, 49, 63)" stroke="none" stroke-width="1px">0.91</text><text x="0" y="31.500000000000014" dx="0em" dy="0.3em" style="text-anchor: end; visibility: inherit; font-family: Roboto, sans-serif; font-size: 12px; font-weight: 200;" fill="rgb(50, 49, 63)" stroke="none" stroke-width="1px">0.92</text><text x="0" y="0" dx="0em" dy="0.3em" style="text-anchor: end; visibility: hidden; font-family: Roboto, sans-serif; font-size: 12px; font-weight: 200;" fill="rgb(50, 49, 63)" stroke="none" stroke-width="1px">0.93</text></g><line x1="50" y1="0" x2="50" y2="378" fill="rgb(0, 0, 0)" stroke="rgb(204, 204, 204)" stroke-width="1px"></line></g></g><g transform="translate(50, 0)" clip-path="url(#clip_0)"><clipPath id="clip_0"><rect width="553" height="378"></rect></clipPath><g><g><g><line x1="0" y1="0" x2="0" y2="378" fill="rgb(0, 0, 0)" stroke="rgb(60, 60, 60)" stroke-width="1px" opacity="0.25"></line><line x1="46.08333333333333" y1="0" x2="46.08333333333333" y2="378" fill="rgb(0, 0, 0)" stroke="rgb(60, 60, 60)" stroke-width="1px" opacity="0.25"></line><line x1="92.16666666666666" y1="0" x2="92.16666666666666" y2="378" fill="rgb(0, 0, 0)" stroke="rgb(60, 60, 60)" stroke-width="1px" opacity="0.25"></line><line x1="138.25" y1="0" x2="138.25" y2="378" fill="rgb(0, 0, 0)" stroke="rgb(60, 60, 60)" stroke-width="1px" opacity="0.25"></line><line x1="184.33333333333331" y1="0" x2="184.33333333333331" y2="378" fill="rgb(0, 0, 0)" stroke="rgb(60, 60, 60)" stroke-width="1px" opacity="0.25"></line><line x1="230.41666666666669" y1="0" x2="230.41666666666669" y2="378" fill="rgb(0, 0, 0)" stroke="rgb(60, 60, 60)" stroke-width="1px" opacity="0.25"></line><line x1="276.5" y1="0" x2="276.5" y2="378" fill="rgb(0, 0, 0)" stroke="rgb(60, 60, 60)" stroke-width="1px" opacity="0.25"></line><line x1="322.58333333333337" y1="0" x2="322.58333333333337" y2="378" fill="rgb(0, 0, 0)" stroke="rgb(60, 60, 60)" stroke-width="1px" opacity="0.25"></line><line x1="368.66666666666663" y1="0" x2="368.66666666666663" y2="378" fill="rgb(0, 0, 0)" stroke="rgb(60, 60, 60)" stroke-width="1px" opacity="0.25"></line><line x1="414.75" y1="0" x2="414.75" y2="378" fill="rgb(0, 0, 0)" stroke="rgb(60, 60, 60)" stroke-width="1px" opacity="0.25"></line><line x1="460.83333333333337" y1="0" x2="460.83333333333337" y2="378" fill="rgb(0, 0, 0)" stroke="rgb(60, 60, 60)" stroke-width="1px" opacity="0.25"></line><line x1="506.91666666666663" y1="0" x2="506.91666666666663" y2="378" fill="rgb(0, 0, 0)" stroke="rgb(60, 60, 60)" stroke-width="1px" opacity="0.25"></line><line x1="553" y1="0" x2="553" y2="378" fill="rgb(0, 0, 0)" stroke="rgb(60, 60, 60)" stroke-width="1px" opacity="0.25"></line></g><g><line x1="0" y1="378" x2="553" y2="378" fill="rgb(0, 0, 0)" stroke="rgb(60, 60, 60)" stroke-width="1px" opacity="0.25"></line><line x1="0" y1="346.50000000000034" x2="553" y2="346.50000000000034" fill="rgb(0, 0, 0)" stroke="rgb(60, 60, 60)" stroke-width="1px" opacity="0.25"></line><line x1="0" y1="315.0000000000003" x2="553" y2="315.0000000000003" fill="rgb(0, 0, 0)" stroke="rgb(60, 60, 60)" stroke-width="1px" opacity="0.25"></line><line x1="0" y1="283.5000000000002" x2="553" y2="283.5000000000002" fill="rgb(0, 0, 0)" stroke="rgb(60, 60, 60)" stroke-width="1px" opacity="0.25"></line><line x1="0" y1="252.00000000000023" x2="553" y2="252.00000000000023" fill="rgb(0, 0, 0)" stroke="rgb(60, 60, 60)" stroke-width="1px" opacity="0.25"></line><line x1="0" y1="220.50000000000023" x2="553" y2="220.50000000000023" fill="rgb(0, 0, 0)" stroke="rgb(60, 60, 60)" stroke-width="1px" opacity="0.25"></line><line x1="0" y1="189.00000000000017" x2="553" y2="189.00000000000017" fill="rgb(0, 0, 0)" stroke="rgb(60, 60, 60)" stroke-width="1px" opacity="0.25"></line><line x1="0" y1="157.50000000000014" x2="553" y2="157.50000000000014" fill="rgb(0, 0, 0)" stroke="rgb(60, 60, 60)" stroke-width="1px" opacity="0.25"></line><line x1="0" y1="126.0000000000001" x2="553" y2="126.0000000000001" fill="rgb(0, 0, 0)" stroke="rgb(60, 60, 60)" stroke-width="1px" opacity="0.25"></line><line x1="0" y1="94.50000000000009" x2="553" y2="94.50000000000009" fill="rgb(0, 0, 0)" stroke="rgb(60, 60, 60)" stroke-width="1px" opacity="0.25"></line><line x1="0" y1="63.00000000000007" x2="553" y2="63.00000000000007" fill="rgb(0, 0, 0)" stroke="rgb(60, 60, 60)" stroke-width="1px" opacity="0.25"></line><line x1="0" y1="31.500000000000014" x2="553" y2="31.500000000000014" fill="rgb(0, 0, 0)" stroke="rgb(60, 60, 60)" stroke-width="1px" opacity="0.25"></line><line x1="0" y1="0" x2="553" y2="0" fill="rgb(0, 0, 0)" stroke="rgb(60, 60, 60)" stroke-width="1px" opacity="0.25"></line></g></g></g><g><g><line x1="0" y1="2929.5000000000005" x2="553" y2="2929.5000000000005" fill="rgb(0, 0, 0)" stroke="rgb(153, 153, 153)" stroke-width="1.5px"></line></g></g><g><g><line x1="46.08333333333333" y1="0" x2="46.08333333333333" y2="378" fill="rgb(0, 0, 0)" stroke="rgb(153, 153, 153)" stroke-width="1.5px"></line></g></g><g><g><g><g><g><path stroke="rgb(0, 119, 187)" stroke-width="2px" d="M46.08333333333333,376.2994987964632L55.300000000000004,312.3277409076692L64.51666666666667,269.4100363254549L73.73333333333333,234.59000122547164L82.95,220.82383167743697L92.16666666666666,207.05784988403335L101.38333333333333,202.19913554191604L110.60000000000001,194.91125178337114L119.81666666666668,181.1452699899675L129.03333333333333,177.09634137153643L138.25,179.52569854259508L147.46666666666667,173.85738623142257L156.68333333333334,173.85738623142257L165.9,171.4280290603639L175.11666666666665,168.99867188930526L184.33333333333331,171.4280290603639L193.54999999999998,165.75971674919143L202.76666666666665,164.9499310255052L211.98333333333335,161.71078813076036L221.20000000000002,163.33035957813277L230.41666666666669,164.9499310255052L239.63333333333335,164.9499310255052L248.85,167.37910044193282L258.06666666666666,161.71078813076036L267.28333333333336,164.14014530181902L276.5,163.33035957813277L285.7166666666667,161.71078813076036L294.93333333333334,161.71078813076036L304.15000000000003,162.52057385444655L313.3666666666667,162.52057385444655L322.58333333333337,160.90100240707412L331.8,160.90100240707412L341.0166666666667,160.90100240707412L350.2333333333333,160.90100240707412L359.45,160.90100240707412L368.66666666666663,160.90100240707412L377.8833333333333,160.90100240707412L387.09999999999997,160.90100240707412L396.31666666666666,160.90100240707412L405.5333333333333,160.90100240707412L414.75,160.90100240707412L423.9666666666667,160.90100240707412L433.18333333333334,159.2814309597017L442.40000000000003,159.2814309597017L451.6166666666667,159.2814309597017L460.83333333333337,159.2814309597017L470.05,159.2814309597017L479.2666666666667,159.2814309597017L488.4833333333333,159.2814309597017L497.7,159.2814309597017" style="fill: none;" fill="none"></path></g><g><path stroke="rgb(255, 112, 67)" stroke-width="2px" d="M46.08333333333333,702.6170475482942L55.300000000000004,340.7353920936586L64.51666666666667,261.4188237190248L73.73333333333333,219.99020111560836L82.95,172.54178953170793L92.16666666666666,162.27311325073256L101.38333333333333,147.75536191463488L110.60000000000001,132.5294001102449L119.81666666666668,121.19859588146227L129.03333333333333,107.03476202487963L138.25,109.51349866390244L147.46666666666667,94.6416420936586L156.68333333333334,98.89071714878096L165.9,98.89071714878096L175.11666666666665,90.0384618043901L184.33333333333331,78.70746982097641L193.54999999999998,76.93713140487687L202.76666666666665,80.47799599170702L211.98333333333335,82.24833440780657L221.20000000000002,74.81250000000016L230.41666666666669,77.29104888439196L239.63333333333335,72.33395111560836L248.85,74.81250000000016L258.06666666666666,71.97984588146225L267.28333333333336,77.99925935268416L276.5,75.5207104682924L285.7166666666667,65.96024465560929L294.93333333333334,70.5634249448778L304.15000000000003,66.66845512390154L313.3666666666667,80.83210122585312L322.58333333333337,66.31434988975539L331.8,76.93713140487687L341.0166666666667,74.1042895317079L350.2333333333333,73.3960790634157L359.45,62.773297548294224L368.66666666666663,70.5634249448778L377.8833333333333,73.3960790634157L387.09999999999997,65.60613942146318L396.31666666666666,68.43879354000109L405.5333333333333,69.85521447658554L414.75,70.9175301790239L423.9666666666667,69.50110924243944L433.18333333333334,64.18971848487868L442.40000000000003,62.06527483463303L451.6166666666667,65.25203418731704L460.83333333333337,62.773297548294224L470.05,73.04197382926955L479.2666666666667,73.04197382926955L488.4833333333333,65.60613942146318L497.7,65.60613942146318" style="fill: none;" fill="none"></path></g><g><path stroke="rgb(51, 187, 238)" stroke-width="2px" d="M46.08333333333333,368.20182931423204L55.300000000000004,296.13240194320696L64.51666666666667,256.4536525011064L73.73333333333333,229.73128688335433L82.95,215.9653050899507L92.16666666666666,207.86763560771956L101.38333333333333,200.57975184917464L110.60000000000001,196.53082323074355L119.81666666666668,183.57462716102614L129.03333333333333,183.57462716102614L138.25,176.28655564785018L147.46666666666667,172.23781478405013L156.68333333333334,174.66717195510878L165.9,170.61824333667772L175.11666666666665,166.56950247287767L184.33333333333331,160.90100240707412L193.54999999999998,160.0912166833879L202.76666666666665,161.71078813076036L211.98333333333335,159.2814309597017L221.20000000000002,158.47164523601546L230.41666666666669,156.04247581958785L239.63333333333335,158.47164523601546L248.85,157.66204726696031L258.06666666666666,156.85226154327407L267.28333333333336,155.23269009590166L276.5,150.37397575378435L285.7166666666667,153.6131186485292L294.93333333333334,151.18376147747054L304.15000000000003,152.803332924843L313.3666666666667,152.803332924843L322.58333333333337,151.99354720115676L331.8,151.18376147747054L341.0166666666667,154.4229043722154L350.2333333333333,154.4229043722154L359.45,153.6131186485292L368.66666666666663,154.4229043722154L377.8833333333333,153.6131186485292L387.09999999999997,152.803332924843L396.31666666666666,151.99354720115676L405.5333333333333,151.18376147747054L414.75,150.37397575378435L423.9666666666667,150.37397575378435L433.18333333333334,149.5641900300981L442.40000000000003,149.5641900300981L451.6166666666667,149.5641900300981L460.83333333333337,149.5641900300981L470.05,149.5641900300981L479.2666666666667,149.5641900300981L488.4833333333333,149.5641900300981L497.7,147.9448063373567" style="fill: none;" fill="none"></path></g><g><path stroke="rgb(204, 51, 17)" stroke-width="2px" d="M46.08333333333333,683.142010688782L55.300000000000004,346.40088808536547L64.51666666666667,273.8121314048769L73.73333333333333,229.55066692829146L82.95,190.60040545463576L92.16666666666666,168.64681971073168L101.38333333333333,154.48317360878005L110.60000000000001,147.0471514463426L119.81666666666668,124.73946046829238L129.03333333333333,117.30343830585495L138.25,104.20210790634172L147.46666666666667,99.95303285121932L156.68333333333334,88.62204086780564L165.9,88.26793563365953L175.11666666666665,87.55972516536728L184.33333333333331,76.22892093658461L193.54999999999998,77.64515411853806L202.76666666666665,71.27163541317L211.98333333333335,73.3960790634157L221.20000000000002,72.33395111560836L230.41666666666669,67.02256035804764L239.63333333333335,61.35706436634078L248.85,62.773297548294224L258.06666666666666,59.23243296146407L267.28333333333336,70.20931971073165L276.5,57.81601202487961L285.7166666666667,60.294748663902425L294.93333333333334,56.04567360878006L304.15000000000003,58.878327727317966L313.3666666666667,66.31434988975539L322.58333333333337,51.08838808536545L331.8,52.858726501465L341.0166666666667,58.170117259025716L350.2333333333333,50.0260723829271L359.45,53.56693696975725L368.66666666666663,54.629252672195605L377.8833333333333,48.60965144634264L387.09999999999997,57.81601202487961L396.31666666666666,60.294748663902425L405.5333333333333,56.39977884292617L414.75,59.23243296146407L423.9666666666667,49.31786191463485L433.18333333333334,55.33746314048781L442.40000000000003,52.50480902194991L451.6166666666667,48.96375668048874L460.83333333333337,44.71468162536638L470.05,43.65236592292803L479.2666666666667,51.7965985536577L488.4833333333333,50.3801776170732L497.7,48.96375668048874" style="fill: none;" fill="none"></path></g></g></g></g></g></g><g transform="translate(50, 378)" clip-path="url(#clip_1)"><clipPath id="clip_1"><rect width="553" height="22"></rect></clipPath><g><g><line x1="0" y1="0" x2="0" y2="5" style="visibility: inherit;" fill="rgb(0, 0, 0)" stroke="rgb(204, 204, 204)" stroke-width="1px"></line><line x1="46.08333333333333" y1="0" x2="46.08333333333333" y2="5" style="visibility: inherit;" fill="rgb(0, 0, 0)" stroke="rgb(204, 204, 204)" stroke-width="1px"></line><line x1="92.16666666666666" y1="0" x2="92.16666666666666" y2="5" style="visibility: inherit;" fill="rgb(0, 0, 0)" stroke="rgb(204, 204, 204)" stroke-width="1px"></line><line x1="138.25" y1="0" x2="138.25" y2="5" style="visibility: inherit;" fill="rgb(0, 0, 0)" stroke="rgb(204, 204, 204)" stroke-width="1px"></line><line x1="184.33333333333331" y1="0" x2="184.33333333333331" y2="5" style="visibility: inherit;" fill="rgb(0, 0, 0)" stroke="rgb(204, 204, 204)" stroke-width="1px"></line><line x1="230.41666666666669" y1="0" x2="230.41666666666669" y2="5" style="visibility: inherit;" fill="rgb(0, 0, 0)" stroke="rgb(204, 204, 204)" stroke-width="1px"></line><line x1="276.5" y1="0" x2="276.5" y2="5" style="visibility: inherit;" fill="rgb(0, 0, 0)" stroke="rgb(204, 204, 204)" stroke-width="1px"></line><line x1="322.58333333333337" y1="0" x2="322.58333333333337" y2="5" style="visibility: inherit;" fill="rgb(0, 0, 0)" stroke="rgb(204, 204, 204)" stroke-width="1px"></line><line x1="368.66666666666663" y1="0" x2="368.66666666666663" y2="5" style="visibility: inherit;" fill="rgb(0, 0, 0)" stroke="rgb(204, 204, 204)" stroke-width="1px"></line><line x1="414.75" y1="0" x2="414.75" y2="5" style="visibility: inherit;" fill="rgb(0, 0, 0)" stroke="rgb(204, 204, 204)" stroke-width="1px"></line><line x1="460.83333333333337" y1="0" x2="460.83333333333337" y2="5" style="visibility: inherit;" fill="rgb(0, 0, 0)" stroke="rgb(204, 204, 204)" stroke-width="1px"></line><line x1="506.91666666666663" y1="0" x2="506.91666666666663" y2="5" style="visibility: inherit;" fill="rgb(0, 0, 0)" stroke="rgb(204, 204, 204)" stroke-width="1px"></line><line x1="553" y1="0" x2="553" y2="5" style="visibility: inherit;" fill="rgb(0, 0, 0)" stroke="rgb(204, 204, 204)" stroke-width="1px"></line></g><g transform="translate(0, 8)"><text x="0" y="0" dx="0em" dy="0.95em" style="text-anchor: middle; visibility: hidden; font-family: Roboto, sans-serif; font-size: 12px; font-weight: 200;" fill="rgb(50, 49, 63)" stroke="none" stroke-width="1px">-5</text><text x="46.08333333333333" y="0" dx="0em" dy="0.95em" style="text-anchor: middle; visibility: inherit; font-family: Roboto, sans-serif; font-size: 12px; font-weight: 200;" fill="rgb(50, 49, 63)" stroke="none" stroke-width="1px">0</text><text x="92.16666666666666" y="0" dx="0em" dy="0.95em" style="text-anchor: middle; visibility: inherit; font-family: Roboto, sans-serif; font-size: 12px; font-weight: 200;" fill="rgb(50, 49, 63)" stroke="none" stroke-width="1px">5</text><text x="138.25" y="0" dx="0em" dy="0.95em" style="text-anchor: middle; visibility: inherit; font-family: Roboto, sans-serif; font-size: 12px; font-weight: 200;" fill="rgb(50, 49, 63)" stroke="none" stroke-width="1px">10</text><text x="184.33333333333331" y="0" dx="0em" dy="0.95em" style="text-anchor: middle; visibility: inherit; font-family: Roboto, sans-serif; font-size: 12px; font-weight: 200;" fill="rgb(50, 49, 63)" stroke="none" stroke-width="1px">15</text><text x="230.41666666666669" y="0" dx="0em" dy="0.95em" style="text-anchor: middle; visibility: inherit; font-family: Roboto, sans-serif; font-size: 12px; font-weight: 200;" fill="rgb(50, 49, 63)" stroke="none" stroke-width="1px">20</text><text x="276.5" y="0" dx="0em" dy="0.95em" style="text-anchor: middle; visibility: inherit; font-family: Roboto, sans-serif; font-size: 12px; font-weight: 200;" fill="rgb(50, 49, 63)" stroke="none" stroke-width="1px">25</text><text x="322.58333333333337" y="0" dx="0em" dy="0.95em" style="text-anchor: middle; visibility: inherit; font-family: Roboto, sans-serif; font-size: 12px; font-weight: 200;" fill="rgb(50, 49, 63)" stroke="none" stroke-width="1px">30</text><text x="368.66666666666663" y="0" dx="0em" dy="0.95em" style="text-anchor: middle; visibility: inherit; font-family: Roboto, sans-serif; font-size: 12px; font-weight: 200;" fill="rgb(50, 49, 63)" stroke="none" stroke-width="1px">35</text><text x="414.75" y="0" dx="0em" dy="0.95em" style="text-anchor: middle; visibility: inherit; font-family: Roboto, sans-serif; font-size: 12px; font-weight: 200;" fill="rgb(50, 49, 63)" stroke="none" stroke-width="1px">40</text><text x="460.83333333333337" y="0" dx="0em" dy="0.95em" style="text-anchor: middle; visibility: inherit; font-family: Roboto, sans-serif; font-size: 12px; font-weight: 200;" fill="rgb(50, 49, 63)" stroke="none" stroke-width="1px">45</text><text x="506.91666666666663" y="0" dx="0em" dy="0.95em" style="text-anchor: middle; visibility: inherit; font-family: Roboto, sans-serif; font-size: 12px; font-weight: 200;" fill="rgb(50, 49, 63)" stroke="none" stroke-width="1px">50</text><text x="553" y="0" dx="0em" dy="0.95em" style="text-anchor: middle; visibility: hidden; font-family: Roboto, sans-serif; font-size: 12px; font-weight: 200;" fill="rgb(50, 49, 63)" stroke="none" stroke-width="1px">55</text></g><line x1="0" y1="0" x2="553" y2="0" fill="rgb(0, 0, 0)" stroke="rgb(204, 204, 204)" stroke-width="1px"></line></g></g></g></g></svg>