<svg viewBox="0 0 795.3333740234375 400" xmlns="http://www.w3.org/2000/svg"><g><g><g><g><g><line x1="50" y1="378" x2="45" y2="378" style="visibility: inherit;" fill="rgb(0, 0, 0)" stroke="rgb(204, 204, 204)" stroke-width="1px"></line><line x1="50" y1="340.2" x2="45" y2="340.2" style="visibility: inherit;" fill="rgb(0, 0, 0)" stroke="rgb(204, 204, 204)" stroke-width="1px"></line><line x1="50" y1="302.3999999999999" x2="45" y2="302.3999999999999" style="visibility: inherit;" fill="rgb(0, 0, 0)" stroke="rgb(204, 204, 204)" stroke-width="1px"></line><line x1="50" y1="264.6000000000001" x2="45" y2="264.6000000000001" style="visibility: inherit;" fill="rgb(0, 0, 0)" stroke="rgb(204, 204, 204)" stroke-width="1px"></line><line x1="50" y1="226.80000000000004" x2="45" y2="226.80000000000004" style="visibility: inherit;" fill="rgb(0, 0, 0)" stroke="rgb(204, 204, 204)" stroke-width="1px"></line><line x1="50" y1="189" x2="45" y2="189" style="visibility: inherit;" fill="rgb(0, 0, 0)" stroke="rgb(204, 204, 204)" stroke-width="1px"></line><line x1="50" y1="151.19999999999996" x2="45" y2="151.19999999999996" style="visibility: inherit;" fill="rgb(0, 0, 0)" stroke="rgb(204, 204, 204)" stroke-width="1px"></line><line x1="50" y1="113.39999999999993" x2="45" y2="113.39999999999993" style="visibility: inherit;" fill="rgb(0, 0, 0)" stroke="rgb(204, 204, 204)" stroke-width="1px"></line><line x1="50" y1="75.59999999999985" x2="45" y2="75.59999999999985" style="visibility: inherit;" fill="rgb(0, 0, 0)" stroke="rgb(204, 204, 204)" stroke-width="1px"></line><line x1="50" y1="37.80000000000003" x2="45" y2="37.80000000000003" style="visibility: inherit;" fill="rgb(0, 0, 0)" stroke="rgb(204, 204, 204)" stroke-width="1px"></line><line x1="50" y1="0" x2="45" y2="0" style="visibility: inherit;" fill="rgb(0, 0, 0)" stroke="rgb(204, 204, 204)" stroke-width="1px"></line></g><g transform="translate(40, 0)"><text x="0" y="378" dx="0em" dy="0.3em" style="text-anchor: end; visibility: hidden; font-family: Roboto, sans-serif; font-size: 12px; font-weight: 200;" fill="rgb(50, 49, 63)" stroke="none" stroke-width="1px">0.76</text><text x="0" y="340.2" dx="0em" dy="0.3em" style="text-anchor: end; visibility: inherit; font-family: Roboto, sans-serif; font-size: 12px; font-weight: 200;" fill="rgb(50, 49, 63)" stroke="none" stroke-width="1px">0.78</text><text x="0" y="302.3999999999999" dx="0em" dy="0.3em" style="text-anchor: end; visibility: inherit; font-family: Roboto, sans-serif; font-size: 12px; font-weight: 200;" fill="rgb(50, 49, 63)" stroke="none" stroke-width="1px">0.8</text><text x="0" y="264.6000000000001" dx="0em" dy="0.3em" style="text-anchor: end; visibility: inherit; font-family: Roboto, sans-serif; font-size: 12px; font-weight: 200;" fill="rgb(50, 49, 63)" stroke="none" stroke-width="1px">0.82</text><text x="0" y="226.80000000000004" dx="0em" dy="0.3em" style="text-anchor: end; visibility: inherit; font-family: Roboto, sans-serif; font-size: 12px; font-weight: 200;" fill="rgb(50, 49, 63)" stroke="none" stroke-width="1px">0.84</text><text x="0" y="189" dx="0em" dy="0.3em" style="text-anchor: end; visibility: inherit; font-family: Roboto, sans-serif; font-size: 12px; font-weight: 200;" fill="rgb(50, 49, 63)" stroke="none" stroke-width="1px">0.86</text><text x="0" y="151.19999999999996" dx="0em" dy="0.3em" style="text-anchor: end; visibility: inherit; font-family: Roboto, sans-serif; font-size: 12px; font-weight: 200;" fill="rgb(50, 49, 63)" stroke="none" stroke-width="1px">0.88</text><text x="0" y="113.39999999999993" dx="0em" dy="0.3em" style="text-anchor: end; visibility: inherit; font-family: Roboto, sans-serif; font-size: 12px; font-weight: 200;" fill="rgb(50, 49, 63)" stroke="none" stroke-width="1px">0.9</text><text x="0" y="75.59999999999985" dx="0em" dy="0.3em" style="text-anchor: end; visibility: inherit; font-family: Roboto, sans-serif; font-size: 12px; font-weight: 200;" fill="rgb(50, 49, 63)" stroke="none" stroke-width="1px">0.92</text><text x="0" y="37.80000000000003" dx="0em" dy="0.3em" style="text-anchor: end; visibility: inherit; font-family: Roboto, sans-serif; font-size: 12px; font-weight: 200;" fill="rgb(50, 49, 63)" stroke="none" stroke-width="1px">0.94</text><text x="0" y="0" dx="0em" dy="0.3em" style="text-anchor: end; visibility: hidden; font-family: Roboto, sans-serif; font-size: 12px; font-weight: 200;" fill="rgb(50, 49, 63)" stroke="none" stroke-width="1px">0.96</text></g><line x1="50" y1="0" x2="50" y2="378" fill="rgb(0, 0, 0)" stroke="rgb(204, 204, 204)" stroke-width="1px"></line></g></g><g transform="translate(50, 0)" clip-path="url(#clip_0)"><clipPath id="clip_0"><rect width="745" height="378"></rect></clipPath><g><g><g><line x1="0" y1="0" x2="0" y2="378" fill="rgb(0, 0, 0)" stroke="rgb(60, 60, 60)" stroke-width="1px" opacity="0.25"></line><line x1="62.111083333333326" y1="0" x2="62.111083333333326" y2="378" fill="rgb(0, 0, 0)" stroke="rgb(60, 60, 60)" stroke-width="1px" opacity="0.25"></line><line x1="124.22216666666665" y1="0" x2="124.22216666666665" y2="378" fill="rgb(0, 0, 0)" stroke="rgb(60, 60, 60)" stroke-width="1px" opacity="0.25"></line><line x1="186.33325" y1="0" x2="186.33325" y2="378" fill="rgb(0, 0, 0)" stroke="rgb(60, 60, 60)" stroke-width="1px" opacity="0.25"></line><line x1="248.4443333333333" y1="0" x2="248.4443333333333" y2="378" fill="rgb(0, 0, 0)" stroke="rgb(60, 60, 60)" stroke-width="1px" opacity="0.25"></line><line x1="310.55541666666664" y1="0" x2="310.55541666666664" y2="378" fill="rgb(0, 0, 0)" stroke="rgb(60, 60, 60)" stroke-width="1px" opacity="0.25"></line><line x1="372.6665" y1="0" x2="372.6665" y2="378" fill="rgb(0, 0, 0)" stroke="rgb(60, 60, 60)" stroke-width="1px" opacity="0.25"></line><line x1="434.7775833333333" y1="0" x2="434.7775833333333" y2="378" fill="rgb(0, 0, 0)" stroke="rgb(60, 60, 60)" stroke-width="1px" opacity="0.25"></line><line x1="496.8886666666666" y1="0" x2="496.8886666666666" y2="378" fill="rgb(0, 0, 0)" stroke="rgb(60, 60, 60)" stroke-width="1px" opacity="0.25"></line><line x1="558.99975" y1="0" x2="558.99975" y2="378" fill="rgb(0, 0, 0)" stroke="rgb(60, 60, 60)" stroke-width="1px" opacity="0.25"></line><line x1="621.1108333333333" y1="0" x2="621.1108333333333" y2="378" fill="rgb(0, 0, 0)" stroke="rgb(60, 60, 60)" stroke-width="1px" opacity="0.25"></line><line x1="683.2219166666666" y1="0" x2="683.2219166666666" y2="378" fill="rgb(0, 0, 0)" stroke="rgb(60, 60, 60)" stroke-width="1px" opacity="0.25"></line><line x1="745.333" y1="0" x2="745.333" y2="378" fill="rgb(0, 0, 0)" stroke="rgb(60, 60, 60)" stroke-width="1px" opacity="0.25"></line></g><g><line x1="0" y1="378" x2="745.333" y2="378" fill="rgb(0, 0, 0)" stroke="rgb(60, 60, 60)" stroke-width="1px" opacity="0.25"></line><line x1="0" y1="340.2" x2="745.333" y2="340.2" fill="rgb(0, 0, 0)" stroke="rgb(60, 60, 60)" stroke-width="1px" opacity="0.25"></line><line x1="0" y1="302.3999999999999" x2="745.333" y2="302.3999999999999" fill="rgb(0, 0, 0)" stroke="rgb(60, 60, 60)" stroke-width="1px" opacity="0.25"></line><line x1="0" y1="264.6000000000001" x2="745.333" y2="264.6000000000001" fill="rgb(0, 0, 0)" stroke="rgb(60, 60, 60)" stroke-width="1px" opacity="0.25"></line><line x1="0" y1="226.80000000000004" x2="745.333" y2="226.80000000000004" fill="rgb(0, 0, 0)" stroke="rgb(60, 60, 60)" stroke-width="1px" opacity="0.25"></line><line x1="0" y1="189" x2="745.333" y2="189" fill="rgb(0, 0, 0)" stroke="rgb(60, 60, 60)" stroke-width="1px" opacity="0.25"></line><line x1="0" y1="151.19999999999996" x2="745.333" y2="151.19999999999996" fill="rgb(0, 0, 0)" stroke="rgb(60, 60, 60)" stroke-width="1px" opacity="0.25"></line><line x1="0" y1="113.39999999999993" x2="745.333" y2="113.39999999999993" fill="rgb(0, 0, 0)" stroke="rgb(60, 60, 60)" stroke-width="1px" opacity="0.25"></line><line x1="0" y1="75.59999999999985" x2="745.333" y2="75.59999999999985" fill="rgb(0, 0, 0)" stroke="rgb(60, 60, 60)" stroke-width="1px" opacity="0.25"></line><line x1="0" y1="37.80000000000003" x2="745.333" y2="37.80000000000003" fill="rgb(0, 0, 0)" stroke="rgb(60, 60, 60)" stroke-width="1px" opacity="0.25"></line><line x1="0" y1="0" x2="745.333" y2="0" fill="rgb(0, 0, 0)" stroke="rgb(60, 60, 60)" stroke-width="1px" opacity="0.25"></line></g></g></g><g><g><line x1="0" y1="1814.4000000000003" x2="745.333" y2="1814.4000000000003" fill="rgb(0, 0, 0)" stroke="rgb(153, 153, 153)" stroke-width="1.5px"></line></g></g><g><g><line x1="62.111083333333326" y1="0" x2="62.111083333333326" y2="378" fill="rgb(0, 0, 0)" stroke="rgb(153, 153, 153)" stroke-width="1.5px"></line></g></g><g><g><g><g><g><path stroke="rgb(255, 112, 67)" stroke-width="2px" d="M62.111083333333326,288.31004383564L74.5333,239.7239142894745L86.95551666666667,222.71875205039976L99.37773333333332,208.1429469823837L111.79995,201.3408595561981L124.22216666666665,203.77021672725675L136.6443833333333,188.70842757225034L149.0666,187.25092592239378L161.48881666666668,179.4770956277847L173.91103333333334,174.61849393844602L186.33325,177.5337225437164L198.75546666666665,166.35890486240385L211.1776833333333,172.189249420166L223.5999,174.61849393844602L236.02211666666665,170.24576368331907L248.4443333333333,168.30227794647215L260.86654999999996,156.64170148372648L273.2887666666666,170.24576368331907L285.71098333333333,162.95780482292173L298.1332,154.69821574687955L310.55541666666664,160.5285603046417L322.97763333333336,190.65191330909727L335.39985,166.84477629661558L347.8220666666667,170.7316351175308L360.2442833333333,158.09920313358305L372.6665,163.44367625713346L385.0887166666667,178.99122419357298L397.5109333333333,169.2740208148956L409.93315,169.2740208148956L422.3553666666666,149.35374262332914L434.7775833333333,155.66995861530302L447.1998,151.29722836017606L459.6220166666667,170.7316351175308L472.0442333333333,159.0709460020065L484.46645,153.24060144424436L496.8886666666666,161.98606195449827L509.3108833333333,166.35890486240385L521.7330999999999,161.01443173885343L534.1553166666666,168.30227794647215L546.5775333333332,152.2688585758209L558.99975,149.35374262332914L571.4219666666667,147.89612832069395L583.8441833333333,143.523398065567L596.2664,140.60828211307523L608.6886166666666,162.47193338871L621.1108333333333,169.75989224910734L633.53305,151.78298714160917L645.9552666666667,161.50030317306516L658.3774833333333,151.78298714160917L670.7997,147.89612832069395" style="fill: none;" fill="none"></path></g><g><path stroke="rgb(51, 187, 238)" stroke-width="2px" d="M62.111083333333326,208.1429469823837L74.5333,195.02464356422422L86.95551666666667,187.7367973566055L99.37773333333332,171.70337798595426L111.79995,169.75989224910734L124.22216666666665,162.47193338871L136.6443833333333,178.0194813251495L149.0666,179.4770956277847L161.48881666666668,163.9295476913452L173.91103333333334,162.47193338871L186.33325,184.3356973171234L198.75546666666665,186.2791830539703L211.1776833333333,172.6750082015991L223.5999,160.04268887042997L236.02211666666665,161.01443173885343L248.4443333333333,169.75989224910734L260.86654999999996,181.90645279884336L273.2887666666666,159.0709460020065L285.71098333333333,163.9295476913452L298.1332,183.36395444869993L310.55541666666664,162.95780482292173L322.97763333333336,167.81640651226041L335.39985,169.2740208148956L347.8220666666667,157.12746026515958L360.2442833333333,158.09920313358305L372.6665,162.47193338871L385.0887166666667,154.69821574687955L397.5109333333333,175.59023680686948L409.93315,159.55681743621824L422.3553666666666,161.98606195449827L434.7775833333333,169.2740208148956L447.1998,165.38716199398038L459.6220166666667,169.2740208148956L472.0442333333333,158.58507456779478L484.46645,171.21750655174253L496.8886666666666,167.33053507804868L509.3108833333333,169.75989224910734L521.7330999999999,167.33053507804868L534.1553166666666,158.58507456779478L546.5775333333332,165.38716199398038L558.99975,160.04268887042997L571.4219666666667,167.81640651226041L583.8441833333333,162.95780482292173L596.2664,170.24576368331907L608.6886166666666,167.33053507804868L621.1108333333333,176.56197967529295L633.53305,179.96296706199644L645.9552666666667,164.41541912555692L658.3774833333333,156.15583004951475L670.7997,165.38716199398038" style="fill: none;" fill="none"></path></g><g><path stroke="rgb(0, 119, 187)" stroke-width="2px" d="M62.111083333333326,283.4514421463013L74.5333,247.01187314987183L86.95551666666667,221.7470091819763L99.37773333333332,211.5439343690872L111.79995,199.8832452535629L124.22216666666665,187.25092592239378L136.6443833333333,184.3356973171234L149.0666,177.5337225437164L161.48881666666668,175.10436537265775L173.91103333333334,168.78814938068388L186.33325,163.44367625713346L198.75546666666665,163.44367625713346L211.1776833333333,154.69821574687955L223.5999,150.81135692596433L236.02211666666665,151.29722836017606L248.4443333333333,148.8678711891174L260.86654999999996,148.38199975490568L273.2887666666666,147.41025688648222L285.71098333333333,148.8678711891174L298.1332,144.00926949977872L310.55541666666664,148.8678711891174L322.97763333333336,148.8678711891174L335.39985,147.41025688648222L347.8220666666667,145.95275523662565L360.2442833333333,142.0657837629318L372.6665,139.63653924465177L385.0887166666667,142.0657837629318L397.5109333333333,144.00926949977872L409.93315,140.60828211307523L422.3553666666666,137.69305350780485L434.7775833333333,137.69305350780485L447.1998,136.23543920516965L459.6220166666667,140.1224106788635L472.0442333333333,136.7213106393814L484.46645,138.6647963762283L496.8886666666666,134.29206612110136L509.3108833333333,136.23543920516965L521.7330999999999,135.74956777095792L534.1553166666666,136.23543920516965L546.5775333333332,136.7213106393814L558.99975,136.7213106393814L571.4219666666667,131.8627089500427L583.8441833333333,133.80619468688963L596.2664,134.29206612110136L608.6886166666666,134.7779375553131L621.1108333333333,138.17892494201658L633.53305,138.17892494201658L645.9552666666667,137.20718207359312L658.3774833333333,137.20718207359312L670.7997,129.9193358659744" style="fill: none;" fill="none"></path></g><g><path stroke="rgb(0, 153, 136)" stroke-width="2px" d="M86.95551666666667,407.3460668563843L99.37773333333332,357.7881944417954L111.79995,333.0092019081116L124.22216666666665,315.5182808876038L136.6443833333333,303.37172033786777L149.0666,292.1969026565552L161.48881666666668,291.7110312223435L173.91103333333334,283.4514421463013L186.33325,275.1917404174805L198.75546666666665,269.8472672939301L211.1776833333333,260.1300639152527L223.5999,252.84210505485535L236.02211666666665,248.4693747997284L248.4443333333333,243.61077311038972L260.86654999999996,236.8086856842041L273.2887666666666,233.89356973171232L285.71098333333333,229.03496804237363L298.1332,229.03496804237363L310.55541666666664,224.17636635303495L322.97763333333336,221.26113774776456L335.39985,217.86015036106107L347.8220666666667,212.02980580329893L360.2442833333333,210.086320066452L372.6665,206.6853326797485L385.0887166666667,206.19946124553678L397.5109333333333,206.6853326797485L409.93315,203.77021672725675L422.3553666666666,201.82673099040983L434.7775833333333,199.8832452535629L447.1998,196.96812930107114L459.6220166666667,195.99638643264768L472.0442333333333,195.99638643264768L484.46645,195.02464356422422L496.8886666666666,194.05290069580076L509.3108833333333,193.56714191436765L521.7330999999999,190.16604187488554L534.1553166666666,188.70842757225034L546.5775333333332,189.6801704406738L558.99975,188.70842757225034L571.4219666666667,184.3356973171234L583.8441833333333,183.36395444869993L596.2664,182.3923242330551L608.6886166666666,183.84982588291166L621.1108333333333,181.42058136463163L633.53305,182.3923242330551L645.9552666666667,181.90645279884336L658.3774833333333,179.96296706199644L670.7997,179.96296706199644" style="fill: none;" fill="none"></path></g></g></g></g></g><g><g opacity="0.034551"><span fill="rgb(0, 0, 0)" stroke="none" stroke-width="1px">Alt + Scroll to Zoom</span></g></g></g><g transform="translate(50, 378)" clip-path="url(#clip_1)"><clipPath id="clip_1"><rect width="745" height="22"></rect></clipPath><g><g><line x1="0" y1="0" x2="0" y2="5" style="visibility: inherit;" fill="rgb(0, 0, 0)" stroke="rgb(204, 204, 204)" stroke-width="1px"></line><line x1="62.111083333333326" y1="0" x2="62.111083333333326" y2="5" style="visibility: inherit;" fill="rgb(0, 0, 0)" stroke="rgb(204, 204, 204)" stroke-width="1px"></line><line x1="124.22216666666665" y1="0" x2="124.22216666666665" y2="5" style="visibility: inherit;" fill="rgb(0, 0, 0)" stroke="rgb(204, 204, 204)" stroke-width="1px"></line><line x1="186.33325" y1="0" x2="186.33325" y2="5" style="visibility: inherit;" fill="rgb(0, 0, 0)" stroke="rgb(204, 204, 204)" stroke-width="1px"></line><line x1="248.4443333333333" y1="0" x2="248.4443333333333" y2="5" style="visibility: inherit;" fill="rgb(0, 0, 0)" stroke="rgb(204, 204, 204)" stroke-width="1px"></line><line x1="310.55541666666664" y1="0" x2="310.55541666666664" y2="5" style="visibility: inherit;" fill="rgb(0, 0, 0)" stroke="rgb(204, 204, 204)" stroke-width="1px"></line><line x1="372.6665" y1="0" x2="372.6665" y2="5" style="visibility: inherit;" fill="rgb(0, 0, 0)" stroke="rgb(204, 204, 204)" stroke-width="1px"></line><line x1="434.7775833333333" y1="0" x2="434.7775833333333" y2="5" style="visibility: inherit;" fill="rgb(0, 0, 0)" stroke="rgb(204, 204, 204)" stroke-width="1px"></line><line x1="496.8886666666666" y1="0" x2="496.8886666666666" y2="5" style="visibility: inherit;" fill="rgb(0, 0, 0)" stroke="rgb(204, 204, 204)" stroke-width="1px"></line><line x1="558.99975" y1="0" x2="558.99975" y2="5" style="visibility: inherit;" fill="rgb(0, 0, 0)" stroke="rgb(204, 204, 204)" stroke-width="1px"></line><line x1="621.1108333333333" y1="0" x2="621.1108333333333" y2="5" style="visibility: inherit;" fill="rgb(0, 0, 0)" stroke="rgb(204, 204, 204)" stroke-width="1px"></line><line x1="683.2219166666666" y1="0" x2="683.2219166666666" y2="5" style="visibility: inherit;" fill="rgb(0, 0, 0)" stroke="rgb(204, 204, 204)" stroke-width="1px"></line><line x1="745.333" y1="0" x2="745.333" y2="5" style="visibility: inherit;" fill="rgb(0, 0, 0)" stroke="rgb(204, 204, 204)" stroke-width="1px"></line></g><g transform="translate(0, 8)"><text x="0" y="0" dx="0em" dy="0.95em" style="text-anchor: middle; visibility: hidden; font-family: Roboto, sans-serif; font-size: 12px; font-weight: 200;" fill="rgb(50, 49, 63)" stroke="none" stroke-width="1px">-5</text><text x="62.111083333333326" y="0" dx="0em" dy="0.95em" style="text-anchor: middle; visibility: inherit; font-family: Roboto, sans-serif; font-size: 12px; font-weight: 200;" fill="rgb(50, 49, 63)" stroke="none" stroke-width="1px">0</text><text x="124.22216666666665" y="0" dx="0em" dy="0.95em" style="text-anchor: middle; visibility: inherit; font-family: Roboto, sans-serif; font-size: 12px; font-weight: 200;" fill="rgb(50, 49, 63)" stroke="none" stroke-width="1px">5</text><text x="186.33325" y="0" dx="0em" dy="0.95em" style="text-anchor: middle; visibility: inherit; font-family: Roboto, sans-serif; font-size: 12px; font-weight: 200;" fill="rgb(50, 49, 63)" stroke="none" stroke-width="1px">10</text><text x="248.4443333333333" y="0" dx="0em" dy="0.95em" style="text-anchor: middle; visibility: inherit; font-family: Roboto, sans-serif; font-size: 12px; font-weight: 200;" fill="rgb(50, 49, 63)" stroke="none" stroke-width="1px">15</text><text x="310.55541666666664" y="0" dx="0em" dy="0.95em" style="text-anchor: middle; visibility: inherit; font-family: Roboto, sans-serif; font-size: 12px; font-weight: 200;" fill="rgb(50, 49, 63)" stroke="none" stroke-width="1px">20</text><text x="372.6665" y="0" dx="0em" dy="0.95em" style="text-anchor: middle; visibility: inherit; font-family: Roboto, sans-serif; font-size: 12px; font-weight: 200;" fill="rgb(50, 49, 63)" stroke="none" stroke-width="1px">25</text><text x="434.7775833333333" y="0" dx="0em" dy="0.95em" style="text-anchor: middle; visibility: inherit; font-family: Roboto, sans-serif; font-size: 12px; font-weight: 200;" fill="rgb(50, 49, 63)" stroke="none" stroke-width="1px">30</text><text x="496.8886666666666" y="0" dx="0em" dy="0.95em" style="text-anchor: middle; visibility: inherit; font-family: Roboto, sans-serif; font-size: 12px; font-weight: 200;" fill="rgb(50, 49, 63)" stroke="none" stroke-width="1px">35</text><text x="558.99975" y="0" dx="0em" dy="0.95em" style="text-anchor: middle; visibility: inherit; font-family: Roboto, sans-serif; font-size: 12px; font-weight: 200;" fill="rgb(50, 49, 63)" stroke="none" stroke-width="1px">40</text><text x="621.1108333333333" y="0" dx="0em" dy="0.95em" style="text-anchor: middle; visibility: inherit; font-family: Roboto, sans-serif; font-size: 12px; font-weight: 200;" fill="rgb(50, 49, 63)" stroke="none" stroke-width="1px">45</text><text x="683.2219166666666" y="0" dx="0em" dy="0.95em" style="text-anchor: middle; visibility: inherit; font-family: Roboto, sans-serif; font-size: 12px; font-weight: 200;" fill="rgb(50, 49, 63)" stroke="none" stroke-width="1px">50</text><text x="745.333" y="0" dx="0em" dy="0.95em" style="text-anchor: middle; visibility: hidden; font-family: Roboto, sans-serif; font-size: 12px; font-weight: 200;" fill="rgb(50, 49, 63)" stroke="none" stroke-width="1px">55</text></g><line x1="0" y1="0" x2="745.333" y2="0" fill="rgb(0, 0, 0)" stroke="rgb(204, 204, 204)" stroke-width="1px"></line></g></g></g></g></svg>