<svg viewBox="0 0 551.6666870117188 400" xmlns="http://www.w3.org/2000/svg"><g><g><g><g><g><line x1="60" y1="378" x2="55" y2="378" style="visibility: inherit;" fill="rgb(0, 0, 0)" stroke="rgb(204, 204, 204)" stroke-width="1px"></line><line x1="60" y1="340.2" x2="55" y2="340.2" style="visibility: inherit;" fill="rgb(0, 0, 0)" stroke="rgb(204, 204, 204)" stroke-width="1px"></line><line x1="60" y1="302.40000000000003" x2="55" y2="302.40000000000003" style="visibility: inherit;" fill="rgb(0, 0, 0)" stroke="rgb(204, 204, 204)" stroke-width="1px"></line><line x1="60" y1="264.59999999999997" x2="55" y2="264.59999999999997" style="visibility: inherit;" fill="rgb(0, 0, 0)" stroke="rgb(204, 204, 204)" stroke-width="1px"></line><line x1="60" y1="226.79999999999998" x2="55" y2="226.79999999999998" style="visibility: inherit;" fill="rgb(0, 0, 0)" stroke="rgb(204, 204, 204)" stroke-width="1px"></line><line x1="60" y1="189" x2="55" y2="189" style="visibility: inherit;" fill="rgb(0, 0, 0)" stroke="rgb(204, 204, 204)" stroke-width="1px"></line><line x1="60" y1="151.20000000000002" x2="55" y2="151.20000000000002" style="visibility: inherit;" fill="rgb(0, 0, 0)" stroke="rgb(204, 204, 204)" stroke-width="1px"></line><line x1="60" y1="113.40000000000002" x2="55" y2="113.40000000000002" style="visibility: inherit;" fill="rgb(0, 0, 0)" stroke="rgb(204, 204, 204)" stroke-width="1px"></line><line x1="60" y1="75.60000000000002" x2="55" y2="75.60000000000002" style="visibility: inherit;" fill="rgb(0, 0, 0)" stroke="rgb(204, 204, 204)" stroke-width="1px"></line><line x1="60" y1="37.79999999999999" x2="55" y2="37.79999999999999" style="visibility: inherit;" fill="rgb(0, 0, 0)" stroke="rgb(204, 204, 204)" stroke-width="1px"></line><line x1="60" y1="0" x2="55" y2="0" style="visibility: inherit;" fill="rgb(0, 0, 0)" stroke="rgb(204, 204, 204)" stroke-width="1px"></line></g><g transform="translate(50, 0)"><text x="0" y="378" dx="0em" dy="0.3em" style="text-anchor: end; visibility: hidden; font-family: Roboto, sans-serif; font-size: 12px; font-weight: 200;" fill="rgb(50, 49, 63)" stroke="none" stroke-width="1px">-0.05</text><text x="0" y="340.2" dx="0em" dy="0.3em" style="text-anchor: end; visibility: inherit; font-family: Roboto, sans-serif; font-size: 12px; font-weight: 200;" fill="rgb(50, 49, 63)" stroke="none" stroke-width="1px">0</text><text x="0" y="302.40000000000003" dx="0em" dy="0.3em" style="text-anchor: end; visibility: inherit; font-family: Roboto, sans-serif; font-size: 12px; font-weight: 200;" fill="rgb(50, 49, 63)" stroke="none" stroke-width="1px">0.05</text><text x="0" y="264.59999999999997" dx="0em" dy="0.3em" style="text-anchor: end; visibility: inherit; font-family: Roboto, sans-serif; font-size: 12px; font-weight: 200;" fill="rgb(50, 49, 63)" stroke="none" stroke-width="1px">0.1</text><text x="0" y="226.79999999999998" dx="0em" dy="0.3em" style="text-anchor: end; visibility: inherit; font-family: Roboto, sans-serif; font-size: 12px; font-weight: 200;" fill="rgb(50, 49, 63)" stroke="none" stroke-width="1px">0.15</text><text x="0" y="189" dx="0em" dy="0.3em" style="text-anchor: end; visibility: inherit; font-family: Roboto, sans-serif; font-size: 12px; font-weight: 200;" fill="rgb(50, 49, 63)" stroke="none" stroke-width="1px">0.2</text><text x="0" y="151.20000000000002" dx="0em" dy="0.3em" style="text-anchor: end; visibility: inherit; font-family: Roboto, sans-serif; font-size: 12px; font-weight: 200;" fill="rgb(50, 49, 63)" stroke="none" stroke-width="1px">0.25</text><text x="0" y="113.40000000000002" dx="0em" dy="0.3em" style="text-anchor: end; visibility: inherit; font-family: Roboto, sans-serif; font-size: 12px; font-weight: 200;" fill="rgb(50, 49, 63)" stroke="none" stroke-width="1px">0.3</text><text x="0" y="75.60000000000002" dx="0em" dy="0.3em" style="text-anchor: end; visibility: inherit; font-family: Roboto, sans-serif; font-size: 12px; font-weight: 200;" fill="rgb(50, 49, 63)" stroke="none" stroke-width="1px">0.35</text><text x="0" y="37.79999999999999" dx="0em" dy="0.3em" style="text-anchor: end; visibility: inherit; font-family: Roboto, sans-serif; font-size: 12px; font-weight: 200;" fill="rgb(50, 49, 63)" stroke="none" stroke-width="1px">0.4</text><text x="0" y="0" dx="0em" dy="0.3em" style="text-anchor: end; visibility: hidden; font-family: Roboto, sans-serif; font-size: 12px; font-weight: 200;" fill="rgb(50, 49, 63)" stroke="none" stroke-width="1px">0.45</text></g><line x1="60" y1="0" x2="60" y2="378" fill="rgb(0, 0, 0)" stroke="rgb(204, 204, 204)" stroke-width="1px"></line></g></g><g transform="translate(60, 0)" clip-path="url(#clip_0)"><clipPath id="clip_0"><rect width="491" height="378"></rect></clipPath><g><g><g><line x1="0" y1="0" x2="0" y2="378" fill="rgb(0, 0, 0)" stroke="rgb(60, 60, 60)" stroke-width="1px" opacity="0.25"></line><line x1="40.97225" y1="0" x2="40.97225" y2="378" fill="rgb(0, 0, 0)" stroke="rgb(60, 60, 60)" stroke-width="1px" opacity="0.25"></line><line x1="81.9445" y1="0" x2="81.9445" y2="378" fill="rgb(0, 0, 0)" stroke="rgb(60, 60, 60)" stroke-width="1px" opacity="0.25"></line><line x1="122.91675000000001" y1="0" x2="122.91675000000001" y2="378" fill="rgb(0, 0, 0)" stroke="rgb(60, 60, 60)" stroke-width="1px" opacity="0.25"></line><line x1="163.889" y1="0" x2="163.889" y2="378" fill="rgb(0, 0, 0)" stroke="rgb(60, 60, 60)" stroke-width="1px" opacity="0.25"></line><line x1="204.86125" y1="0" x2="204.86125" y2="378" fill="rgb(0, 0, 0)" stroke="rgb(60, 60, 60)" stroke-width="1px" opacity="0.25"></line><line x1="245.83350000000002" y1="0" x2="245.83350000000002" y2="378" fill="rgb(0, 0, 0)" stroke="rgb(60, 60, 60)" stroke-width="1px" opacity="0.25"></line><line x1="286.80575000000005" y1="0" x2="286.80575000000005" y2="378" fill="rgb(0, 0, 0)" stroke="rgb(60, 60, 60)" stroke-width="1px" opacity="0.25"></line><line x1="327.778" y1="0" x2="327.778" y2="378" fill="rgb(0, 0, 0)" stroke="rgb(60, 60, 60)" stroke-width="1px" opacity="0.25"></line><line x1="368.75025000000005" y1="0" x2="368.75025000000005" y2="378" fill="rgb(0, 0, 0)" stroke="rgb(60, 60, 60)" stroke-width="1px" opacity="0.25"></line><line x1="409.7225" y1="0" x2="409.7225" y2="378" fill="rgb(0, 0, 0)" stroke="rgb(60, 60, 60)" stroke-width="1px" opacity="0.25"></line><line x1="450.69475" y1="0" x2="450.69475" y2="378" fill="rgb(0, 0, 0)" stroke="rgb(60, 60, 60)" stroke-width="1px" opacity="0.25"></line><line x1="491.66700000000003" y1="0" x2="491.66700000000003" y2="378" fill="rgb(0, 0, 0)" stroke="rgb(60, 60, 60)" stroke-width="1px" opacity="0.25"></line></g><g><line x1="0" y1="378" x2="491.66700000000003" y2="378" fill="rgb(0, 0, 0)" stroke="rgb(60, 60, 60)" stroke-width="1px" opacity="0.25"></line><line x1="0" y1="340.2" x2="491.66700000000003" y2="340.2" fill="rgb(0, 0, 0)" stroke="rgb(60, 60, 60)" stroke-width="1px" opacity="0.25"></line><line x1="0" y1="302.40000000000003" x2="491.66700000000003" y2="302.40000000000003" fill="rgb(0, 0, 0)" stroke="rgb(60, 60, 60)" stroke-width="1px" opacity="0.25"></line><line x1="0" y1="264.59999999999997" x2="491.66700000000003" y2="264.59999999999997" fill="rgb(0, 0, 0)" stroke="rgb(60, 60, 60)" stroke-width="1px" opacity="0.25"></line><line x1="0" y1="226.79999999999998" x2="491.66700000000003" y2="226.79999999999998" fill="rgb(0, 0, 0)" stroke="rgb(60, 60, 60)" stroke-width="1px" opacity="0.25"></line><line x1="0" y1="189" x2="491.66700000000003" y2="189" fill="rgb(0, 0, 0)" stroke="rgb(60, 60, 60)" stroke-width="1px" opacity="0.25"></line><line x1="0" y1="151.20000000000002" x2="491.66700000000003" y2="151.20000000000002" fill="rgb(0, 0, 0)" stroke="rgb(60, 60, 60)" stroke-width="1px" opacity="0.25"></line><line x1="0" y1="113.40000000000002" x2="491.66700000000003" y2="113.40000000000002" fill="rgb(0, 0, 0)" stroke="rgb(60, 60, 60)" stroke-width="1px" opacity="0.25"></line><line x1="0" y1="75.60000000000002" x2="491.66700000000003" y2="75.60000000000002" fill="rgb(0, 0, 0)" stroke="rgb(60, 60, 60)" stroke-width="1px" opacity="0.25"></line><line x1="0" y1="37.79999999999999" x2="491.66700000000003" y2="37.79999999999999" fill="rgb(0, 0, 0)" stroke="rgb(60, 60, 60)" stroke-width="1px" opacity="0.25"></line><line x1="0" y1="0" x2="491.66700000000003" y2="0" fill="rgb(0, 0, 0)" stroke="rgb(60, 60, 60)" stroke-width="1px" opacity="0.25"></line></g></g></g><g><g><line x1="0" y1="340.2" x2="491.66700000000003" y2="340.2" fill="rgb(0, 0, 0)" stroke="rgb(153, 153, 153)" stroke-width="1.5px"></line></g></g><g><g><line x1="40.97225" y1="0" x2="40.97225" y2="378" fill="rgb(0, 0, 0)" stroke="rgb(153, 153, 153)" stroke-width="1.5px"></line></g></g><g><g><g><g><g><path stroke="rgb(51, 187, 238)" stroke-width="2px" d="M40.97225,96.32455594539643L49.166700000000006,121.99418134689331L57.36115,133.56242759227754L65.5556,125.12894768714905L73.75005,136.61754841804506L81.9445,136.1022070169449L90.13895,121.97829730510712L98.33340000000001,121.75661916732788L106.52785000000002,116.26391751766205L114.7223,117.33878273963929L122.91675000000001,115.6177862405777L131.1112,110.99836893081665L139.30565,112.19519205093384L147.5001,106.32348139286042L155.69455,109.59275515079499L163.889,109.47857029438019L172.08345,106.75667638778687L180.2779,104.3360160112381L188.47235000000003,103.64484615325928L196.66680000000002,103.6373209476471L204.86125,101.25690014362335L213.05570000000003,101.45462830066681L221.25015000000002,100.32951993942261L229.4446,99.45269830226898L237.63905000000003,98.48181159496308L245.83350000000002,98.4293154001236L254.02795000000003,98.06434292793274L262.2224,97.23564655780793L270.41685,96.40271444320679L278.6113,97.44130547046662L286.80575000000005,97.33372206687928L295.0002,96.89726014137268L303.19465,97.32716567516327L311.3891,96.75538523197174L319.58355,96.77361245155335L327.778,96.98449845314026L335.97245000000004,96.90980966091156L344.1669,96.7812953710556L352.36135,96.71863789558411L360.5558,96.69926161766053L368.75025000000005,96.54533286094666L376.94470000000007,96.49704988002777L385.13915000000003,96.3060358285904L393.33360000000005,96.28334755897522L401.52805,96.29796988964081L409.7225,96.25782043933869L417.91695000000004,96.10226948261261L426.11140000000006,96.03325839042664L434.30585,96.01500864028931L442.50030000000004,95.95868225097657" style="fill: none;" fill="none"></path></g><g><path stroke="rgb(204, 51, 17)" stroke-width="2px" d="M40.97225,-50.358036088943514L49.166700000000006,166.2197471380234L57.36115,226.66284073591234L65.5556,243.73932344913484L73.75005,269.1237514436245L81.9445,281.6496645927429L90.13895,280.46761588454245L98.33340000000001,280.8478753387928L106.52785000000002,282.63829974532126L114.7223,292.0265232145786L122.91675000000001,295.37301481962203L131.1112,296.78262495696544L139.30565,295.5567852973938L147.5001,295.6407932907343L155.69455,298.4117305845022L163.889,299.51223276257514L172.08345,299.7266391634941L180.2779,299.9120290249586L188.47235000000003,302.6130596369505L196.66680000000002,306.22749305963515L204.86125,302.5534409701824L213.05570000000003,302.748738643527L221.25015000000002,303.7546885281801L229.4446,300.78832401037215L237.63905000000003,303.7506893545389L245.83350000000002,304.70813940167426L254.02795000000003,302.5609915226698L262.2224,305.5791650533676L270.41685,308.2395533591509L278.6113,306.25922734737395L286.80575000000005,305.6071930646896L295.0002,303.3731223016977L303.19465,306.2950875431299L311.3891,305.2477264970541L319.58355,304.699434158206L327.778,304.3494614034891L335.97245000000004,303.1936495274305L344.1669,305.9759506702423L352.36135,303.0737559914589L360.5558,304.518305388093L368.75025000000005,305.71732805371283L376.94470000000007,302.870079767704L385.13915000000003,303.08606049120425L393.33360000000005,306.06801052093505L401.52805,308.83505847752093L409.7225,305.97862617373465L417.91695000000004,303.419405695796L426.11140000000006,307.5570098876953L434.30585,307.2417567193508L442.50030000000004,307.1027572721243" style="fill: none;" fill="none"></path></g><g><path stroke="rgb(0, 119, 187)" stroke-width="2px" d="M40.97225,95.17849416732788L49.166700000000006,126.81517953872681L57.36115,137.10772318840029L65.5556,139.90038557052614L73.75005,143.9108920812607L81.9445,132.27122397422792L90.13895,131.3425144672394L98.33340000000001,128.79293425083162L106.52785000000002,130.8451749801636L114.7223,127.27047700881958L122.91675000000001,111.8508800983429L131.1112,112.7675357580185L139.30565,113.32877190113068L147.5001,106.85439140796662L155.69455,101.73351151943207L163.889,101.9779004573822L172.08345,97.61877865791321L180.2779,99.17793817520142L188.47235000000003,97.23970205783844L196.66680000000002,94.54673738479615L204.86125,92.6561083316803L213.05570000000003,90.70149250030518L221.25015000000002,89.22146029472351L229.4446,87.48647232055664L237.63905000000003,86.61517066955567L245.83350000000002,85.41913611888886L254.02795000000003,84.90654344558716L262.2224,84.7011774301529L270.41685,84.48459119796753L278.6113,85.60969955921173L286.80575000000005,84.85544414520264L295.0002,84.70820696353913L303.19465,84.11198086738587L311.3891,82.9299828529358L319.58355,81.74701602458954L327.778,81.0987443447113L335.97245000000004,79.74747426509857L344.1669,79.59081931114197L352.36135,79.83892579078675L360.5558,79.50590164661408L368.75025000000005,79.7711989402771L376.94470000000007,79.62330837249756L385.13915000000003,79.34048230648041L393.33360000000005,79.23443098068238L401.52805,79.26061148643494L409.7225,79.30952532291413L417.91695000000004,79.07484705448151L426.11140000000006,79.28197045326233L434.30585,79.08221454620362L442.50030000000004,79.03019149303437" style="fill: none;" fill="none"></path></g><g><path stroke="rgb(255, 112, 67)" stroke-width="2px" d="M40.97225,-52.963064002990755L49.166700000000006,171.05846561193468L57.36115,220.33675636053087L65.5556,243.4525545358658L73.75005,262.40886853337287L81.9445,272.87826014757155L90.13895,278.3166462600231L98.33340000000001,281.62381078004836L106.52785000000002,285.16176704764365L114.7223,286.93213362693785L122.91675000000001,290.2090734064579L131.1112,291.11115179657935L139.30565,290.56625030636786L147.5001,292.8428728401661L155.69455,293.90410707592963L163.889,296.5784277141094L172.08345,297.9311453819275L180.2779,299.5640981018543L188.47235000000003,300.8853602975607L196.66680000000002,300.2618440657854L204.86125,304.28129239082335L213.05570000000003,303.48596095740794L221.25015000000002,301.9430656850338L229.4446,303.16212646365165L237.63905000000003,303.4650216221809L245.83350000000002,302.6536174535751L254.02795000000003,302.75270965397357L262.2224,305.21299564540385L270.41685,303.7624446719885L278.6113,301.5478290438652L286.80575000000005,306.7867014527321L295.0002,302.75265332758426L303.19465,308.3833658963442L311.3891,308.5597294539213L319.58355,306.04048099815844L327.778,308.30514825582503L335.97245000000004,305.05885566473006L344.1669,306.850716394186L352.36135,302.4934477329254L360.5558,304.79378649294375L368.75025000000005,305.3148478388786L376.94470000000007,305.51464317440985L385.13915000000003,306.9653856575489L393.33360000000005,308.1405062198639L401.52805,303.5064806610346L409.7225,305.4511154562235L417.91695000000004,308.2769090205431L426.11140000000006,308.11564093530177L434.30585,305.78306376636027L442.50030000000004,306.3828327924013" style="fill: none;" fill="none"></path></g></g></g></g></g></g><g transform="translate(60, 378)" clip-path="url(#clip_1)"><clipPath id="clip_1"><rect width="491" height="22"></rect></clipPath><g><g><line x1="0" y1="0" x2="0" y2="5" style="visibility: inherit;" fill="rgb(0, 0, 0)" stroke="rgb(204, 204, 204)" stroke-width="1px"></line><line x1="40.97225" y1="0" x2="40.97225" y2="5" style="visibility: inherit;" fill="rgb(0, 0, 0)" stroke="rgb(204, 204, 204)" stroke-width="1px"></line><line x1="81.9445" y1="0" x2="81.9445" y2="5" style="visibility: inherit;" fill="rgb(0, 0, 0)" stroke="rgb(204, 204, 204)" stroke-width="1px"></line><line x1="122.91675000000001" y1="0" x2="122.91675000000001" y2="5" style="visibility: inherit;" fill="rgb(0, 0, 0)" stroke="rgb(204, 204, 204)" stroke-width="1px"></line><line x1="163.889" y1="0" x2="163.889" y2="5" style="visibility: inherit;" fill="rgb(0, 0, 0)" stroke="rgb(204, 204, 204)" stroke-width="1px"></line><line x1="204.86125" y1="0" x2="204.86125" y2="5" style="visibility: inherit;" fill="rgb(0, 0, 0)" stroke="rgb(204, 204, 204)" stroke-width="1px"></line><line x1="245.83350000000002" y1="0" x2="245.83350000000002" y2="5" style="visibility: inherit;" fill="rgb(0, 0, 0)" stroke="rgb(204, 204, 204)" stroke-width="1px"></line><line x1="286.80575000000005" y1="0" x2="286.80575000000005" y2="5" style="visibility: inherit;" fill="rgb(0, 0, 0)" stroke="rgb(204, 204, 204)" stroke-width="1px"></line><line x1="327.778" y1="0" x2="327.778" y2="5" style="visibility: inherit;" fill="rgb(0, 0, 0)" stroke="rgb(204, 204, 204)" stroke-width="1px"></line><line x1="368.75025000000005" y1="0" x2="368.75025000000005" y2="5" style="visibility: inherit;" fill="rgb(0, 0, 0)" stroke="rgb(204, 204, 204)" stroke-width="1px"></line><line x1="409.7225" y1="0" x2="409.7225" y2="5" style="visibility: inherit;" fill="rgb(0, 0, 0)" stroke="rgb(204, 204, 204)" stroke-width="1px"></line><line x1="450.69475" y1="0" x2="450.69475" y2="5" style="visibility: inherit;" fill="rgb(0, 0, 0)" stroke="rgb(204, 204, 204)" stroke-width="1px"></line><line x1="491.66700000000003" y1="0" x2="491.66700000000003" y2="5" style="visibility: inherit;" fill="rgb(0, 0, 0)" stroke="rgb(204, 204, 204)" stroke-width="1px"></line></g><g transform="translate(0, 8)"><text x="0" y="0" dx="0em" dy="0.95em" style="text-anchor: middle; visibility: hidden; font-family: Roboto, sans-serif; font-size: 12px; font-weight: 200;" fill="rgb(50, 49, 63)" stroke="none" stroke-width="1px">-5</text><text x="40.97225" y="0" dx="0em" dy="0.95em" style="text-anchor: middle; visibility: inherit; font-family: Roboto, sans-serif; font-size: 12px; font-weight: 200;" fill="rgb(50, 49, 63)" stroke="none" stroke-width="1px">0</text><text x="81.9445" y="0" dx="0em" dy="0.95em" style="text-anchor: middle; visibility: inherit; font-family: Roboto, sans-serif; font-size: 12px; font-weight: 200;" fill="rgb(50, 49, 63)" stroke="none" stroke-width="1px">5</text><text x="122.91675000000001" y="0" dx="0em" dy="0.95em" style="text-anchor: middle; visibility: inherit; font-family: Roboto, sans-serif; font-size: 12px; font-weight: 200;" fill="rgb(50, 49, 63)" stroke="none" stroke-width="1px">10</text><text x="163.889" y="0" dx="0em" dy="0.95em" style="text-anchor: middle; visibility: inherit; font-family: Roboto, sans-serif; font-size: 12px; font-weight: 200;" fill="rgb(50, 49, 63)" stroke="none" stroke-width="1px">15</text><text x="204.86125" y="0" dx="0em" dy="0.95em" style="text-anchor: middle; visibility: inherit; font-family: Roboto, sans-serif; font-size: 12px; font-weight: 200;" fill="rgb(50, 49, 63)" stroke="none" stroke-width="1px">20</text><text x="245.83350000000002" y="0" dx="0em" dy="0.95em" style="text-anchor: middle; visibility: inherit; font-family: Roboto, sans-serif; font-size: 12px; font-weight: 200;" fill="rgb(50, 49, 63)" stroke="none" stroke-width="1px">25</text><text x="286.80575000000005" y="0" dx="0em" dy="0.95em" style="text-anchor: middle; visibility: inherit; font-family: Roboto, sans-serif; font-size: 12px; font-weight: 200;" fill="rgb(50, 49, 63)" stroke="none" stroke-width="1px">30</text><text x="327.778" y="0" dx="0em" dy="0.95em" style="text-anchor: middle; visibility: inherit; font-family: Roboto, sans-serif; font-size: 12px; font-weight: 200;" fill="rgb(50, 49, 63)" stroke="none" stroke-width="1px">35</text><text x="368.75025000000005" y="0" dx="0em" dy="0.95em" style="text-anchor: middle; visibility: inherit; font-family: Roboto, sans-serif; font-size: 12px; font-weight: 200;" fill="rgb(50, 49, 63)" stroke="none" stroke-width="1px">40</text><text x="409.7225" y="0" dx="0em" dy="0.95em" style="text-anchor: middle; visibility: inherit; font-family: Roboto, sans-serif; font-size: 12px; font-weight: 200;" fill="rgb(50, 49, 63)" stroke="none" stroke-width="1px">45</text><text x="450.69475" y="0" dx="0em" dy="0.95em" style="text-anchor: middle; visibility: inherit; font-family: Roboto, sans-serif; font-size: 12px; font-weight: 200;" fill="rgb(50, 49, 63)" stroke="none" stroke-width="1px">50</text><text x="491.66700000000003" y="0" dx="0em" dy="0.95em" style="text-anchor: middle; visibility: hidden; font-family: Roboto, sans-serif; font-size: 12px; font-weight: 200;" fill="rgb(50, 49, 63)" stroke="none" stroke-width="1px">55</text></g><line x1="0" y1="0" x2="491.66700000000003" y2="0" fill="rgb(0, 0, 0)" stroke="rgb(204, 204, 204)" stroke-width="1px"></line></g></g></g></g></svg>