<svg viewBox="0 0 603.6666870117188 400" xmlns="http://www.w3.org/2000/svg"><g><g><g><g><g><line x1="61.953125" y1="378" x2="56.953125" y2="378" style="visibility: inherit;" fill="rgb(0, 0, 0)" stroke="rgb(204, 204, 204)" stroke-width="1px"></line><line x1="61.953125" y1="348.92307692307696" x2="56.953125" y2="348.92307692307696" style="visibility: inherit;" fill="rgb(0, 0, 0)" stroke="rgb(204, 204, 204)" stroke-width="1px"></line><line x1="61.953125" y1="319.84615384615387" x2="56.953125" y2="319.84615384615387" style="visibility: inherit;" fill="rgb(0, 0, 0)" stroke="rgb(204, 204, 204)" stroke-width="1px"></line><line x1="61.953125" y1="290.7692307692307" x2="56.953125" y2="290.7692307692307" style="visibility: inherit;" fill="rgb(0, 0, 0)" stroke="rgb(204, 204, 204)" stroke-width="1px"></line><line x1="61.953125" y1="261.6923076923077" x2="56.953125" y2="261.6923076923077" style="visibility: inherit;" fill="rgb(0, 0, 0)" stroke="rgb(204, 204, 204)" stroke-width="1px"></line><line x1="61.953125" y1="232.61538461538464" x2="56.953125" y2="232.61538461538464" style="visibility: inherit;" fill="rgb(0, 0, 0)" stroke="rgb(204, 204, 204)" stroke-width="1px"></line><line x1="61.953125" y1="203.53846153846152" x2="56.953125" y2="203.53846153846152" style="visibility: inherit;" fill="rgb(0, 0, 0)" stroke="rgb(204, 204, 204)" stroke-width="1px"></line><line x1="61.953125" y1="174.46153846153848" x2="56.953125" y2="174.46153846153848" style="visibility: inherit;" fill="rgb(0, 0, 0)" stroke="rgb(204, 204, 204)" stroke-width="1px"></line><line x1="61.953125" y1="145.38461538461536" x2="56.953125" y2="145.38461538461536" style="visibility: inherit;" fill="rgb(0, 0, 0)" stroke="rgb(204, 204, 204)" stroke-width="1px"></line><line x1="61.953125" y1="116.30769230769232" x2="56.953125" y2="116.30769230769232" style="visibility: inherit;" fill="rgb(0, 0, 0)" stroke="rgb(204, 204, 204)" stroke-width="1px"></line><line x1="61.953125" y1="87.23076923076921" x2="56.953125" y2="87.23076923076921" style="visibility: inherit;" fill="rgb(0, 0, 0)" stroke="rgb(204, 204, 204)" stroke-width="1px"></line><line x1="61.953125" y1="58.15384615384616" x2="56.953125" y2="58.15384615384616" style="visibility: inherit;" fill="rgb(0, 0, 0)" stroke="rgb(204, 204, 204)" stroke-width="1px"></line><line x1="61.953125" y1="29.07692307692306" x2="56.953125" y2="29.07692307692306" style="visibility: inherit;" fill="rgb(0, 0, 0)" stroke="rgb(204, 204, 204)" stroke-width="1px"></line><line x1="61.953125" y1="0" x2="56.953125" y2="0" style="visibility: inherit;" fill="rgb(0, 0, 0)" stroke="rgb(204, 204, 204)" stroke-width="1px"></line></g><g transform="translate(51.953125, 0)"><text x="0" y="378" dx="0em" dy="0.3em" style="text-anchor: end; visibility: hidden; font-family: Roboto, sans-serif; font-size: 12px; font-weight: 200;" fill="rgb(50, 49, 63)" stroke="none" stroke-width="1px">0.84</text><text x="0" y="348.92307692307696" dx="0em" dy="0.3em" style="text-anchor: end; visibility: inherit; font-family: Roboto, sans-serif; font-size: 12px; font-weight: 200;" fill="rgb(50, 49, 63)" stroke="none" stroke-width="1px">0.845</text><text x="0" y="319.84615384615387" dx="0em" dy="0.3em" style="text-anchor: end; visibility: inherit; font-family: Roboto, sans-serif; font-size: 12px; font-weight: 200;" fill="rgb(50, 49, 63)" stroke="none" stroke-width="1px">0.85</text><text x="0" y="290.7692307692307" dx="0em" dy="0.3em" style="text-anchor: end; visibility: inherit; font-family: Roboto, sans-serif; font-size: 12px; font-weight: 200;" fill="rgb(50, 49, 63)" stroke="none" stroke-width="1px">0.855</text><text x="0" y="261.6923076923077" dx="0em" dy="0.3em" style="text-anchor: end; visibility: inherit; font-family: Roboto, sans-serif; font-size: 12px; font-weight: 200;" fill="rgb(50, 49, 63)" stroke="none" stroke-width="1px">0.86</text><text x="0" y="232.61538461538464" dx="0em" dy="0.3em" style="text-anchor: end; visibility: inherit; font-family: Roboto, sans-serif; font-size: 12px; font-weight: 200;" fill="rgb(50, 49, 63)" stroke="none" stroke-width="1px">0.865</text><text x="0" y="203.53846153846152" dx="0em" dy="0.3em" style="text-anchor: end; visibility: inherit; font-family: Roboto, sans-serif; font-size: 12px; font-weight: 200;" fill="rgb(50, 49, 63)" stroke="none" stroke-width="1px">0.87</text><text x="0" y="174.46153846153848" dx="0em" dy="0.3em" style="text-anchor: end; visibility: inherit; font-family: Roboto, sans-serif; font-size: 12px; font-weight: 200;" fill="rgb(50, 49, 63)" stroke="none" stroke-width="1px">0.875</text><text x="0" y="145.38461538461536" dx="0em" dy="0.3em" style="text-anchor: end; visibility: inherit; font-family: Roboto, sans-serif; font-size: 12px; font-weight: 200;" fill="rgb(50, 49, 63)" stroke="none" stroke-width="1px">0.88</text><text x="0" y="116.30769230769232" dx="0em" dy="0.3em" style="text-anchor: end; visibility: inherit; font-family: Roboto, sans-serif; font-size: 12px; font-weight: 200;" fill="rgb(50, 49, 63)" stroke="none" stroke-width="1px">0.885</text><text x="0" y="87.23076923076921" dx="0em" dy="0.3em" style="text-anchor: end; visibility: inherit; font-family: Roboto, sans-serif; font-size: 12px; font-weight: 200;" fill="rgb(50, 49, 63)" stroke="none" stroke-width="1px">0.89</text><text x="0" y="58.15384615384616" dx="0em" dy="0.3em" style="text-anchor: end; visibility: inherit; font-family: Roboto, sans-serif; font-size: 12px; font-weight: 200;" fill="rgb(50, 49, 63)" stroke="none" stroke-width="1px">0.895</text><text x="0" y="29.07692307692306" dx="0em" dy="0.3em" style="text-anchor: end; visibility: inherit; font-family: Roboto, sans-serif; font-size: 12px; font-weight: 200;" fill="rgb(50, 49, 63)" stroke="none" stroke-width="1px">0.9</text><text x="0" y="0" dx="0em" dy="0.3em" style="text-anchor: end; visibility: hidden; font-family: Roboto, sans-serif; font-size: 12px; font-weight: 200;" fill="rgb(50, 49, 63)" stroke="none" stroke-width="1px">0.905</text></g><line x1="61.953125" y1="0" x2="61.953125" y2="378" fill="rgb(0, 0, 0)" stroke="rgb(204, 204, 204)" stroke-width="1px"></line></g></g><g transform="translate(61, 0)" clip-path="url(#clip_0)"><clipPath id="clip_0"><rect width="541" height="378"></rect></clipPath><g><g><g><line x1="0" y1="0" x2="0" y2="378" fill="rgb(0, 0, 0)" stroke="rgb(60, 60, 60)" stroke-width="1px" opacity="0.25"></line><line x1="45.14282291666667" y1="0" x2="45.14282291666667" y2="378" fill="rgb(0, 0, 0)" stroke="rgb(60, 60, 60)" stroke-width="1px" opacity="0.25"></line><line x1="90.28564583333333" y1="0" x2="90.28564583333333" y2="378" fill="rgb(0, 0, 0)" stroke="rgb(60, 60, 60)" stroke-width="1px" opacity="0.25"></line><line x1="135.42846875" y1="0" x2="135.42846875" y2="378" fill="rgb(0, 0, 0)" stroke="rgb(60, 60, 60)" stroke-width="1px" opacity="0.25"></line><line x1="180.57129166666667" y1="0" x2="180.57129166666667" y2="378" fill="rgb(0, 0, 0)" stroke="rgb(60, 60, 60)" stroke-width="1px" opacity="0.25"></line><line x1="225.71411458333336" y1="0" x2="225.71411458333336" y2="378" fill="rgb(0, 0, 0)" stroke="rgb(60, 60, 60)" stroke-width="1px" opacity="0.25"></line><line x1="270.8569375" y1="0" x2="270.8569375" y2="378" fill="rgb(0, 0, 0)" stroke="rgb(60, 60, 60)" stroke-width="1px" opacity="0.25"></line><line x1="315.99976041666673" y1="0" x2="315.99976041666673" y2="378" fill="rgb(0, 0, 0)" stroke="rgb(60, 60, 60)" stroke-width="1px" opacity="0.25"></line><line x1="361.14258333333333" y1="0" x2="361.14258333333333" y2="378" fill="rgb(0, 0, 0)" stroke="rgb(60, 60, 60)" stroke-width="1px" opacity="0.25"></line><line x1="406.28540625000005" y1="0" x2="406.28540625000005" y2="378" fill="rgb(0, 0, 0)" stroke="rgb(60, 60, 60)" stroke-width="1px" opacity="0.25"></line><line x1="451.4282291666667" y1="0" x2="451.4282291666667" y2="378" fill="rgb(0, 0, 0)" stroke="rgb(60, 60, 60)" stroke-width="1px" opacity="0.25"></line><line x1="496.5710520833333" y1="0" x2="496.5710520833333" y2="378" fill="rgb(0, 0, 0)" stroke="rgb(60, 60, 60)" stroke-width="1px" opacity="0.25"></line><line x1="541.713875" y1="0" x2="541.713875" y2="378" fill="rgb(0, 0, 0)" stroke="rgb(60, 60, 60)" stroke-width="1px" opacity="0.25"></line></g><g><line x1="0" y1="378" x2="541.713875" y2="378" fill="rgb(0, 0, 0)" stroke="rgb(60, 60, 60)" stroke-width="1px" opacity="0.25"></line><line x1="0" y1="348.92307692307696" x2="541.713875" y2="348.92307692307696" fill="rgb(0, 0, 0)" stroke="rgb(60, 60, 60)" stroke-width="1px" opacity="0.25"></line><line x1="0" y1="319.84615384615387" x2="541.713875" y2="319.84615384615387" fill="rgb(0, 0, 0)" stroke="rgb(60, 60, 60)" stroke-width="1px" opacity="0.25"></line><line x1="0" y1="290.7692307692307" x2="541.713875" y2="290.7692307692307" fill="rgb(0, 0, 0)" stroke="rgb(60, 60, 60)" stroke-width="1px" opacity="0.25"></line><line x1="0" y1="261.6923076923077" x2="541.713875" y2="261.6923076923077" fill="rgb(0, 0, 0)" stroke="rgb(60, 60, 60)" stroke-width="1px" opacity="0.25"></line><line x1="0" y1="232.61538461538464" x2="541.713875" y2="232.61538461538464" fill="rgb(0, 0, 0)" stroke="rgb(60, 60, 60)" stroke-width="1px" opacity="0.25"></line><line x1="0" y1="203.53846153846152" x2="541.713875" y2="203.53846153846152" fill="rgb(0, 0, 0)" stroke="rgb(60, 60, 60)" stroke-width="1px" opacity="0.25"></line><line x1="0" y1="174.46153846153848" x2="541.713875" y2="174.46153846153848" fill="rgb(0, 0, 0)" stroke="rgb(60, 60, 60)" stroke-width="1px" opacity="0.25"></line><line x1="0" y1="145.38461538461536" x2="541.713875" y2="145.38461538461536" fill="rgb(0, 0, 0)" stroke="rgb(60, 60, 60)" stroke-width="1px" opacity="0.25"></line><line x1="0" y1="116.30769230769232" x2="541.713875" y2="116.30769230769232" fill="rgb(0, 0, 0)" stroke="rgb(60, 60, 60)" stroke-width="1px" opacity="0.25"></line><line x1="0" y1="87.23076923076921" x2="541.713875" y2="87.23076923076921" fill="rgb(0, 0, 0)" stroke="rgb(60, 60, 60)" stroke-width="1px" opacity="0.25"></line><line x1="0" y1="58.15384615384616" x2="541.713875" y2="58.15384615384616" fill="rgb(0, 0, 0)" stroke="rgb(60, 60, 60)" stroke-width="1px" opacity="0.25"></line><line x1="0" y1="29.07692307692306" x2="541.713875" y2="29.07692307692306" fill="rgb(0, 0, 0)" stroke="rgb(60, 60, 60)" stroke-width="1px" opacity="0.25"></line><line x1="0" y1="0" x2="541.713875" y2="0" fill="rgb(0, 0, 0)" stroke="rgb(60, 60, 60)" stroke-width="1px" opacity="0.25"></line></g></g></g><g><g><line x1="0" y1="5262.923076923073" x2="541.713875" y2="5262.923076923073" fill="rgb(0, 0, 0)" stroke="rgb(153, 153, 153)" stroke-width="1.5px"></line></g></g><g><g><line x1="45.14282291666667" y1="0" x2="45.14282291666667" y2="378" fill="rgb(0, 0, 0)" stroke="rgb(153, 153, 153)" stroke-width="1.5px"></line></g></g><g><g><g><g><g><path stroke="rgb(0, 153, 136)" stroke-width="2px" d="M63.199952083333336,456.63491161052974L72.22851666666666,331.0582595971913L81.25708125,208.47193226447467L90.28564583333333,169.60291077540472L99.31421041666667,154.6533671159011L108.34277500000002,148.67341100252597L117.37133958333334,165.11794369037335L126.39990416666667,99.33981293898368L135.42846875,133.72386734302228L144.45703333333333,79.90564881838293L153.48559791666668,82.89528025113628L162.5141625,79.90564881838293L171.54272708333335,91.86521442119898L180.57129166666667,96.35018150623034L189.59985625,73.92569270500779L198.62842083333334,97.8448239106399L207.65698541666669,76.91567076169537L216.68555000000003,67.94573659163265L225.71411458333336,69.44072561997643L234.74267916666668,81.40029122279249L243.77124375000002,72.43070367666401L252.79980833333335,88.87523636451142L261.8283729166667,75.42068173335157L270.8569375,85.88525830782385L279.8855020833334,70.93571464832023L288.91406666666666,91.86521442119898L297.94263125000003,79.90564881838293L306.97119583333335,79.90564881838293L315.99976041666673,75.42068173335157L325.028325,70.93571464832023L334.0568895833334,76.91567076169537L343.0854541666667,75.42068173335157L352.11401875,82.89528025113628L361.14258333333333,79.90564881838293L370.1711479166667,79.90564881838293L379.1997125,70.93571464832023L388.22827708333335,73.92569270500779L397.2568416666667,76.91567076169537L406.28540625000005,81.40029122279249L415.31397083333337,78.41065979003915L424.3425354166667,79.90564881838293L433.37110000000007,76.91567076169537L442.39966458333333,79.90564881838293L451.4282291666667,79.90564881838293L460.45679375000003,81.40029122279249L469.48535833333335,79.90564881838293L478.5139229166667,81.40029122279249L487.54248750000005,81.40029122279249" style="fill: none;" fill="none"></path></g><g><path stroke="rgb(51, 187, 238)" stroke-width="2px" d="M63.199952083333336,396.83639034858095L72.22851666666666,322.0886720510628L81.25708125,328.06828154050373L90.28564583333333,322.0886720510628L99.31421041666667,253.32056324298557L108.34277500000002,227.90609638507547L117.37133958333334,230.89607444176303L126.39990416666667,141.19881248474124L135.42846875,148.67341100252597L144.45703333333333,136.7138453997099L153.48559791666668,118.77432368351866L162.5141625,105.31976905235882L171.54272708333335,162.12831225762002L180.57129166666667,174.08787786043607L189.59985625,166.61293271871716L198.62842083333334,184.55245443490833L207.65698541666669,168.10792174706094L216.68555000000003,121.76430174020624L225.71411458333336,97.8448239106399L234.74267916666668,112.79471419407774L243.77124375000002,123.25929076855002L252.79980833333335,111.29972516573396L261.8283729166667,106.8147580807026L270.8569375,109.80473613739018L279.8855020833334,111.29972516573396L288.91406666666666,129.2392468819252L297.94263125000003,102.32979099567126L306.97119583333335,109.80473613739018L315.99976041666673,123.25929076855002L325.028325,103.82478002401504L334.0568895833334,105.31976905235882L343.0854541666667,102.32979099567126L352.11401875,105.31976905235882L361.14258333333333,105.31976905235882L370.1711479166667,126.24926882523764L379.1997125,94.85519247788656L388.22827708333335,105.31976905235882L397.2568416666667,94.85519247788656L406.28540625000005,111.29972516573396L415.31397083333337,99.33981293898368L424.3425354166667,91.86521442119898L433.37110000000007,94.85519247788656L442.39966458333333,114.28935659848732L451.4282291666667,94.85519247788656L460.45679375000003,96.35018150623034L469.48535833333335,99.33981293898368L478.5139229166667,97.8448239106399L487.54248750000005,97.8448239106399" style="fill: none;" fill="none"></path></g><g><path stroke="rgb(0, 119, 187)" stroke-width="2px" d="M45.14282291666667,301.1591722781841L54.17138750000001,208.47193226447467L63.199952083333336,187.54243249159592L72.22851666666666,178.5724983215332L81.25708125,127.74425785358142L90.28564583333333,96.35018150623034L99.31421041666667,100.83480196732748L108.34277500000002,96.35018150623034L117.37133958333334,91.86521442119898L126.39990416666667,85.88525830782385L135.42846875,91.86521442119898L144.45703333333333,90.3702253928552L153.48559791666668,78.41065979003915L162.5141625,70.93571464832023L171.54272708333335,75.42068173335157L180.57129166666667,63.46111613053552L189.59985625,73.92569270500779L198.62842083333334,73.92569270500779L207.65698541666669,63.46111613053552L216.68555000000003,60.47113807384795L225.71411458333336,70.93571464832023L234.74267916666668,69.44072561997643L243.77124375000002,78.41065979003915L252.79980833333335,73.92569270500779L261.8283729166667,87.38024733616763L270.8569375,81.40029122279249L279.8855020833334,76.91567076169537L288.91406666666666,78.41065979003915L297.94263125000003,67.94573659163265L306.97119583333335,72.43070367666401L315.99976041666673,73.92569270500779L325.028325,75.42068173335157L334.0568895833334,72.43070367666401L343.0854541666667,78.41065979003915L352.11401875,76.91567076169537L361.14258333333333,78.41065979003915L370.1711479166667,72.43070367666401L379.1997125,72.43070367666401L388.22827708333335,75.42068173335157L397.2568416666667,73.92569270500779L406.28540625000005,72.43070367666401L415.31397083333337,72.43070367666401L424.3425354166667,72.43070367666401L433.37110000000007,70.93571464832023L442.39966458333333,72.43070367666401L451.4282291666667,72.43070367666401L460.45679375000003,70.93571464832023L469.48535833333335,70.93571464832023L478.5139229166667,76.91567076169537L487.54248750000005,75.42068173335157" style="fill: none;" fill="none"></path></g><g><path stroke="rgb(255, 112, 67)" stroke-width="2px" d="M45.14282291666667,356.47272645510145L54.17138750000001,189.0374215199397L63.199952083333336,184.55245443490833L72.22851666666666,184.55245443490833L81.25708125,91.86521442119898L90.28564583333333,97.8448239106399L99.31421041666667,91.86521442119898L108.34277500000002,88.87523636451142L117.37133958333334,73.92569270500779L126.39990416666667,78.41065979003915L135.42846875,79.90564881838293L144.45703333333333,69.44072561997643L153.48559791666668,69.44072561997643L162.5141625,82.89528025113628L171.54272708333335,66.45074756328887L180.57129166666667,55.9861709888166L189.59985625,58.97614904550417L198.62842083333334,58.97614904550417L207.65698541666669,63.46111613053552L216.68555000000003,52.996192932129034L225.71411458333336,60.47113807384795L234.74267916666668,63.46111613053552L243.77124375000002,58.97614904550417L252.79980833333335,55.9861709888166L261.8283729166667,63.46111613053552L270.8569375,61.96612710219174L279.8855020833334,69.44072561997643L288.91406666666666,63.46111613053552L297.94263125000003,60.47113807384795L306.97119583333335,58.97614904550417L315.99976041666673,58.97614904550417L325.028325,57.481160017160384L334.0568895833334,60.47113807384795L343.0854541666667,60.47113807384795L352.11401875,60.47113807384795L361.14258333333333,60.47113807384795L370.1711479166667,60.47113807384795L379.1997125,58.97614904550417L388.22827708333335,60.47113807384795L397.2568416666667,58.97614904550417L406.28540625000005,57.481160017160384L415.31397083333337,58.97614904550417L424.3425354166667,57.481160017160384L433.37110000000007,57.481160017160384L442.39966458333333,57.481160017160384L451.4282291666667,57.481160017160384L460.45679375000003,57.481160017160384L469.48535833333335,57.481160017160384L478.5139229166667,57.481160017160384L487.54248750000005,57.481160017160384" style="fill: none;" fill="none"></path></g><g><path stroke="rgb(204, 51, 17)" stroke-width="2px" d="M45.14282291666667,514.9380972202005L54.17138750000001,374.4122481712926L63.199952083333336,301.1591722781841L72.22851666666666,251.8255742146418L81.25708125,238.37101958348197L90.28564583333333,215.9465307822594L99.31421041666667,212.95655272557184L108.34277500000002,200.9969871227558L117.37133958333334,183.05746540656455L126.39990416666667,196.5120200377244L135.42846875,198.00700906606818L144.45703333333333,181.56247637822077L153.48559791666668,178.5724983215332L162.5141625,180.06748734987698L171.54272708333335,192.02739957662732L180.57129166666667,187.54243249159592L189.59985625,187.54243249159592L198.62842083333334,189.0374215199397L207.65698541666669,186.04744346325214L216.68555000000003,186.04744346325214L225.71411458333336,187.54243249159592L234.74267916666668,184.55245443490833L243.77124375000002,186.04744346325214L252.79980833333335,181.56247637822077L261.8283729166667,181.56247637822077L270.8569375,183.05746540656455L279.8855020833334,183.05746540656455L288.91406666666666,183.05746540656455L297.94263125000003,184.55245443490833L306.97119583333335,183.05746540656455L315.99976041666673,184.55245443490833L325.028325,184.55245443490833L334.0568895833334,184.55245443490833L343.0854541666667,184.55245443490833L352.11401875,184.55245443490833L361.14258333333333,184.55245443490833L370.1711479166667,184.55245443490833L379.1997125,184.55245443490833L388.22827708333335,184.55245443490833L397.2568416666667,184.55245443490833L406.28540625000005,184.55245443490833L415.31397083333337,184.55245443490833L424.3425354166667,184.55245443490833L433.37110000000007,184.55245443490833L442.39966458333333,184.55245443490833L451.4282291666667,184.55245443490833L460.45679375000003,184.55245443490833L469.48535833333335,184.55245443490833L478.5139229166667,184.55245443490833L487.54248750000005,184.55245443490833" style="fill: none;" fill="none"></path></g></g></g></g></g><g><g opacity="0.0847033"><span fill="rgb(0, 0, 0)" stroke="none" stroke-width="1px">Alt + Scroll to Zoom</span></g></g></g><g transform="translate(61, 378)" clip-path="url(#clip_1)"><clipPath id="clip_1"><rect width="541" height="22"></rect></clipPath><g><g><line x1="0" y1="0" x2="0" y2="5" style="visibility: inherit;" fill="rgb(0, 0, 0)" stroke="rgb(204, 204, 204)" stroke-width="1px"></line><line x1="45.14282291666667" y1="0" x2="45.14282291666667" y2="5" style="visibility: inherit;" fill="rgb(0, 0, 0)" stroke="rgb(204, 204, 204)" stroke-width="1px"></line><line x1="90.28564583333333" y1="0" x2="90.28564583333333" y2="5" style="visibility: inherit;" fill="rgb(0, 0, 0)" stroke="rgb(204, 204, 204)" stroke-width="1px"></line><line x1="135.42846875" y1="0" x2="135.42846875" y2="5" style="visibility: inherit;" fill="rgb(0, 0, 0)" stroke="rgb(204, 204, 204)" stroke-width="1px"></line><line x1="180.57129166666667" y1="0" x2="180.57129166666667" y2="5" style="visibility: inherit;" fill="rgb(0, 0, 0)" stroke="rgb(204, 204, 204)" stroke-width="1px"></line><line x1="225.71411458333336" y1="0" x2="225.71411458333336" y2="5" style="visibility: inherit;" fill="rgb(0, 0, 0)" stroke="rgb(204, 204, 204)" stroke-width="1px"></line><line x1="270.8569375" y1="0" x2="270.8569375" y2="5" style="visibility: inherit;" fill="rgb(0, 0, 0)" stroke="rgb(204, 204, 204)" stroke-width="1px"></line><line x1="315.99976041666673" y1="0" x2="315.99976041666673" y2="5" style="visibility: inherit;" fill="rgb(0, 0, 0)" stroke="rgb(204, 204, 204)" stroke-width="1px"></line><line x1="361.14258333333333" y1="0" x2="361.14258333333333" y2="5" style="visibility: inherit;" fill="rgb(0, 0, 0)" stroke="rgb(204, 204, 204)" stroke-width="1px"></line><line x1="406.28540625000005" y1="0" x2="406.28540625000005" y2="5" style="visibility: inherit;" fill="rgb(0, 0, 0)" stroke="rgb(204, 204, 204)" stroke-width="1px"></line><line x1="451.4282291666667" y1="0" x2="451.4282291666667" y2="5" style="visibility: inherit;" fill="rgb(0, 0, 0)" stroke="rgb(204, 204, 204)" stroke-width="1px"></line><line x1="496.5710520833333" y1="0" x2="496.5710520833333" y2="5" style="visibility: inherit;" fill="rgb(0, 0, 0)" stroke="rgb(204, 204, 204)" stroke-width="1px"></line><line x1="541.713875" y1="0" x2="541.713875" y2="5" style="visibility: inherit;" fill="rgb(0, 0, 0)" stroke="rgb(204, 204, 204)" stroke-width="1px"></line></g><g transform="translate(0, 8)"><text x="0" y="0" dx="0em" dy="0.95em" style="text-anchor: middle; visibility: hidden; font-family: Roboto, sans-serif; font-size: 12px; font-weight: 200;" fill="rgb(50, 49, 63)" stroke="none" stroke-width="1px">-5</text><text x="45.14282291666667" y="0" dx="0em" dy="0.95em" style="text-anchor: middle; visibility: inherit; font-family: Roboto, sans-serif; font-size: 12px; font-weight: 200;" fill="rgb(50, 49, 63)" stroke="none" stroke-width="1px">0</text><text x="90.28564583333333" y="0" dx="0em" dy="0.95em" style="text-anchor: middle; visibility: inherit; font-family: Roboto, sans-serif; font-size: 12px; font-weight: 200;" fill="rgb(50, 49, 63)" stroke="none" stroke-width="1px">5</text><text x="135.42846875" y="0" dx="0em" dy="0.95em" style="text-anchor: middle; visibility: inherit; font-family: Roboto, sans-serif; font-size: 12px; font-weight: 200;" fill="rgb(50, 49, 63)" stroke="none" stroke-width="1px">10</text><text x="180.57129166666667" y="0" dx="0em" dy="0.95em" style="text-anchor: middle; visibility: inherit; font-family: Roboto, sans-serif; font-size: 12px; font-weight: 200;" fill="rgb(50, 49, 63)" stroke="none" stroke-width="1px">15</text><text x="225.71411458333336" y="0" dx="0em" dy="0.95em" style="text-anchor: middle; visibility: inherit; font-family: Roboto, sans-serif; font-size: 12px; font-weight: 200;" fill="rgb(50, 49, 63)" stroke="none" stroke-width="1px">20</text><text x="270.8569375" y="0" dx="0em" dy="0.95em" style="text-anchor: middle; visibility: inherit; font-family: Roboto, sans-serif; font-size: 12px; font-weight: 200;" fill="rgb(50, 49, 63)" stroke="none" stroke-width="1px">25</text><text x="315.99976041666673" y="0" dx="0em" dy="0.95em" style="text-anchor: middle; visibility: inherit; font-family: Roboto, sans-serif; font-size: 12px; font-weight: 200;" fill="rgb(50, 49, 63)" stroke="none" stroke-width="1px">30</text><text x="361.14258333333333" y="0" dx="0em" dy="0.95em" style="text-anchor: middle; visibility: inherit; font-family: Roboto, sans-serif; font-size: 12px; font-weight: 200;" fill="rgb(50, 49, 63)" stroke="none" stroke-width="1px">35</text><text x="406.28540625000005" y="0" dx="0em" dy="0.95em" style="text-anchor: middle; visibility: inherit; font-family: Roboto, sans-serif; font-size: 12px; font-weight: 200;" fill="rgb(50, 49, 63)" stroke="none" stroke-width="1px">40</text><text x="451.4282291666667" y="0" dx="0em" dy="0.95em" style="text-anchor: middle; visibility: inherit; font-family: Roboto, sans-serif; font-size: 12px; font-weight: 200;" fill="rgb(50, 49, 63)" stroke="none" stroke-width="1px">45</text><text x="496.5710520833333" y="0" dx="0em" dy="0.95em" style="text-anchor: middle; visibility: inherit; font-family: Roboto, sans-serif; font-size: 12px; font-weight: 200;" fill="rgb(50, 49, 63)" stroke="none" stroke-width="1px">50</text><text x="541.713875" y="0" dx="0em" dy="0.95em" style="text-anchor: middle; visibility: hidden; font-family: Roboto, sans-serif; font-size: 12px; font-weight: 200;" fill="rgb(50, 49, 63)" stroke="none" stroke-width="1px">55</text></g><line x1="0" y1="0" x2="541.713875" y2="0" fill="rgb(0, 0, 0)" stroke="rgb(204, 204, 204)" stroke-width="1px"></line></g></g></g></g></svg>