<svg viewBox="0 0 845.5 400" xmlns="http://www.w3.org/2000/svg"><g><g><g><g><g><line x1="49.98400115966797" y1="378.6199998855591" x2="44.98400115966797" y2="378.6199998855591" style="visibility: inherit;" fill="rgb(0, 0, 0)" stroke="rgb(204, 204, 204)" stroke-width="1px"></line><line x1="49.98400115966797" y1="340.7579998970031" x2="44.98400115966797" y2="340.7579998970031" style="visibility: inherit;" fill="rgb(0, 0, 0)" stroke="rgb(204, 204, 204)" stroke-width="1px"></line><line x1="49.98400115966797" y1="302.8959999084472" x2="44.98400115966797" y2="302.8959999084472" style="visibility: inherit;" fill="rgb(0, 0, 0)" stroke="rgb(204, 204, 204)" stroke-width="1px"></line><line x1="49.98400115966797" y1="265.0339999198914" x2="44.98400115966797" y2="265.0339999198914" style="visibility: inherit;" fill="rgb(0, 0, 0)" stroke="rgb(204, 204, 204)" stroke-width="1px"></line><line x1="49.98400115966797" y1="227.17199993133548" x2="44.98400115966797" y2="227.17199993133548" style="visibility: inherit;" fill="rgb(0, 0, 0)" stroke="rgb(204, 204, 204)" stroke-width="1px"></line><line x1="49.98400115966797" y1="189.30999994277954" x2="44.98400115966797" y2="189.30999994277954" style="visibility: inherit;" fill="rgb(0, 0, 0)" stroke="rgb(204, 204, 204)" stroke-width="1px"></line><line x1="49.98400115966797" y1="151.4479999542236" x2="44.98400115966797" y2="151.4479999542236" style="visibility: inherit;" fill="rgb(0, 0, 0)" stroke="rgb(204, 204, 204)" stroke-width="1px"></line><line x1="49.98400115966797" y1="113.58599996566765" x2="44.98400115966797" y2="113.58599996566765" style="visibility: inherit;" fill="rgb(0, 0, 0)" stroke="rgb(204, 204, 204)" stroke-width="1px"></line><line x1="49.98400115966797" y1="75.72399997711167" x2="44.98400115966797" y2="75.72399997711167" style="visibility: inherit;" fill="rgb(0, 0, 0)" stroke="rgb(204, 204, 204)" stroke-width="1px"></line><line x1="49.98400115966797" y1="37.861999988555944" x2="44.98400115966797" y2="37.861999988555944" style="visibility: inherit;" fill="rgb(0, 0, 0)" stroke="rgb(204, 204, 204)" stroke-width="1px"></line><line x1="49.98400115966797" y1="0" x2="44.98400115966797" y2="0" style="visibility: inherit;" fill="rgb(0, 0, 0)" stroke="rgb(204, 204, 204)" stroke-width="1px"></line></g><g transform="translate(39.98400115966797, 0)"><text style="text-anchor: end; visibility: hidden; font-family: Roboto, sans-serif; font-size: 12px; font-weight: 200;" x="0" y="378.6199998855591" dx="0em" dy="0.3em" fill="rgb(50, 49, 63)" stroke="none" stroke-width="1px">0.76</text><text style="text-anchor: end; visibility: inherit; font-family: Roboto, sans-serif; font-size: 12px; font-weight: 200;" x="0" y="340.7579998970031" dx="0em" dy="0.3em" fill="rgb(50, 49, 63)" stroke="none" stroke-width="1px">0.78</text><text style="text-anchor: end; visibility: inherit; font-family: Roboto, sans-serif; font-size: 12px; font-weight: 200;" x="0" y="302.8959999084472" dx="0em" dy="0.3em" fill="rgb(50, 49, 63)" stroke="none" stroke-width="1px">0.8</text><text style="text-anchor: end; visibility: inherit; font-family: Roboto, sans-serif; font-size: 12px; font-weight: 200;" x="0" y="265.0339999198914" dx="0em" dy="0.3em" fill="rgb(50, 49, 63)" stroke="none" stroke-width="1px">0.82</text><text style="text-anchor: end; visibility: inherit; font-family: Roboto, sans-serif; font-size: 12px; font-weight: 200;" x="0" y="227.17199993133548" dx="0em" dy="0.3em" fill="rgb(50, 49, 63)" stroke="none" stroke-width="1px">0.84</text><text style="text-anchor: end; visibility: inherit; font-family: Roboto, sans-serif; font-size: 12px; font-weight: 200;" x="0" y="189.30999994277954" dx="0em" dy="0.3em" fill="rgb(50, 49, 63)" stroke="none" stroke-width="1px">0.86</text><text style="text-anchor: end; visibility: inherit; font-family: Roboto, sans-serif; font-size: 12px; font-weight: 200;" x="0" y="151.4479999542236" dx="0em" dy="0.3em" fill="rgb(50, 49, 63)" stroke="none" stroke-width="1px">0.88</text><text style="text-anchor: end; visibility: inherit; font-family: Roboto, sans-serif; font-size: 12px; font-weight: 200;" x="0" y="113.58599996566765" dx="0em" dy="0.3em" fill="rgb(50, 49, 63)" stroke="none" stroke-width="1px">0.9</text><text style="text-anchor: end; visibility: inherit; font-family: Roboto, sans-serif; font-size: 12px; font-weight: 200;" x="0" y="75.72399997711167" dx="0em" dy="0.3em" fill="rgb(50, 49, 63)" stroke="none" stroke-width="1px">0.92</text><text style="text-anchor: end; visibility: inherit; font-family: Roboto, sans-serif; font-size: 12px; font-weight: 200;" x="0" y="37.861999988555944" dx="0em" dy="0.3em" fill="rgb(50, 49, 63)" stroke="none" stroke-width="1px">0.94</text><text style="text-anchor: end; visibility: hidden; font-family: Roboto, sans-serif; font-size: 12px; font-weight: 200;" x="0" y="0" dx="0em" dy="0.3em" fill="rgb(50, 49, 63)" stroke="none" stroke-width="1px">0.96</text></g><line x1="49.98400115966797" y1="0" x2="49.98400115966797" y2="378.6199998855591" fill="rgb(0, 0, 0)" stroke="rgb(204, 204, 204)" stroke-width="1px"></line></g></g><g transform="translate(49, 0)" clip-path="url(#clip_0)"><clipPath id="clip_0"><rect width="795" height="378"></rect></clipPath><g><g><g><line x1="0" y1="0" x2="0" y2="378.6199998855591" fill="rgb(0, 0, 0)" stroke="rgb(60, 60, 60)" stroke-width="1px" opacity="0.25"></line><line x1="66.292999903361" y1="0" x2="66.292999903361" y2="378.6199998855591" fill="rgb(0, 0, 0)" stroke="rgb(60, 60, 60)" stroke-width="1px" opacity="0.25"></line><line x1="132.585999806722" y1="0" x2="132.585999806722" y2="378.6199998855591" fill="rgb(0, 0, 0)" stroke="rgb(60, 60, 60)" stroke-width="1px" opacity="0.25"></line><line x1="198.878999710083" y1="0" x2="198.878999710083" y2="378.6199998855591" fill="rgb(0, 0, 0)" stroke="rgb(60, 60, 60)" stroke-width="1px" opacity="0.25"></line><line x1="265.171999613444" y1="0" x2="265.171999613444" y2="378.6199998855591" fill="rgb(0, 0, 0)" stroke="rgb(60, 60, 60)" stroke-width="1px" opacity="0.25"></line><line x1="331.46499951680505" y1="0" x2="331.46499951680505" y2="378.6199998855591" fill="rgb(0, 0, 0)" stroke="rgb(60, 60, 60)" stroke-width="1px" opacity="0.25"></line><line x1="397.757999420166" y1="0" x2="397.757999420166" y2="378.6199998855591" fill="rgb(0, 0, 0)" stroke="rgb(60, 60, 60)" stroke-width="1px" opacity="0.25"></line><line x1="464.05099932352704" y1="0" x2="464.05099932352704" y2="378.6199998855591" fill="rgb(0, 0, 0)" stroke="rgb(60, 60, 60)" stroke-width="1px" opacity="0.25"></line><line x1="530.343999226888" y1="0" x2="530.343999226888" y2="378.6199998855591" fill="rgb(0, 0, 0)" stroke="rgb(60, 60, 60)" stroke-width="1px" opacity="0.25"></line><line x1="596.636999130249" y1="0" x2="596.636999130249" y2="378.6199998855591" fill="rgb(0, 0, 0)" stroke="rgb(60, 60, 60)" stroke-width="1px" opacity="0.25"></line><line x1="662.9299990336101" y1="0" x2="662.9299990336101" y2="378.6199998855591" fill="rgb(0, 0, 0)" stroke="rgb(60, 60, 60)" stroke-width="1px" opacity="0.25"></line><line x1="729.222998936971" y1="0" x2="729.222998936971" y2="378.6199998855591" fill="rgb(0, 0, 0)" stroke="rgb(60, 60, 60)" stroke-width="1px" opacity="0.25"></line><line x1="795.515998840332" y1="0" x2="795.515998840332" y2="378.6199998855591" fill="rgb(0, 0, 0)" stroke="rgb(60, 60, 60)" stroke-width="1px" opacity="0.25"></line></g><g><line x1="0" y1="378.6199998855591" x2="795.515998840332" y2="378.6199998855591" fill="rgb(0, 0, 0)" stroke="rgb(60, 60, 60)" stroke-width="1px" opacity="0.25"></line><line x1="0" y1="340.7579998970031" x2="795.515998840332" y2="340.7579998970031" fill="rgb(0, 0, 0)" stroke="rgb(60, 60, 60)" stroke-width="1px" opacity="0.25"></line><line x1="0" y1="302.8959999084472" x2="795.515998840332" y2="302.8959999084472" fill="rgb(0, 0, 0)" stroke="rgb(60, 60, 60)" stroke-width="1px" opacity="0.25"></line><line x1="0" y1="265.0339999198914" x2="795.515998840332" y2="265.0339999198914" fill="rgb(0, 0, 0)" stroke="rgb(60, 60, 60)" stroke-width="1px" opacity="0.25"></line><line x1="0" y1="227.17199993133548" x2="795.515998840332" y2="227.17199993133548" fill="rgb(0, 0, 0)" stroke="rgb(60, 60, 60)" stroke-width="1px" opacity="0.25"></line><line x1="0" y1="189.30999994277954" x2="795.515998840332" y2="189.30999994277954" fill="rgb(0, 0, 0)" stroke="rgb(60, 60, 60)" stroke-width="1px" opacity="0.25"></line><line x1="0" y1="151.4479999542236" x2="795.515998840332" y2="151.4479999542236" fill="rgb(0, 0, 0)" stroke="rgb(60, 60, 60)" stroke-width="1px" opacity="0.25"></line><line x1="0" y1="113.58599996566765" x2="795.515998840332" y2="113.58599996566765" fill="rgb(0, 0, 0)" stroke="rgb(60, 60, 60)" stroke-width="1px" opacity="0.25"></line><line x1="0" y1="75.72399997711167" x2="795.515998840332" y2="75.72399997711167" fill="rgb(0, 0, 0)" stroke="rgb(60, 60, 60)" stroke-width="1px" opacity="0.25"></line><line x1="0" y1="37.861999988555944" x2="795.515998840332" y2="37.861999988555944" fill="rgb(0, 0, 0)" stroke="rgb(60, 60, 60)" stroke-width="1px" opacity="0.25"></line><line x1="0" y1="0" x2="795.515998840332" y2="0" fill="rgb(0, 0, 0)" stroke="rgb(60, 60, 60)" stroke-width="1px" opacity="0.25"></line></g></g></g><g><g><line x1="0" y1="1817.3759994506838" x2="795.515998840332" y2="1817.3759994506838" fill="rgb(0, 0, 0)" stroke="rgb(153, 153, 153)" stroke-width="1.5px"></line></g></g><g><g><line x1="66.292999903361" y1="0" x2="66.292999903361" y2="378.6199998855591" fill="rgb(0, 0, 0)" stroke="rgb(153, 153, 153)" stroke-width="1.5px"></line></g></g><g><g><g><g><g><path style="fill: none;" stroke="rgb(255, 112, 67)" stroke-width="2px" d="M66.292999903361,288.78293323824215L79.55159988403321,240.1171121715519L92.81019986470541,223.0840578725773L106.0687998453776,208.4843454038361L119.3273998260498,201.67110111673568L132.585999806722,204.10444294696904L145.8445997873942,189.0179492746282L159.10319976806642,187.55805701404117L172.3617997487386,179.7714759948474L185.62039972941082,174.90490517193368L198.878999710083,177.8249153682137L212.1375996907552,166.63176862424623L225.3961996714274,172.4716761792533L238.6547996520996,174.90490517193368L251.91339963277179,170.52500271506662L265.171999613444,168.57832925087993L278.4305995941162,156.89862697841878L291.6891995747884,170.52500271506662L304.9477995554606,163.22509006191953L318.20639953613284,154.9519535142321L331.46499951680505,160.79186106923916L344.7235994974772,190.96462273881488L357.9821994781494,167.1184369902929L371.24079945882164,171.0116710811133L384.4993994394938,158.3585192390058L397.757999420166,163.7117584279662L411.01659940083823,179.28480762880073L424.2751993815104,169.55166598297328L437.53379936218266,169.55166598297328L450.7923993428548,149.5987143252717L464.05099932352704,155.92529024632543L477.3095993041992,151.54538778945837L490.56819928487147,171.0116710811133L503.82679926554357,159.33185597109915L517.0853992462158,153.49194841609207L530.343999226888,162.2517533298262L543.6025992075603,166.63176862424623L556.8611991882324,161.27852943528583L570.1197991689046,168.57832925087993L583.3783991495768,152.51861168399873L596.636999130249,149.5987143252717L609.8955991109212,148.13870922713167L623.1541990915935,143.7588067702646L636.4127990722657,140.83890941153757L649.6713990529378,162.73842169587286L662.9299990336101,170.03833434901995L676.1885990142822,152.03194331795206L689.4471989949544,161.7651978013325L702.7057989756266,152.03194331795206L715.9643989562989,148.13870922713167" fill="none"></path></g><g><path style="fill: none;" stroke="rgb(187, 187, 187)" stroke-width="2px" d="M66.292999903361,400.7430614163764L79.55159988403321,247.9501822625776L92.81019986470541,196.66449889056113L106.0687998453776,177.9377529212039L119.3273998260498,164.10556148790195L132.585999806722,146.86849689312115L145.8445997873942,137.50512390844253L159.10319976806642,137.71793553338202L172.3617997487386,129.41862067340085L185.62039972941082,121.54481622574568L198.878999710083,118.99118956402478L212.1375996907552,117.07599777712235L225.3961996714274,109.41500495440667L238.6547996520996,111.33030957886209L251.91339963277179,111.96874445368056L265.171999613444,106.2229434178673L278.4305995941162,100.69006684454652L291.6891995747884,110.47906307910412L304.9477995554606,102.39255984406245L318.20639953613284,90.47556019766289L331.46499951680505,96.43406002086269L344.7235994974772,96.43406002086269L357.9821994781494,92.8163752344443L371.24079945882164,93.02918685938378L384.4993994394938,83.87862549964466L397.757999420166,89.41150207296543L411.01659940083823,87.07068703618403L424.2751993815104,92.39075198456531L437.53379936218266,93.88043335914175L450.7923993428548,92.17794035962582L464.05099932352704,85.1554952492816L477.3095993041992,86.64506378630504L490.56819928487147,85.36830687422109L503.82679926554357,84.94268362434211L517.0853992462158,87.49631028606301L530.343999226888,77.9201256764449L543.6025992075603,88.77306719814696L556.8611991882324,86.43225216136555L570.1197991689046,79.62250583840783L583.3783991495768,77.9201256764449L596.636999130249,83.66581387470517L609.8955991109212,81.11218721298427L623.1541990915935,77.49450242656592L636.4127990722657,84.72987199940262L649.6713990529378,77.06887917668693L662.9299990336101,76.64325592680795L676.1885990142822,76.64325592680795L689.4471989949544,75.57931063966349L702.7057989756266,82.60175575000771L715.9643989562989,80.04812908828681" fill="none"></path></g><g><path style="fill: none;" stroke="rgb(51, 187, 238)" stroke-width="2px" d="M66.292999903361,208.4843454038361L79.55159988403321,195.34452519568194L92.81019986470541,188.04472538008784L106.0687998453776,171.98500781320664L119.3273998260498,170.03833434901995L132.585999806722,162.73842169587286L145.8445997873942,178.3114708967074L159.10319976806642,179.7714759948474L172.3617997487386,164.19842679401287L185.62039972941082,162.73842169587286L198.878999710083,184.63804681776114L212.1375996907552,186.58472028194782L225.3961996714274,172.958231707747L238.6547996520996,160.3051927031925L251.91339963277179,161.27852943528583L265.171999613444,170.03833434901995L278.4305995941162,182.20481782508077L291.6891995747884,159.33185597109915L304.9477995554606,164.19842679401287L318.20639953613284,183.6647100856678L331.46499951680505,163.22509006191953L344.7235994974772,168.09166088483326L357.9821994781494,169.55166598297328L371.24079945882164,157.38518250691246L384.4993994394938,158.3585192390058L397.757999420166,162.73842169587286L411.01659940083823,154.9519535142321L424.2751993815104,175.87824190402702L437.53379936218266,159.81852433714582L450.7923993428548,162.2517533298262L464.05099932352704,169.55166598297328L477.3095993041992,165.6584318921529L490.56819928487147,169.55166598297328L503.82679926554357,158.84518760505247L517.0853992462158,171.49833944715996L530.343999226888,167.6049925187866L543.6025992075603,170.03833434901995L556.8611991882324,167.6049925187866L570.1197991689046,158.84518760505247L583.3783991495768,165.6584318921529L596.636999130249,160.3051927031925L609.8955991109212,168.09166088483326L623.1541990915935,163.22509006191953L636.4127990722657,170.52500271506662L649.6713990529378,167.6049925187866L662.9299990336101,176.85157863612037L676.1885990142822,180.25814436089408L689.4471989949544,164.68509516005955L702.7057989756266,156.4119586123721L715.9643989562989,165.6584318921529" fill="none"></path></g><g><path style="fill: none;" stroke="rgb(204, 51, 17)" stroke-width="2px" d="M66.292999903361,324.5594334644165L79.55159988403321,164.10556148790195L92.81019986470541,120.05524768872223L106.0687998453776,105.79743300554131L119.3273998260498,92.39075198456531L132.585999806722,78.77137217620286L145.8445997873942,83.66581387470517L159.10319976806642,84.94268362434211L172.3617997487386,86.64506378630504L185.62039972941082,79.40980705102133L198.878999710083,67.06718415474283L212.1375996907552,73.23849560288208L225.3961996714274,70.68486894116118L238.6547996520996,67.7056190295613L251.91339963277179,69.40799919152424L265.171999613444,68.98237594164526L278.4305995941162,67.49280740462181L291.6891995747884,67.7056190295613L304.9477995554606,69.40799919152424L318.20639953613284,70.04643406634271L331.46499951680505,66.42874927992436L344.7235994974772,63.02387611844551L357.9821994781494,71.53600260336616L371.24079945882164,65.79031440510589L384.4993994394938,68.98237594164526L397.757999420166,62.172629618687544L411.01659940083823,61.32149595648257L424.2751993815104,65.15187953028742L437.53379936218266,66.42874927992436L450.7923993428548,69.40799919152424L464.05099932352704,61.959817993748054L477.3095993041992,67.49280740462181L490.56819928487147,59.83181458190614L503.82679926554357,57.06537629524575L517.0853992462158,69.40799919152424L530.343999226888,63.87512261820347L543.6025992075603,61.959817993748054L556.8611991882324,74.94087576484502L570.1197991689046,60.47024945672461L583.3783991495768,59.83181458190614L596.636999130249,61.959817993748054L609.8955991109212,66.21593765498487L623.1541990915935,64.30074586808244L636.4127990722657,65.15187953028742L649.6713990529378,61.53430758142206L662.9299990336101,62.172629618687544L676.1885990142822,63.02387611844551L689.4471989949544,55.575807758222304L702.7057989756266,64.93906790534793L715.9643989562989,61.10868433154308" fill="none"></path></g><g><path style="fill: none;" stroke="rgb(0, 119, 187)" stroke-width="2px" d="M66.292999903361,283.9163624153284L79.55159988403321,247.41702482469898L92.81019986470541,222.11072114048395L106.0687998453776,211.89091112860982L119.3273998260498,200.21109601859567L132.585999806722,187.55805701404117L145.8445997873942,184.63804681776114L159.10319976806642,177.8249153682137L172.3617997487386,175.39157353798035L185.62039972941082,169.0649976169266L198.878999710083,163.7117584279662L212.1375996907552,163.7117584279662L225.3961996714274,154.9519535142321L238.6547996520996,151.0587194234117L251.91339963277179,151.54538778945837L265.171999613444,149.11204595922501L278.4305995941162,148.62537759317834L291.6891995747884,147.652040861085L304.9477995554606,149.11204595922501L318.20639953613284,144.24547513631128L331.46499951680505,149.11204595922501L344.7235994974772,149.11204595922501L357.9821994781494,147.652040861085L371.24079945882164,146.19214860049797L384.4993994394938,142.2988016721246L397.757999420166,139.86557267944423L411.01659940083823,142.2988016721246L424.2751993815104,144.24547513631128L437.53379936218266,140.83890941153757L450.7923993428548,137.91889921525754L464.05099932352704,137.91889921525754L477.3095993041992,136.45889411711752L490.56819928487147,140.3522410454909L503.82679926554357,136.9455624831642L517.0853992462158,138.89223594735088L530.343999226888,134.51233349048383L543.6025992075603,136.45889411711752L556.8611991882324,135.97222575107085L570.1197991689046,136.45889411711752L583.3783991495768,136.9455624831642L596.636999130249,136.9455624831642L609.8955991109212,132.07899166025047L623.1541990915935,134.02566512443715L636.4127990722657,134.51233349048383L649.6713990529378,134.9990018565305L662.9299990336101,138.4055675813042L676.1885990142822,138.4055675813042L689.4471989949544,137.43223084921087L702.7057989756266,137.43223084921087L715.9643989562989,130.13243103361677" fill="none"></path></g><g><path style="fill: none;" stroke="rgb(255, 112, 67)" stroke-width="2px" d="M66.292999903361,493.73813071323815L79.55159988403321,267.7408735190793L92.81019986470541,218.37049477151825L106.0687998453776,186.87550265600353L119.3273998260498,167.9360578992598L132.585999806722,151.97575021656294L145.8445997873942,129.84424392327983L159.10319976806642,122.82168597538262L172.3617997487386,109.62781657934616L185.62039972941082,104.52056325590436L198.878999710083,96.43406002086269L212.1375996907552,89.62431369790492L225.3961996714274,85.1554952492816L238.6547996520996,81.75062208780274L251.91339963277179,78.34574892632388L265.171999613444,76.85606755174744L278.4305995941162,73.45130722782157L291.6891995747884,69.19518756658475L304.9477995554606,69.83362244140322L318.20639953613284,65.36469115522691L331.46499951680505,66.42874927992436L344.7235994974772,63.44949936832449L357.9821994781494,58.1294344199432L371.24079945882164,57.27818792018524L384.4993994394938,52.809369471561915L397.757999420166,57.70381117006422L411.01659940083823,52.596557846622424L424.2751993815104,53.66050313376689L437.53379936218266,53.4476915088274L450.7923993428548,50.68125322216701L464.05099932352704,53.66050313376689L477.3095993041992,54.72456125846434L490.56819928487147,50.25562997228803L503.82679926554357,56.63975304536677L517.0853992462158,51.10687647204599L530.343999226888,48.12762656044611L543.6025992075603,49.191684685143564L556.8611991882324,47.27638006068815L570.1197991689046,52.17093459674344L583.3783991495768,43.87161973676228L596.636999130249,45.99962314860419L609.8955991109212,47.91481493550662L623.1541990915935,45.36118827378572L636.4127990722657,50.25562997228803L649.6713990529378,48.76606143526458L662.9299990336101,44.29713014908827L676.1885990142822,45.36118827378572L689.4471989949544,44.72275339896725L702.7057989756266,48.3404381853856L715.9643989562989,43.658808111822786" fill="none"></path></g><g><path style="fill: none;" stroke="rgb(0, 153, 136)" stroke-width="2px" d="M92.81019986470541,408.014200493511L106.0687998453776,358.37504269472737L119.3273998260498,333.55540737655906L132.585999806722,316.03579754909083L145.8445997873942,303.86931407303L159.10319976806642,292.67616732906254L172.3617997487386,292.18949896301586L185.62039972941082,283.9163624153284L198.878999710083,275.643113030088L212.1375996907552,270.2898738411276L225.3961996714274,260.5567321953001L238.6547996520996,253.25681954215307L251.91339963277179,248.876917085286L265.171999613444,244.01034626237228L278.4305995941162,237.19710197527186L291.6891995747884,234.27720461654476L304.9477995554606,229.41063379363104L318.20639953613284,229.41063379363104L331.46499951680505,224.5440629707173L344.7235994974772,221.62405277443727L357.9821994781494,218.21748704966356L371.24079945882164,212.3775794946565L384.4993994394938,210.4309060304698L397.757999420166,207.0243403056961L411.01659940083823,206.5376719396494L424.2751993815104,207.0243403056961L437.53379936218266,204.10444294696904L450.7923993428548,202.15776948278236L464.05099932352704,200.21109601859567L477.3095993041992,197.29119865986863L490.56819928487147,196.31786192777528L503.82679926554357,196.31786192777528L517.0853992462158,195.34452519568194L530.343999226888,194.3711884635886L543.6025992075603,193.8846329350949L556.8611991882324,190.4779543727682L570.1197991689046,189.0179492746282L583.3783991495768,189.99128600672154L596.636999130249,189.0179492746282L609.8955991109212,184.63804681776114L623.1541990915935,183.6647100856678L636.4127990722657,182.69148619112744L649.6713990529378,184.15137845171446L662.9299990336101,181.7181494590341L676.1885990142822,182.69148619112744L689.4471989949544,182.20481782508077L702.7057989756266,180.25814436089408L715.9643989562989,180.25814436089408" fill="none"></path></g><g><path style="fill: none;" stroke="rgb(238, 51, 119)" stroke-width="2px" d="M106.0687998453776,388.4004385200979L119.3273998260498,348.606244382155L132.585999806722,327.3258717510769L145.8445997873942,313.70637910516143L159.10319976806642,303.06624920839886L172.3617997487386,293.49006459878075L185.62039972941082,281.7858765773207L198.878999710083,273.0609384674606L212.1375996907552,265.4000584822979L225.3961996714274,263.271942232903L238.6547996520996,254.12138087316387L251.91339963277179,247.52455901269863L265.171999613444,238.3739976529595L278.4305995941162,231.35143970506223L291.6891995747884,229.6490595430993L304.9477995554606,219.00881680878373L318.20639953613284,216.66800177200233L331.46499951680505,218.15768314657876L344.7235994974772,217.3064366468208L357.9821994781494,206.45349512511874L371.24079945882164,203.47424521351886L384.4993994394938,197.9412558026451L397.757999420166,190.2803758174824L411.01659940083823,189.42912931772443L424.2751993815104,187.513937530822L437.53379936218266,182.4066842073802L450.7923993428548,180.0658691705988L464.05099932352704,178.36337617108288L477.3095993041992,174.10736934739904L490.56819928487147,171.97925309800414L503.82679926554357,170.70249618592018L517.0853992462158,168.57437993652528L530.343999226888,166.44637652468336L543.6025992075603,165.3823183999859L556.8611991882324,156.87019191506525L570.1197991689046,160.7006883264231L583.3783991495768,152.18856184150243L596.636999130249,154.10375362840486L609.8955991109212,150.06055842966052L623.1541990915935,151.55012696668396L636.4127990722657,147.71963055532612L649.6713990529378,144.52768185633974L662.9299990336101,142.82518885682381L676.1885990142822,135.16430887166112L689.4471989949544,134.10025074696367L702.7057989756266,138.143558783261L715.9643989562989,134.31306237190316" fill="none"></path></g></g></g></g></g></g><g transform="translate(49, 378)" clip-path="url(#clip_1)"><clipPath id="clip_1"><rect width="795" height="21"></rect></clipPath><g><g><line x1="0" y1="0" x2="0" y2="5" style="visibility: inherit;" fill="rgb(0, 0, 0)" stroke="rgb(204, 204, 204)" stroke-width="1px"></line><line x1="66.292999903361" y1="0" x2="66.292999903361" y2="5" style="visibility: inherit;" fill="rgb(0, 0, 0)" stroke="rgb(204, 204, 204)" stroke-width="1px"></line><line x1="132.585999806722" y1="0" x2="132.585999806722" y2="5" style="visibility: inherit;" fill="rgb(0, 0, 0)" stroke="rgb(204, 204, 204)" stroke-width="1px"></line><line x1="198.878999710083" y1="0" x2="198.878999710083" y2="5" style="visibility: inherit;" fill="rgb(0, 0, 0)" stroke="rgb(204, 204, 204)" stroke-width="1px"></line><line x1="265.171999613444" y1="0" x2="265.171999613444" y2="5" style="visibility: inherit;" fill="rgb(0, 0, 0)" stroke="rgb(204, 204, 204)" stroke-width="1px"></line><line x1="331.46499951680505" y1="0" x2="331.46499951680505" y2="5" style="visibility: inherit;" fill="rgb(0, 0, 0)" stroke="rgb(204, 204, 204)" stroke-width="1px"></line><line x1="397.757999420166" y1="0" x2="397.757999420166" y2="5" style="visibility: inherit;" fill="rgb(0, 0, 0)" stroke="rgb(204, 204, 204)" stroke-width="1px"></line><line x1="464.05099932352704" y1="0" x2="464.05099932352704" y2="5" style="visibility: inherit;" fill="rgb(0, 0, 0)" stroke="rgb(204, 204, 204)" stroke-width="1px"></line><line x1="530.343999226888" y1="0" x2="530.343999226888" y2="5" style="visibility: inherit;" fill="rgb(0, 0, 0)" stroke="rgb(204, 204, 204)" stroke-width="1px"></line><line x1="596.636999130249" y1="0" x2="596.636999130249" y2="5" style="visibility: inherit;" fill="rgb(0, 0, 0)" stroke="rgb(204, 204, 204)" stroke-width="1px"></line><line x1="662.9299990336101" y1="0" x2="662.9299990336101" y2="5" style="visibility: inherit;" fill="rgb(0, 0, 0)" stroke="rgb(204, 204, 204)" stroke-width="1px"></line><line x1="729.222998936971" y1="0" x2="729.222998936971" y2="5" style="visibility: inherit;" fill="rgb(0, 0, 0)" stroke="rgb(204, 204, 204)" stroke-width="1px"></line><line x1="795.515998840332" y1="0" x2="795.515998840332" y2="5" style="visibility: inherit;" fill="rgb(0, 0, 0)" stroke="rgb(204, 204, 204)" stroke-width="1px"></line></g><g transform="translate(0, 8)"><text style="text-anchor: middle; visibility: hidden; font-family: Roboto, sans-serif; font-size: 12px; font-weight: 200;" x="0" y="0" dx="0em" dy="0.95em" fill="rgb(50, 49, 63)" stroke="none" stroke-width="1px">-5</text><text style="text-anchor: middle; visibility: hidden; font-family: Roboto, sans-serif; font-size: 12px; font-weight: 200;" x="66.292999903361" y="0" dx="0em" dy="0.95em" fill="rgb(50, 49, 63)" stroke="none" stroke-width="1px">0</text><text style="text-anchor: middle; visibility: hidden; font-family: Roboto, sans-serif; font-size: 12px; font-weight: 200;" x="132.585999806722" y="0" dx="0em" dy="0.95em" fill="rgb(50, 49, 63)" stroke="none" stroke-width="1px">5</text><text style="text-anchor: middle; visibility: hidden; font-family: Roboto, sans-serif; font-size: 12px; font-weight: 200;" x="198.878999710083" y="0" dx="0em" dy="0.95em" fill="rgb(50, 49, 63)" stroke="none" stroke-width="1px">10</text><text style="text-anchor: middle; visibility: hidden; font-family: Roboto, sans-serif; font-size: 12px; font-weight: 200;" x="265.171999613444" y="0" dx="0em" dy="0.95em" fill="rgb(50, 49, 63)" stroke="none" stroke-width="1px">15</text><text style="text-anchor: middle; visibility: hidden; font-family: Roboto, sans-serif; font-size: 12px; font-weight: 200;" x="331.46499951680505" y="0" dx="0em" dy="0.95em" fill="rgb(50, 49, 63)" stroke="none" stroke-width="1px">20</text><text style="text-anchor: middle; visibility: hidden; font-family: Roboto, sans-serif; font-size: 12px; font-weight: 200;" x="397.757999420166" y="0" dx="0em" dy="0.95em" fill="rgb(50, 49, 63)" stroke="none" stroke-width="1px">25</text><text style="text-anchor: middle; visibility: hidden; font-family: Roboto, sans-serif; font-size: 12px; font-weight: 200;" x="464.05099932352704" y="0" dx="0em" dy="0.95em" fill="rgb(50, 49, 63)" stroke="none" stroke-width="1px">30</text><text style="text-anchor: middle; visibility: hidden; font-family: Roboto, sans-serif; font-size: 12px; font-weight: 200;" x="530.343999226888" y="0" dx="0em" dy="0.95em" fill="rgb(50, 49, 63)" stroke="none" stroke-width="1px">35</text><text style="text-anchor: middle; visibility: hidden; font-family: Roboto, sans-serif; font-size: 12px; font-weight: 200;" x="596.636999130249" y="0" dx="0em" dy="0.95em" fill="rgb(50, 49, 63)" stroke="none" stroke-width="1px">40</text><text style="text-anchor: middle; visibility: hidden; font-family: Roboto, sans-serif; font-size: 12px; font-weight: 200;" x="662.9299990336101" y="0" dx="0em" dy="0.95em" fill="rgb(50, 49, 63)" stroke="none" stroke-width="1px">45</text><text style="text-anchor: middle; visibility: hidden; font-family: Roboto, sans-serif; font-size: 12px; font-weight: 200;" x="729.222998936971" y="0" dx="0em" dy="0.95em" fill="rgb(50, 49, 63)" stroke="none" stroke-width="1px">50</text><text style="text-anchor: middle; visibility: hidden; font-family: Roboto, sans-serif; font-size: 12px; font-weight: 200;" x="795.515998840332" y="0" dx="0em" dy="0.95em" fill="rgb(50, 49, 63)" stroke="none" stroke-width="1px">55</text></g><line x1="0" y1="0" x2="795.515998840332" y2="0" fill="rgb(0, 0, 0)" stroke="rgb(204, 204, 204)" stroke-width="1px"></line></g></g></g></g></svg>