<svg viewBox="0 0 551.6666870117188 400" xmlns="http://www.w3.org/2000/svg"><g><g><g><g><g><line x1="50" y1="378" x2="45" y2="378" style="visibility: inherit;" fill="rgb(0, 0, 0)" stroke="rgb(204, 204, 204)" stroke-width="1px"></line><line x1="50" y1="343.63636363636357" x2="45" y2="343.63636363636357" style="visibility: inherit;" fill="rgb(0, 0, 0)" stroke="rgb(204, 204, 204)" stroke-width="1px"></line><line x1="50" y1="309.2727272727272" x2="45" y2="309.2727272727272" style="visibility: inherit;" fill="rgb(0, 0, 0)" stroke="rgb(204, 204, 204)" stroke-width="1px"></line><line x1="50" y1="274.9090909090908" x2="45" y2="274.9090909090908" style="visibility: inherit;" fill="rgb(0, 0, 0)" stroke="rgb(204, 204, 204)" stroke-width="1px"></line><line x1="50" y1="240.54545454545442" x2="45" y2="240.54545454545442" style="visibility: inherit;" fill="rgb(0, 0, 0)" stroke="rgb(204, 204, 204)" stroke-width="1px"></line><line x1="50" y1="206.181818181818" x2="45" y2="206.181818181818" style="visibility: inherit;" fill="rgb(0, 0, 0)" stroke="rgb(204, 204, 204)" stroke-width="1px"></line><line x1="50" y1="171.8181818181816" x2="45" y2="171.8181818181816" style="visibility: inherit;" fill="rgb(0, 0, 0)" stroke="rgb(204, 204, 204)" stroke-width="1px"></line><line x1="50" y1="137.4545454545452" x2="45" y2="137.4545454545452" style="visibility: inherit;" fill="rgb(0, 0, 0)" stroke="rgb(204, 204, 204)" stroke-width="1px"></line><line x1="50" y1="103.09090909090884" x2="45" y2="103.09090909090884" style="visibility: inherit;" fill="rgb(0, 0, 0)" stroke="rgb(204, 204, 204)" stroke-width="1px"></line><line x1="50" y1="68.72727272727279" x2="45" y2="68.72727272727279" style="visibility: inherit;" fill="rgb(0, 0, 0)" stroke="rgb(204, 204, 204)" stroke-width="1px"></line><line x1="50" y1="34.36363636363642" x2="45" y2="34.36363636363642" style="visibility: inherit;" fill="rgb(0, 0, 0)" stroke="rgb(204, 204, 204)" stroke-width="1px"></line><line x1="50" y1="0" x2="45" y2="0" style="visibility: inherit;" fill="rgb(0, 0, 0)" stroke="rgb(204, 204, 204)" stroke-width="1px"></line></g><g transform="translate(40, 0)"><text x="0" y="378" dx="0em" dy="0.3em" style="text-anchor: end; visibility: hidden; font-family: Roboto, sans-serif; font-size: 12px; font-weight: 200;" fill="rgb(50, 49, 63)" stroke="none" stroke-width="1px">0.85</text><text x="0" y="343.63636363636357" dx="0em" dy="0.3em" style="text-anchor: end; visibility: inherit; font-family: Roboto, sans-serif; font-size: 12px; font-weight: 200;" fill="rgb(50, 49, 63)" stroke="none" stroke-width="1px">0.86</text><text x="0" y="309.2727272727272" dx="0em" dy="0.3em" style="text-anchor: end; visibility: inherit; font-family: Roboto, sans-serif; font-size: 12px; font-weight: 200;" fill="rgb(50, 49, 63)" stroke="none" stroke-width="1px">0.87</text><text x="0" y="274.9090909090908" dx="0em" dy="0.3em" style="text-anchor: end; visibility: inherit; font-family: Roboto, sans-serif; font-size: 12px; font-weight: 200;" fill="rgb(50, 49, 63)" stroke="none" stroke-width="1px">0.88</text><text x="0" y="240.54545454545442" dx="0em" dy="0.3em" style="text-anchor: end; visibility: inherit; font-family: Roboto, sans-serif; font-size: 12px; font-weight: 200;" fill="rgb(50, 49, 63)" stroke="none" stroke-width="1px">0.89</text><text x="0" y="206.181818181818" dx="0em" dy="0.3em" style="text-anchor: end; visibility: inherit; font-family: Roboto, sans-serif; font-size: 12px; font-weight: 200;" fill="rgb(50, 49, 63)" stroke="none" stroke-width="1px">0.9</text><text x="0" y="171.8181818181816" dx="0em" dy="0.3em" style="text-anchor: end; visibility: inherit; font-family: Roboto, sans-serif; font-size: 12px; font-weight: 200;" fill="rgb(50, 49, 63)" stroke="none" stroke-width="1px">0.91</text><text x="0" y="137.4545454545452" dx="0em" dy="0.3em" style="text-anchor: end; visibility: inherit; font-family: Roboto, sans-serif; font-size: 12px; font-weight: 200;" fill="rgb(50, 49, 63)" stroke="none" stroke-width="1px">0.92</text><text x="0" y="103.09090909090884" dx="0em" dy="0.3em" style="text-anchor: end; visibility: inherit; font-family: Roboto, sans-serif; font-size: 12px; font-weight: 200;" fill="rgb(50, 49, 63)" stroke="none" stroke-width="1px">0.93</text><text x="0" y="68.72727272727279" dx="0em" dy="0.3em" style="text-anchor: end; visibility: inherit; font-family: Roboto, sans-serif; font-size: 12px; font-weight: 200;" fill="rgb(50, 49, 63)" stroke="none" stroke-width="1px">0.94</text><text x="0" y="34.36363636363642" dx="0em" dy="0.3em" style="text-anchor: end; visibility: inherit; font-family: Roboto, sans-serif; font-size: 12px; font-weight: 200;" fill="rgb(50, 49, 63)" stroke="none" stroke-width="1px">0.95</text><text x="0" y="0" dx="0em" dy="0.3em" style="text-anchor: end; visibility: hidden; font-family: Roboto, sans-serif; font-size: 12px; font-weight: 200;" fill="rgb(50, 49, 63)" stroke="none" stroke-width="1px">0.96</text></g><line x1="50" y1="0" x2="50" y2="378" fill="rgb(0, 0, 0)" stroke="rgb(204, 204, 204)" stroke-width="1px"></line></g></g><g transform="translate(50, 0)" clip-path="url(#clip_0)"><clipPath id="clip_0"><rect width="501" height="378"></rect></clipPath><g><g><g><line x1="0" y1="0" x2="0" y2="378" fill="rgb(0, 0, 0)" stroke="rgb(60, 60, 60)" stroke-width="1px" opacity="0.25"></line><line x1="41.80558333333333" y1="0" x2="41.80558333333333" y2="378" fill="rgb(0, 0, 0)" stroke="rgb(60, 60, 60)" stroke-width="1px" opacity="0.25"></line><line x1="83.61116666666666" y1="0" x2="83.61116666666666" y2="378" fill="rgb(0, 0, 0)" stroke="rgb(60, 60, 60)" stroke-width="1px" opacity="0.25"></line><line x1="125.41675000000001" y1="0" x2="125.41675000000001" y2="378" fill="rgb(0, 0, 0)" stroke="rgb(60, 60, 60)" stroke-width="1px" opacity="0.25"></line><line x1="167.22233333333332" y1="0" x2="167.22233333333332" y2="378" fill="rgb(0, 0, 0)" stroke="rgb(60, 60, 60)" stroke-width="1px" opacity="0.25"></line><line x1="209.0279166666667" y1="0" x2="209.0279166666667" y2="378" fill="rgb(0, 0, 0)" stroke="rgb(60, 60, 60)" stroke-width="1px" opacity="0.25"></line><line x1="250.83350000000002" y1="0" x2="250.83350000000002" y2="378" fill="rgb(0, 0, 0)" stroke="rgb(60, 60, 60)" stroke-width="1px" opacity="0.25"></line><line x1="292.63908333333336" y1="0" x2="292.63908333333336" y2="378" fill="rgb(0, 0, 0)" stroke="rgb(60, 60, 60)" stroke-width="1px" opacity="0.25"></line><line x1="334.44466666666665" y1="0" x2="334.44466666666665" y2="378" fill="rgb(0, 0, 0)" stroke="rgb(60, 60, 60)" stroke-width="1px" opacity="0.25"></line><line x1="376.25025000000005" y1="0" x2="376.25025000000005" y2="378" fill="rgb(0, 0, 0)" stroke="rgb(60, 60, 60)" stroke-width="1px" opacity="0.25"></line><line x1="418.0558333333334" y1="0" x2="418.0558333333334" y2="378" fill="rgb(0, 0, 0)" stroke="rgb(60, 60, 60)" stroke-width="1px" opacity="0.25"></line><line x1="459.8614166666667" y1="0" x2="459.8614166666667" y2="378" fill="rgb(0, 0, 0)" stroke="rgb(60, 60, 60)" stroke-width="1px" opacity="0.25"></line><line x1="501.66700000000003" y1="0" x2="501.66700000000003" y2="378" fill="rgb(0, 0, 0)" stroke="rgb(60, 60, 60)" stroke-width="1px" opacity="0.25"></line></g><g><line x1="0" y1="378" x2="501.66700000000003" y2="378" fill="rgb(0, 0, 0)" stroke="rgb(60, 60, 60)" stroke-width="1px" opacity="0.25"></line><line x1="0" y1="343.63636363636357" x2="501.66700000000003" y2="343.63636363636357" fill="rgb(0, 0, 0)" stroke="rgb(60, 60, 60)" stroke-width="1px" opacity="0.25"></line><line x1="0" y1="309.2727272727272" x2="501.66700000000003" y2="309.2727272727272" fill="rgb(0, 0, 0)" stroke="rgb(60, 60, 60)" stroke-width="1px" opacity="0.25"></line><line x1="0" y1="274.9090909090908" x2="501.66700000000003" y2="274.9090909090908" fill="rgb(0, 0, 0)" stroke="rgb(60, 60, 60)" stroke-width="1px" opacity="0.25"></line><line x1="0" y1="240.54545454545442" x2="501.66700000000003" y2="240.54545454545442" fill="rgb(0, 0, 0)" stroke="rgb(60, 60, 60)" stroke-width="1px" opacity="0.25"></line><line x1="0" y1="206.181818181818" x2="501.66700000000003" y2="206.181818181818" fill="rgb(0, 0, 0)" stroke="rgb(60, 60, 60)" stroke-width="1px" opacity="0.25"></line><line x1="0" y1="171.8181818181816" x2="501.66700000000003" y2="171.8181818181816" fill="rgb(0, 0, 0)" stroke="rgb(60, 60, 60)" stroke-width="1px" opacity="0.25"></line><line x1="0" y1="137.4545454545452" x2="501.66700000000003" y2="137.4545454545452" fill="rgb(0, 0, 0)" stroke="rgb(60, 60, 60)" stroke-width="1px" opacity="0.25"></line><line x1="0" y1="103.09090909090884" x2="501.66700000000003" y2="103.09090909090884" fill="rgb(0, 0, 0)" stroke="rgb(60, 60, 60)" stroke-width="1px" opacity="0.25"></line><line x1="0" y1="68.72727272727279" x2="501.66700000000003" y2="68.72727272727279" fill="rgb(0, 0, 0)" stroke="rgb(60, 60, 60)" stroke-width="1px" opacity="0.25"></line><line x1="0" y1="34.36363636363642" x2="501.66700000000003" y2="34.36363636363642" fill="rgb(0, 0, 0)" stroke="rgb(60, 60, 60)" stroke-width="1px" opacity="0.25"></line><line x1="0" y1="0" x2="501.66700000000003" y2="0" fill="rgb(0, 0, 0)" stroke="rgb(60, 60, 60)" stroke-width="1px" opacity="0.25"></line></g></g></g><g><g><line x1="0" y1="3298.9090909090914" x2="501.66700000000003" y2="3298.9090909090914" fill="rgb(0, 0, 0)" stroke="rgb(153, 153, 153)" stroke-width="1.5px"></line></g></g><g><g><line x1="41.80558333333333" y1="0" x2="41.80558333333333" y2="378" fill="rgb(0, 0, 0)" stroke="rgb(153, 153, 153)" stroke-width="1.5px"></line></g></g><g><g><g><g><g><path stroke="rgb(51, 187, 238)" stroke-width="2px" d="M41.80558333333333,366.957692709836L50.166700000000006,312.1879599744623L58.52781666666667,299.82052829048837L66.88893333333334,294.5201126445423L75.25005,264.4852432771162L83.61116666666666,245.93419816277233L91.97228333333334,248.5842011625116L100.33340000000001,245.93419816277233L108.69451666666667,243.28399033979923L117.05563333333335,239.7503799091685L125.41675000000001,243.28399033979923L133.77786666666668,242.40058773214156L142.13898333333333,235.33357169411389L150.5001,230.91655865582544L158.86121666666668,233.5667664787985L167.22233333333332,226.49975044077087L175.58345,232.68336387114078L183.94456666666667,232.68336387114078L192.30568333333335,226.49975044077087L200.66680000000002,224.73294522545544L209.0279166666667,230.91655865582544L217.38903333333334,230.03315604816774L225.75015000000002,235.33357169411389L234.1112666666667,232.68336387114078L242.47238333333334,240.6337825168262L250.83350000000002,237.1001720861954L259.1946166666667,234.4501690864562L267.55573333333336,235.33357169411389L275.91685,229.14975344051004L284.27796666666666,231.7999612634831L292.63908333333336,232.68336387114078L301.0002,233.5667664787985L309.3613166666667,231.7999612634831L317.72243333333336,235.33357169411389L326.08355,234.4501690864562L334.44466666666665,235.33357169411389L342.80578333333335,231.7999612634831L351.1669,231.7999612634831L359.5280166666667,233.5667664787985L367.88913333333335,232.68336387114078L376.25025000000005,231.7999612634831L384.6113666666667,231.7999612634831L392.97248333333334,231.7999612634831L401.33360000000005,230.91655865582544L409.6947166666667,231.7999612634831L418.0558333333334,231.7999612634831L426.41695000000004,230.91655865582544L434.7780666666667,230.91655865582544L443.13918333333334,234.4501690864562L451.50030000000004,233.5667664787985" style="fill: none;" fill="none"></path></g><g><path stroke="rgb(204, 51, 17)" stroke-width="2px" d="M41.80558333333333,614.6362966190685L50.166700000000006,318.3580550713972L58.52781666666667,213.67576776851297L66.88893333333334,183.54565559733987L75.25005,139.8957762284711L83.61116666666666,118.26398485357102L91.97228333333334,123.28563607822755L100.33340000000001,119.42287471077648L108.69451666666667,118.65028147263952L117.05563333333335,110.92475873773738L125.41675000000001,98.56367657401334L133.77786666666668,102.04014132239591L142.13898333333333,98.94997319308185L150.5001,97.01849009773937L158.86121666666668,92.38313549215134L167.22233333333332,95.85980506376774L175.58345,91.22424563494586L183.94456666666667,93.5420253493568L192.30568333333335,91.99683887308284L200.66680000000002,81.18094318563278L209.0279166666667,86.20259441028932L217.38903333333334,87.74778088656329L225.75015000000002,87.36148426749479L234.1112666666667,87.74778088656329L242.47238333333334,85.81629779122082L250.83350000000002,82.72612966190675L259.1946166666667,86.20259441028932L267.55573333333336,83.11242628097521L275.91685,79.63596153259265L284.27796666666666,76.9318851991132L292.63908333333336,77.70447843725022L301.0002,81.18094318563278L309.3613166666667,80.0220533284273L317.72243333333336,87.74778088656329L326.08355,82.72612966190675L334.44466666666665,83.49872290004372L342.80578333333335,85.43000117215232L351.1669,82.33983304283825L359.5280166666667,86.20259441028932L367.88913333333335,81.56723980470125L376.25025000000005,83.11242628097521L384.6113666666667,87.36148426749479L392.97248333333334,83.49872290004372L401.33360000000005,84.27131613818072L409.6947166666667,73.84171706979915L418.0558333333334,81.18094318563278L426.41695000000004,85.0439093763177L434.7780666666667,79.24966491352419L443.13918333333334,80.79464656656428L451.50030000000004,78.09077505631868" style="fill: none;" fill="none"></path></g><g><path stroke="rgb(0, 119, 187)" stroke-width="2px" d="M41.80558333333333,365.1908874945206L50.166700000000006,322.7885864431207L58.52781666666667,287.45309660651463L66.88893333333334,273.31906453045923L75.25005,255.6514220237731L83.61116666666666,264.4852432771162L91.97228333333334,248.5842011625116L100.33340000000001,245.05079555511466L108.69451666666667,232.68336387114078L117.05563333333335,232.68336387114078L125.41675000000001,248.5842011625116L133.77786666666668,254.76801941611544L142.13898333333333,246.81739594719616L150.5001,251.23440898548463L158.86121666666668,252.11781159314233L167.22233333333332,245.05079555511466L175.58345,239.7503799091685L183.94456666666667,233.5667664787985L192.30568333333335,238.86697730151081L200.66680000000002,229.14975344051004L209.0279166666667,244.167392947457L217.38903333333334,238.86697730151081L225.75015000000002,238.86697730151081L234.1112666666667,232.68336387114078L242.47238333333334,237.1001720861954L250.83350000000002,233.5667664787985L259.1946166666667,228.26635083285237L267.55573333333336,231.7999612634831L275.91685,232.68336387114078L284.27796666666666,229.14975344051004L292.63908333333336,231.7999612634831L301.0002,233.5667664787985L309.3613166666667,228.26635083285237L317.72243333333336,231.7999612634831L326.08355,229.14975344051004L334.44466666666665,230.03315604816774L342.80578333333335,225.61634783311314L351.1669,229.14975344051004L359.5280166666667,228.26635083285237L367.88913333333335,230.03315604816774L376.25025000000005,229.14975344051004L384.6113666666667,229.14975344051004L392.97248333333334,228.26635083285237L401.33360000000005,229.14975344051004L409.6947166666667,229.14975344051004L418.0558333333334,231.7999612634831L426.41695000000004,229.14975344051004L434.7780666666667,229.14975344051004L443.13918333333334,231.7999612634831L451.50030000000004,233.5667664787985" style="fill: none;" fill="none"></path></g><g><path stroke="rgb(255, 112, 67)" stroke-width="2px" d="M41.80558333333333,613.0911101427945L50.166700000000006,293.24979894811446L58.52781666666667,220.6286972652781L66.88893333333334,192.04397639361287L75.25005,156.89221299778322L83.61116666666666,131.39766025543202L91.97228333333334,127.14860226891247L100.33340000000001,121.35435780611895L108.69451666666667,110.92475873773738L117.05563333333335,117.10529981959938L125.41675000000001,107.06179254705246L133.77786666666668,105.51681089401232L142.13898333333333,102.42643794146441L150.5001,96.63219347867087L158.86121666666668,103.97162441773835L167.22233333333332,99.72256643121882L175.58345,94.31461858749377L183.94456666666667,92.7694321112198L192.30568333333335,92.38313549215134L200.66680000000002,97.01849009773937L209.0279166666667,91.22424563494586L217.38903333333334,91.99683887308284L225.75015000000002,89.29296736283723L234.1112666666667,88.13407750563175L242.47238333333334,87.36148426749479L250.83350000000002,85.81629779122082L259.1946166666667,85.43000117215232L267.55573333333336,85.43000117215232L275.91685,82.33983304283825L284.27796666666666,88.52037412470027L292.63908333333336,86.97518764842629L301.0002,90.83794901587736L309.3613166666667,82.33983304283825L317.72243333333336,83.88501951911222L326.08355,83.11242628097521L334.44466666666665,80.40834994749576L342.80578333333335,88.13407750563175L351.1669,81.95353642376975L359.5280166666667,89.29296736283723L367.88913333333335,80.0220533284273L376.25025000000005,83.11242628097521L384.6113666666667,83.11242628097521L392.97248333333334,80.79464656656428L401.33360000000005,78.47707167538718L409.6947166666667,88.13407750563175L418.0558333333334,81.56723980470125L426.41695000000004,77.70447843725022L434.7780666666667,80.79464656656428L443.13918333333334,84.65761275724918L451.50030000000004,78.09077505631868" style="fill: none;" fill="none"></path></g></g></g></g></g></g><g transform="translate(50, 378)" clip-path="url(#clip_1)"><clipPath id="clip_1"><rect width="501" height="22"></rect></clipPath><g><g><line x1="0" y1="0" x2="0" y2="5" style="visibility: inherit;" fill="rgb(0, 0, 0)" stroke="rgb(204, 204, 204)" stroke-width="1px"></line><line x1="41.80558333333333" y1="0" x2="41.80558333333333" y2="5" style="visibility: inherit;" fill="rgb(0, 0, 0)" stroke="rgb(204, 204, 204)" stroke-width="1px"></line><line x1="83.61116666666666" y1="0" x2="83.61116666666666" y2="5" style="visibility: inherit;" fill="rgb(0, 0, 0)" stroke="rgb(204, 204, 204)" stroke-width="1px"></line><line x1="125.41675000000001" y1="0" x2="125.41675000000001" y2="5" style="visibility: inherit;" fill="rgb(0, 0, 0)" stroke="rgb(204, 204, 204)" stroke-width="1px"></line><line x1="167.22233333333332" y1="0" x2="167.22233333333332" y2="5" style="visibility: inherit;" fill="rgb(0, 0, 0)" stroke="rgb(204, 204, 204)" stroke-width="1px"></line><line x1="209.0279166666667" y1="0" x2="209.0279166666667" y2="5" style="visibility: inherit;" fill="rgb(0, 0, 0)" stroke="rgb(204, 204, 204)" stroke-width="1px"></line><line x1="250.83350000000002" y1="0" x2="250.83350000000002" y2="5" style="visibility: inherit;" fill="rgb(0, 0, 0)" stroke="rgb(204, 204, 204)" stroke-width="1px"></line><line x1="292.63908333333336" y1="0" x2="292.63908333333336" y2="5" style="visibility: inherit;" fill="rgb(0, 0, 0)" stroke="rgb(204, 204, 204)" stroke-width="1px"></line><line x1="334.44466666666665" y1="0" x2="334.44466666666665" y2="5" style="visibility: inherit;" fill="rgb(0, 0, 0)" stroke="rgb(204, 204, 204)" stroke-width="1px"></line><line x1="376.25025000000005" y1="0" x2="376.25025000000005" y2="5" style="visibility: inherit;" fill="rgb(0, 0, 0)" stroke="rgb(204, 204, 204)" stroke-width="1px"></line><line x1="418.0558333333334" y1="0" x2="418.0558333333334" y2="5" style="visibility: inherit;" fill="rgb(0, 0, 0)" stroke="rgb(204, 204, 204)" stroke-width="1px"></line><line x1="459.8614166666667" y1="0" x2="459.8614166666667" y2="5" style="visibility: inherit;" fill="rgb(0, 0, 0)" stroke="rgb(204, 204, 204)" stroke-width="1px"></line><line x1="501.66700000000003" y1="0" x2="501.66700000000003" y2="5" style="visibility: inherit;" fill="rgb(0, 0, 0)" stroke="rgb(204, 204, 204)" stroke-width="1px"></line></g><g transform="translate(0, 8)"><text x="0" y="0" dx="0em" dy="0.95em" style="text-anchor: middle; visibility: hidden; font-family: Roboto, sans-serif; font-size: 12px; font-weight: 200;" fill="rgb(50, 49, 63)" stroke="none" stroke-width="1px">-5</text><text x="41.80558333333333" y="0" dx="0em" dy="0.95em" style="text-anchor: middle; visibility: inherit; font-family: Roboto, sans-serif; font-size: 12px; font-weight: 200;" fill="rgb(50, 49, 63)" stroke="none" stroke-width="1px">0</text><text x="83.61116666666666" y="0" dx="0em" dy="0.95em" style="text-anchor: middle; visibility: inherit; font-family: Roboto, sans-serif; font-size: 12px; font-weight: 200;" fill="rgb(50, 49, 63)" stroke="none" stroke-width="1px">5</text><text x="125.41675000000001" y="0" dx="0em" dy="0.95em" style="text-anchor: middle; visibility: inherit; font-family: Roboto, sans-serif; font-size: 12px; font-weight: 200;" fill="rgb(50, 49, 63)" stroke="none" stroke-width="1px">10</text><text x="167.22233333333332" y="0" dx="0em" dy="0.95em" style="text-anchor: middle; visibility: inherit; font-family: Roboto, sans-serif; font-size: 12px; font-weight: 200;" fill="rgb(50, 49, 63)" stroke="none" stroke-width="1px">15</text><text x="209.0279166666667" y="0" dx="0em" dy="0.95em" style="text-anchor: middle; visibility: inherit; font-family: Roboto, sans-serif; font-size: 12px; font-weight: 200;" fill="rgb(50, 49, 63)" stroke="none" stroke-width="1px">20</text><text x="250.83350000000002" y="0" dx="0em" dy="0.95em" style="text-anchor: middle; visibility: inherit; font-family: Roboto, sans-serif; font-size: 12px; font-weight: 200;" fill="rgb(50, 49, 63)" stroke="none" stroke-width="1px">25</text><text x="292.63908333333336" y="0" dx="0em" dy="0.95em" style="text-anchor: middle; visibility: inherit; font-family: Roboto, sans-serif; font-size: 12px; font-weight: 200;" fill="rgb(50, 49, 63)" stroke="none" stroke-width="1px">30</text><text x="334.44466666666665" y="0" dx="0em" dy="0.95em" style="text-anchor: middle; visibility: inherit; font-family: Roboto, sans-serif; font-size: 12px; font-weight: 200;" fill="rgb(50, 49, 63)" stroke="none" stroke-width="1px">35</text><text x="376.25025000000005" y="0" dx="0em" dy="0.95em" style="text-anchor: middle; visibility: inherit; font-family: Roboto, sans-serif; font-size: 12px; font-weight: 200;" fill="rgb(50, 49, 63)" stroke="none" stroke-width="1px">40</text><text x="418.0558333333334" y="0" dx="0em" dy="0.95em" style="text-anchor: middle; visibility: inherit; font-family: Roboto, sans-serif; font-size: 12px; font-weight: 200;" fill="rgb(50, 49, 63)" stroke="none" stroke-width="1px">45</text><text x="459.8614166666667" y="0" dx="0em" dy="0.95em" style="text-anchor: middle; visibility: inherit; font-family: Roboto, sans-serif; font-size: 12px; font-weight: 200;" fill="rgb(50, 49, 63)" stroke="none" stroke-width="1px">50</text><text x="501.66700000000003" y="0" dx="0em" dy="0.95em" style="text-anchor: middle; visibility: hidden; font-family: Roboto, sans-serif; font-size: 12px; font-weight: 200;" fill="rgb(50, 49, 63)" stroke="none" stroke-width="1px">55</text></g><line x1="0" y1="0" x2="501.66700000000003" y2="0" fill="rgb(0, 0, 0)" stroke="rgb(204, 204, 204)" stroke-width="1px"></line></g></g></g></g></svg>