<svg viewBox="0 0 603.6666870117188 400" xmlns="http://www.w3.org/2000/svg"><g><g><g><g><g><line x1="41.171875" y1="358.7182179309673" x2="36.171875" y2="358.7182179309673" style="visibility: inherit;" fill="rgb(0, 0, 0)" stroke="rgb(204, 204, 204)" stroke-width="1px"></line><line x1="41.171875" y1="311.3932210865931" x2="36.171875" y2="311.3932210865931" style="visibility: inherit;" fill="rgb(0, 0, 0)" stroke="rgb(204, 204, 204)" stroke-width="1px"></line><line x1="41.171875" y1="277.8156014623377" x2="36.171875" y2="277.8156014623377" style="visibility: inherit;" fill="rgb(0, 0, 0)" stroke="rgb(204, 204, 204)" stroke-width="1px"></line><line x1="41.171875" y1="251.7707762711888" x2="36.171875" y2="251.7707762711888" style="visibility: inherit;" fill="rgb(0, 0, 0)" stroke="rgb(204, 204, 204)" stroke-width="1px"></line><line x1="41.171875" y1="230.49060461796347" x2="36.171875" y2="230.49060461796347" style="visibility: inherit;" fill="rgb(0, 0, 0)" stroke="rgb(204, 204, 204)" stroke-width="1px"></line><line x1="41.171875" y1="212.49847584905098" x2="36.171875" y2="212.49847584905098" style="visibility: inherit;" fill="rgb(0, 0, 0)" stroke="rgb(204, 204, 204)" stroke-width="1px"></line><line x1="41.171875" y1="196.91298499370805" x2="36.171875" y2="196.91298499370805" style="visibility: inherit;" fill="rgb(0, 0, 0)" stroke="rgb(204, 204, 204)" stroke-width="1px"></line><line x1="41.171875" y1="183.16560777358933" x2="36.171875" y2="183.16560777358933" style="visibility: inherit;" fill="rgb(0, 0, 0)" stroke="rgb(204, 204, 204)" stroke-width="1px"></line><line x1="41.171875" y1="170.86815980255923" x2="36.171875" y2="170.86815980255923" style="visibility: inherit;" fill="rgb(0, 0, 0)" stroke="rgb(204, 204, 204)" stroke-width="1px"></line><line x1="41.171875" y1="89.9655433339296" x2="36.171875" y2="89.9655433339296" style="visibility: inherit;" fill="rgb(0, 0, 0)" stroke="rgb(204, 204, 204)" stroke-width="1px"></line><line x1="41.171875" y1="42.64054648955547" x2="36.171875" y2="42.64054648955547" style="visibility: inherit;" fill="rgb(0, 0, 0)" stroke="rgb(204, 204, 204)" stroke-width="1px"></line><line x1="41.171875" y1="9.062926865300032" x2="36.171875" y2="9.062926865300032" style="visibility: inherit;" fill="rgb(0, 0, 0)" stroke="rgb(204, 204, 204)" stroke-width="1px"></line></g><g transform="translate(31.171875, 0)"><text x="0" y="358.7182179309673" dx="0em" dy="0.3em" style="text-anchor: end; visibility: inherit; font-family: Roboto, sans-serif; font-size: 12px; font-weight: 200;" fill="rgb(50, 49, 63)" stroke="none" stroke-width="1px">0.2</text><text x="0" y="311.3932210865931" dx="0em" dy="0.3em" style="text-anchor: end; visibility: hidden; font-family: Roboto, sans-serif; font-size: 12px; font-weight: 200;" fill="rgb(50, 49, 63)" stroke="none" stroke-width="1px">0.3</text><text x="0" y="277.8156014623377" dx="0em" dy="0.3em" style="text-anchor: end; visibility: inherit; font-family: Roboto, sans-serif; font-size: 12px; font-weight: 200;" fill="rgb(50, 49, 63)" stroke="none" stroke-width="1px">0.4</text><text x="0" y="251.7707762711888" dx="0em" dy="0.3em" style="text-anchor: end; visibility: hidden; font-family: Roboto, sans-serif; font-size: 12px; font-weight: 200;" fill="rgb(50, 49, 63)" stroke="none" stroke-width="1px">0.5</text><text x="0" y="230.49060461796347" dx="0em" dy="0.3em" style="text-anchor: end; visibility: inherit; font-family: Roboto, sans-serif; font-size: 12px; font-weight: 200;" fill="rgb(50, 49, 63)" stroke="none" stroke-width="1px">0.6</text><text x="0" y="212.49847584905098" dx="0em" dy="0.3em" style="text-anchor: end; visibility: hidden; font-family: Roboto, sans-serif; font-size: 12px; font-weight: 200;" fill="rgb(50, 49, 63)" stroke="none" stroke-width="1px">0.7</text><text x="0" y="196.91298499370805" dx="0em" dy="0.3em" style="text-anchor: end; visibility: inherit; font-family: Roboto, sans-serif; font-size: 12px; font-weight: 200;" fill="rgb(50, 49, 63)" stroke="none" stroke-width="1px">0.8</text><text x="0" y="183.16560777358933" dx="0em" dy="0.3em" style="text-anchor: end; visibility: hidden; font-family: Roboto, sans-serif; font-size: 12px; font-weight: 200;" fill="rgb(50, 49, 63)" stroke="none" stroke-width="1px">0.9</text><text x="0" y="170.86815980255923" dx="0em" dy="0.3em" style="text-anchor: end; visibility: inherit; font-family: Roboto, sans-serif; font-size: 12px; font-weight: 200;" fill="rgb(50, 49, 63)" stroke="none" stroke-width="1px">1</text><text x="0" y="89.9655433339296" dx="0em" dy="0.3em" style="text-anchor: end; visibility: hidden; font-family: Roboto, sans-serif; font-size: 12px; font-weight: 200;" fill="rgb(50, 49, 63)" stroke="none" stroke-width="1px">2</text><text x="0" y="42.64054648955547" dx="0em" dy="0.3em" style="text-anchor: end; visibility: inherit; font-family: Roboto, sans-serif; font-size: 12px; font-weight: 200;" fill="rgb(50, 49, 63)" stroke="none" stroke-width="1px">3</text><text x="0" y="9.062926865300032" dx="0em" dy="0.3em" style="text-anchor: end; visibility: hidden; font-family: Roboto, sans-serif; font-size: 12px; font-weight: 200;" fill="rgb(50, 49, 63)" stroke="none" stroke-width="1px">4</text></g><line x1="41.171875" y1="0" x2="41.171875" y2="378" fill="rgb(0, 0, 0)" stroke="rgb(204, 204, 204)" stroke-width="1px"></line></g></g><g transform="translate(41, 0)" clip-path="url(#clip_0)"><clipPath id="clip_0"><rect width="562" height="378"></rect></clipPath><g><g><g><line x1="0" y1="0" x2="0" y2="378" fill="rgb(0, 0, 0)" stroke="rgb(60, 60, 60)" stroke-width="1px" opacity="0.25"></line><line x1="46.87459375" y1="0" x2="46.87459375" y2="378" fill="rgb(0, 0, 0)" stroke="rgb(60, 60, 60)" stroke-width="1px" opacity="0.25"></line><line x1="93.7491875" y1="0" x2="93.7491875" y2="378" fill="rgb(0, 0, 0)" stroke="rgb(60, 60, 60)" stroke-width="1px" opacity="0.25"></line><line x1="140.62378125" y1="0" x2="140.62378125" y2="378" fill="rgb(0, 0, 0)" stroke="rgb(60, 60, 60)" stroke-width="1px" opacity="0.25"></line><line x1="187.498375" y1="0" x2="187.498375" y2="378" fill="rgb(0, 0, 0)" stroke="rgb(60, 60, 60)" stroke-width="1px" opacity="0.25"></line><line x1="234.37296875" y1="0" x2="234.37296875" y2="378" fill="rgb(0, 0, 0)" stroke="rgb(60, 60, 60)" stroke-width="1px" opacity="0.25"></line><line x1="281.2475625" y1="0" x2="281.2475625" y2="378" fill="rgb(0, 0, 0)" stroke="rgb(60, 60, 60)" stroke-width="1px" opacity="0.25"></line><line x1="328.12215625000005" y1="0" x2="328.12215625000005" y2="378" fill="rgb(0, 0, 0)" stroke="rgb(60, 60, 60)" stroke-width="1px" opacity="0.25"></line><line x1="374.99675" y1="0" x2="374.99675" y2="378" fill="rgb(0, 0, 0)" stroke="rgb(60, 60, 60)" stroke-width="1px" opacity="0.25"></line><line x1="421.87134375000005" y1="0" x2="421.87134375000005" y2="378" fill="rgb(0, 0, 0)" stroke="rgb(60, 60, 60)" stroke-width="1px" opacity="0.25"></line><line x1="468.7459375" y1="0" x2="468.7459375" y2="378" fill="rgb(0, 0, 0)" stroke="rgb(60, 60, 60)" stroke-width="1px" opacity="0.25"></line><line x1="515.62053125" y1="0" x2="515.62053125" y2="378" fill="rgb(0, 0, 0)" stroke="rgb(60, 60, 60)" stroke-width="1px" opacity="0.25"></line><line x1="562.495125" y1="0" x2="562.495125" y2="378" fill="rgb(0, 0, 0)" stroke="rgb(60, 60, 60)" stroke-width="1px" opacity="0.25"></line></g><g><line x1="0" y1="358.7182179309673" x2="562.495125" y2="358.7182179309673" fill="rgb(0, 0, 0)" stroke="rgb(60, 60, 60)" stroke-width="1px" opacity="0.25"></line><line x1="0" y1="311.3932210865931" x2="562.495125" y2="311.3932210865931" fill="rgb(0, 0, 0)" stroke="rgb(60, 60, 60)" stroke-width="1px" opacity="0.25"></line><line x1="0" y1="277.8156014623377" x2="562.495125" y2="277.8156014623377" fill="rgb(0, 0, 0)" stroke="rgb(60, 60, 60)" stroke-width="1px" opacity="0.25"></line><line x1="0" y1="251.7707762711888" x2="562.495125" y2="251.7707762711888" fill="rgb(0, 0, 0)" stroke="rgb(60, 60, 60)" stroke-width="1px" opacity="0.25"></line><line x1="0" y1="230.49060461796347" x2="562.495125" y2="230.49060461796347" fill="rgb(0, 0, 0)" stroke="rgb(60, 60, 60)" stroke-width="1px" opacity="0.25"></line><line x1="0" y1="212.49847584905098" x2="562.495125" y2="212.49847584905098" fill="rgb(0, 0, 0)" stroke="rgb(60, 60, 60)" stroke-width="1px" opacity="0.25"></line><line x1="0" y1="196.91298499370805" x2="562.495125" y2="196.91298499370805" fill="rgb(0, 0, 0)" stroke="rgb(60, 60, 60)" stroke-width="1px" opacity="0.25"></line><line x1="0" y1="183.16560777358933" x2="562.495125" y2="183.16560777358933" fill="rgb(0, 0, 0)" stroke="rgb(60, 60, 60)" stroke-width="1px" opacity="0.25"></line><line x1="0" y1="170.86815980255923" x2="562.495125" y2="170.86815980255923" fill="rgb(0, 0, 0)" stroke="rgb(60, 60, 60)" stroke-width="1px" opacity="0.25"></line><line x1="0" y1="89.9655433339296" x2="562.495125" y2="89.9655433339296" fill="rgb(0, 0, 0)" stroke="rgb(60, 60, 60)" stroke-width="1px" opacity="0.25"></line><line x1="0" y1="42.64054648955547" x2="562.495125" y2="42.64054648955547" fill="rgb(0, 0, 0)" stroke="rgb(60, 60, 60)" stroke-width="1px" opacity="0.25"></line><line x1="0" y1="9.062926865300032" x2="562.495125" y2="9.062926865300032" fill="rgb(0, 0, 0)" stroke="rgb(60, 60, 60)" stroke-width="1px" opacity="0.25"></line></g></g></g><g><g><line x1="46.87459375" y1="0" x2="46.87459375" y2="378" fill="rgb(0, 0, 0)" stroke="rgb(153, 153, 153)" stroke-width="1.5px"></line></g></g><g><g><g><g><g><path stroke="rgb(0, 153, 136)" stroke-width="2px" d="M46.87459375,89.5591325690416L56.24951250000001,100.41425514877497L65.62443125,89.0798868184491L74.99935,92.83395328564053L84.37426875,115.0632261285279L93.7491875,122.71853369028257L103.12410625,123.16554973143404L112.49902500000002,121.02612064559207L121.87394375000001,113.09945133959354L131.2488625,123.21686671049295L140.62378125,124.22445858344399L149.9987,127.71339993278444L159.37361875,125.0110828057808L168.7485375,122.49409404644643L178.12345625,122.68414640228964L187.498375,122.35010260103849L196.87329375,125.17618333786349L206.2482125,122.1012905050626L215.62313125000003,123.70113631733813L224.99805000000003,124.08241810326885L234.37296875,123.99983569407466L243.74788750000002,121.90123542347585L253.12280625000002,122.90272501748325L262.497725,120.50517271386606L271.87264375,123.16894303931528L281.2475625,122.21603696685736L290.62248125,122.42276056947902L299.9974,121.73913800654918L309.37231875000003,121.34965475068518L318.7472375,121.9071623909317L328.12215625000005,121.12180569116418L337.497075,121.22997262517869L346.87199375000006,121.44828407899787L356.2469125,121.46475774287474L365.62183125,121.45798758741454L374.99675,121.32970223936442L384.37166875,121.12096983296405L393.7465875,121.09675071564504L403.12150625000004,120.96951487211206L412.496425,121.20583998524981L421.87134375000005,121.23382849038151L431.24626250000006,121.32000028895068L440.62118125,121.10348178149063L449.99610000000007,121.39481536384869L459.37101875,121.35133885503959L468.7459375,121.31459448633795L478.12085625000003,121.21377756366799L487.49577500000004,121.20212141999032L496.87069375,121.13956909316438L506.24561250000005,121.13971448254422" style="fill: none;" fill="none"></path></g><g><path stroke="rgb(51, 187, 238)" stroke-width="2px" d="M46.87459375,91.95179780102983L56.24951250000001,104.25543064511761L65.62443125,90.6117486854486L74.99935,94.84979662008716L84.37426875,84.25418566358124L93.7491875,75.01306322563272L103.12410625,68.89327422765112L112.49902500000002,62.893776796946106L121.87394375000001,60.59124717692215L131.2488625,76.88037370981831L140.62378125,75.06240417068918L149.9987,74.5176040408746L159.37361875,71.36232680111539L168.7485375,73.54897885184134L178.12345625,68.28533459007751L187.498375,63.071353685503354L196.87329375,65.4455414055446L206.2482125,59.66609732366606L215.62313125000003,52.22274399330958L224.99805000000003,59.80257809663199L234.37296875,58.79043080577621L243.74788750000002,60.16055444315941L253.12280625000002,58.53950620343342L262.497725,56.92128948829184L271.87264375,58.679485422101244L281.2475625,52.906431213169995L290.62248125,55.39813761763621L299.9974,54.93952808573564L309.37231875000003,54.170764368437624L318.7472375,55.24566682314625L328.12215625000005,54.27808797406696L337.497075,54.80399140586298L346.87199375000006,55.97161340993151L356.2469125,54.13718519309685L365.62183125,52.91702632643173L374.99675,53.398486636912985L384.37166875,53.31613669908407L393.7465875,55.31074629864784L403.12150625000004,54.00000000000002L412.496425,54.626830141698036L421.87134375000005,54.60147432498194L431.24626250000006,52.960946539811225L440.62118125,53.68857188693517L449.99610000000007,54.29235468209636L459.37101875,51.64871302147647L468.7459375,52.35879245467059L478.12085625000003,52.17573870717573L487.49577500000004,52.06055564380949L496.87069375,50.67217726170285L506.24561250000005,50.557068057585944" style="fill: none;" fill="none"></path></g><g><path stroke="rgb(0, 119, 187)" stroke-width="2px" d="M46.87459375,302.9207868502066L56.24951250000001,315.902010254078L65.62443125,322.2599020013074L74.99935,317.59095074816867L84.37426875,323.9984499246851L93.7491875,323.7033679369414L103.12410625,315.89351422493553L112.49902500000002,315.77500789804657L121.87394375000001,312.8764600538036L131.2488625,313.43803976766355L140.62378125,312.54017466128556L149.9987,310.16377068055266L159.37361875,310.7748333121928L168.7485375,307.8071008912106L178.12345625,309.4501669520556L187.498375,309.3923885972755L196.87329375,308.0234905166515L206.2482125,306.8194322658535L215.62313125000003,306.4779055205613L224.99805000000003,306.47419259574855L234.37296875,305.3055850997518L243.74788750000002,305.4022104063571L253.12280625000002,304.85345959453525L262.497725,304.42758767285545L271.87264375,303.9578342115817L281.2475625,303.9324882691046L290.62248125,303.75642612761897L299.9974,303.3576476813448L309.37231875000003,302.95819918728955L318.7472375,303.45648613715065L328.12215625000005,303.4047717505964L337.497075,303.19520310631526L346.87199375000006,303.40162089195144L356.2469125,303.12716235326707L365.62183125,303.1359015923086L374.99675,303.23706079377524L384.37166875,303.2012235487258L393.7465875,303.1395854478258L403.12150625000004,303.10954543159016L412.496425,303.10025738342733L421.87134375000005,303.0264976476845L431.24626250000006,303.00337096082563L440.62118125,302.9119235335651L449.99610000000007,302.9010663487966L459.37101875,302.9080635646884L468.7459375,302.88885187549886L478.12085625000003,302.814449900362L487.49577500000004,302.7814562110167L496.87069375,302.77273270044435L506.24561250000005,302.7458123959874" style="fill: none;" fill="none"></path></g><g><path stroke="rgb(255, 112, 67)" stroke-width="2px" d="M46.87459375,295.60316995121974L56.24951250000001,318.8374828345057L65.62443125,318.14919594951266L74.99935,315.8306266903796L84.37426875,324.47027329915926L93.7491875,324.4540754788238L103.12410625,321.83194090826794L112.49902500000002,320.50141907786974L121.87394375000001,318.4004040048067L131.2488625,321.1605985211514L140.62378125,320.29957717510797L149.9987,319.032477155876L159.37361875,317.98048617235315L168.7485375,316.15163549400955L178.12345625,317.78415361300443L187.498375,317.6009530271215L196.87329375,317.25163829525377L206.2482125,317.41071431242204L215.62313125000003,316.6533059965086L224.99805000000003,317.1607723096161L234.37296875,316.6589462889284L243.74788750000002,316.68506500248253L253.12280625000002,316.38079848797713L262.497725,315.70703460005234L271.87264375,316.0234203720925L281.2475625,315.95197459586075L290.62248125,316.0714694527329L299.9974,315.88758544756416L309.37231875000003,315.70284773798323L318.7472375,315.616689482875L328.12215625000005,315.5816502649872L337.497075,315.49142613007587L346.87199375000006,315.5286606628082L356.2469125,315.51891848126553L365.62183125,315.52229391696335L374.99675,315.51449812947044L384.37166875,315.5318441659708L393.7465875,315.55033422738296L403.12150625000004,315.57100235013695L412.496425,315.5655826220688L421.87134375000005,315.57590555820656L431.24626250000006,315.563840190896L440.62118125,315.55383072815147L449.99610000000007,315.5637200241877L459.37101875,315.55779595886156L468.7459375,315.55348227492215L478.12085625000003,315.5523167665072L487.49577500000004,315.5533501032797L496.87069375,315.55806031236534L506.24561250000005,315.55937007264777" style="fill: none;" fill="none"></path></g><g><path stroke="rgb(204, 51, 17)" stroke-width="2px" d="M46.87459375,250.59631006349406L56.24951250000001,276.9401707130819L65.62443125,290.9650850366484L74.99935,301.5403328552627L84.37426875,305.1951519397143L93.7491875,308.2780732018019L103.12410625,311.3624940826855L112.49902500000002,313.71159617440424L121.87394375000001,316.21473252454376L131.2488625,317.4519613526745L140.62378125,318.37803471227255L149.9987,319.22763659090856L159.37361875,320.226179029524L168.7485375,320.89308371191186L178.12345625,321.34250691377144L187.498375,321.79819255517936L196.87329375,322.15704305324346L206.2482125,322.44878472166295L215.62313125000003,322.84670477479693L224.99805000000003,322.97074773366796L234.37296875,323.1022032849698L243.74788750000002,323.2262615786212L253.12280625000002,323.38835282037235L262.497725,323.5373263872301L271.87264375,323.59523899634445L281.2475625,323.6668844723703L290.62248125,323.7305447070971L299.9974,323.7819001754101L309.37231875000003,323.8411597694703L318.7472375,323.8659945511906L328.12215625000005,323.8880987258686L337.497075,323.9068382925809L346.87199375000006,323.925981052728L356.2469125,323.9554822818164L365.62183125,323.9622227775095L374.99675,323.9707199723166L384.37166875,323.9787915889041L393.7465875,323.9890982403672L403.12150625000004,324L412.496425,324.00341023815673L421.87134375000005,324.00767317597575L431.24626250000006,324.01242718117345L440.62118125,324.0166258522222L449.99610000000007,324.02068255786634L459.37101875,324.02225876815726L468.7459375,324.02367995961896L478.12085625000003,324.02533373146787L487.49577500000004,324.02697460638285L496.87069375,324.0288351538787L506.24561250000005,324.02937781915165" style="fill: none;" fill="none"></path></g></g></g></g></g></g><g transform="translate(41, 378)" clip-path="url(#clip_1)"><clipPath id="clip_1"><rect width="562" height="22"></rect></clipPath><g><g><line x1="0" y1="0" x2="0" y2="5" style="visibility: inherit;" fill="rgb(0, 0, 0)" stroke="rgb(204, 204, 204)" stroke-width="1px"></line><line x1="46.87459375" y1="0" x2="46.87459375" y2="5" style="visibility: inherit;" fill="rgb(0, 0, 0)" stroke="rgb(204, 204, 204)" stroke-width="1px"></line><line x1="93.7491875" y1="0" x2="93.7491875" y2="5" style="visibility: inherit;" fill="rgb(0, 0, 0)" stroke="rgb(204, 204, 204)" stroke-width="1px"></line><line x1="140.62378125" y1="0" x2="140.62378125" y2="5" style="visibility: inherit;" fill="rgb(0, 0, 0)" stroke="rgb(204, 204, 204)" stroke-width="1px"></line><line x1="187.498375" y1="0" x2="187.498375" y2="5" style="visibility: inherit;" fill="rgb(0, 0, 0)" stroke="rgb(204, 204, 204)" stroke-width="1px"></line><line x1="234.37296875" y1="0" x2="234.37296875" y2="5" style="visibility: inherit;" fill="rgb(0, 0, 0)" stroke="rgb(204, 204, 204)" stroke-width="1px"></line><line x1="281.2475625" y1="0" x2="281.2475625" y2="5" style="visibility: inherit;" fill="rgb(0, 0, 0)" stroke="rgb(204, 204, 204)" stroke-width="1px"></line><line x1="328.12215625000005" y1="0" x2="328.12215625000005" y2="5" style="visibility: inherit;" fill="rgb(0, 0, 0)" stroke="rgb(204, 204, 204)" stroke-width="1px"></line><line x1="374.99675" y1="0" x2="374.99675" y2="5" style="visibility: inherit;" fill="rgb(0, 0, 0)" stroke="rgb(204, 204, 204)" stroke-width="1px"></line><line x1="421.87134375000005" y1="0" x2="421.87134375000005" y2="5" style="visibility: inherit;" fill="rgb(0, 0, 0)" stroke="rgb(204, 204, 204)" stroke-width="1px"></line><line x1="468.7459375" y1="0" x2="468.7459375" y2="5" style="visibility: inherit;" fill="rgb(0, 0, 0)" stroke="rgb(204, 204, 204)" stroke-width="1px"></line><line x1="515.62053125" y1="0" x2="515.62053125" y2="5" style="visibility: inherit;" fill="rgb(0, 0, 0)" stroke="rgb(204, 204, 204)" stroke-width="1px"></line><line x1="562.495125" y1="0" x2="562.495125" y2="5" style="visibility: inherit;" fill="rgb(0, 0, 0)" stroke="rgb(204, 204, 204)" stroke-width="1px"></line></g><g transform="translate(0, 8)"><text x="0" y="0" dx="0em" dy="0.95em" style="text-anchor: middle; visibility: hidden; font-family: Roboto, sans-serif; font-size: 12px; font-weight: 200;" fill="rgb(50, 49, 63)" stroke="none" stroke-width="1px">-5</text><text x="46.87459375" y="0" dx="0em" dy="0.95em" style="text-anchor: middle; visibility: inherit; font-family: Roboto, sans-serif; font-size: 12px; font-weight: 200;" fill="rgb(50, 49, 63)" stroke="none" stroke-width="1px">0</text><text x="93.7491875" y="0" dx="0em" dy="0.95em" style="text-anchor: middle; visibility: inherit; font-family: Roboto, sans-serif; font-size: 12px; font-weight: 200;" fill="rgb(50, 49, 63)" stroke="none" stroke-width="1px">5</text><text x="140.62378125" y="0" dx="0em" dy="0.95em" style="text-anchor: middle; visibility: inherit; font-family: Roboto, sans-serif; font-size: 12px; font-weight: 200;" fill="rgb(50, 49, 63)" stroke="none" stroke-width="1px">10</text><text x="187.498375" y="0" dx="0em" dy="0.95em" style="text-anchor: middle; visibility: inherit; font-family: Roboto, sans-serif; font-size: 12px; font-weight: 200;" fill="rgb(50, 49, 63)" stroke="none" stroke-width="1px">15</text><text x="234.37296875" y="0" dx="0em" dy="0.95em" style="text-anchor: middle; visibility: inherit; font-family: Roboto, sans-serif; font-size: 12px; font-weight: 200;" fill="rgb(50, 49, 63)" stroke="none" stroke-width="1px">20</text><text x="281.2475625" y="0" dx="0em" dy="0.95em" style="text-anchor: middle; visibility: inherit; font-family: Roboto, sans-serif; font-size: 12px; font-weight: 200;" fill="rgb(50, 49, 63)" stroke="none" stroke-width="1px">25</text><text x="328.12215625000005" y="0" dx="0em" dy="0.95em" style="text-anchor: middle; visibility: inherit; font-family: Roboto, sans-serif; font-size: 12px; font-weight: 200;" fill="rgb(50, 49, 63)" stroke="none" stroke-width="1px">30</text><text x="374.99675" y="0" dx="0em" dy="0.95em" style="text-anchor: middle; visibility: inherit; font-family: Roboto, sans-serif; font-size: 12px; font-weight: 200;" fill="rgb(50, 49, 63)" stroke="none" stroke-width="1px">35</text><text x="421.87134375000005" y="0" dx="0em" dy="0.95em" style="text-anchor: middle; visibility: inherit; font-family: Roboto, sans-serif; font-size: 12px; font-weight: 200;" fill="rgb(50, 49, 63)" stroke="none" stroke-width="1px">40</text><text x="468.7459375" y="0" dx="0em" dy="0.95em" style="text-anchor: middle; visibility: inherit; font-family: Roboto, sans-serif; font-size: 12px; font-weight: 200;" fill="rgb(50, 49, 63)" stroke="none" stroke-width="1px">45</text><text x="515.62053125" y="0" dx="0em" dy="0.95em" style="text-anchor: middle; visibility: inherit; font-family: Roboto, sans-serif; font-size: 12px; font-weight: 200;" fill="rgb(50, 49, 63)" stroke="none" stroke-width="1px">50</text><text x="562.495125" y="0" dx="0em" dy="0.95em" style="text-anchor: middle; visibility: hidden; font-family: Roboto, sans-serif; font-size: 12px; font-weight: 200;" fill="rgb(50, 49, 63)" stroke="none" stroke-width="1px">55</text></g><line x1="0" y1="0" x2="562.495125" y2="0" fill="rgb(0, 0, 0)" stroke="rgb(204, 204, 204)" stroke-width="1px"></line></g></g></g></g></svg>