<svg viewBox="0 0 587.6666870117188 400" xmlns="http://www.w3.org/2000/svg"><g><g><g><g><g><line x1="50" y1="378" x2="45" y2="378" style="visibility: inherit;" fill="rgb(0, 0, 0)" stroke="rgb(204, 204, 204)" stroke-width="1px"></line><line x1="50" y1="350.99999999999994" x2="45" y2="350.99999999999994" style="visibility: inherit;" fill="rgb(0, 0, 0)" stroke="rgb(204, 204, 204)" stroke-width="1px"></line><line x1="50" y1="323.99999999999994" x2="45" y2="323.99999999999994" style="visibility: inherit;" fill="rgb(0, 0, 0)" stroke="rgb(204, 204, 204)" stroke-width="1px"></line><line x1="50" y1="296.99999999999994" x2="45" y2="296.99999999999994" style="visibility: inherit;" fill="rgb(0, 0, 0)" stroke="rgb(204, 204, 204)" stroke-width="1px"></line><line x1="50" y1="269.99999999999994" x2="45" y2="269.99999999999994" style="visibility: inherit;" fill="rgb(0, 0, 0)" stroke="rgb(204, 204, 204)" stroke-width="1px"></line><line x1="50" y1="242.9999999999999" x2="45" y2="242.9999999999999" style="visibility: inherit;" fill="rgb(0, 0, 0)" stroke="rgb(204, 204, 204)" stroke-width="1px"></line><line x1="50" y1="215.99999999999986" x2="45" y2="215.99999999999986" style="visibility: inherit;" fill="rgb(0, 0, 0)" stroke="rgb(204, 204, 204)" stroke-width="1px"></line><line x1="50" y1="188.99999999999983" x2="45" y2="188.99999999999983" style="visibility: inherit;" fill="rgb(0, 0, 0)" stroke="rgb(204, 204, 204)" stroke-width="1px"></line><line x1="50" y1="161.99999999999986" x2="45" y2="161.99999999999986" style="visibility: inherit;" fill="rgb(0, 0, 0)" stroke="rgb(204, 204, 204)" stroke-width="1px"></line><line x1="50" y1="134.9999999999998" x2="45" y2="134.9999999999998" style="visibility: inherit;" fill="rgb(0, 0, 0)" stroke="rgb(204, 204, 204)" stroke-width="1px"></line><line x1="50" y1="107.99999999999979" x2="45" y2="107.99999999999979" style="visibility: inherit;" fill="rgb(0, 0, 0)" stroke="rgb(204, 204, 204)" stroke-width="1px"></line><line x1="50" y1="80.99999999999976" x2="45" y2="80.99999999999976" style="visibility: inherit;" fill="rgb(0, 0, 0)" stroke="rgb(204, 204, 204)" stroke-width="1px"></line><line x1="50" y1="54.00000000000006" x2="45" y2="54.00000000000006" style="visibility: inherit;" fill="rgb(0, 0, 0)" stroke="rgb(204, 204, 204)" stroke-width="1px"></line><line x1="50" y1="27.00000000000003" x2="45" y2="27.00000000000003" style="visibility: inherit;" fill="rgb(0, 0, 0)" stroke="rgb(204, 204, 204)" stroke-width="1px"></line><line x1="50" y1="0" x2="45" y2="0" style="visibility: inherit;" fill="rgb(0, 0, 0)" stroke="rgb(204, 204, 204)" stroke-width="1px"></line></g><g transform="translate(40, 0)"><text x="0" y="378" dx="0em" dy="0.3em" style="text-anchor: end; visibility: hidden; font-family: Roboto, sans-serif; font-size: 12px; font-weight: 200;" fill="rgb(50, 49, 63)" stroke="none" stroke-width="1px">0.82</text><text x="0" y="350.99999999999994" dx="0em" dy="0.3em" style="text-anchor: end; visibility: inherit; font-family: Roboto, sans-serif; font-size: 12px; font-weight: 200;" fill="rgb(50, 49, 63)" stroke="none" stroke-width="1px">0.83</text><text x="0" y="323.99999999999994" dx="0em" dy="0.3em" style="text-anchor: end; visibility: inherit; font-family: Roboto, sans-serif; font-size: 12px; font-weight: 200;" fill="rgb(50, 49, 63)" stroke="none" stroke-width="1px">0.84</text><text x="0" y="296.99999999999994" dx="0em" dy="0.3em" style="text-anchor: end; visibility: inherit; font-family: Roboto, sans-serif; font-size: 12px; font-weight: 200;" fill="rgb(50, 49, 63)" stroke="none" stroke-width="1px">0.85</text><text x="0" y="269.99999999999994" dx="0em" dy="0.3em" style="text-anchor: end; visibility: inherit; font-family: Roboto, sans-serif; font-size: 12px; font-weight: 200;" fill="rgb(50, 49, 63)" stroke="none" stroke-width="1px">0.86</text><text x="0" y="242.9999999999999" dx="0em" dy="0.3em" style="text-anchor: end; visibility: inherit; font-family: Roboto, sans-serif; font-size: 12px; font-weight: 200;" fill="rgb(50, 49, 63)" stroke="none" stroke-width="1px">0.87</text><text x="0" y="215.99999999999986" dx="0em" dy="0.3em" style="text-anchor: end; visibility: inherit; font-family: Roboto, sans-serif; font-size: 12px; font-weight: 200;" fill="rgb(50, 49, 63)" stroke="none" stroke-width="1px">0.88</text><text x="0" y="188.99999999999983" dx="0em" dy="0.3em" style="text-anchor: end; visibility: inherit; font-family: Roboto, sans-serif; font-size: 12px; font-weight: 200;" fill="rgb(50, 49, 63)" stroke="none" stroke-width="1px">0.89</text><text x="0" y="161.99999999999986" dx="0em" dy="0.3em" style="text-anchor: end; visibility: inherit; font-family: Roboto, sans-serif; font-size: 12px; font-weight: 200;" fill="rgb(50, 49, 63)" stroke="none" stroke-width="1px">0.9</text><text x="0" y="134.9999999999998" dx="0em" dy="0.3em" style="text-anchor: end; visibility: inherit; font-family: Roboto, sans-serif; font-size: 12px; font-weight: 200;" fill="rgb(50, 49, 63)" stroke="none" stroke-width="1px">0.91</text><text x="0" y="107.99999999999979" dx="0em" dy="0.3em" style="text-anchor: end; visibility: inherit; font-family: Roboto, sans-serif; font-size: 12px; font-weight: 200;" fill="rgb(50, 49, 63)" stroke="none" stroke-width="1px">0.92</text><text x="0" y="80.99999999999976" dx="0em" dy="0.3em" style="text-anchor: end; visibility: inherit; font-family: Roboto, sans-serif; font-size: 12px; font-weight: 200;" fill="rgb(50, 49, 63)" stroke="none" stroke-width="1px">0.93</text><text x="0" y="54.00000000000006" dx="0em" dy="0.3em" style="text-anchor: end; visibility: inherit; font-family: Roboto, sans-serif; font-size: 12px; font-weight: 200;" fill="rgb(50, 49, 63)" stroke="none" stroke-width="1px">0.94</text><text x="0" y="27.00000000000003" dx="0em" dy="0.3em" style="text-anchor: end; visibility: inherit; font-family: Roboto, sans-serif; font-size: 12px; font-weight: 200;" fill="rgb(50, 49, 63)" stroke="none" stroke-width="1px">0.95</text><text x="0" y="0" dx="0em" dy="0.3em" style="text-anchor: end; visibility: hidden; font-family: Roboto, sans-serif; font-size: 12px; font-weight: 200;" fill="rgb(50, 49, 63)" stroke="none" stroke-width="1px">0.96</text></g><line x1="50" y1="0" x2="50" y2="378" fill="rgb(0, 0, 0)" stroke="rgb(204, 204, 204)" stroke-width="1px"></line></g></g><g transform="translate(50, 0)" clip-path="url(#clip_0)"><clipPath id="clip_0"><rect width="537" height="378"></rect></clipPath><g><g><g><line x1="0" y1="0" x2="0" y2="378" fill="rgb(0, 0, 0)" stroke="rgb(60, 60, 60)" stroke-width="1px" opacity="0.25"></line><line x1="44.80558333333333" y1="0" x2="44.80558333333333" y2="378" fill="rgb(0, 0, 0)" stroke="rgb(60, 60, 60)" stroke-width="1px" opacity="0.25"></line><line x1="89.61116666666666" y1="0" x2="89.61116666666666" y2="378" fill="rgb(0, 0, 0)" stroke="rgb(60, 60, 60)" stroke-width="1px" opacity="0.25"></line><line x1="134.41675" y1="0" x2="134.41675" y2="378" fill="rgb(0, 0, 0)" stroke="rgb(60, 60, 60)" stroke-width="1px" opacity="0.25"></line><line x1="179.22233333333332" y1="0" x2="179.22233333333332" y2="378" fill="rgb(0, 0, 0)" stroke="rgb(60, 60, 60)" stroke-width="1px" opacity="0.25"></line><line x1="224.0279166666667" y1="0" x2="224.0279166666667" y2="378" fill="rgb(0, 0, 0)" stroke="rgb(60, 60, 60)" stroke-width="1px" opacity="0.25"></line><line x1="268.8335" y1="0" x2="268.8335" y2="378" fill="rgb(0, 0, 0)" stroke="rgb(60, 60, 60)" stroke-width="1px" opacity="0.25"></line><line x1="313.63908333333336" y1="0" x2="313.63908333333336" y2="378" fill="rgb(0, 0, 0)" stroke="rgb(60, 60, 60)" stroke-width="1px" opacity="0.25"></line><line x1="358.44466666666665" y1="0" x2="358.44466666666665" y2="378" fill="rgb(0, 0, 0)" stroke="rgb(60, 60, 60)" stroke-width="1px" opacity="0.25"></line><line x1="403.25025000000005" y1="0" x2="403.25025000000005" y2="378" fill="rgb(0, 0, 0)" stroke="rgb(60, 60, 60)" stroke-width="1px" opacity="0.25"></line><line x1="448.0558333333334" y1="0" x2="448.0558333333334" y2="378" fill="rgb(0, 0, 0)" stroke="rgb(60, 60, 60)" stroke-width="1px" opacity="0.25"></line><line x1="492.8614166666667" y1="0" x2="492.8614166666667" y2="378" fill="rgb(0, 0, 0)" stroke="rgb(60, 60, 60)" stroke-width="1px" opacity="0.25"></line><line x1="537.667" y1="0" x2="537.667" y2="378" fill="rgb(0, 0, 0)" stroke="rgb(60, 60, 60)" stroke-width="1px" opacity="0.25"></line></g><g><line x1="0" y1="378" x2="537.667" y2="378" fill="rgb(0, 0, 0)" stroke="rgb(60, 60, 60)" stroke-width="1px" opacity="0.25"></line><line x1="0" y1="350.99999999999994" x2="537.667" y2="350.99999999999994" fill="rgb(0, 0, 0)" stroke="rgb(60, 60, 60)" stroke-width="1px" opacity="0.25"></line><line x1="0" y1="323.99999999999994" x2="537.667" y2="323.99999999999994" fill="rgb(0, 0, 0)" stroke="rgb(60, 60, 60)" stroke-width="1px" opacity="0.25"></line><line x1="0" y1="296.99999999999994" x2="537.667" y2="296.99999999999994" fill="rgb(0, 0, 0)" stroke="rgb(60, 60, 60)" stroke-width="1px" opacity="0.25"></line><line x1="0" y1="269.99999999999994" x2="537.667" y2="269.99999999999994" fill="rgb(0, 0, 0)" stroke="rgb(60, 60, 60)" stroke-width="1px" opacity="0.25"></line><line x1="0" y1="242.9999999999999" x2="537.667" y2="242.9999999999999" fill="rgb(0, 0, 0)" stroke="rgb(60, 60, 60)" stroke-width="1px" opacity="0.25"></line><line x1="0" y1="215.99999999999986" x2="537.667" y2="215.99999999999986" fill="rgb(0, 0, 0)" stroke="rgb(60, 60, 60)" stroke-width="1px" opacity="0.25"></line><line x1="0" y1="188.99999999999983" x2="537.667" y2="188.99999999999983" fill="rgb(0, 0, 0)" stroke="rgb(60, 60, 60)" stroke-width="1px" opacity="0.25"></line><line x1="0" y1="161.99999999999986" x2="537.667" y2="161.99999999999986" fill="rgb(0, 0, 0)" stroke="rgb(60, 60, 60)" stroke-width="1px" opacity="0.25"></line><line x1="0" y1="134.9999999999998" x2="537.667" y2="134.9999999999998" fill="rgb(0, 0, 0)" stroke="rgb(60, 60, 60)" stroke-width="1px" opacity="0.25"></line><line x1="0" y1="107.99999999999979" x2="537.667" y2="107.99999999999979" fill="rgb(0, 0, 0)" stroke="rgb(60, 60, 60)" stroke-width="1px" opacity="0.25"></line><line x1="0" y1="80.99999999999976" x2="537.667" y2="80.99999999999976" fill="rgb(0, 0, 0)" stroke="rgb(60, 60, 60)" stroke-width="1px" opacity="0.25"></line><line x1="0" y1="54.00000000000006" x2="537.667" y2="54.00000000000006" fill="rgb(0, 0, 0)" stroke="rgb(60, 60, 60)" stroke-width="1px" opacity="0.25"></line><line x1="0" y1="27.00000000000003" x2="537.667" y2="27.00000000000003" fill="rgb(0, 0, 0)" stroke="rgb(60, 60, 60)" stroke-width="1px" opacity="0.25"></line><line x1="0" y1="0" x2="537.667" y2="0" fill="rgb(0, 0, 0)" stroke="rgb(60, 60, 60)" stroke-width="1px" opacity="0.25"></line></g></g></g><g><g><line x1="0" y1="2591.9999999999995" x2="537.667" y2="2591.9999999999995" fill="rgb(0, 0, 0)" stroke="rgb(153, 153, 153)" stroke-width="1.5px"></line></g></g><g><g><line x1="44.80558333333333" y1="0" x2="44.80558333333333" y2="378" fill="rgb(0, 0, 0)" stroke="rgb(153, 153, 153)" stroke-width="1.5px"></line></g></g><g><g><g><g><g><path stroke="rgb(0, 153, 136)" stroke-width="2px" d="M44.80558333333333,375.0848872661589L53.76670000000001,317.4755437374114L62.72781666666667,279.3007357120513L71.68893333333334,255.7017488479613L80.65005000000001,216.1388976573943L89.61116666666666,208.50393605232227L98.57228333333333,194.6220560073851L107.53340000000001,190.45760464668265L116.49451666666668,200.17487239837635L125.45563333333334,196.70436215400684L134.41675,185.5990512371062L143.37786666666668,189.0694005489348L152.33898333333335,191.15170669555653L161.30010000000001,188.37529850006092L170.26121666666666,188.37529850006092L179.22233333333332,182.1285409927367L188.18345,178.65803074836717L197.14456666666666,180.7403368949889L206.10568333333336,178.65803074836717L215.06680000000003,180.7403368949889L224.0279166666667,178.65803074836717L232.98903333333337,177.96408963203416L241.95015,179.3521327972411L250.91126666666668,179.3521327972411L259.87238333333335,177.2699875831603L268.8335,179.3521327972411L277.7946166666667,179.3521327972411L286.75573333333335,179.3521327972411L295.71685,175.88178348541248L304.6779666666667,175.88178348541248L313.63908333333336,176.57588553428639L322.60020000000003,175.88178348541248L331.5613166666667,177.2699875831603L340.5224333333333,177.2699875831603L349.48355000000004,177.2699875831603L358.44466666666665,177.2699875831603L367.4057833333334,177.2699875831603L376.3669,177.2699875831603L385.3280166666667,177.2699875831603L394.2891333333333,177.2699875831603L403.25025000000005,177.2699875831603L412.2113666666667,177.2699875831603L421.17248333333333,177.2699875831603L430.13360000000006,177.2699875831603L439.09471666666667,177.2699875831603L448.0558333333334,177.2699875831603L457.01695,177.2699875831603L465.97806666666673,177.2699875831603L474.93918333333335,177.2699875831603L483.9003,177.2699875831603" style="fill: none;" fill="none"></path></g><g><path stroke="rgb(51, 187, 238)" stroke-width="2px" d="M44.80558333333333,364.67351746559126L53.76670000000001,382.71984887123097L62.72781666666667,309.8405821323393L71.68893333333334,300.12331438064564L80.65005000000001,264.72491455078114L89.61116666666666,252.92550158500657L98.57228333333333,243.9023358821868L107.53340000000001,228.63241267204273L116.49451666666668,245.98464202880848L125.45563333333334,220.99745106697068L134.41675,203.645221710205L143.37786666666668,231.40865993499744L152.33898333333335,220.99745106697068L161.30010000000001,216.1388976573943L170.26121666666666,201.5629155635833L179.22233333333332,202.25701761245716L188.18345,207.80983400344834L197.14456666666666,190.45760464668265L206.10568333333336,193.92795395851124L215.06680000000003,198.09256625175468L224.0279166666667,196.70436215400684L232.98903333333337,180.04623484611503L241.95015,193.92795395851124L250.91126666666668,189.76350259780872L259.87238333333335,197.39846420288072L268.8335,187.68119645118702L277.7946166666667,197.39846420288072L286.75573333333335,195.31615805625904L295.71685,198.78666830062855L304.6779666666667,194.6220560073851L313.63908333333336,192.53991079330436L322.60020000000003,201.5629155635833L331.5613166666667,200.17487239837635L340.5224333333333,200.17487239837635L349.48355000000004,198.09256625175468L358.44466666666665,194.6220560073851L367.4057833333334,197.39846420288072L376.3669,196.01026010513297L385.3280166666667,193.92795395851124L394.2891333333333,196.01026010513297L403.25025000000005,194.6220560073851L412.2113666666667,198.09256625175468L421.17248333333333,198.09256625175468L430.13360000000006,196.70436215400684L439.09471666666667,195.31615805625904L448.0558333333334,194.6220560073851L457.01695,197.39846420288072L465.97806666666673,193.23401284217823L474.93918333333335,196.01026010513297L483.9003,197.39846420288072" style="fill: none;" fill="none"></path></g><g><path stroke="rgb(204, 51, 17)" stroke-width="2px" d="M44.80558333333333,285.5474932193755L53.76670000000001,241.12592768669117L62.72781666666667,217.52694082260123L71.68893333333334,209.19787716865528L80.65005000000001,196.70436215400684L89.61116666666666,192.53991079330436L98.57228333333333,191.15170669555653L107.53340000000001,192.53991079330436L116.49451666666668,193.92795395851124L125.45563333333334,193.92795395851124L134.41675,191.15170669555653L143.37786666666668,192.53991079330436L152.33898333333335,193.23401284217823L161.30010000000001,193.23401284217823L170.26121666666666,192.53991079330436L179.22233333333332,191.15170669555653L188.18345,191.15170669555653L197.14456666666666,191.15170669555653L206.10568333333336,191.15170669555653L215.06680000000003,191.15170669555653L224.0279166666667,191.15170669555653L232.98903333333337,191.15170669555653L241.95015,191.15170669555653L250.91126666666668,191.15170669555653L259.87238333333335,191.15170669555653L268.8335,191.15170669555653L277.7946166666667,191.15170669555653L286.75573333333335,191.15170669555653L295.71685,191.15170669555653L304.6779666666667,191.15170669555653L313.63908333333336,191.15170669555653L322.60020000000003,191.15170669555653L331.5613166666667,191.15170669555653L340.5224333333333,191.15170669555653L349.48355000000004,191.15170669555653L358.44466666666665,191.15170669555653L367.4057833333334,191.15170669555653L376.3669,191.15170669555653L385.3280166666667,191.15170669555653L394.2891333333333,191.15170669555653L403.25025000000005,191.15170669555653L412.2113666666667,191.15170669555653L421.17248333333333,191.15170669555653L430.13360000000006,191.15170669555653L439.09471666666667,191.15170669555653L448.0558333333334,191.15170669555653L457.01695,191.15170669555653L465.97806666666673,191.15170669555653L474.93918333333335,191.15170669555653L483.9003,191.15170669555653" style="fill: none;" fill="none"></path></g><g><path stroke="rgb(0, 119, 187)" stroke-width="2px" d="M44.80558333333333,286.9356973171233L53.76670000000001,253.6196036338805L62.72781666666667,225.85600447654713L71.68893333333334,214.7506935596465L80.65005000000001,200.86897444725028L89.61116666666666,207.80983400344834L98.57228333333333,195.31615805625904L107.53340000000001,192.53991079330436L116.49451666666668,182.8226430416106L125.45563333333334,182.8226430416106L134.41675,195.31615805625904L143.37786666666668,200.17487239837635L152.33898333333335,193.92795395851124L161.30010000000001,197.39846420288072L170.26121666666666,198.09256625175468L179.22233333333332,192.53991079330436L188.18345,188.37529850006092L197.14456666666666,183.51674509048448L206.10568333333336,187.68119645118702L215.06680000000003,180.04623484611503L224.0279166666667,191.8458087444304L232.98903333333337,187.68119645118702L241.95015,187.68119645118702L250.91126666666668,182.8226430416106L259.87238333333335,186.29299235343922L268.8335,183.51674509048448L277.7946166666667,179.3521327972411L286.75573333333335,182.1285409927367L295.71685,182.8226430416106L304.6779666666667,180.04623484611503L313.63908333333336,182.1285409927367L322.60020000000003,183.51674509048448L331.5613166666667,179.3521327972411L340.5224333333333,182.1285409927367L349.48355000000004,180.04623484611503L358.44466666666665,180.7403368949889L367.4057833333334,177.2699875831603L376.3669,180.04623484611503L385.3280166666667,179.3521327972411L394.2891333333333,180.7403368949889L403.25025000000005,180.04623484611503L412.2113666666667,180.04623484611503L421.17248333333333,179.3521327972411L430.13360000000006,180.04623484611503L439.09471666666667,180.04623484611503L448.0558333333334,182.1285409927367L457.01695,180.04623484611503L465.97806666666673,180.04623484611503L474.93918333333335,182.1285409927367L483.9003,183.51674509048448" style="fill: none;" fill="none"></path></g><g><path stroke="rgb(255, 112, 67)" stroke-width="2px" d="M44.80558333333333,397.2956700325011L53.76670000000001,348.7094922065734L62.72781666666667,327.886913537979L71.68893333333334,316.0873396396636L80.65005000000001,313.31109237670887L89.61116666666666,310.53468418121327L98.57228333333333,308.45237803459156L107.53340000000001,307.06433486938465L116.49451666666668,304.287926673889L125.45563333333334,302.89972257614124L134.41675,302.89972257614124L143.37786666666668,302.89972257614124L152.33898333333335,302.89972257614124L161.30010000000001,302.89972257614124L170.26121666666666,302.89972257614124L179.22233333333332,302.89972257614124L188.18345,302.89972257614124L197.14456666666666,302.89972257614124L206.10568333333336,302.89972257614124L215.06680000000003,302.89972257614124L224.0279166666667,302.89972257614124L232.98903333333337,302.89972257614124L241.95015,302.89972257614124L250.91126666666668,302.89972257614124L259.87238333333335,302.89972257614124L268.8335,302.89972257614124L277.7946166666667,302.89972257614124L286.75573333333335,302.89972257614124L295.71685,302.89972257614124L304.6779666666667,302.89972257614124L313.63908333333336,302.89972257614124L322.60020000000003,302.89972257614124L331.5613166666667,302.89972257614124L340.5224333333333,302.89972257614124L349.48355000000004,302.89972257614124L358.44466666666665,302.89972257614124L367.4057833333334,302.89972257614124L376.3669,302.89972257614124L385.3280166666667,302.89972257614124L394.2891333333333,302.89972257614124L403.25025000000005,302.89972257614124L412.2113666666667,302.89972257614124L421.17248333333333,302.89972257614124L430.13360000000006,302.89972257614124L439.09471666666667,302.89972257614124L448.0558333333334,302.89972257614124L457.01695,302.89972257614124L465.97806666666673,302.89972257614124L474.93918333333335,302.89972257614124L483.9003,302.89972257614124" style="fill: none;" fill="none"></path></g></g></g></g></g></g><g transform="translate(50, 378)" clip-path="url(#clip_1)"><clipPath id="clip_1"><rect width="537" height="22"></rect></clipPath><g><g><line x1="0" y1="0" x2="0" y2="5" style="visibility: inherit;" fill="rgb(0, 0, 0)" stroke="rgb(204, 204, 204)" stroke-width="1px"></line><line x1="44.80558333333333" y1="0" x2="44.80558333333333" y2="5" style="visibility: inherit;" fill="rgb(0, 0, 0)" stroke="rgb(204, 204, 204)" stroke-width="1px"></line><line x1="89.61116666666666" y1="0" x2="89.61116666666666" y2="5" style="visibility: inherit;" fill="rgb(0, 0, 0)" stroke="rgb(204, 204, 204)" stroke-width="1px"></line><line x1="134.41675" y1="0" x2="134.41675" y2="5" style="visibility: inherit;" fill="rgb(0, 0, 0)" stroke="rgb(204, 204, 204)" stroke-width="1px"></line><line x1="179.22233333333332" y1="0" x2="179.22233333333332" y2="5" style="visibility: inherit;" fill="rgb(0, 0, 0)" stroke="rgb(204, 204, 204)" stroke-width="1px"></line><line x1="224.0279166666667" y1="0" x2="224.0279166666667" y2="5" style="visibility: inherit;" fill="rgb(0, 0, 0)" stroke="rgb(204, 204, 204)" stroke-width="1px"></line><line x1="268.8335" y1="0" x2="268.8335" y2="5" style="visibility: inherit;" fill="rgb(0, 0, 0)" stroke="rgb(204, 204, 204)" stroke-width="1px"></line><line x1="313.63908333333336" y1="0" x2="313.63908333333336" y2="5" style="visibility: inherit;" fill="rgb(0, 0, 0)" stroke="rgb(204, 204, 204)" stroke-width="1px"></line><line x1="358.44466666666665" y1="0" x2="358.44466666666665" y2="5" style="visibility: inherit;" fill="rgb(0, 0, 0)" stroke="rgb(204, 204, 204)" stroke-width="1px"></line><line x1="403.25025000000005" y1="0" x2="403.25025000000005" y2="5" style="visibility: inherit;" fill="rgb(0, 0, 0)" stroke="rgb(204, 204, 204)" stroke-width="1px"></line><line x1="448.0558333333334" y1="0" x2="448.0558333333334" y2="5" style="visibility: inherit;" fill="rgb(0, 0, 0)" stroke="rgb(204, 204, 204)" stroke-width="1px"></line><line x1="492.8614166666667" y1="0" x2="492.8614166666667" y2="5" style="visibility: inherit;" fill="rgb(0, 0, 0)" stroke="rgb(204, 204, 204)" stroke-width="1px"></line><line x1="537.667" y1="0" x2="537.667" y2="5" style="visibility: inherit;" fill="rgb(0, 0, 0)" stroke="rgb(204, 204, 204)" stroke-width="1px"></line></g><g transform="translate(0, 8)"><text x="0" y="0" dx="0em" dy="0.95em" style="text-anchor: middle; visibility: hidden; font-family: Roboto, sans-serif; font-size: 12px; font-weight: 200;" fill="rgb(50, 49, 63)" stroke="none" stroke-width="1px">-5</text><text x="44.80558333333333" y="0" dx="0em" dy="0.95em" style="text-anchor: middle; visibility: inherit; font-family: Roboto, sans-serif; font-size: 12px; font-weight: 200;" fill="rgb(50, 49, 63)" stroke="none" stroke-width="1px">0</text><text x="89.61116666666666" y="0" dx="0em" dy="0.95em" style="text-anchor: middle; visibility: inherit; font-family: Roboto, sans-serif; font-size: 12px; font-weight: 200;" fill="rgb(50, 49, 63)" stroke="none" stroke-width="1px">5</text><text x="134.41675" y="0" dx="0em" dy="0.95em" style="text-anchor: middle; visibility: inherit; font-family: Roboto, sans-serif; font-size: 12px; font-weight: 200;" fill="rgb(50, 49, 63)" stroke="none" stroke-width="1px">10</text><text x="179.22233333333332" y="0" dx="0em" dy="0.95em" style="text-anchor: middle; visibility: inherit; font-family: Roboto, sans-serif; font-size: 12px; font-weight: 200;" fill="rgb(50, 49, 63)" stroke="none" stroke-width="1px">15</text><text x="224.0279166666667" y="0" dx="0em" dy="0.95em" style="text-anchor: middle; visibility: inherit; font-family: Roboto, sans-serif; font-size: 12px; font-weight: 200;" fill="rgb(50, 49, 63)" stroke="none" stroke-width="1px">20</text><text x="268.8335" y="0" dx="0em" dy="0.95em" style="text-anchor: middle; visibility: inherit; font-family: Roboto, sans-serif; font-size: 12px; font-weight: 200;" fill="rgb(50, 49, 63)" stroke="none" stroke-width="1px">25</text><text x="313.63908333333336" y="0" dx="0em" dy="0.95em" style="text-anchor: middle; visibility: inherit; font-family: Roboto, sans-serif; font-size: 12px; font-weight: 200;" fill="rgb(50, 49, 63)" stroke="none" stroke-width="1px">30</text><text x="358.44466666666665" y="0" dx="0em" dy="0.95em" style="text-anchor: middle; visibility: inherit; font-family: Roboto, sans-serif; font-size: 12px; font-weight: 200;" fill="rgb(50, 49, 63)" stroke="none" stroke-width="1px">35</text><text x="403.25025000000005" y="0" dx="0em" dy="0.95em" style="text-anchor: middle; visibility: inherit; font-family: Roboto, sans-serif; font-size: 12px; font-weight: 200;" fill="rgb(50, 49, 63)" stroke="none" stroke-width="1px">40</text><text x="448.0558333333334" y="0" dx="0em" dy="0.95em" style="text-anchor: middle; visibility: inherit; font-family: Roboto, sans-serif; font-size: 12px; font-weight: 200;" fill="rgb(50, 49, 63)" stroke="none" stroke-width="1px">45</text><text x="492.8614166666667" y="0" dx="0em" dy="0.95em" style="text-anchor: middle; visibility: inherit; font-family: Roboto, sans-serif; font-size: 12px; font-weight: 200;" fill="rgb(50, 49, 63)" stroke="none" stroke-width="1px">50</text><text x="537.667" y="0" dx="0em" dy="0.95em" style="text-anchor: middle; visibility: hidden; font-family: Roboto, sans-serif; font-size: 12px; font-weight: 200;" fill="rgb(50, 49, 63)" stroke="none" stroke-width="1px">55</text></g><line x1="0" y1="0" x2="537.667" y2="0" fill="rgb(0, 0, 0)" stroke="rgb(204, 204, 204)" stroke-width="1px"></line></g></g></g></g></svg>