<svg viewBox="0 0 795.3333740234375 400" xmlns="http://www.w3.org/2000/svg"><g><g><g><g><g><line x1="30.78125" y1="378" x2="25.78125" y2="378" style="visibility: inherit;" fill="rgb(0, 0, 0)" stroke="rgb(204, 204, 204)" stroke-width="1px"></line><line x1="30.78125" y1="336" x2="25.78125" y2="336" style="visibility: inherit;" fill="rgb(0, 0, 0)" stroke="rgb(204, 204, 204)" stroke-width="1px"></line><line x1="30.78125" y1="294" x2="25.78125" y2="294" style="visibility: inherit;" fill="rgb(0, 0, 0)" stroke="rgb(204, 204, 204)" stroke-width="1px"></line><line x1="30.78125" y1="252.00000000000003" x2="25.78125" y2="252.00000000000003" style="visibility: inherit;" fill="rgb(0, 0, 0)" stroke="rgb(204, 204, 204)" stroke-width="1px"></line><line x1="30.78125" y1="210" x2="25.78125" y2="210" style="visibility: inherit;" fill="rgb(0, 0, 0)" stroke="rgb(204, 204, 204)" stroke-width="1px"></line><line x1="30.78125" y1="168" x2="25.78125" y2="168" style="visibility: inherit;" fill="rgb(0, 0, 0)" stroke="rgb(204, 204, 204)" stroke-width="1px"></line><line x1="30.78125" y1="126.00000000000001" x2="25.78125" y2="126.00000000000001" style="visibility: inherit;" fill="rgb(0, 0, 0)" stroke="rgb(204, 204, 204)" stroke-width="1px"></line><line x1="30.78125" y1="84" x2="25.78125" y2="84" style="visibility: inherit;" fill="rgb(0, 0, 0)" stroke="rgb(204, 204, 204)" stroke-width="1px"></line><line x1="30.78125" y1="42.00000000000002" x2="25.78125" y2="42.00000000000002" style="visibility: inherit;" fill="rgb(0, 0, 0)" stroke="rgb(204, 204, 204)" stroke-width="1px"></line><line x1="30.78125" y1="0" x2="25.78125" y2="0" style="visibility: inherit;" fill="rgb(0, 0, 0)" stroke="rgb(204, 204, 204)" stroke-width="1px"></line></g><g transform="translate(20.78125, 0)"><text x="0" y="378" dx="0em" dy="0.3em" style="text-anchor: end; visibility: hidden; font-family: Roboto, sans-serif; font-size: 12px; font-weight: 200;" fill="rgb(50, 49, 63)" stroke="none" stroke-width="1px">-1</text><text x="0" y="336" dx="0em" dy="0.3em" style="text-anchor: end; visibility: inherit; font-family: Roboto, sans-serif; font-size: 12px; font-weight: 200;" fill="rgb(50, 49, 63)" stroke="none" stroke-width="1px">0</text><text x="0" y="294" dx="0em" dy="0.3em" style="text-anchor: end; visibility: inherit; font-family: Roboto, sans-serif; font-size: 12px; font-weight: 200;" fill="rgb(50, 49, 63)" stroke="none" stroke-width="1px">1</text><text x="0" y="252.00000000000003" dx="0em" dy="0.3em" style="text-anchor: end; visibility: inherit; font-family: Roboto, sans-serif; font-size: 12px; font-weight: 200;" fill="rgb(50, 49, 63)" stroke="none" stroke-width="1px">2</text><text x="0" y="210" dx="0em" dy="0.3em" style="text-anchor: end; visibility: inherit; font-family: Roboto, sans-serif; font-size: 12px; font-weight: 200;" fill="rgb(50, 49, 63)" stroke="none" stroke-width="1px">3</text><text x="0" y="168" dx="0em" dy="0.3em" style="text-anchor: end; visibility: inherit; font-family: Roboto, sans-serif; font-size: 12px; font-weight: 200;" fill="rgb(50, 49, 63)" stroke="none" stroke-width="1px">4</text><text x="0" y="126.00000000000001" dx="0em" dy="0.3em" style="text-anchor: end; visibility: inherit; font-family: Roboto, sans-serif; font-size: 12px; font-weight: 200;" fill="rgb(50, 49, 63)" stroke="none" stroke-width="1px">5</text><text x="0" y="84" dx="0em" dy="0.3em" style="text-anchor: end; visibility: inherit; font-family: Roboto, sans-serif; font-size: 12px; font-weight: 200;" fill="rgb(50, 49, 63)" stroke="none" stroke-width="1px">6</text><text x="0" y="42.00000000000002" dx="0em" dy="0.3em" style="text-anchor: end; visibility: inherit; font-family: Roboto, sans-serif; font-size: 12px; font-weight: 200;" fill="rgb(50, 49, 63)" stroke="none" stroke-width="1px">7</text><text x="0" y="0" dx="0em" dy="0.3em" style="text-anchor: end; visibility: hidden; font-family: Roboto, sans-serif; font-size: 12px; font-weight: 200;" fill="rgb(50, 49, 63)" stroke="none" stroke-width="1px">8</text></g><line x1="30.78125" y1="0" x2="30.78125" y2="378" fill="rgb(0, 0, 0)" stroke="rgb(204, 204, 204)" stroke-width="1px"></line></g></g><g transform="translate(30, 0)" clip-path="url(#clip_0)"><clipPath id="clip_0"><rect width="764" height="378"></rect></clipPath><g><g><g><line x1="0" y1="0" x2="0" y2="378" fill="rgb(0, 0, 0)" stroke="rgb(60, 60, 60)" stroke-width="1px" opacity="0.25"></line><line x1="63.712645833333326" y1="0" x2="63.712645833333326" y2="378" fill="rgb(0, 0, 0)" stroke="rgb(60, 60, 60)" stroke-width="1px" opacity="0.25"></line><line x1="127.42529166666665" y1="0" x2="127.42529166666665" y2="378" fill="rgb(0, 0, 0)" stroke="rgb(60, 60, 60)" stroke-width="1px" opacity="0.25"></line><line x1="191.1379375" y1="0" x2="191.1379375" y2="378" fill="rgb(0, 0, 0)" stroke="rgb(60, 60, 60)" stroke-width="1px" opacity="0.25"></line><line x1="254.8505833333333" y1="0" x2="254.8505833333333" y2="378" fill="rgb(0, 0, 0)" stroke="rgb(60, 60, 60)" stroke-width="1px" opacity="0.25"></line><line x1="318.56322916666664" y1="0" x2="318.56322916666664" y2="378" fill="rgb(0, 0, 0)" stroke="rgb(60, 60, 60)" stroke-width="1px" opacity="0.25"></line><line x1="382.275875" y1="0" x2="382.275875" y2="378" fill="rgb(0, 0, 0)" stroke="rgb(60, 60, 60)" stroke-width="1px" opacity="0.25"></line><line x1="445.9885208333333" y1="0" x2="445.9885208333333" y2="378" fill="rgb(0, 0, 0)" stroke="rgb(60, 60, 60)" stroke-width="1px" opacity="0.25"></line><line x1="509.7011666666666" y1="0" x2="509.7011666666666" y2="378" fill="rgb(0, 0, 0)" stroke="rgb(60, 60, 60)" stroke-width="1px" opacity="0.25"></line><line x1="573.4138125" y1="0" x2="573.4138125" y2="378" fill="rgb(0, 0, 0)" stroke="rgb(60, 60, 60)" stroke-width="1px" opacity="0.25"></line><line x1="637.1264583333333" y1="0" x2="637.1264583333333" y2="378" fill="rgb(0, 0, 0)" stroke="rgb(60, 60, 60)" stroke-width="1px" opacity="0.25"></line><line x1="700.8391041666666" y1="0" x2="700.8391041666666" y2="378" fill="rgb(0, 0, 0)" stroke="rgb(60, 60, 60)" stroke-width="1px" opacity="0.25"></line><line x1="764.55175" y1="0" x2="764.55175" y2="378" fill="rgb(0, 0, 0)" stroke="rgb(60, 60, 60)" stroke-width="1px" opacity="0.25"></line></g><g><line x1="0" y1="378" x2="764.55175" y2="378" fill="rgb(0, 0, 0)" stroke="rgb(60, 60, 60)" stroke-width="1px" opacity="0.25"></line><line x1="0" y1="336" x2="764.55175" y2="336" fill="rgb(0, 0, 0)" stroke="rgb(60, 60, 60)" stroke-width="1px" opacity="0.25"></line><line x1="0" y1="294" x2="764.55175" y2="294" fill="rgb(0, 0, 0)" stroke="rgb(60, 60, 60)" stroke-width="1px" opacity="0.25"></line><line x1="0" y1="252.00000000000003" x2="764.55175" y2="252.00000000000003" fill="rgb(0, 0, 0)" stroke="rgb(60, 60, 60)" stroke-width="1px" opacity="0.25"></line><line x1="0" y1="210" x2="764.55175" y2="210" fill="rgb(0, 0, 0)" stroke="rgb(60, 60, 60)" stroke-width="1px" opacity="0.25"></line><line x1="0" y1="168" x2="764.55175" y2="168" fill="rgb(0, 0, 0)" stroke="rgb(60, 60, 60)" stroke-width="1px" opacity="0.25"></line><line x1="0" y1="126.00000000000001" x2="764.55175" y2="126.00000000000001" fill="rgb(0, 0, 0)" stroke="rgb(60, 60, 60)" stroke-width="1px" opacity="0.25"></line><line x1="0" y1="84" x2="764.55175" y2="84" fill="rgb(0, 0, 0)" stroke="rgb(60, 60, 60)" stroke-width="1px" opacity="0.25"></line><line x1="0" y1="42.00000000000002" x2="764.55175" y2="42.00000000000002" fill="rgb(0, 0, 0)" stroke="rgb(60, 60, 60)" stroke-width="1px" opacity="0.25"></line><line x1="0" y1="0" x2="764.55175" y2="0" fill="rgb(0, 0, 0)" stroke="rgb(60, 60, 60)" stroke-width="1px" opacity="0.25"></line></g></g></g><g><g><line x1="0" y1="336" x2="764.55175" y2="336" fill="rgb(0, 0, 0)" stroke="rgb(153, 153, 153)" stroke-width="1.5px"></line></g></g><g><g><line x1="63.712645833333326" y1="0" x2="63.712645833333326" y2="378" fill="rgb(0, 0, 0)" stroke="rgb(153, 153, 153)" stroke-width="1.5px"></line></g></g><g><g><g><g><g><path stroke="rgb(255, 112, 67)" stroke-width="2px" d="M63.712645833333326,244.57616186141968L76.455175,257.70243859291077L89.19770416666667,258.4075849056244L101.94023333333332,255.33259963989255L114.6827625,249.8304576873779L127.42529166666665,242.13860607147214L140.1678208333333,238.02934312820437L152.91035,237.42716646194458L165.65287916666668,229.19725513458252L178.39540833333334,219.14382076263428L191.1379375,223.48251485824585L203.88046666666665,212.77075767517087L216.6229958333333,212.4607071876526L229.365525,199.54288816452024L242.10805416666665,201.6894292831421L254.8505833333333,193.7738642692566L267.59311249999996,193.85410308837888L280.3356416666666,175.88771724700928L293.07817083333333,185.2844910621643L305.8207,178.20660209655762L318.56322916666664,177.4450492858887L331.30575833333336,141.1122350692749L344.0482875,154.1267852783203L356.7908166666667,147.40124416351318L369.5333458333333,152.67453575134277L382.275875,147.40114402770996L395.0184041666667,135.127779006958L407.7609333333333,131.80409145355227L420.5034625,131.73087215423584L433.2459916666666,134.94423007965088L445.9885208333333,128.1665782928467L458.73105,127.53081607818605L471.4735791666667,111.96180152893068L484.2161083333333,117.99071788787842L496.9586375,118.77450084686281L509.7011666666666,102.55226039886473L522.4436958333333,85.95821571350098L535.1862249999999,88.20478248596191L547.9287541666666,76.45158290863037L560.6712833333332,89.29510116577147L573.4138125,81.11472702026367L586.1563416666667,79.57866382598876L598.8988708333333,81.09153556823729L611.6414,72.87170791625977L624.3839291666666,68.13890933990477L637.1264583333333,59.320469856262214L649.8689875,63.58525371551512L662.6115166666667,52.60972881317141L675.3540458333333,41.99248981475831L688.096575,36.79828548431398" style="fill: none;" fill="none"></path></g><g><path stroke="rgb(51, 187, 238)" stroke-width="2px" d="M63.712645833333326,322.2230595946312L76.455175,323.043459713459L89.19770416666667,323.1486761569977L101.94023333333332,323.8764368891716L114.6827625,323.0606054663658L127.42529166666665,323.01591235399246L140.1678208333333,321.1723634004593L152.91035,320.34581619501114L165.65287916666668,320.59335064888L178.39540833333334,319.3210927248001L191.1379375,317.32506197690964L203.88046666666665,316.7220416665077L216.6229958333333,317.3849056363106L229.365525,317.42943727970123L242.10805416666665,317.34149050712585L254.8505833333333,315.51263523101807L267.59311249999996,314.0546454191208L280.3356416666666,314.9600533246994L293.07817083333333,314.0192724466324L305.8207,312.73462522029877L318.56322916666664,313.45394575595856L331.30575833333336,313.27950417995453L344.0482875,311.81792199611664L356.7908166666667,311.9475302696228L369.5333458333333,311.86455523967743L382.275875,310.19361662864685L395.0184041666667,310.21421456336975L407.7609333333333,308.87572181224823L420.5034625,308.901659488678L433.2459916666666,307.98767244815826L445.9885208333333,307.4408458471298L458.73105,307.18820321559906L471.4735791666667,306.19918191432953L484.2161083333333,305.69757413864136L496.9586375,305.29600954055786L509.7011666666666,304.9210435152054L522.4436958333333,304.1625974178314L535.1862249999999,303.7068418264389L547.9287541666666,303.68595600128174L560.6712833333332,301.555824637413L573.4138125,302.5456495285034L586.1563416666667,301.98313415050507L598.8988708333333,301.2312444448471L611.6414,301.8928892612457L624.3839291666666,299.6487557888031L637.1264583333333,299.99351584911346L649.8689875,299.83986496925354L662.6115166666667,299.22046995162964L675.3540458333333,298.9111028909683L688.096575,298.70220708847046" style="fill: none;" fill="none"></path></g><g><path stroke="rgb(0, 119, 187)" stroke-width="2px" d="M63.712645833333326,315.359679043293L76.455175,319.45490795373917L89.19770416666667,321.19319665431976L101.94023333333332,322.3426705598831L114.6827625,323.18012380599976L127.42529166666665,323.73532301187515L140.1678208333333,324.1535539627075L152.91035,324.5702791213989L165.65287916666668,324.828167617321L178.39540833333334,325.0174605846405L191.1379375,325.28940564394L203.88046666666665,325.51107063889503L216.6229958333333,325.62984547019005L229.365525,325.8271712064743L242.10805416666665,325.8974289894104L254.8505833333333,325.9740122258663L267.59311249999996,325.91034212708473L280.3356416666666,326.06487545371056L293.07817083333333,326.1971880197525L305.8207,326.20966932177544L318.56322916666664,326.18493390083313L331.30575833333336,326.17146438360214L344.0482875,326.1980554461479L356.7908166666667,326.25628942251205L369.5333458333333,326.1791642010212L382.275875,326.1883047223091L395.0184041666667,326.1909063756466L407.7609333333333,326.1705769300461L420.5034625,326.1779688298702L433.2459916666666,326.1055043041706L445.9885208333333,326.06084874272346L458.73105,326.0218783915043L471.4735791666667,325.985258102417L484.2161083333333,325.9445341229439L496.9586375,325.8697927594185L509.7011666666666,325.7895301580429L522.4436958333333,325.7726172208786L535.1862249999999,325.7344085276127L547.9287541666666,325.5590187907219L560.6712833333332,325.4545783996582L573.4138125,325.41552793979645L586.1563416666667,325.4084320664406L598.8988708333333,325.3777804970741L611.6414,325.2883742451668L624.3839291666666,325.1466282606125L637.1264583333333,325.2055894732475L649.8689875,325.0899025797844L662.6115166666667,324.8992990851402L675.3540458333333,324.75486820936203L688.096575,324.84139680862427" style="fill: none;" fill="none"></path></g><g><path stroke="rgb(0, 153, 136)" stroke-width="2px" d="M63.712645833333326,254.214813709259L76.455175,279.62449407577515L89.19770416666667,293.05341625213623L101.94023333333332,300.45593798160553L114.6827625,304.96998488903046L127.42529166666665,307.9638726711273L140.1678208333333,310.1077401638031L152.91035,311.73909759521484L165.65287916666668,313.00519466400146L178.39540833333334,314.0400005578995L191.1379375,314.8961892127991L203.88046666666665,315.63034361600876L216.6229958333333,316.2521606683731L229.365525,316.79927265644073L242.10805416666665,317.2810898423195L254.8505833333333,317.72456377744675L267.59311249999996,318.12001383304596L280.3356416666666,318.49126732349396L293.07817083333333,318.8277298808098L305.8207,319.1429286003113L318.56322916666664,319.41673117876053L331.30575833333336,319.6754733324051L344.0482875,319.93314278125763L356.7908166666667,320.18014150857925L369.5333458333333,320.40023374557495L382.275875,320.599844455719L395.0184041666667,320.8027158379555L407.7609333333333,320.988561630249L420.5034625,321.17519223690033L433.2459916666666,321.34276074171066L445.9885208333333,321.50657165050507L458.73105,321.66084337234497L471.4735791666667,321.8148635029793L484.2161083333333,321.9528068304062L496.9586375,322.0931897163391L509.7011666666666,322.23342365026474L522.4436958333333,322.35443902015686L535.1862249999999,322.47196966409683L547.9287541666666,322.5854610800743L560.6712833333332,322.696675658226L573.4138125,322.8138020038605L586.1563416666667,322.9365196824074L598.8988708333333,323.03178012371063L611.6414,323.12920850515366L624.3839291666666,323.23169749975204L637.1264583333333,323.31913232803345L649.8689875,323.4124251008034L662.6115166666667,323.50150215625763L675.3540458333333,323.5742420554161L688.096575,323.6552782058716" style="fill: none;" fill="none"></path></g></g></g></g></g></g><g transform="translate(30, 378)" clip-path="url(#clip_1)"><clipPath id="clip_1"><rect width="764" height="22"></rect></clipPath><g><g><line x1="0" y1="0" x2="0" y2="5" style="visibility: inherit;" fill="rgb(0, 0, 0)" stroke="rgb(204, 204, 204)" stroke-width="1px"></line><line x1="63.712645833333326" y1="0" x2="63.712645833333326" y2="5" style="visibility: inherit;" fill="rgb(0, 0, 0)" stroke="rgb(204, 204, 204)" stroke-width="1px"></line><line x1="127.42529166666665" y1="0" x2="127.42529166666665" y2="5" style="visibility: inherit;" fill="rgb(0, 0, 0)" stroke="rgb(204, 204, 204)" stroke-width="1px"></line><line x1="191.1379375" y1="0" x2="191.1379375" y2="5" style="visibility: inherit;" fill="rgb(0, 0, 0)" stroke="rgb(204, 204, 204)" stroke-width="1px"></line><line x1="254.8505833333333" y1="0" x2="254.8505833333333" y2="5" style="visibility: inherit;" fill="rgb(0, 0, 0)" stroke="rgb(204, 204, 204)" stroke-width="1px"></line><line x1="318.56322916666664" y1="0" x2="318.56322916666664" y2="5" style="visibility: inherit;" fill="rgb(0, 0, 0)" stroke="rgb(204, 204, 204)" stroke-width="1px"></line><line x1="382.275875" y1="0" x2="382.275875" y2="5" style="visibility: inherit;" fill="rgb(0, 0, 0)" stroke="rgb(204, 204, 204)" stroke-width="1px"></line><line x1="445.9885208333333" y1="0" x2="445.9885208333333" y2="5" style="visibility: inherit;" fill="rgb(0, 0, 0)" stroke="rgb(204, 204, 204)" stroke-width="1px"></line><line x1="509.7011666666666" y1="0" x2="509.7011666666666" y2="5" style="visibility: inherit;" fill="rgb(0, 0, 0)" stroke="rgb(204, 204, 204)" stroke-width="1px"></line><line x1="573.4138125" y1="0" x2="573.4138125" y2="5" style="visibility: inherit;" fill="rgb(0, 0, 0)" stroke="rgb(204, 204, 204)" stroke-width="1px"></line><line x1="637.1264583333333" y1="0" x2="637.1264583333333" y2="5" style="visibility: inherit;" fill="rgb(0, 0, 0)" stroke="rgb(204, 204, 204)" stroke-width="1px"></line><line x1="700.8391041666666" y1="0" x2="700.8391041666666" y2="5" style="visibility: inherit;" fill="rgb(0, 0, 0)" stroke="rgb(204, 204, 204)" stroke-width="1px"></line><line x1="764.55175" y1="0" x2="764.55175" y2="5" style="visibility: inherit;" fill="rgb(0, 0, 0)" stroke="rgb(204, 204, 204)" stroke-width="1px"></line></g><g transform="translate(0, 8)"><text x="0" y="0" dx="0em" dy="0.95em" style="text-anchor: middle; visibility: hidden; font-family: Roboto, sans-serif; font-size: 12px; font-weight: 200;" fill="rgb(50, 49, 63)" stroke="none" stroke-width="1px">-5</text><text x="63.712645833333326" y="0" dx="0em" dy="0.95em" style="text-anchor: middle; visibility: inherit; font-family: Roboto, sans-serif; font-size: 12px; font-weight: 200;" fill="rgb(50, 49, 63)" stroke="none" stroke-width="1px">0</text><text x="127.42529166666665" y="0" dx="0em" dy="0.95em" style="text-anchor: middle; visibility: inherit; font-family: Roboto, sans-serif; font-size: 12px; font-weight: 200;" fill="rgb(50, 49, 63)" stroke="none" stroke-width="1px">5</text><text x="191.1379375" y="0" dx="0em" dy="0.95em" style="text-anchor: middle; visibility: inherit; font-family: Roboto, sans-serif; font-size: 12px; font-weight: 200;" fill="rgb(50, 49, 63)" stroke="none" stroke-width="1px">10</text><text x="254.8505833333333" y="0" dx="0em" dy="0.95em" style="text-anchor: middle; visibility: inherit; font-family: Roboto, sans-serif; font-size: 12px; font-weight: 200;" fill="rgb(50, 49, 63)" stroke="none" stroke-width="1px">15</text><text x="318.56322916666664" y="0" dx="0em" dy="0.95em" style="text-anchor: middle; visibility: inherit; font-family: Roboto, sans-serif; font-size: 12px; font-weight: 200;" fill="rgb(50, 49, 63)" stroke="none" stroke-width="1px">20</text><text x="382.275875" y="0" dx="0em" dy="0.95em" style="text-anchor: middle; visibility: inherit; font-family: Roboto, sans-serif; font-size: 12px; font-weight: 200;" fill="rgb(50, 49, 63)" stroke="none" stroke-width="1px">25</text><text x="445.9885208333333" y="0" dx="0em" dy="0.95em" style="text-anchor: middle; visibility: inherit; font-family: Roboto, sans-serif; font-size: 12px; font-weight: 200;" fill="rgb(50, 49, 63)" stroke="none" stroke-width="1px">30</text><text x="509.7011666666666" y="0" dx="0em" dy="0.95em" style="text-anchor: middle; visibility: inherit; font-family: Roboto, sans-serif; font-size: 12px; font-weight: 200;" fill="rgb(50, 49, 63)" stroke="none" stroke-width="1px">35</text><text x="573.4138125" y="0" dx="0em" dy="0.95em" style="text-anchor: middle; visibility: inherit; font-family: Roboto, sans-serif; font-size: 12px; font-weight: 200;" fill="rgb(50, 49, 63)" stroke="none" stroke-width="1px">40</text><text x="637.1264583333333" y="0" dx="0em" dy="0.95em" style="text-anchor: middle; visibility: inherit; font-family: Roboto, sans-serif; font-size: 12px; font-weight: 200;" fill="rgb(50, 49, 63)" stroke="none" stroke-width="1px">45</text><text x="700.8391041666666" y="0" dx="0em" dy="0.95em" style="text-anchor: middle; visibility: inherit; font-family: Roboto, sans-serif; font-size: 12px; font-weight: 200;" fill="rgb(50, 49, 63)" stroke="none" stroke-width="1px">50</text><text x="764.55175" y="0" dx="0em" dy="0.95em" style="text-anchor: middle; visibility: hidden; font-family: Roboto, sans-serif; font-size: 12px; font-weight: 200;" fill="rgb(50, 49, 63)" stroke="none" stroke-width="1px">55</text></g><line x1="0" y1="0" x2="764.55175" y2="0" fill="rgb(0, 0, 0)" stroke="rgb(204, 204, 204)" stroke-width="1px"></line></g></g></g></g></svg>