<svg viewBox="0 0 795.3333740234375 400" xmlns="http://www.w3.org/2000/svg"><g><g><g><g><g><line x1="41.171875" y1="337.0336274365061" x2="36.171875" y2="337.0336274365061" style="visibility: inherit;" fill="rgb(0, 0, 0)" stroke="rgb(204, 204, 204)" stroke-width="1px"></line><line x1="41.171875" y1="303.4050534931839" x2="36.171875" y2="303.4050534931839" style="visibility: inherit;" fill="rgb(0, 0, 0)" stroke="rgb(204, 204, 204)" stroke-width="1px"></line><line x1="41.171875" y1="279.5452005683495" x2="36.171875" y2="279.5452005683495" style="visibility: inherit;" fill="rgb(0, 0, 0)" stroke="rgb(204, 204, 204)" stroke-width="1px"></line><line x1="41.171875" y1="261.03806082861246" x2="36.171875" y2="261.03806082861246" style="visibility: inherit;" fill="rgb(0, 0, 0)" stroke="rgb(204, 204, 204)" stroke-width="1px"></line><line x1="41.171875" y1="245.91662662502736" x2="36.171875" y2="245.91662662502736" style="visibility: inherit;" fill="rgb(0, 0, 0)" stroke="rgb(204, 204, 204)" stroke-width="1px"></line><line x1="41.171875" y1="233.1316361749947" x2="36.171875" y2="233.1316361749947" style="visibility: inherit;" fill="rgb(0, 0, 0)" stroke="rgb(204, 204, 204)" stroke-width="1px"></line><line x1="41.171875" y1="222.05677370019302" x2="36.171875" y2="222.05677370019302" style="visibility: inherit;" fill="rgb(0, 0, 0)" stroke="rgb(204, 204, 204)" stroke-width="1px"></line><line x1="41.171875" y1="212.28805268170524" x2="36.171875" y2="212.28805268170524" style="visibility: inherit;" fill="rgb(0, 0, 0)" stroke="rgb(204, 204, 204)" stroke-width="1px"></line><line x1="41.171875" y1="203.54963396045588" x2="36.171875" y2="203.54963396045588" style="visibility: inherit;" fill="rgb(0, 0, 0)" stroke="rgb(204, 204, 204)" stroke-width="1px"></line><line x1="41.171875" y1="146.0612070922993" x2="36.171875" y2="146.0612070922993" style="visibility: inherit;" fill="rgb(0, 0, 0)" stroke="rgb(204, 204, 204)" stroke-width="1px"></line><line x1="41.171875" y1="112.43263314897719" x2="36.171875" y2="112.43263314897719" style="visibility: inherit;" fill="rgb(0, 0, 0)" stroke="rgb(204, 204, 204)" stroke-width="1px"></line><line x1="41.171875" y1="88.57278022414279" x2="36.171875" y2="88.57278022414279" style="visibility: inherit;" fill="rgb(0, 0, 0)" stroke="rgb(204, 204, 204)" stroke-width="1px"></line><line x1="41.171875" y1="70.06564048440569" x2="36.171875" y2="70.06564048440569" style="visibility: inherit;" fill="rgb(0, 0, 0)" stroke="rgb(204, 204, 204)" stroke-width="1px"></line><line x1="41.171875" y1="54.94420628082062" x2="36.171875" y2="54.94420628082062" style="visibility: inherit;" fill="rgb(0, 0, 0)" stroke="rgb(204, 204, 204)" stroke-width="1px"></line><line x1="41.171875" y1="42.159215830787986" x2="36.171875" y2="42.159215830787986" style="visibility: inherit;" fill="rgb(0, 0, 0)" stroke="rgb(204, 204, 204)" stroke-width="1px"></line><line x1="41.171875" y1="31.084353355986227" x2="36.171875" y2="31.084353355986227" style="visibility: inherit;" fill="rgb(0, 0, 0)" stroke="rgb(204, 204, 204)" stroke-width="1px"></line><line x1="41.171875" y1="21.315632337498464" x2="36.171875" y2="21.315632337498464" style="visibility: inherit;" fill="rgb(0, 0, 0)" stroke="rgb(204, 204, 204)" stroke-width="1px"></line><line x1="41.171875" y1="12.577213616249134" x2="36.171875" y2="12.577213616249134" style="visibility: inherit;" fill="rgb(0, 0, 0)" stroke="rgb(204, 204, 204)" stroke-width="1px"></line></g><g transform="translate(31.171875, 0)"><text x="0" y="337.0336274365061" dx="0em" dy="0.3em" style="text-anchor: end; visibility: inherit; font-family: Roboto, sans-serif; font-size: 12px; font-weight: 200;" fill="rgb(50, 49, 63)" stroke="none" stroke-width="1px">0.2</text><text x="0" y="303.4050534931839" dx="0em" dy="0.3em" style="text-anchor: end; visibility: hidden; font-family: Roboto, sans-serif; font-size: 12px; font-weight: 200;" fill="rgb(50, 49, 63)" stroke="none" stroke-width="1px">0.3</text><text x="0" y="279.5452005683495" dx="0em" dy="0.3em" style="text-anchor: end; visibility: hidden; font-family: Roboto, sans-serif; font-size: 12px; font-weight: 200;" fill="rgb(50, 49, 63)" stroke="none" stroke-width="1px">0.4</text><text x="0" y="261.03806082861246" dx="0em" dy="0.3em" style="text-anchor: end; visibility: inherit; font-family: Roboto, sans-serif; font-size: 12px; font-weight: 200;" fill="rgb(50, 49, 63)" stroke="none" stroke-width="1px">0.5</text><text x="0" y="245.91662662502736" dx="0em" dy="0.3em" style="text-anchor: end; visibility: hidden; font-family: Roboto, sans-serif; font-size: 12px; font-weight: 200;" fill="rgb(50, 49, 63)" stroke="none" stroke-width="1px">0.6</text><text x="0" y="233.1316361749947" dx="0em" dy="0.3em" style="text-anchor: end; visibility: hidden; font-family: Roboto, sans-serif; font-size: 12px; font-weight: 200;" fill="rgb(50, 49, 63)" stroke="none" stroke-width="1px">0.7</text><text x="0" y="222.05677370019302" dx="0em" dy="0.3em" style="text-anchor: end; visibility: inherit; font-family: Roboto, sans-serif; font-size: 12px; font-weight: 200;" fill="rgb(50, 49, 63)" stroke="none" stroke-width="1px">0.8</text><text x="0" y="212.28805268170524" dx="0em" dy="0.3em" style="text-anchor: end; visibility: hidden; font-family: Roboto, sans-serif; font-size: 12px; font-weight: 200;" fill="rgb(50, 49, 63)" stroke="none" stroke-width="1px">0.9</text><text x="0" y="203.54963396045588" dx="0em" dy="0.3em" style="text-anchor: end; visibility: hidden; font-family: Roboto, sans-serif; font-size: 12px; font-weight: 200;" fill="rgb(50, 49, 63)" stroke="none" stroke-width="1px">1</text><text x="0" y="146.0612070922993" dx="0em" dy="0.3em" style="text-anchor: end; visibility: inherit; font-family: Roboto, sans-serif; font-size: 12px; font-weight: 200;" fill="rgb(50, 49, 63)" stroke="none" stroke-width="1px">2</text><text x="0" y="112.43263314897719" dx="0em" dy="0.3em" style="text-anchor: end; visibility: hidden; font-family: Roboto, sans-serif; font-size: 12px; font-weight: 200;" fill="rgb(50, 49, 63)" stroke="none" stroke-width="1px">3</text><text x="0" y="88.57278022414279" dx="0em" dy="0.3em" style="text-anchor: end; visibility: hidden; font-family: Roboto, sans-serif; font-size: 12px; font-weight: 200;" fill="rgb(50, 49, 63)" stroke="none" stroke-width="1px">4</text><text x="0" y="70.06564048440569" dx="0em" dy="0.3em" style="text-anchor: end; visibility: inherit; font-family: Roboto, sans-serif; font-size: 12px; font-weight: 200;" fill="rgb(50, 49, 63)" stroke="none" stroke-width="1px">5</text><text x="0" y="54.94420628082062" dx="0em" dy="0.3em" style="text-anchor: end; visibility: hidden; font-family: Roboto, sans-serif; font-size: 12px; font-weight: 200;" fill="rgb(50, 49, 63)" stroke="none" stroke-width="1px">6</text><text x="0" y="42.159215830787986" dx="0em" dy="0.3em" style="text-anchor: end; visibility: hidden; font-family: Roboto, sans-serif; font-size: 12px; font-weight: 200;" fill="rgb(50, 49, 63)" stroke="none" stroke-width="1px">7</text><text x="0" y="31.084353355986227" dx="0em" dy="0.3em" style="text-anchor: end; visibility: inherit; font-family: Roboto, sans-serif; font-size: 12px; font-weight: 200;" fill="rgb(50, 49, 63)" stroke="none" stroke-width="1px">8</text><text x="0" y="21.315632337498464" dx="0em" dy="0.3em" style="text-anchor: end; visibility: hidden; font-family: Roboto, sans-serif; font-size: 12px; font-weight: 200;" fill="rgb(50, 49, 63)" stroke="none" stroke-width="1px">9</text><text x="0" y="12.577213616249134" dx="0em" dy="0.3em" style="text-anchor: end; visibility: hidden; font-family: Roboto, sans-serif; font-size: 12px; font-weight: 200;" fill="rgb(50, 49, 63)" stroke="none" stroke-width="1px">10</text></g><line x1="41.171875" y1="0" x2="41.171875" y2="378" fill="rgb(0, 0, 0)" stroke="rgb(204, 204, 204)" stroke-width="1px"></line></g></g><g transform="translate(41, 0)" clip-path="url(#clip_0)"><clipPath id="clip_0"><rect width="754" height="378"></rect></clipPath><g><g><g><line x1="0" y1="0" x2="0" y2="378" fill="rgb(0, 0, 0)" stroke="rgb(60, 60, 60)" stroke-width="1px" opacity="0.25"></line><line x1="62.84676041666666" y1="0" x2="62.84676041666666" y2="378" fill="rgb(0, 0, 0)" stroke="rgb(60, 60, 60)" stroke-width="1px" opacity="0.25"></line><line x1="125.69352083333332" y1="0" x2="125.69352083333332" y2="378" fill="rgb(0, 0, 0)" stroke="rgb(60, 60, 60)" stroke-width="1px" opacity="0.25"></line><line x1="188.54028125" y1="0" x2="188.54028125" y2="378" fill="rgb(0, 0, 0)" stroke="rgb(60, 60, 60)" stroke-width="1px" opacity="0.25"></line><line x1="251.38704166666665" y1="0" x2="251.38704166666665" y2="378" fill="rgb(0, 0, 0)" stroke="rgb(60, 60, 60)" stroke-width="1px" opacity="0.25"></line><line x1="314.23380208333333" y1="0" x2="314.23380208333333" y2="378" fill="rgb(0, 0, 0)" stroke="rgb(60, 60, 60)" stroke-width="1px" opacity="0.25"></line><line x1="377.0805625" y1="0" x2="377.0805625" y2="378" fill="rgb(0, 0, 0)" stroke="rgb(60, 60, 60)" stroke-width="1px" opacity="0.25"></line><line x1="439.9273229166667" y1="0" x2="439.9273229166667" y2="378" fill="rgb(0, 0, 0)" stroke="rgb(60, 60, 60)" stroke-width="1px" opacity="0.25"></line><line x1="502.7740833333333" y1="0" x2="502.7740833333333" y2="378" fill="rgb(0, 0, 0)" stroke="rgb(60, 60, 60)" stroke-width="1px" opacity="0.25"></line><line x1="565.62084375" y1="0" x2="565.62084375" y2="378" fill="rgb(0, 0, 0)" stroke="rgb(60, 60, 60)" stroke-width="1px" opacity="0.25"></line><line x1="628.4676041666667" y1="0" x2="628.4676041666667" y2="378" fill="rgb(0, 0, 0)" stroke="rgb(60, 60, 60)" stroke-width="1px" opacity="0.25"></line><line x1="691.3143645833333" y1="0" x2="691.3143645833333" y2="378" fill="rgb(0, 0, 0)" stroke="rgb(60, 60, 60)" stroke-width="1px" opacity="0.25"></line><line x1="754.161125" y1="0" x2="754.161125" y2="378" fill="rgb(0, 0, 0)" stroke="rgb(60, 60, 60)" stroke-width="1px" opacity="0.25"></line></g><g><line x1="0" y1="337.0336274365061" x2="754.161125" y2="337.0336274365061" fill="rgb(0, 0, 0)" stroke="rgb(60, 60, 60)" stroke-width="1px" opacity="0.25"></line><line x1="0" y1="303.4050534931839" x2="754.161125" y2="303.4050534931839" fill="rgb(0, 0, 0)" stroke="rgb(60, 60, 60)" stroke-width="1px" opacity="0.25"></line><line x1="0" y1="279.5452005683495" x2="754.161125" y2="279.5452005683495" fill="rgb(0, 0, 0)" stroke="rgb(60, 60, 60)" stroke-width="1px" opacity="0.25"></line><line x1="0" y1="261.03806082861246" x2="754.161125" y2="261.03806082861246" fill="rgb(0, 0, 0)" stroke="rgb(60, 60, 60)" stroke-width="1px" opacity="0.25"></line><line x1="0" y1="245.91662662502736" x2="754.161125" y2="245.91662662502736" fill="rgb(0, 0, 0)" stroke="rgb(60, 60, 60)" stroke-width="1px" opacity="0.25"></line><line x1="0" y1="233.1316361749947" x2="754.161125" y2="233.1316361749947" fill="rgb(0, 0, 0)" stroke="rgb(60, 60, 60)" stroke-width="1px" opacity="0.25"></line><line x1="0" y1="222.05677370019302" x2="754.161125" y2="222.05677370019302" fill="rgb(0, 0, 0)" stroke="rgb(60, 60, 60)" stroke-width="1px" opacity="0.25"></line><line x1="0" y1="212.28805268170524" x2="754.161125" y2="212.28805268170524" fill="rgb(0, 0, 0)" stroke="rgb(60, 60, 60)" stroke-width="1px" opacity="0.25"></line><line x1="0" y1="203.54963396045588" x2="754.161125" y2="203.54963396045588" fill="rgb(0, 0, 0)" stroke="rgb(60, 60, 60)" stroke-width="1px" opacity="0.25"></line><line x1="0" y1="146.0612070922993" x2="754.161125" y2="146.0612070922993" fill="rgb(0, 0, 0)" stroke="rgb(60, 60, 60)" stroke-width="1px" opacity="0.25"></line><line x1="0" y1="112.43263314897719" x2="754.161125" y2="112.43263314897719" fill="rgb(0, 0, 0)" stroke="rgb(60, 60, 60)" stroke-width="1px" opacity="0.25"></line><line x1="0" y1="88.57278022414279" x2="754.161125" y2="88.57278022414279" fill="rgb(0, 0, 0)" stroke="rgb(60, 60, 60)" stroke-width="1px" opacity="0.25"></line><line x1="0" y1="70.06564048440569" x2="754.161125" y2="70.06564048440569" fill="rgb(0, 0, 0)" stroke="rgb(60, 60, 60)" stroke-width="1px" opacity="0.25"></line><line x1="0" y1="54.94420628082062" x2="754.161125" y2="54.94420628082062" fill="rgb(0, 0, 0)" stroke="rgb(60, 60, 60)" stroke-width="1px" opacity="0.25"></line><line x1="0" y1="42.159215830787986" x2="754.161125" y2="42.159215830787986" fill="rgb(0, 0, 0)" stroke="rgb(60, 60, 60)" stroke-width="1px" opacity="0.25"></line><line x1="0" y1="31.084353355986227" x2="754.161125" y2="31.084353355986227" fill="rgb(0, 0, 0)" stroke="rgb(60, 60, 60)" stroke-width="1px" opacity="0.25"></line><line x1="0" y1="21.315632337498464" x2="754.161125" y2="21.315632337498464" fill="rgb(0, 0, 0)" stroke="rgb(60, 60, 60)" stroke-width="1px" opacity="0.25"></line><line x1="0" y1="12.577213616249134" x2="754.161125" y2="12.577213616249134" fill="rgb(0, 0, 0)" stroke="rgb(60, 60, 60)" stroke-width="1px" opacity="0.25"></line></g></g></g><g><g><line x1="62.84676041666666" y1="0" x2="62.84676041666666" y2="378" fill="rgb(0, 0, 0)" stroke="rgb(153, 153, 153)" stroke-width="1.5px"></line></g></g><g><g><g><g><g><path stroke="rgb(255, 112, 67)" stroke-width="2px" d="M62.84676041666666,139.03721020137948L75.4161125,151.89179560265762L87.98546458333333,152.64211982877515L100.55481666666667,149.41873613516842L113.12416875,143.94628299541228L125.69352083333332,136.85486335882212L138.26287291666665,133.30105371020645L150.832225,132.79283391506263L163.40157708333334,126.14218623441606L175.97092916666665,118.68103355470855L188.54028125,121.81902851002177L201.10963333333333,114.27680929437228L213.67898541666665,114.06839484596136L226.2483375,105.8200927967234L238.8176895833333,107.13512516208066L251.38704166666665,102.38579080236019L263.95639374999996,102.43259476425001L276.5257458333333,92.56116900911285L289.0950979166667,97.57738523281468L301.66445,93.77113609484628L314.23380208333333,93.37181684021235L326.8031541666667,76.25977742824817L339.37250625,81.99197344540964L351.9418583333333,78.98032307368445L364.51121041666664,81.33234512354493L377.0805625,78.98027903793312L389.6499145833334,73.75129614492023L402.21926666666667,72.39020621081396L414.78861875,72.36047205283624L427.3579708333333,73.6755451069682L439.9273229166667,70.92576249958553L452.496675,70.67244168224632L465.0660270833333,64.69878513436515L477.6353791666666,66.96125200491431L490.20473125,67.25996743139355L502.7740833333333,61.28656605331635L515.3434354166667,55.59121156628981L527.9127874999999,56.33976027589437L540.4821395833333,52.49635162512234L553.0514916666666,56.70550049235502L565.62084375,54.0000000000001L578.1901958333334,53.50167354617934L590.7595479166666,53.992453972139025L603.3289,51.36022571630094L615.8982520833333,49.88170081004359L628.4676041666667,47.19521602313217L641.03695625,48.48359551009015L653.6063083333333,45.207592773535204L666.1756604166666,42.15709721240915L678.7450125,40.70462713984439" style="fill: none;" fill="none"></path></g><g><path stroke="rgb(51, 187, 238)" stroke-width="2px" d="M62.84676041666666,295.99871627102084L75.4161125,301.09075333147007L87.98546458333333,301.76702145920524L100.55481666666667,306.6019829016289L113.12416875,301.20058055132836L125.69352083333332,300.914602533842L138.26287291666665,289.9030382015546L150.832225,285.4040153609721L163.40157708333334,286.7259704739784L175.97092916666665,280.14517622584236L188.54028125,270.7700393452385L201.10963333333333,268.1342631919429L213.67898541666665,271.03624097745757L226.2483375,271.23488633939917L238.8176895833333,270.84303308282756L251.38704166666665,263.0878050166321L263.95639374999996,257.3860364925227L276.5257458333333,260.8804436413911L289.0950979166667,257.25245873751953L301.66445,252.54155305219732L314.23380208333333,255.14632240858472L326.8031541666667,254.50708863258484L339.37250625,249.33635506030217L351.9418583333333,249.78207341549677L364.51121041666664,249.49644942972253L377.0805625,243.94453007597753L389.6499145833334,244.01075551940306L402.21926666666667,239.8135970299972L414.78861875,239.8929449546764L427.3579708333333,237.1417007324478L439.9273229166667,235.53826866430825L452.496675,234.80779871472075L465.0660270833333,232.00855487350512L477.6353791666666,230.6241555129393L490.20473125,229.53228500417734L502.7740833333333,228.52555365801186L515.3434354166667,226.5258431149852L527.9127874999999,225.3469912393557L540.4821395833333,225.29336767499373L553.0514916666666,219.99875668909857L565.62084375,222.41707660651653L578.1901958333334,221.03411258432234L590.7595479166666,219.22085822120323L603.3289,220.81437323275102L615.8982520833333,215.5293358262895L628.4676041666667,216.31968730436392L641.03695625,215.96651689658296L653.6063083333333,214.5578790855689L666.1756604166666,213.86317041770266L678.7450125,213.39734779097844" style="fill: none;" fill="none"></path></g><g><path stroke="rgb(0, 119, 187)" stroke-width="2px" d="M62.84676041666666,262.47089795716107L75.4161125,280.8132754076168L87.98546458333333,290.0196507838847L100.55481666666667,296.7219277323283L113.12416875,301.97022309005035L125.69352083333332,305.64218660717796L138.26287291666665,308.51976558744633L150.832225,311.4898556981483L163.40157708333334,313.38262415784243L175.97092916666665,314.79995281231226L188.54028125,316.87948951282704L201.10963333333333,318.6139795062697L213.67898541666665,319.5585162224812L226.2483375,321.15189318966026L238.8176895833333,321.72668650905655L251.38704166666665,322.35780091054966L263.95639374999996,321.8327662717089L276.5257458333333,323.11287815322356L289.0950979166667,324.22484236209L301.66445,324.330509710572L314.23380208333333,324.1212291648409L326.8031541666667,324.0074884541581L339.37250625,324.23218168742966L351.9418583333333,324.7263927453314L364.51121041666664,324.0724889615579L377.0805625,324.1497178282041L389.6499145833334,324.1717125221996L402.21926666666667,324L414.78861875,324.0623945070593L427.3579708333333,323.4527425758818L439.9273229166667,323.07927004148246L452.496675,322.7547138039392L465.0660270833333,322.45088271349636L477.6353791666666,322.11430613081853L490.20473125,321.5001133260458L502.7740833333333,320.84557506320147L515.3434354166667,320.70830721345743L527.9127874999999,320.3990337533324L540.4821395833333,318.9939853000537L553.0514916666666,318.1684815898855L565.62084375,317.8619224316931L578.1901958333334,317.80633890703257L590.7595479166666,317.566665547221L603.3289,316.87150318574686L615.8982520833333,315.78118673046396L628.4676041666667,316.23297924278626L641.03695625,315.34883466760465L653.6063083333333,313.9123834577975L666.1756604166666,312.84023602833827L678.7450125,313.48089419320314" style="fill: none;" fill="none"></path></g><g><path stroke="rgb(0, 153, 136)" stroke-width="2px" d="M62.84676041666666,148.27737305234544L75.4161125,179.13549784426655L87.98546458333333,201.70114840179482L100.55481666666667,217.39174131264897L113.12416875,228.65626307185767L125.69352083333332,237.0712648063574L138.26287291666665,243.66899279316976L150.832225,249.06644742748585L163.40157708333334,253.51175321007625L175.97092916666665,257.33070750124074L188.54028125,260.62907626343366L201.10963333333333,263.56569382771295L213.67898541666665,266.13696899167553L226.2483375,268.46719624601093L238.8176895833333,270.5749818929016L251.38704166666665,272.56354100166686L263.95639374999996,274.3778885389633L276.5257458333333,276.11811832260923L289.0950979166667,277.7274430351432L301.66445,279.26392787275324L314.23380208333333,280.6221209449948L326.8031541666667,281.92637533758864L339.37250625,283.2459304863128L351.9418583333333,284.530857831007L364.51121041666664,285.6928301804687L377.0805625,286.760935807387L389.6499145833334,287.8607695105051L402.21926666666667,288.8812643453986L414.78861875,289.91886278543785L427.3579708333333,290.86167325368655L439.9273229166667,291.793819049285L452.496675,292.68136704957493L465.0660270833333,293.5770447807929L477.6353791666666,294.3875249562454L490.20473125,295.2205513501262L502.7740833333333,296.0611321836694L515.3434354166667,296.7934260800635L527.9127874999999,297.5108762513358L540.4821395833333,298.2096097015964L553.0514916666666,298.90008391441273L565.62084375,299.63353010258356L578.1901958333334,300.40901129388794L590.7595479166666,301.01602284152636L603.3289,301.64147862418633L615.8982520833333,302.30455236729694L628.4676041666667,302.87445085395683L641.03695625,303.4868808570676L653.6063083333333,304.07588718384085L666.1756604166666,304.55998897252397L678.7450125,305.1026528240948" style="fill: none;" fill="none"></path></g></g></g></g></g></g><g transform="translate(41, 378)" clip-path="url(#clip_1)"><clipPath id="clip_1"><rect width="754" height="22"></rect></clipPath><g><g><line x1="0" y1="0" x2="0" y2="5" style="visibility: inherit;" fill="rgb(0, 0, 0)" stroke="rgb(204, 204, 204)" stroke-width="1px"></line><line x1="62.84676041666666" y1="0" x2="62.84676041666666" y2="5" style="visibility: inherit;" fill="rgb(0, 0, 0)" stroke="rgb(204, 204, 204)" stroke-width="1px"></line><line x1="125.69352083333332" y1="0" x2="125.69352083333332" y2="5" style="visibility: inherit;" fill="rgb(0, 0, 0)" stroke="rgb(204, 204, 204)" stroke-width="1px"></line><line x1="188.54028125" y1="0" x2="188.54028125" y2="5" style="visibility: inherit;" fill="rgb(0, 0, 0)" stroke="rgb(204, 204, 204)" stroke-width="1px"></line><line x1="251.38704166666665" y1="0" x2="251.38704166666665" y2="5" style="visibility: inherit;" fill="rgb(0, 0, 0)" stroke="rgb(204, 204, 204)" stroke-width="1px"></line><line x1="314.23380208333333" y1="0" x2="314.23380208333333" y2="5" style="visibility: inherit;" fill="rgb(0, 0, 0)" stroke="rgb(204, 204, 204)" stroke-width="1px"></line><line x1="377.0805625" y1="0" x2="377.0805625" y2="5" style="visibility: inherit;" fill="rgb(0, 0, 0)" stroke="rgb(204, 204, 204)" stroke-width="1px"></line><line x1="439.9273229166667" y1="0" x2="439.9273229166667" y2="5" style="visibility: inherit;" fill="rgb(0, 0, 0)" stroke="rgb(204, 204, 204)" stroke-width="1px"></line><line x1="502.7740833333333" y1="0" x2="502.7740833333333" y2="5" style="visibility: inherit;" fill="rgb(0, 0, 0)" stroke="rgb(204, 204, 204)" stroke-width="1px"></line><line x1="565.62084375" y1="0" x2="565.62084375" y2="5" style="visibility: inherit;" fill="rgb(0, 0, 0)" stroke="rgb(204, 204, 204)" stroke-width="1px"></line><line x1="628.4676041666667" y1="0" x2="628.4676041666667" y2="5" style="visibility: inherit;" fill="rgb(0, 0, 0)" stroke="rgb(204, 204, 204)" stroke-width="1px"></line><line x1="691.3143645833333" y1="0" x2="691.3143645833333" y2="5" style="visibility: inherit;" fill="rgb(0, 0, 0)" stroke="rgb(204, 204, 204)" stroke-width="1px"></line><line x1="754.161125" y1="0" x2="754.161125" y2="5" style="visibility: inherit;" fill="rgb(0, 0, 0)" stroke="rgb(204, 204, 204)" stroke-width="1px"></line></g><g transform="translate(0, 8)"><text x="0" y="0" dx="0em" dy="0.95em" style="text-anchor: middle; visibility: hidden; font-family: Roboto, sans-serif; font-size: 12px; font-weight: 200;" fill="rgb(50, 49, 63)" stroke="none" stroke-width="1px">-5</text><text x="62.84676041666666" y="0" dx="0em" dy="0.95em" style="text-anchor: middle; visibility: inherit; font-family: Roboto, sans-serif; font-size: 12px; font-weight: 200;" fill="rgb(50, 49, 63)" stroke="none" stroke-width="1px">0</text><text x="125.69352083333332" y="0" dx="0em" dy="0.95em" style="text-anchor: middle; visibility: inherit; font-family: Roboto, sans-serif; font-size: 12px; font-weight: 200;" fill="rgb(50, 49, 63)" stroke="none" stroke-width="1px">5</text><text x="188.54028125" y="0" dx="0em" dy="0.95em" style="text-anchor: middle; visibility: inherit; font-family: Roboto, sans-serif; font-size: 12px; font-weight: 200;" fill="rgb(50, 49, 63)" stroke="none" stroke-width="1px">10</text><text x="251.38704166666665" y="0" dx="0em" dy="0.95em" style="text-anchor: middle; visibility: inherit; font-family: Roboto, sans-serif; font-size: 12px; font-weight: 200;" fill="rgb(50, 49, 63)" stroke="none" stroke-width="1px">15</text><text x="314.23380208333333" y="0" dx="0em" dy="0.95em" style="text-anchor: middle; visibility: inherit; font-family: Roboto, sans-serif; font-size: 12px; font-weight: 200;" fill="rgb(50, 49, 63)" stroke="none" stroke-width="1px">20</text><text x="377.0805625" y="0" dx="0em" dy="0.95em" style="text-anchor: middle; visibility: inherit; font-family: Roboto, sans-serif; font-size: 12px; font-weight: 200;" fill="rgb(50, 49, 63)" stroke="none" stroke-width="1px">25</text><text x="439.9273229166667" y="0" dx="0em" dy="0.95em" style="text-anchor: middle; visibility: inherit; font-family: Roboto, sans-serif; font-size: 12px; font-weight: 200;" fill="rgb(50, 49, 63)" stroke="none" stroke-width="1px">30</text><text x="502.7740833333333" y="0" dx="0em" dy="0.95em" style="text-anchor: middle; visibility: inherit; font-family: Roboto, sans-serif; font-size: 12px; font-weight: 200;" fill="rgb(50, 49, 63)" stroke="none" stroke-width="1px">35</text><text x="565.62084375" y="0" dx="0em" dy="0.95em" style="text-anchor: middle; visibility: inherit; font-family: Roboto, sans-serif; font-size: 12px; font-weight: 200;" fill="rgb(50, 49, 63)" stroke="none" stroke-width="1px">40</text><text x="628.4676041666667" y="0" dx="0em" dy="0.95em" style="text-anchor: middle; visibility: inherit; font-family: Roboto, sans-serif; font-size: 12px; font-weight: 200;" fill="rgb(50, 49, 63)" stroke="none" stroke-width="1px">45</text><text x="691.3143645833333" y="0" dx="0em" dy="0.95em" style="text-anchor: middle; visibility: inherit; font-family: Roboto, sans-serif; font-size: 12px; font-weight: 200;" fill="rgb(50, 49, 63)" stroke="none" stroke-width="1px">50</text><text x="754.161125" y="0" dx="0em" dy="0.95em" style="text-anchor: middle; visibility: hidden; font-family: Roboto, sans-serif; font-size: 12px; font-weight: 200;" fill="rgb(50, 49, 63)" stroke="none" stroke-width="1px">55</text></g><line x1="0" y1="0" x2="754.161125" y2="0" fill="rgb(0, 0, 0)" stroke="rgb(204, 204, 204)" stroke-width="1px"></line></g></g></g></g></svg>