<svg viewBox="0 0 845.5 400" xmlns="http://www.w3.org/2000/svg"><g><g><g><g><g><line x1="51.53200149536133" y1="364.038492803106" x2="46.53200149536133" y2="364.038492803106" style="visibility: inherit;" fill="rgb(0, 0, 0)" stroke="rgb(204, 204, 204)" stroke-width="1px"></line><line x1="51.53200149536133" y1="349.62462812732286" x2="46.53200149536133" y2="349.62462812732286" style="visibility: inherit;" fill="rgb(0, 0, 0)" stroke="rgb(204, 204, 204)" stroke-width="1px"></line><line x1="51.53200149536133" y1="337.8476431702011" x2="46.53200149536133" y2="337.8476431702011" style="visibility: inherit;" fill="rgb(0, 0, 0)" stroke="rgb(204, 204, 204)" stroke-width="1px"></line><line x1="51.53200149536133" y1="327.8903442672119" x2="46.53200149536133" y2="327.8903442672119" style="visibility: inherit;" fill="rgb(0, 0, 0)" stroke="rgb(204, 204, 204)" stroke-width="1px"></line><line x1="51.53200149536133" y1="319.2649396255669" x2="46.53200149536133" y2="319.2649396255669" style="visibility: inherit;" fill="rgb(0, 0, 0)" stroke="rgb(204, 204, 204)" stroke-width="1px"></line><line x1="51.53200149536133" y1="311.6567935372961" x2="46.53200149536133" y2="311.6567935372961" style="visibility: inherit;" fill="rgb(0, 0, 0)" stroke="rgb(204, 204, 204)" stroke-width="1px"></line><line x1="51.53200149536133" y1="304.8510749497837" x2="46.53200149536133" y2="304.8510749497837" style="visibility: inherit;" fill="rgb(0, 0, 0)" stroke="rgb(204, 204, 204)" stroke-width="1px"></line><line x1="51.53200149536133" y1="260.07752177224455" x2="46.53200149536133" y2="260.07752177224455" style="visibility: inherit;" fill="rgb(0, 0, 0)" stroke="rgb(204, 204, 204)" stroke-width="1px"></line><line x1="51.53200149536133" y1="233.88667213933965" x2="46.53200149536133" y2="233.88667213933965" style="visibility: inherit;" fill="rgb(0, 0, 0)" stroke="rgb(204, 204, 204)" stroke-width="1px"></line><line x1="51.53200149536133" y1="215.30396859470545" x2="46.53200149536133" y2="215.30396859470545" style="visibility: inherit;" fill="rgb(0, 0, 0)" stroke="rgb(204, 204, 204)" stroke-width="1px"></line><line x1="51.53200149536133" y1="200.89010391892225" x2="46.53200149536133" y2="200.89010391892225" style="visibility: inherit;" fill="rgb(0, 0, 0)" stroke="rgb(204, 204, 204)" stroke-width="1px"></line><line x1="51.53200149536133" y1="189.11311896180047" x2="46.53200149536133" y2="189.11311896180047" style="visibility: inherit;" fill="rgb(0, 0, 0)" stroke="rgb(204, 204, 204)" stroke-width="1px"></line><line x1="51.53200149536133" y1="179.15582005881134" x2="46.53200149536133" y2="179.15582005881134" style="visibility: inherit;" fill="rgb(0, 0, 0)" stroke="rgb(204, 204, 204)" stroke-width="1px"></line><line x1="51.53200149536133" y1="170.53041541716632" x2="46.53200149536133" y2="170.53041541716632" style="visibility: inherit;" fill="rgb(0, 0, 0)" stroke="rgb(204, 204, 204)" stroke-width="1px"></line><line x1="51.53200149536133" y1="162.92226932889554" x2="46.53200149536133" y2="162.92226932889554" style="visibility: inherit;" fill="rgb(0, 0, 0)" stroke="rgb(204, 204, 204)" stroke-width="1px"></line><line x1="51.53200149536133" y1="156.11655074138312" x2="46.53200149536133" y2="156.11655074138312" style="visibility: inherit;" fill="rgb(0, 0, 0)" stroke="rgb(204, 204, 204)" stroke-width="1px"></line><line x1="51.53200149536133" y1="111.342997563844" x2="46.53200149536133" y2="111.342997563844" style="visibility: inherit;" fill="rgb(0, 0, 0)" stroke="rgb(204, 204, 204)" stroke-width="1px"></line><line x1="51.53200149536133" y1="85.15214793093901" x2="46.53200149536133" y2="85.15214793093901" style="visibility: inherit;" fill="rgb(0, 0, 0)" stroke="rgb(204, 204, 204)" stroke-width="1px"></line><line x1="51.53200149536133" y1="66.56944438630482" x2="46.53200149536133" y2="66.56944438630482" style="visibility: inherit;" fill="rgb(0, 0, 0)" stroke="rgb(204, 204, 204)" stroke-width="1px"></line><line x1="51.53200149536133" y1="52.15557971052167" x2="46.53200149536133" y2="52.15557971052167" style="visibility: inherit;" fill="rgb(0, 0, 0)" stroke="rgb(204, 204, 204)" stroke-width="1px"></line><line x1="51.53200149536133" y1="40.378594753399845" x2="46.53200149536133" y2="40.378594753399845" style="visibility: inherit;" fill="rgb(0, 0, 0)" stroke="rgb(204, 204, 204)" stroke-width="1px"></line><line x1="51.53200149536133" y1="30.421295850410747" x2="46.53200149536133" y2="30.421295850410747" style="visibility: inherit;" fill="rgb(0, 0, 0)" stroke="rgb(204, 204, 204)" stroke-width="1px"></line><line x1="51.53200149536133" y1="21.795891208765727" x2="46.53200149536133" y2="21.795891208765727" style="visibility: inherit;" fill="rgb(0, 0, 0)" stroke="rgb(204, 204, 204)" stroke-width="1px"></line><line x1="51.53200149536133" y1="14.187745120494949" x2="46.53200149536133" y2="14.187745120494949" style="visibility: inherit;" fill="rgb(0, 0, 0)" stroke="rgb(204, 204, 204)" stroke-width="1px"></line><line x1="51.53200149536133" y1="7.3820265329825" x2="46.53200149536133" y2="7.3820265329825" style="visibility: inherit;" fill="rgb(0, 0, 0)" stroke="rgb(204, 204, 204)" stroke-width="1px"></line></g><g transform="translate(41.53200149536133, 0)"><text style="text-anchor: end; visibility: inherit; font-family: Roboto, sans-serif; font-size: 12px; font-weight: 200;" x="0" y="364.038492803106" dx="0em" dy="0.3em" fill="rgb(50, 49, 63)" stroke="none" stroke-width="1px">0.04</text><text style="text-anchor: end; visibility: hidden; font-family: Roboto, sans-serif; font-size: 12px; font-weight: 200;" x="0" y="349.62462812732286" dx="0em" dy="0.3em" fill="rgb(50, 49, 63)" stroke="none" stroke-width="1px">0.05</text><text style="text-anchor: end; visibility: hidden; font-family: Roboto, sans-serif; font-size: 12px; font-weight: 200;" x="0" y="337.8476431702011" dx="0em" dy="0.3em" fill="rgb(50, 49, 63)" stroke="none" stroke-width="1px">0.06</text><text style="text-anchor: end; visibility: hidden; font-family: Roboto, sans-serif; font-size: 12px; font-weight: 200;" x="0" y="327.8903442672119" dx="0em" dy="0.3em" fill="rgb(50, 49, 63)" stroke="none" stroke-width="1px">0.07</text><text style="text-anchor: end; visibility: inherit; font-family: Roboto, sans-serif; font-size: 12px; font-weight: 200;" x="0" y="319.2649396255669" dx="0em" dy="0.3em" fill="rgb(50, 49, 63)" stroke="none" stroke-width="1px">0.08</text><text style="text-anchor: end; visibility: hidden; font-family: Roboto, sans-serif; font-size: 12px; font-weight: 200;" x="0" y="311.6567935372961" dx="0em" dy="0.3em" fill="rgb(50, 49, 63)" stroke="none" stroke-width="1px">0.09</text><text style="text-anchor: end; visibility: hidden; font-family: Roboto, sans-serif; font-size: 12px; font-weight: 200;" x="0" y="304.8510749497837" dx="0em" dy="0.3em" fill="rgb(50, 49, 63)" stroke="none" stroke-width="1px">0.1</text><text style="text-anchor: end; visibility: hidden; font-family: Roboto, sans-serif; font-size: 12px; font-weight: 200;" x="0" y="260.07752177224455" dx="0em" dy="0.3em" fill="rgb(50, 49, 63)" stroke="none" stroke-width="1px">0.2</text><text style="text-anchor: end; visibility: inherit; font-family: Roboto, sans-serif; font-size: 12px; font-weight: 200;" x="0" y="233.88667213933965" dx="0em" dy="0.3em" fill="rgb(50, 49, 63)" stroke="none" stroke-width="1px">0.3</text><text style="text-anchor: end; visibility: hidden; font-family: Roboto, sans-serif; font-size: 12px; font-weight: 200;" x="0" y="215.30396859470545" dx="0em" dy="0.3em" fill="rgb(50, 49, 63)" stroke="none" stroke-width="1px">0.4</text><text style="text-anchor: end; visibility: hidden; font-family: Roboto, sans-serif; font-size: 12px; font-weight: 200;" x="0" y="200.89010391892225" dx="0em" dy="0.3em" fill="rgb(50, 49, 63)" stroke="none" stroke-width="1px">0.5</text><text style="text-anchor: end; visibility: hidden; font-family: Roboto, sans-serif; font-size: 12px; font-weight: 200;" x="0" y="189.11311896180047" dx="0em" dy="0.3em" fill="rgb(50, 49, 63)" stroke="none" stroke-width="1px">0.6</text><text style="text-anchor: end; visibility: inherit; font-family: Roboto, sans-serif; font-size: 12px; font-weight: 200;" x="0" y="179.15582005881134" dx="0em" dy="0.3em" fill="rgb(50, 49, 63)" stroke="none" stroke-width="1px">0.7</text><text style="text-anchor: end; visibility: hidden; font-family: Roboto, sans-serif; font-size: 12px; font-weight: 200;" x="0" y="170.53041541716632" dx="0em" dy="0.3em" fill="rgb(50, 49, 63)" stroke="none" stroke-width="1px">0.8</text><text style="text-anchor: end; visibility: hidden; font-family: Roboto, sans-serif; font-size: 12px; font-weight: 200;" x="0" y="162.92226932889554" dx="0em" dy="0.3em" fill="rgb(50, 49, 63)" stroke="none" stroke-width="1px">0.9</text><text style="text-anchor: end; visibility: hidden; font-family: Roboto, sans-serif; font-size: 12px; font-weight: 200;" x="0" y="156.11655074138312" dx="0em" dy="0.3em" fill="rgb(50, 49, 63)" stroke="none" stroke-width="1px">1</text><text style="text-anchor: end; visibility: inherit; font-family: Roboto, sans-serif; font-size: 12px; font-weight: 200;" x="0" y="111.342997563844" dx="0em" dy="0.3em" fill="rgb(50, 49, 63)" stroke="none" stroke-width="1px">2</text><text style="text-anchor: end; visibility: hidden; font-family: Roboto, sans-serif; font-size: 12px; font-weight: 200;" x="0" y="85.15214793093901" dx="0em" dy="0.3em" fill="rgb(50, 49, 63)" stroke="none" stroke-width="1px">3</text><text style="text-anchor: end; visibility: hidden; font-family: Roboto, sans-serif; font-size: 12px; font-weight: 200;" x="0" y="66.56944438630482" dx="0em" dy="0.3em" fill="rgb(50, 49, 63)" stroke="none" stroke-width="1px">4</text><text style="text-anchor: end; visibility: hidden; font-family: Roboto, sans-serif; font-size: 12px; font-weight: 200;" x="0" y="52.15557971052167" dx="0em" dy="0.3em" fill="rgb(50, 49, 63)" stroke="none" stroke-width="1px">5</text><text style="text-anchor: end; visibility: inherit; font-family: Roboto, sans-serif; font-size: 12px; font-weight: 200;" x="0" y="40.378594753399845" dx="0em" dy="0.3em" fill="rgb(50, 49, 63)" stroke="none" stroke-width="1px">6</text><text style="text-anchor: end; visibility: hidden; font-family: Roboto, sans-serif; font-size: 12px; font-weight: 200;" x="0" y="30.421295850410747" dx="0em" dy="0.3em" fill="rgb(50, 49, 63)" stroke="none" stroke-width="1px">7</text><text style="text-anchor: end; visibility: hidden; font-family: Roboto, sans-serif; font-size: 12px; font-weight: 200;" x="0" y="21.795891208765727" dx="0em" dy="0.3em" fill="rgb(50, 49, 63)" stroke="none" stroke-width="1px">8</text><text style="text-anchor: end; visibility: hidden; font-family: Roboto, sans-serif; font-size: 12px; font-weight: 200;" x="0" y="14.187745120494949" dx="0em" dy="0.3em" fill="rgb(50, 49, 63)" stroke="none" stroke-width="1px">9</text><text style="text-anchor: end; visibility: hidden; font-family: Roboto, sans-serif; font-size: 12px; font-weight: 200;" x="0" y="7.3820265329825" dx="0em" dy="0.3em" fill="rgb(50, 49, 63)" stroke="none" stroke-width="1px">10</text></g><line x1="51.53200149536133" y1="0" x2="51.53200149536133" y2="377.5999994277954" fill="rgb(0, 0, 0)" stroke="rgb(204, 204, 204)" stroke-width="1px"></line></g></g><g transform="translate(51, 0)" clip-path="url(#clip_0)"><clipPath id="clip_0"><rect width="793" height="377"></rect></clipPath><g><g><g><line x1="0" y1="0" x2="0" y2="377.5999994277954" fill="rgb(0, 0, 0)" stroke="rgb(60, 60, 60)" stroke-width="1px" opacity="0.25"></line><line x1="66.16399987538655" y1="0" x2="66.16399987538655" y2="377.5999994277954" fill="rgb(0, 0, 0)" stroke="rgb(60, 60, 60)" stroke-width="1px" opacity="0.25"></line><line x1="132.3279997507731" y1="0" x2="132.3279997507731" y2="377.5999994277954" fill="rgb(0, 0, 0)" stroke="rgb(60, 60, 60)" stroke-width="1px" opacity="0.25"></line><line x1="198.49199962615967" y1="0" x2="198.49199962615967" y2="377.5999994277954" fill="rgb(0, 0, 0)" stroke="rgb(60, 60, 60)" stroke-width="1px" opacity="0.25"></line><line x1="264.6559995015462" y1="0" x2="264.6559995015462" y2="377.5999994277954" fill="rgb(0, 0, 0)" stroke="rgb(60, 60, 60)" stroke-width="1px" opacity="0.25"></line><line x1="330.8199993769328" y1="0" x2="330.8199993769328" y2="377.5999994277954" fill="rgb(0, 0, 0)" stroke="rgb(60, 60, 60)" stroke-width="1px" opacity="0.25"></line><line x1="396.98399925231934" y1="0" x2="396.98399925231934" y2="377.5999994277954" fill="rgb(0, 0, 0)" stroke="rgb(60, 60, 60)" stroke-width="1px" opacity="0.25"></line><line x1="463.14799912770593" y1="0" x2="463.14799912770593" y2="377.5999994277954" fill="rgb(0, 0, 0)" stroke="rgb(60, 60, 60)" stroke-width="1px" opacity="0.25"></line><line x1="529.3119990030924" y1="0" x2="529.3119990030924" y2="377.5999994277954" fill="rgb(0, 0, 0)" stroke="rgb(60, 60, 60)" stroke-width="1px" opacity="0.25"></line><line x1="595.475998878479" y1="0" x2="595.475998878479" y2="377.5999994277954" fill="rgb(0, 0, 0)" stroke="rgb(60, 60, 60)" stroke-width="1px" opacity="0.25"></line><line x1="661.6399987538656" y1="0" x2="661.6399987538656" y2="377.5999994277954" fill="rgb(0, 0, 0)" stroke="rgb(60, 60, 60)" stroke-width="1px" opacity="0.25"></line><line x1="727.8039986292521" y1="0" x2="727.8039986292521" y2="377.5999994277954" fill="rgb(0, 0, 0)" stroke="rgb(60, 60, 60)" stroke-width="1px" opacity="0.25"></line><line x1="793.9679985046387" y1="0" x2="793.9679985046387" y2="377.5999994277954" fill="rgb(0, 0, 0)" stroke="rgb(60, 60, 60)" stroke-width="1px" opacity="0.25"></line></g><g><line x1="0" y1="364.038492803106" x2="793.9679985046387" y2="364.038492803106" fill="rgb(0, 0, 0)" stroke="rgb(60, 60, 60)" stroke-width="1px" opacity="0.25"></line><line x1="0" y1="349.62462812732286" x2="793.9679985046387" y2="349.62462812732286" fill="rgb(0, 0, 0)" stroke="rgb(60, 60, 60)" stroke-width="1px" opacity="0.25"></line><line x1="0" y1="337.8476431702011" x2="793.9679985046387" y2="337.8476431702011" fill="rgb(0, 0, 0)" stroke="rgb(60, 60, 60)" stroke-width="1px" opacity="0.25"></line><line x1="0" y1="327.8903442672119" x2="793.9679985046387" y2="327.8903442672119" fill="rgb(0, 0, 0)" stroke="rgb(60, 60, 60)" stroke-width="1px" opacity="0.25"></line><line x1="0" y1="319.2649396255669" x2="793.9679985046387" y2="319.2649396255669" fill="rgb(0, 0, 0)" stroke="rgb(60, 60, 60)" stroke-width="1px" opacity="0.25"></line><line x1="0" y1="311.6567935372961" x2="793.9679985046387" y2="311.6567935372961" fill="rgb(0, 0, 0)" stroke="rgb(60, 60, 60)" stroke-width="1px" opacity="0.25"></line><line x1="0" y1="304.8510749497837" x2="793.9679985046387" y2="304.8510749497837" fill="rgb(0, 0, 0)" stroke="rgb(60, 60, 60)" stroke-width="1px" opacity="0.25"></line><line x1="0" y1="260.07752177224455" x2="793.9679985046387" y2="260.07752177224455" fill="rgb(0, 0, 0)" stroke="rgb(60, 60, 60)" stroke-width="1px" opacity="0.25"></line><line x1="0" y1="233.88667213933965" x2="793.9679985046387" y2="233.88667213933965" fill="rgb(0, 0, 0)" stroke="rgb(60, 60, 60)" stroke-width="1px" opacity="0.25"></line><line x1="0" y1="215.30396859470545" x2="793.9679985046387" y2="215.30396859470545" fill="rgb(0, 0, 0)" stroke="rgb(60, 60, 60)" stroke-width="1px" opacity="0.25"></line><line x1="0" y1="200.89010391892225" x2="793.9679985046387" y2="200.89010391892225" fill="rgb(0, 0, 0)" stroke="rgb(60, 60, 60)" stroke-width="1px" opacity="0.25"></line><line x1="0" y1="189.11311896180047" x2="793.9679985046387" y2="189.11311896180047" fill="rgb(0, 0, 0)" stroke="rgb(60, 60, 60)" stroke-width="1px" opacity="0.25"></line><line x1="0" y1="179.15582005881134" x2="793.9679985046387" y2="179.15582005881134" fill="rgb(0, 0, 0)" stroke="rgb(60, 60, 60)" stroke-width="1px" opacity="0.25"></line><line x1="0" y1="170.53041541716632" x2="793.9679985046387" y2="170.53041541716632" fill="rgb(0, 0, 0)" stroke="rgb(60, 60, 60)" stroke-width="1px" opacity="0.25"></line><line x1="0" y1="162.92226932889554" x2="793.9679985046387" y2="162.92226932889554" fill="rgb(0, 0, 0)" stroke="rgb(60, 60, 60)" stroke-width="1px" opacity="0.25"></line><line x1="0" y1="156.11655074138312" x2="793.9679985046387" y2="156.11655074138312" fill="rgb(0, 0, 0)" stroke="rgb(60, 60, 60)" stroke-width="1px" opacity="0.25"></line><line x1="0" y1="111.342997563844" x2="793.9679985046387" y2="111.342997563844" fill="rgb(0, 0, 0)" stroke="rgb(60, 60, 60)" stroke-width="1px" opacity="0.25"></line><line x1="0" y1="85.15214793093901" x2="793.9679985046387" y2="85.15214793093901" fill="rgb(0, 0, 0)" stroke="rgb(60, 60, 60)" stroke-width="1px" opacity="0.25"></line><line x1="0" y1="66.56944438630482" x2="793.9679985046387" y2="66.56944438630482" fill="rgb(0, 0, 0)" stroke="rgb(60, 60, 60)" stroke-width="1px" opacity="0.25"></line><line x1="0" y1="52.15557971052167" x2="793.9679985046387" y2="52.15557971052167" fill="rgb(0, 0, 0)" stroke="rgb(60, 60, 60)" stroke-width="1px" opacity="0.25"></line><line x1="0" y1="40.378594753399845" x2="793.9679985046387" y2="40.378594753399845" fill="rgb(0, 0, 0)" stroke="rgb(60, 60, 60)" stroke-width="1px" opacity="0.25"></line><line x1="0" y1="30.421295850410747" x2="793.9679985046387" y2="30.421295850410747" fill="rgb(0, 0, 0)" stroke="rgb(60, 60, 60)" stroke-width="1px" opacity="0.25"></line><line x1="0" y1="21.795891208765727" x2="793.9679985046387" y2="21.795891208765727" fill="rgb(0, 0, 0)" stroke="rgb(60, 60, 60)" stroke-width="1px" opacity="0.25"></line><line x1="0" y1="14.187745120494949" x2="793.9679985046387" y2="14.187745120494949" fill="rgb(0, 0, 0)" stroke="rgb(60, 60, 60)" stroke-width="1px" opacity="0.25"></line><line x1="0" y1="7.3820265329825" x2="793.9679985046387" y2="7.3820265329825" fill="rgb(0, 0, 0)" stroke="rgb(60, 60, 60)" stroke-width="1px" opacity="0.25"></line></g></g></g><g><g><line x1="66.16399987538655" y1="0" x2="66.16399987538655" y2="377.5999994277954" fill="rgb(0, 0, 0)" stroke="rgb(153, 153, 153)" stroke-width="1.5px"></line></g></g><g><g><g><g><g><path style="fill: none;" stroke="rgb(255, 112, 67)" stroke-width="2px" d="M66.16399987538655,105.87251740901708L79.39679985046388,115.88401875622378L92.62959982554118,116.46839170689633L105.86239980061849,113.9579326618385L119.09519977569579,109.6958370538582L132.3279997507731,104.17284622769972L145.56079972585042,101.40504244607841L158.79359970092776,101.00922702263779L172.02639967600504,95.8295214050634L185.25919965108235,90.01857241115967L198.49199962615967,92.46252838032864L211.72479960123698,86.58844255949033L224.9575995763143,86.42612370859713L238.19039955139158,80.00212133899109L251.4231995264689,81.02630437457051L264.6559995015462,77.32739337461327L277.8887994766235,77.36384557535617L291.12159945170083,69.67571023988434L304.3543994267782,73.5824761069872L317.5871994018555,70.6180655730787L330.8199993769328,70.30706485769694L344.0527993520101,56.979742328158196L357.2855993270874,61.4441327660294L370.5183993021647,59.09857740094977L383.75119927724205,60.9303962566942L396.98399925231934,59.098543104706806L410.2167992273967,55.026068758493075L423.44959920247396,53.9660148334851L436.6823991775513,53.94285706111361L449.9151991526286,54.967071786219385L463.14799912770593,52.82546617087215L476.38079910278316,52.62817301633647L489.61359907786056,47.97572653829468L502.8463990529378,49.7377973803665L516.0791990280152,49.9704450933243L529.3119990030924,45.31819734847833L542.5447989781698,40.8825000980624L555.777598953247,41.46549022809885L569.0103989283244,38.47213885316889L582.2431989034017,41.75033867365505L595.475998878479,39.643221176004204L608.7087988535563,39.25511095634054L621.9415988286336,39.63734412390659L635.174398803711,37.58729304043422L648.4071987787883,36.435777559475724L661.6399987538656,34.34347001132721L674.8727987289428,35.346895059023495L688.1055987040202,32.79545486965639L701.3383986790975,30.41964581269338L714.5711986541749,29.28842254610605" fill="none"></path></g><g><path style="fill: none;" stroke="rgb(187, 187, 187)" stroke-width="2px" d="M66.16399987538655,99.20084479479277L79.39679985046388,131.51928790018061L92.62959982554118,152.8470395394032L105.86239980061849,160.7383621797812L119.09519977569579,160.24489270407153L132.3279997507731,169.22199900121905L145.56079972585042,174.49150165626713L158.79359970092776,169.15687327213286L172.02639967600504,172.22838138517247L185.25919965108235,180.93796105972373L198.49199962615967,173.25315251742265L211.72479960123698,177.86037440579582L224.9575995763143,177.59717880756213L238.19039955139158,179.18354809701432L251.4231995264689,172.04736016143835L264.6559995015462,175.3887330588106L277.8887994766235,183.587035610345L291.12159945170083,171.2331336226526L304.3543994267782,176.9727772795869L317.5871994018555,195.16078089290815L330.8199993769328,178.77961636455922L344.0527993520101,177.96144821425148L357.2855993270874,173.26857539082414L370.5183993021647,179.3636610710322L383.75119927724205,186.2992155585608L396.98399925231934,177.35736415499886L410.2167992273967,181.23439829774765L423.44959920247396,172.19298984068914L436.6823991775513,177.93323695303866L449.9151991526286,170.8879585573484L463.14799912770593,179.03262432019105L476.38079910278316,175.51724245025267L489.61359907786056,182.7902443533395L502.8463990529378,180.9762220852793L516.0791990280152,172.05962470390824L529.3119990030924,190.51490839516822L542.5447989781698,168.08919230166205L555.777598953247,166.93740891949082L569.0103989283244,178.88980815582795L582.2431989034017,178.48107889502697L595.475998878479,172.21183657343835L608.7087988535563,174.78840795721857L621.9415988286336,178.61972576738836L635.174398803711,162.95235189322895L648.4071987787883,173.0521137931011L661.6399987538656,171.09915542082865L674.8727987289428,171.12251331427947L688.1055987040202,177.75691259805825L701.3383986790975,170.3159956387167L714.5711986541749,163.46179175449754" fill="none"></path></g><g><path style="fill: none;" stroke="rgb(51, 187, 238)" stroke-width="2px" d="M66.16399987538655,228.11841491727623L79.39679985046388,232.0842321178563L92.62959982554118,232.61092816137247L105.86239980061849,236.3765278663388L119.09519977569579,232.16976854903996L132.3279997507731,231.94704107724996L145.56079972585042,223.3709347536195L158.79359970092776,219.86697318476737L172.02639967600504,220.89654784483332L185.25919965108235,215.77124598372825L198.49199962615967,208.46963394565503L211.72479960123698,206.41681966297654L224.9575995763143,208.6769590297706L238.19039955139158,208.83166944995236L251.4231995264689,208.52648345728056L264.6559995015462,202.48650053998693L277.8887994766235,198.04580786273374L291.12159945170083,200.7673473590683L304.3543994267782,197.94177386767083L317.5871994018555,194.2727921663647L330.8199993769328,196.30145751079834L344.0527993520101,195.8036048294535L357.2855993270874,191.77649664128836L370.5183993021647,192.12363424037906L383.75119927724205,191.90118249813227L396.98399925231934,187.577196437557L410.2167992273967,187.62877461727865L423.44959920247396,184.35991322973453L436.6823991775513,184.42171155539225L449.9151991526286,182.2789675945798L463.14799912770593,181.03017101272056L476.38079910278316,180.46126111356025L489.61359907786056,178.28113374168066L502.8463990529378,177.20292580025622L516.0791990280152,176.35254729887265L529.3119990030924,175.56847749702524L542.5447989781698,174.01104844190036L555.777598953247,173.09292648210157L569.0103989283244,173.05116298914615L582.2431989034017,168.92757569608924L595.475998878479,170.8110291374425L608.7087988535563,169.7339390766492L621.9415988286336,168.32172717463087L635.174398803711,169.56280008261587L648.4071987787883,165.4466689540641L661.6399987538656,166.06221621914526L674.8727987289428,165.78715748306647L688.1055987040202,164.69007197603088L701.3383986790975,164.14901393742872L714.5711986541749,163.78621858390878" fill="none"></path></g><g><path style="fill: none;" stroke="rgb(204, 51, 17)" stroke-width="2px" d="M66.16399987538655,201.32670320645326L79.39679985046388,252.83320710366505L92.62959982554118,275.8344908852247L105.86239980061849,288.23302146205174L119.09519977569579,296.1752450167039L132.3279997507731,305.36135527834267L145.56079972585042,304.4563344787275L158.79359970092776,302.1992199335189L172.02639967600504,302.7721885850141L185.25919965108235,312.5157311121468L198.49199962615967,320.81351502471506L211.72479960123698,311.9349196001646L224.9575995763143,310.806019566061L238.19039955139158,322.07717139463045L251.4231995264689,317.5944023177873L264.6559995015462,321.4407723269136L277.8887994766235,317.97536232974124L291.12159945170083,318.0607000635279L304.3543994267782,315.30728076925595L317.5871994018555,317.5336451990816L330.8199993769328,316.0701579868602L344.0527993520101,322.3013417009634L357.2855993270874,312.07949904439903L370.5183993021647,316.7804836521013L383.75119927724205,315.02413759245053L396.98399925231934,319.2270163209604L410.2167992273967,317.86418890091403L423.44959920247396,311.73198725840865L436.6823991775513,311.2498221335596L449.9151991526286,304.7742132444171L463.14799912770593,319.30563900999624L476.38079910278316,308.63151159821456L489.61359907786056,319.783882924128L502.8463990529378,318.25181731600486L516.0791990280152,304.0704731430803L529.3119990030924,310.67580858630544L542.5447989781698,315.3816625607118L555.777598953247,299.6682935489604L569.0103989283244,313.8499822273401L582.2431989034017,315.091003225834L595.475998878479,313.08606546429405L608.7087988535563,302.85608557218137L621.9415988286336,315.1696982759571L635.174398803711,304.8691192126837L648.4071987787883,318.3867657004067L661.6399987538656,317.5936226428422L674.8727987289428,305.71361679816766L688.1055987040202,326.88905817779823L701.3383986790975,307.09278170421084L714.5711986541749,312.57534044828503" fill="none"></path></g><g><path style="fill: none;" stroke="rgb(0, 119, 187)" stroke-width="2px" d="M66.16399987538655,202.0060365137896L79.39679985046388,216.29157982955869L92.62959982554118,223.46175580997053L105.86239980061849,228.681671707999L119.09519977569579,232.76918712791664L132.3279997507731,235.62901236156142L145.56079972585042,237.8701492740585L158.79359970092776,240.18333637550026L172.02639967600504,241.6574760223763L185.25919965108235,242.76133019508643L198.49199962615967,244.38093003661066L211.72479960123698,245.73179810150683L224.9575995763143,246.46742903098806L238.19039955139158,247.70839442625746L251.4231995264689,248.1560591242515L264.6559995015462,248.64758821550953L277.8887994766235,248.23867693365978L291.12159945170083,249.23566294497718L304.3543994267782,250.101690967476L317.5871994018555,250.18398757749185L330.8199993769328,250.020994186408L344.0527993520101,249.93240982194297L357.2855993270874,250.10740703401825L370.5183993021647,250.49231207121187L383.75119927724205,249.9830339881131L396.98399925231934,250.0431819336388L410.2167992273967,250.06031200059107L423.44959920247396,249.92657760981388L436.6823991775513,249.9751721519156L449.9151991526286,249.50035861730683L463.14799912770593,249.20948803186488L476.38079910278316,248.9567147911903L489.61359907786056,248.720082859756L502.8463990529378,248.45794784678375L516.0791990280152,247.97959775609817L529.3119990030924,247.469825523412L542.5447989781698,247.36291758202452L555.777598953247,247.1220469847986L569.0103989283244,246.0277569673631L582.2431989034017,245.38483218616787L595.475998878479,245.14607556124105L608.7087988535563,245.10278559780392L621.9415988286336,244.9161214550301L635.174398803711,244.37471006748473L648.4071987787883,243.52554190529247L661.6399987538656,243.87741022345102L674.8727987289428,243.1888143388513L688.1055987040202,242.07006699903027L701.3383986790975,241.23504936918374L714.5711986541749,241.73401140338564" fill="none"></path></g><g><path style="fill: none;" stroke="rgb(255, 112, 67)" stroke-width="2px" d="M66.16399987538655,158.78930027444656L79.39679985046388,208.91498560570082L92.62959982554118,223.39989042417443L105.86239980061849,234.61730057065856L119.09519977569579,242.81401168392253L132.3279997507731,249.331148453943L145.56079972585042,255.8935412464606L158.79359970092776,261.5225079198981L172.02639967600504,266.88794903525127L185.25919965108235,271.8565030563437L198.49199962615967,274.8724883774632L211.72479960123698,279.8094812396654L224.9575995763143,284.09886021069184L238.19039955139158,286.6672270598559L251.4231995264689,291.18837987297974L264.6559995015462,293.3283110719914L277.8887994766235,297.2527106617373L291.12159945170083,298.5642795271459L304.3543994267782,299.7681381049957L317.5871994018555,303.884730246765L330.8199993769328,305.5321704544741L344.0527993520101,306.616929372324L357.2855993270874,311.2424257086748L370.5183993021647,314.0118048152947L383.75119927724205,317.03099499597965L396.98399925231934,314.7756125216743L410.2167992273967,318.75059464413727L423.44959920247396,318.79116080548556L436.6823991775513,322.08517711280064L449.9151991526286,323.616743067314L463.14799912770593,323.87061681772605L476.38079910278316,325.204775367809L489.61359907786056,327.2103235692848L502.8463990529378,323.6571423666818L516.0791990280152,326.32747904071215L529.3119990030924,331.1202588260909L542.5447989781698,329.7147900520028L555.777598953247,334.02861275362665L569.0103989283244,331.4978328969668L582.2431989034017,335.8997337430861L595.475998878479,336.4574483199263L608.7087988535563,333.9363180325807L621.9415988286336,337.72445349314245L635.174398803711,335.19441013903685L648.4071987787883,336.69922737225505L661.6399987538656,340.07852608171714L674.8727987289428,339.01487299313L688.1055987040202,341.3035710357852L701.3383986790975,339.9215871162431L714.5711986541749,340.8004459141536" fill="none"></path></g><g><path style="fill: none;" stroke="rgb(0, 153, 136)" stroke-width="2px" d="M66.16399987538655,113.069007995299L79.39679985046388,137.10215634529354L92.62959982554118,154.67689982436582L105.86239980061849,166.89716109003598L119.09519977569579,175.67027754984375L132.3279997507731,182.22411017623978L145.56079972585042,187.36260049440344L158.79359970092776,191.5662852229338L172.02639967600504,195.0284104834439L185.25919965108235,198.0027161368268L198.49199962615967,200.5715755963466L211.72479960123698,202.8586933666397L224.9575995763143,204.8612725214284L238.19039955139158,206.67611699659577L251.4231995264689,208.3177178872297L264.6559995015462,209.86646190151936L277.8887994766235,211.27952519737156L291.12159945170083,212.63486356726477L304.3543994267782,213.88824950112965L317.5871994018555,215.08490575580484L330.8199993769328,216.14270352586445L344.0527993520101,217.1584923825984L357.2855993270874,218.18619788509187L370.5183993021647,219.18693431033586L383.75119927724205,220.09191003525467L396.98399925231934,220.92377979915918L410.2167992273967,221.78036025327293L423.44959920247396,222.5751494351425L436.6823991775513,223.38325937070516L449.9151991526286,224.1175458512395L463.14799912770593,224.84352639414354L476.38079910278316,225.5347729589476L489.61359907786056,226.2323511797014L502.8463990529378,226.86357522272817L516.0791990280152,227.51235887496225L529.3119990030924,228.16702613063404L542.5447989781698,228.73735656926277L555.777598953247,229.2961263103337L569.0103989283244,229.84031895912392L582.2431989034017,230.37807908876104L595.475998878479,230.9493069636208L608.7087988535563,231.5532728442089L621.9415988286336,232.02602997617737L635.174398803711,232.51315198091316L648.4071987787883,233.0295718781889L661.6399987538656,233.47342434708287L674.8727987289428,233.95040151980479L688.1055987040202,234.4091356951923L701.3383986790975,234.7861673580808L714.5711986541749,235.20880875113116" fill="none"></path></g><g><path style="fill: none;" stroke="rgb(238, 51, 119)" stroke-width="2px" d="M66.16399987538655,98.80028889193433L79.39679985046388,124.9894898139706L92.62959982554118,146.0276211530499L105.86239980061849,161.2653028687671L119.09519977569579,171.99120165503282L132.3279997507731,180.15214228796165L145.56079972585042,186.3002476513381L158.79359970092776,191.24203460555313L172.02639967600504,195.75523326760867L185.25919965108235,199.4585036646885L198.49199962615967,202.5676357576707L211.72479960123698,205.58904695254117L224.9575995763143,207.85673776571286L238.19039955139158,210.3903490937325L251.4231995264689,212.33453376140423L264.6559995015462,214.82317081213662L277.8887994766235,216.09025881757162L291.12159945170083,217.85983514044642L304.3543994267782,219.95875732309955L317.5871994018555,221.39642606667218L330.8199993769328,222.85794996650392L344.0527993520101,224.42184788934102L357.2855993270874,226.29321414047592L370.5183993021647,226.98017209442915L383.75119927724205,229.32645917020741L396.98399925231934,230.40590246072867L410.2167992273967,231.50232463502306L423.44959920247396,233.16643138679407L436.6823991775513,233.9461237906905L449.9151991526286,235.0425846000204L463.14799912770593,236.4462706142366L476.38079910278316,237.7086448471889L489.61359907786056,238.68141397432444L502.8463990529378,239.63660062652502L516.0791990280152,240.87510719148605L529.3119990030924,241.42044416585898L542.5447989781698,242.40006822219905L555.777598953247,243.65436147863264L569.0103989283244,243.83461759738145L582.2431989034017,246.14716051308778L595.475998878479,246.55536535397573L608.7087988535563,247.43329536016574L621.9415988286336,248.5513959589948L635.174398803711,249.228257712779L648.4071987787883,249.6278535425308L661.6399987538656,251.0872645669603L674.8727987289428,252.8260014984749L688.1055987040202,252.56065160372637L701.3383986790975,253.4494437386899L714.5711986541749,254.8111456567276" fill="none"></path></g></g></g></g></g></g><g transform="translate(51, 377)" clip-path="url(#clip_1)"><clipPath id="clip_1"><rect width="793" height="22"></rect></clipPath><g><g><line x1="0" y1="0" x2="0" y2="5" style="visibility: inherit;" fill="rgb(0, 0, 0)" stroke="rgb(204, 204, 204)" stroke-width="1px"></line><line x1="66.16399987538655" y1="0" x2="66.16399987538655" y2="5" style="visibility: inherit;" fill="rgb(0, 0, 0)" stroke="rgb(204, 204, 204)" stroke-width="1px"></line><line x1="132.3279997507731" y1="0" x2="132.3279997507731" y2="5" style="visibility: inherit;" fill="rgb(0, 0, 0)" stroke="rgb(204, 204, 204)" stroke-width="1px"></line><line x1="198.49199962615967" y1="0" x2="198.49199962615967" y2="5" style="visibility: inherit;" fill="rgb(0, 0, 0)" stroke="rgb(204, 204, 204)" stroke-width="1px"></line><line x1="264.6559995015462" y1="0" x2="264.6559995015462" y2="5" style="visibility: inherit;" fill="rgb(0, 0, 0)" stroke="rgb(204, 204, 204)" stroke-width="1px"></line><line x1="330.8199993769328" y1="0" x2="330.8199993769328" y2="5" style="visibility: inherit;" fill="rgb(0, 0, 0)" stroke="rgb(204, 204, 204)" stroke-width="1px"></line><line x1="396.98399925231934" y1="0" x2="396.98399925231934" y2="5" style="visibility: inherit;" fill="rgb(0, 0, 0)" stroke="rgb(204, 204, 204)" stroke-width="1px"></line><line x1="463.14799912770593" y1="0" x2="463.14799912770593" y2="5" style="visibility: inherit;" fill="rgb(0, 0, 0)" stroke="rgb(204, 204, 204)" stroke-width="1px"></line><line x1="529.3119990030924" y1="0" x2="529.3119990030924" y2="5" style="visibility: inherit;" fill="rgb(0, 0, 0)" stroke="rgb(204, 204, 204)" stroke-width="1px"></line><line x1="595.475998878479" y1="0" x2="595.475998878479" y2="5" style="visibility: inherit;" fill="rgb(0, 0, 0)" stroke="rgb(204, 204, 204)" stroke-width="1px"></line><line x1="661.6399987538656" y1="0" x2="661.6399987538656" y2="5" style="visibility: inherit;" fill="rgb(0, 0, 0)" stroke="rgb(204, 204, 204)" stroke-width="1px"></line><line x1="727.8039986292521" y1="0" x2="727.8039986292521" y2="5" style="visibility: inherit;" fill="rgb(0, 0, 0)" stroke="rgb(204, 204, 204)" stroke-width="1px"></line><line x1="793.9679985046387" y1="0" x2="793.9679985046387" y2="5" style="visibility: inherit;" fill="rgb(0, 0, 0)" stroke="rgb(204, 204, 204)" stroke-width="1px"></line></g><g transform="translate(0, 8)"><text style="text-anchor: middle; visibility: hidden; font-family: Roboto, sans-serif; font-size: 12px; font-weight: 200;" x="0" y="0" dx="0em" dy="0.95em" fill="rgb(50, 49, 63)" stroke="none" stroke-width="1px">-5</text><text style="text-anchor: middle; visibility: inherit; font-family: Roboto, sans-serif; font-size: 12px; font-weight: 200;" x="66.16399987538655" y="0" dx="0em" dy="0.95em" fill="rgb(50, 49, 63)" stroke="none" stroke-width="1px">0</text><text style="text-anchor: middle; visibility: inherit; font-family: Roboto, sans-serif; font-size: 12px; font-weight: 200;" x="132.3279997507731" y="0" dx="0em" dy="0.95em" fill="rgb(50, 49, 63)" stroke="none" stroke-width="1px">5</text><text style="text-anchor: middle; visibility: inherit; font-family: Roboto, sans-serif; font-size: 12px; font-weight: 200;" x="198.49199962615967" y="0" dx="0em" dy="0.95em" fill="rgb(50, 49, 63)" stroke="none" stroke-width="1px">10</text><text style="text-anchor: middle; visibility: inherit; font-family: Roboto, sans-serif; font-size: 12px; font-weight: 200;" x="264.6559995015462" y="0" dx="0em" dy="0.95em" fill="rgb(50, 49, 63)" stroke="none" stroke-width="1px">15</text><text style="text-anchor: middle; visibility: inherit; font-family: Roboto, sans-serif; font-size: 12px; font-weight: 200;" x="330.8199993769328" y="0" dx="0em" dy="0.95em" fill="rgb(50, 49, 63)" stroke="none" stroke-width="1px">20</text><text style="text-anchor: middle; visibility: inherit; font-family: Roboto, sans-serif; font-size: 12px; font-weight: 200;" x="396.98399925231934" y="0" dx="0em" dy="0.95em" fill="rgb(50, 49, 63)" stroke="none" stroke-width="1px">25</text><text style="text-anchor: middle; visibility: inherit; font-family: Roboto, sans-serif; font-size: 12px; font-weight: 200;" x="463.14799912770593" y="0" dx="0em" dy="0.95em" fill="rgb(50, 49, 63)" stroke="none" stroke-width="1px">30</text><text style="text-anchor: middle; visibility: inherit; font-family: Roboto, sans-serif; font-size: 12px; font-weight: 200;" x="529.3119990030924" y="0" dx="0em" dy="0.95em" fill="rgb(50, 49, 63)" stroke="none" stroke-width="1px">35</text><text style="text-anchor: middle; visibility: inherit; font-family: Roboto, sans-serif; font-size: 12px; font-weight: 200;" x="595.475998878479" y="0" dx="0em" dy="0.95em" fill="rgb(50, 49, 63)" stroke="none" stroke-width="1px">40</text><text style="text-anchor: middle; visibility: inherit; font-family: Roboto, sans-serif; font-size: 12px; font-weight: 200;" x="661.6399987538656" y="0" dx="0em" dy="0.95em" fill="rgb(50, 49, 63)" stroke="none" stroke-width="1px">45</text><text style="text-anchor: middle; visibility: inherit; font-family: Roboto, sans-serif; font-size: 12px; font-weight: 200;" x="727.8039986292521" y="0" dx="0em" dy="0.95em" fill="rgb(50, 49, 63)" stroke="none" stroke-width="1px">50</text><text style="text-anchor: middle; visibility: hidden; font-family: Roboto, sans-serif; font-size: 12px; font-weight: 200;" x="793.9679985046387" y="0" dx="0em" dy="0.95em" fill="rgb(50, 49, 63)" stroke="none" stroke-width="1px">55</text></g><line x1="0" y1="0" x2="793.9679985046387" y2="0" fill="rgb(0, 0, 0)" stroke="rgb(204, 204, 204)" stroke-width="1px"></line></g></g></g></g></svg>