<svg viewBox="0 0 845.5 400" xmlns="http://www.w3.org/2000/svg"><g><g><g><g><g><line x1="51.53200149536133" y1="377.5999994277954" x2="46.53200149536133" y2="377.5999994277954" style="visibility: inherit;" fill="rgb(0, 0, 0)" stroke="rgb(204, 204, 204)" stroke-width="1px"></line><line x1="51.53200149536133" y1="348.55384562565735" x2="46.53200149536133" y2="348.55384562565735" style="visibility: inherit;" fill="rgb(0, 0, 0)" stroke="rgb(204, 204, 204)" stroke-width="1px"></line><line x1="51.53200149536133" y1="319.50769182351917" x2="46.53200149536133" y2="319.50769182351917" style="visibility: inherit;" fill="rgb(0, 0, 0)" stroke="rgb(204, 204, 204)" stroke-width="1px"></line><line x1="51.53200149536133" y1="290.46153802138105" x2="46.53200149536133" y2="290.46153802138105" style="visibility: inherit;" fill="rgb(0, 0, 0)" stroke="rgb(204, 204, 204)" stroke-width="1px"></line><line x1="51.53200149536133" y1="261.415384219243" x2="46.53200149536133" y2="261.415384219243" style="visibility: inherit;" fill="rgb(0, 0, 0)" stroke="rgb(204, 204, 204)" stroke-width="1px"></line><line x1="51.53200149536133" y1="232.3692304171049" x2="46.53200149536133" y2="232.3692304171049" style="visibility: inherit;" fill="rgb(0, 0, 0)" stroke="rgb(204, 204, 204)" stroke-width="1px"></line><line x1="51.53200149536133" y1="203.32307661496674" x2="46.53200149536133" y2="203.32307661496674" style="visibility: inherit;" fill="rgb(0, 0, 0)" stroke="rgb(204, 204, 204)" stroke-width="1px"></line><line x1="51.53200149536133" y1="174.27692281282867" x2="46.53200149536133" y2="174.27692281282867" style="visibility: inherit;" fill="rgb(0, 0, 0)" stroke="rgb(204, 204, 204)" stroke-width="1px"></line><line x1="51.53200149536133" y1="145.23076901069052" x2="46.53200149536133" y2="145.23076901069052" style="visibility: inherit;" fill="rgb(0, 0, 0)" stroke="rgb(204, 204, 204)" stroke-width="1px"></line><line x1="51.53200149536133" y1="116.18461520855244" x2="46.53200149536133" y2="116.18461520855244" style="visibility: inherit;" fill="rgb(0, 0, 0)" stroke="rgb(204, 204, 204)" stroke-width="1px"></line><line x1="51.53200149536133" y1="87.13846140641431" x2="46.53200149536133" y2="87.13846140641431" style="visibility: inherit;" fill="rgb(0, 0, 0)" stroke="rgb(204, 204, 204)" stroke-width="1px"></line><line x1="51.53200149536133" y1="58.09230760427622" x2="46.53200149536133" y2="58.09230760427622" style="visibility: inherit;" fill="rgb(0, 0, 0)" stroke="rgb(204, 204, 204)" stroke-width="1px"></line><line x1="51.53200149536133" y1="29.04615380213809" x2="46.53200149536133" y2="29.04615380213809" style="visibility: inherit;" fill="rgb(0, 0, 0)" stroke="rgb(204, 204, 204)" stroke-width="1px"></line><line x1="51.53200149536133" y1="0" x2="46.53200149536133" y2="0" style="visibility: inherit;" fill="rgb(0, 0, 0)" stroke="rgb(204, 204, 204)" stroke-width="1px"></line></g><g transform="translate(41.53200149536133, 0)"><text style="text-anchor: end; visibility: hidden; font-family: Roboto, sans-serif; font-size: 12px; font-weight: 200;" x="0" y="377.5999994277954" dx="0em" dy="0.3em" fill="rgb(50, 49, 63)" stroke="none" stroke-width="1px">-0.5</text><text style="text-anchor: end; visibility: inherit; font-family: Roboto, sans-serif; font-size: 12px; font-weight: 200;" x="0" y="348.55384562565735" dx="0em" dy="0.3em" fill="rgb(50, 49, 63)" stroke="none" stroke-width="1px">0</text><text style="text-anchor: end; visibility: inherit; font-family: Roboto, sans-serif; font-size: 12px; font-weight: 200;" x="0" y="319.50769182351917" dx="0em" dy="0.3em" fill="rgb(50, 49, 63)" stroke="none" stroke-width="1px">0.5</text><text style="text-anchor: end; visibility: inherit; font-family: Roboto, sans-serif; font-size: 12px; font-weight: 200;" x="0" y="290.46153802138105" dx="0em" dy="0.3em" fill="rgb(50, 49, 63)" stroke="none" stroke-width="1px">1</text><text style="text-anchor: end; visibility: inherit; font-family: Roboto, sans-serif; font-size: 12px; font-weight: 200;" x="0" y="261.415384219243" dx="0em" dy="0.3em" fill="rgb(50, 49, 63)" stroke="none" stroke-width="1px">1.5</text><text style="text-anchor: end; visibility: inherit; font-family: Roboto, sans-serif; font-size: 12px; font-weight: 200;" x="0" y="232.3692304171049" dx="0em" dy="0.3em" fill="rgb(50, 49, 63)" stroke="none" stroke-width="1px">2</text><text style="text-anchor: end; visibility: inherit; font-family: Roboto, sans-serif; font-size: 12px; font-weight: 200;" x="0" y="203.32307661496674" dx="0em" dy="0.3em" fill="rgb(50, 49, 63)" stroke="none" stroke-width="1px">2.5</text><text style="text-anchor: end; visibility: inherit; font-family: Roboto, sans-serif; font-size: 12px; font-weight: 200;" x="0" y="174.27692281282867" dx="0em" dy="0.3em" fill="rgb(50, 49, 63)" stroke="none" stroke-width="1px">3</text><text style="text-anchor: end; visibility: inherit; font-family: Roboto, sans-serif; font-size: 12px; font-weight: 200;" x="0" y="145.23076901069052" dx="0em" dy="0.3em" fill="rgb(50, 49, 63)" stroke="none" stroke-width="1px">3.5</text><text style="text-anchor: end; visibility: inherit; font-family: Roboto, sans-serif; font-size: 12px; font-weight: 200;" x="0" y="116.18461520855244" dx="0em" dy="0.3em" fill="rgb(50, 49, 63)" stroke="none" stroke-width="1px">4</text><text style="text-anchor: end; visibility: inherit; font-family: Roboto, sans-serif; font-size: 12px; font-weight: 200;" x="0" y="87.13846140641431" dx="0em" dy="0.3em" fill="rgb(50, 49, 63)" stroke="none" stroke-width="1px">4.5</text><text style="text-anchor: end; visibility: inherit; font-family: Roboto, sans-serif; font-size: 12px; font-weight: 200;" x="0" y="58.09230760427622" dx="0em" dy="0.3em" fill="rgb(50, 49, 63)" stroke="none" stroke-width="1px">5</text><text style="text-anchor: end; visibility: inherit; font-family: Roboto, sans-serif; font-size: 12px; font-weight: 200;" x="0" y="29.04615380213809" dx="0em" dy="0.3em" fill="rgb(50, 49, 63)" stroke="none" stroke-width="1px">5.5</text><text style="text-anchor: end; visibility: hidden; font-family: Roboto, sans-serif; font-size: 12px; font-weight: 200;" x="0" y="0" dx="0em" dy="0.3em" fill="rgb(50, 49, 63)" stroke="none" stroke-width="1px">6</text></g><line x1="51.53200149536133" y1="0" x2="51.53200149536133" y2="377.5999994277954" fill="rgb(0, 0, 0)" stroke="rgb(204, 204, 204)" stroke-width="1px"></line></g></g><g transform="translate(51, 0)" clip-path="url(#clip_0)"><clipPath id="clip_0"><rect width="793" height="377"></rect></clipPath><g><g><g><line x1="0" y1="0" x2="0" y2="377.5999994277954" fill="rgb(0, 0, 0)" stroke="rgb(60, 60, 60)" stroke-width="1px" opacity="0.25"></line><line x1="66.16399987538655" y1="0" x2="66.16399987538655" y2="377.5999994277954" fill="rgb(0, 0, 0)" stroke="rgb(60, 60, 60)" stroke-width="1px" opacity="0.25"></line><line x1="132.3279997507731" y1="0" x2="132.3279997507731" y2="377.5999994277954" fill="rgb(0, 0, 0)" stroke="rgb(60, 60, 60)" stroke-width="1px" opacity="0.25"></line><line x1="198.49199962615967" y1="0" x2="198.49199962615967" y2="377.5999994277954" fill="rgb(0, 0, 0)" stroke="rgb(60, 60, 60)" stroke-width="1px" opacity="0.25"></line><line x1="264.6559995015462" y1="0" x2="264.6559995015462" y2="377.5999994277954" fill="rgb(0, 0, 0)" stroke="rgb(60, 60, 60)" stroke-width="1px" opacity="0.25"></line><line x1="330.8199993769328" y1="0" x2="330.8199993769328" y2="377.5999994277954" fill="rgb(0, 0, 0)" stroke="rgb(60, 60, 60)" stroke-width="1px" opacity="0.25"></line><line x1="396.98399925231934" y1="0" x2="396.98399925231934" y2="377.5999994277954" fill="rgb(0, 0, 0)" stroke="rgb(60, 60, 60)" stroke-width="1px" opacity="0.25"></line><line x1="463.14799912770593" y1="0" x2="463.14799912770593" y2="377.5999994277954" fill="rgb(0, 0, 0)" stroke="rgb(60, 60, 60)" stroke-width="1px" opacity="0.25"></line><line x1="529.3119990030924" y1="0" x2="529.3119990030924" y2="377.5999994277954" fill="rgb(0, 0, 0)" stroke="rgb(60, 60, 60)" stroke-width="1px" opacity="0.25"></line><line x1="595.475998878479" y1="0" x2="595.475998878479" y2="377.5999994277954" fill="rgb(0, 0, 0)" stroke="rgb(60, 60, 60)" stroke-width="1px" opacity="0.25"></line><line x1="661.6399987538656" y1="0" x2="661.6399987538656" y2="377.5999994277954" fill="rgb(0, 0, 0)" stroke="rgb(60, 60, 60)" stroke-width="1px" opacity="0.25"></line><line x1="727.8039986292521" y1="0" x2="727.8039986292521" y2="377.5999994277954" fill="rgb(0, 0, 0)" stroke="rgb(60, 60, 60)" stroke-width="1px" opacity="0.25"></line><line x1="793.9679985046387" y1="0" x2="793.9679985046387" y2="377.5999994277954" fill="rgb(0, 0, 0)" stroke="rgb(60, 60, 60)" stroke-width="1px" opacity="0.25"></line></g><g><line x1="0" y1="377.5999994277954" x2="793.9679985046387" y2="377.5999994277954" fill="rgb(0, 0, 0)" stroke="rgb(60, 60, 60)" stroke-width="1px" opacity="0.25"></line><line x1="0" y1="348.55384562565735" x2="793.9679985046387" y2="348.55384562565735" fill="rgb(0, 0, 0)" stroke="rgb(60, 60, 60)" stroke-width="1px" opacity="0.25"></line><line x1="0" y1="319.50769182351917" x2="793.9679985046387" y2="319.50769182351917" fill="rgb(0, 0, 0)" stroke="rgb(60, 60, 60)" stroke-width="1px" opacity="0.25"></line><line x1="0" y1="290.46153802138105" x2="793.9679985046387" y2="290.46153802138105" fill="rgb(0, 0, 0)" stroke="rgb(60, 60, 60)" stroke-width="1px" opacity="0.25"></line><line x1="0" y1="261.415384219243" x2="793.9679985046387" y2="261.415384219243" fill="rgb(0, 0, 0)" stroke="rgb(60, 60, 60)" stroke-width="1px" opacity="0.25"></line><line x1="0" y1="232.3692304171049" x2="793.9679985046387" y2="232.3692304171049" fill="rgb(0, 0, 0)" stroke="rgb(60, 60, 60)" stroke-width="1px" opacity="0.25"></line><line x1="0" y1="203.32307661496674" x2="793.9679985046387" y2="203.32307661496674" fill="rgb(0, 0, 0)" stroke="rgb(60, 60, 60)" stroke-width="1px" opacity="0.25"></line><line x1="0" y1="174.27692281282867" x2="793.9679985046387" y2="174.27692281282867" fill="rgb(0, 0, 0)" stroke="rgb(60, 60, 60)" stroke-width="1px" opacity="0.25"></line><line x1="0" y1="145.23076901069052" x2="793.9679985046387" y2="145.23076901069052" fill="rgb(0, 0, 0)" stroke="rgb(60, 60, 60)" stroke-width="1px" opacity="0.25"></line><line x1="0" y1="116.18461520855244" x2="793.9679985046387" y2="116.18461520855244" fill="rgb(0, 0, 0)" stroke="rgb(60, 60, 60)" stroke-width="1px" opacity="0.25"></line><line x1="0" y1="87.13846140641431" x2="793.9679985046387" y2="87.13846140641431" fill="rgb(0, 0, 0)" stroke="rgb(60, 60, 60)" stroke-width="1px" opacity="0.25"></line><line x1="0" y1="58.09230760427622" x2="793.9679985046387" y2="58.09230760427622" fill="rgb(0, 0, 0)" stroke="rgb(60, 60, 60)" stroke-width="1px" opacity="0.25"></line><line x1="0" y1="29.04615380213809" x2="793.9679985046387" y2="29.04615380213809" fill="rgb(0, 0, 0)" stroke="rgb(60, 60, 60)" stroke-width="1px" opacity="0.25"></line><line x1="0" y1="0" x2="793.9679985046387" y2="0" fill="rgb(0, 0, 0)" stroke="rgb(60, 60, 60)" stroke-width="1px" opacity="0.25"></line></g></g></g><g><g><line x1="0" y1="348.55384562565735" x2="793.9679985046387" y2="348.55384562565735" fill="rgb(0, 0, 0)" stroke="rgb(153, 153, 153)" stroke-width="1.5px"></line></g></g><g><g><line x1="66.16399987538655" y1="0" x2="66.16399987538655" y2="377.5999994277954" fill="rgb(0, 0, 0)" stroke="rgb(153, 153, 153)" stroke-width="1.5px"></line></g></g><g><g><g><g><g><path style="fill: none;" stroke="rgb(255, 112, 67)" stroke-width="2px" d="M66.16399987538655,222.10094735161047L79.39679985046388,240.25655938933983L92.62959982554118,241.23188263943933L105.86239980061849,236.9787162124034L119.09519977569579,229.3684275745969L132.3279997507731,218.72944161941487L145.56079972585042,213.04571383543467L158.79359970092776,212.21281307047084L172.02639967600504,200.82960972797005L185.25919965108235,186.92420015619336L198.49199962615967,192.9252656800773L211.72479960123698,178.10929679289856L224.9575995763143,177.68045040495167L238.19039955139158,159.8131666842809L251.4231995264689,162.78215542114293L264.6559995015462,151.83374023904094L277.8887994766235,151.94472257623755L291.12159945170083,127.09451274685762L304.3543994267782,140.09166215061464L317.5871994018555,130.30187874635422L330.8199993769328,129.24853683839515L344.0527993520101,78.99479827647738L357.2855993270874,96.99587575445744L370.5183993021647,87.69344234382451L383.75119927724205,94.98719655828259L396.98399925231934,87.69330384097016L410.2167992273967,70.71739679037287L423.44959920247396,66.12023774911214L436.6823991775513,66.01896446200598L449.9151991526286,70.46352105833571L463.14799912770593,61.089010762295175L476.38079910278316,60.20965613997991L489.61359907786056,38.675370847341945L502.8463990529378,47.01426760078111L516.0791990280152,48.09835714240753L529.3119990030924,25.66056232965434L542.5447989781698,2.7085064186720498L555.777598953247,5.815845656751752L569.0103989283244,-10.440594466600487L582.2431989034017,7.3239201361371205L595.475998878479,-3.9907658443130485" fill="none"></path></g><g><path style="fill: none;" stroke="rgb(187, 187, 187)" stroke-width="2px" d="M66.16399987538655,208.34189374603324L79.39679985046388,263.53884073082384L92.62959982554118,287.44545831403747L105.86239980061849,294.4728853898517L119.09519977569579,294.0581524427638L132.3279997507731,301.1290347891326L145.56079972585042,304.8442595924157L158.79359970092776,301.08119590323753L172.02639967600504,303.2857181354738L185.25919965108235,308.9958168629236L198.49199962615967,303.99821490657337L211.72479960123698,307.0654679560306L224.9575995763143,306.8960755025801L238.19039955139158,307.9066823548273L251.4231995264689,303.1586798548858L264.6559995015462,305.44719714314715L277.8887994766235,310.5853067826717L291.12159945170083,302.5828438501807L304.3543994267782,306.49143941357494L317.5871994018555,316.81368665369837L330.8199993769328,307.65170552509795L344.0527993520101,307.130335767869L357.2855993270874,304.008851925788L370.5183993021647,308.0198634248368L383.75119927724205,312.14651441955994L396.98399925231934,306.74112889683914L410.2167992273967,309.1769405081382L423.44959920247396,303.26090881168705L436.6823991775513,307.1122403699472L449.9151991526286,302.3365303739915L463.14799912770593,307.8116001453109L476.38079910278316,305.5328715462813L489.61359907786056,310.1140542832919L502.8463990529378,309.01924115816684L516.0791990280152,303.1672981949982L529.3119990030924,314.44672134872906L542.5447989781698,300.2900018102921L555.777598953247,299.4216927906118L569.0103989283244,307.72142093683874L582.2431989034017,307.46223015776565L595.475998878479,303.2741219839927L608.7087988535563,305.04470784838446L621.9415988286336,307.55033528599375L635.174398803711,296.2951120434906L648.4071987787883,303.8593277067951L661.6399987538656,302.4873946081003L674.8727987289428,302.5040495763368L688.1055987040202,306.9989623479396L701.3383986790975,301.9254746776868L714.5711986541749,296.7056414289487" fill="none"></path></g><g><path style="fill: none;" stroke="rgb(51, 187, 238)" stroke-width="2px" d="M66.16399987538655,329.4982680095986L79.39679985046388,330.63300458249216L92.62959982554118,330.77853472542256L105.86239980061849,331.78513711389303L119.09519977569579,330.6567197337295L132.3279997507731,330.59490244725845L145.56079972585042,328.0449973783968L158.79359970092776,326.9017584615313L172.02639967600504,327.2441357862172L185.25919965108235,325.4844120081784L198.49199962615967,322.72360171784396L211.72479960123698,321.88953406633226L224.9575995763143,322.8063744861794L238.19039955139158,322.8679684367978L251.4231995264689,322.746324842387L264.6559995015462,320.21674333611656L277.8887994766235,318.20012446381565L291.12159945170083,319.4524395723447L304.3543994267782,318.151198330514L317.5871994018555,316.37433828681986L330.8199993769328,317.3692666159536L344.0527993520101,317.1279877185203L357.2855993270874,315.1064000563194L370.5183993021647,315.2856677632855L383.75119927724205,315.17090083559356L396.98399925231934,312.8597417932162L410.2167992273967,312.88823183035754L423.44959920247396,311.03689533930407L436.6823991775513,311.072771041154L449.9151991526286,309.808589700578L463.14799912770593,309.05224638836023L476.38079910278316,308.7028036868164L489.61359907786056,307.334838694899L502.8463990529378,306.6410398091378L516.0791990280152,306.08561566259357L529.3119990030924,305.56698133673814L542.5447989781698,304.51793647983556L555.777598953247,303.88755805108445L569.0103989283244,303.85866981823693L582.2431989034017,300.91237823663266L595.475998878479,302.2814547139563L608.7087988535563,301.5034114670321L621.9415988286336,300.46343508451855L635.174398803711,301.3785892321138L648.4071987787883,298.274615613395L661.6399987538656,298.75147055323356L674.8727987289428,298.5389483109362L688.1055987040202,297.68223198016557L701.3383986790975,297.2543308741997L714.5711986541749,296.96539660715337" fill="none"></path></g><g><path style="fill: none;" stroke="rgb(204, 51, 17)" stroke-width="2px" d="M66.16399987538655,319.70335480586994L79.39679985046388,335.5564910645473L92.62959982554118,339.4503455960236L105.86239980061849,341.04024236790633L119.09519977569579,341.9095399517096L132.3279997507731,342.79032548163894L145.56079972585042,342.7090056948101L158.79359970092776,342.5011605207758L172.02639967600504,342.55461180202224L185.25919965108235,343.3946004505578L198.49199962615967,344.0165514134426L211.72479960123698,343.3480011652092L224.9575995763143,343.25622051748365L238.19039955139158,344.1044513843177L251.4231995264689,343.7847032619267L264.6559995015462,344.06039838738224L277.8887994766235,343.8127474930056L291.12159945170083,343.8190069563797L304.3543994267782,343.6128155929907L317.5871994018555,343.78021533662417L330.8199993769328,343.6708270807169L344.0527993520101,344.11986588636483L357.2855993270874,343.35964016601093L370.5183993021647,343.72422988596435L383.75119927724205,343.5911095987844L396.98399925231934,343.90373174931864L410.2167992273967,343.80458058563414L423.44959920247396,343.33162060575296L436.6823991775513,343.292493549397L449.9151991526286,342.7376982923759L463.14799912770593,343.90938829245493L476.38079910278316,343.07484583584557L489.61359907786056,343.94364783912306L502.8463990529378,343.8329953118484L516.0791990280152,342.6739865465501L529.3119990030924,343.24553069405573L542.5447989781698,343.61850200080494L555.777598953247,342.2592986128899L569.0103989283244,343.50007556800807L582.2431989034017,343.5962441592883L595.475998878479,343.43995321021714L608.7087988535563,342.56239869218706L621.9415988286336,343.60228028680973L635.174398803711,342.7462374261685L648.4071987787883,343.8428476258288L661.6399987538656,343.7846456966779L674.8727987289428,342.82167084168714L688.1055987040202,344.4238584434298L701.3383986790975,342.94276172314477L714.5711986541749,343.39935932206924" fill="none"></path></g><g><path style="fill: none;" stroke="rgb(0, 119, 187)" stroke-width="2px" d="M66.16399987538655,320.00518195737135L79.39679985046388,325.66949856631334L92.62959982554118,328.0738128972458L105.86239980061849,329.66370793784284L119.09519977569579,330.8220315468335L132.3279997507731,331.5899554289612L145.56079972585042,332.1684316443274L158.79359970092776,332.7448251230213L172.02639967600504,333.1015236428478L185.25919965108235,333.363344244868L198.49199962615967,333.7394851028748L211.72479960123698,334.0460810807803L224.9575995763143,334.2103645101907L238.19039955139158,334.4832956380589L251.4231995264689,334.58047270324744L264.6559995015462,334.68639882061717L277.8887994766235,334.59833351195965L291.12159945170083,334.8120763106611L304.3543994267782,334.9950844603377L317.5871994018555,335.01234797549057L330.8199993769328,334.97813517353575L344.0527993520101,334.959504808339L357.2855993270874,334.9962842413136L370.5183993021647,335.0768305762652L383.75119927724205,334.97015481219626L396.98399925231934,334.9827975258706L410.2167992273967,334.98639600315533L423.44959920247396,334.95827732679226L436.6823991775513,334.96850143437234L449.9151991526286,334.8682721125309L463.14799912770593,334.8065067646302L476.38079910278316,334.7526049162857L489.61359907786056,334.70195355680437L502.8463990529378,334.6456261772228L516.0791990280152,334.54224764673046L529.3119990030924,334.43123241510597L542.5447989781698,334.40783928300493L555.777598953247,334.3549909219964L569.0103989283244,334.11240057566084L582.2431989034017,333.9679438298517L595.475998878479,333.9139311792237L608.7087988535563,333.90411652070674L621.9415988286336,333.861720796988L635.174398803711,333.738058523475L648.4071987787883,333.542002539275L661.6399987538656,333.6235547512063L674.8727987289428,333.46354240356715L688.1055987040202,333.19990914544053L701.3383986790975,333.0001395534581L714.5711986541749,333.1198216011941" fill="none"></path></g><g><path style="fill: none;" stroke="rgb(255, 112, 67)" stroke-width="2px" d="M66.16399987538655,292.816190422598L79.39679985046388,322.9010775441319L92.62959982554118,328.054188774069L105.86239980061849,331.32216708520383L119.09519977569579,333.37572813133323L132.3279997507731,334.83237476961L145.56079972585042,336.15791460595204L158.79359970092776,337.1924045441474L172.02639967600504,338.0979924727208L185.25919965108235,338.87209358215284L198.49199962615967,339.3137532154135L211.72479960123698,339.9936637274541L224.9575995763143,340.5436369210364L238.19039955139158,340.85588468104254L251.4231995264689,341.3762624115772L264.6559995015462,341.6101504504449L277.8887994766235,342.0194506230706L291.12159945170083,342.15079114857207L304.3543994267782,342.26902064762294L317.5871994018555,342.6570545726049L330.8199993769328,342.80554651251146L344.0527993520101,342.9012736259434L357.2855993270874,343.29189106198055L370.5183993021647,343.51272044578945L383.75119927724205,343.7429238759098L396.98399925231934,343.57197889202627L410.2167992273967,343.86930773051097L423.44959920247396,343.87224875205897L436.6823991775513,344.1050027988066L449.9151991526286,344.2092461064959L463.14799912770593,344.22628801708174L476.38079910278316,344.314754118374L489.61359907786056,344.4443482094463L502.8463990529378,344.21196249372696L516.0791990280152,344.38779619554793L529.3119990030924,344.6857188650207L542.5447989781698,344.60063266619613L555.777598953247,344.8560176465244L569.0103989283244,344.70826323431726L582.2431989034017,344.96159664111536L595.475998878479,344.9924788822443L608.7087988535563,344.8507303000593L621.9415988286336,345.061653483621L635.174398803711,344.92215708769425L648.4071987787883,345.0057842455124L661.6399987538656,345.186631101429L674.8727987289428,345.13072550632114L688.1055987040202,345.2498890339961L701.3383986790975,345.1784401724687L714.5711986541749,345.22405413985496" fill="none"></path></g><g><path style="fill: none;" stroke="rgb(0, 153, 136)" stroke-width="2px" d="M66.16399987538655,235.4326504000678L79.39679985046388,270.5780543995438L92.62959982554118,289.1522705391404L105.86239980061849,299.39106980951345L119.09519977569579,305.6346746068054L132.3279997507731,309.77567103466856L145.56079972585042,312.7409617453193L158.79359970092776,314.9973740719405L172.02639967600504,316.7485764618649L185.25919965108235,318.1798684213659L198.49199962615967,319.3641059144069L211.72479960123698,320.37955171012806L224.9575995763143,321.2396180786884L238.19039955139158,321.9963561240411L251.4231995264689,322.6627816519243L264.6559995015462,323.2761727055884L277.8887994766235,323.8231395215883L291.12159945170083,324.33663885411846L304.3543994267782,324.8020171011878L317.5871994018555,325.2379842671343L330.8199993769328,325.6166943530895L344.0527993520101,325.9745736097493L357.2855993270874,326.3309691545819L370.5183993021647,326.67260548899696L383.75119927724205,326.9770261064462L396.98399925231934,327.25311769632225L410.2167992273967,327.5337192853933L423.44959920247396,327.7907719266524L436.6823991775513,328.04891008403234L449.9151991526286,328.2806824917998L463.14799912770593,328.5072575799574L476.38079910278316,328.7206385399518L489.61359907786056,328.9336715115246L502.8463990529378,329.12446784983035L516.0791990280152,329.31863846392537L529.3119990030924,329.5126030550246L542.5447989781698,329.67998548580124L555.777598953247,329.84254801724614L569.0103989283244,329.99952368980354L582.2431989034017,330.1533501537099L595.475998878479,330.3153534798804L608.7087988535563,330.48509045918115L621.9415988286336,330.6168499558171L635.174398803711,330.7516080392498L648.4071987787883,330.8933657106846L661.6399987538656,331.0143012092525L674.8727987289428,331.14333912480026L688.1055987040202,331.2665460701796L701.3383986790975,331.3671562748705L714.5711986541749,331.4792414410449" fill="none"></path></g><g><path style="fill: none;" stroke="rgb(238, 51, 119)" stroke-width="2px" d="M66.16399987538655,207.46972742185912L79.39679985046388,254.49536610698297L92.62959982554118,280.641235513163L105.86239980061849,294.9122649198724L119.09519977569579,303.11919615367987L132.3279997507731,308.511638584661L145.56079972585042,312.1470961315482L158.79359970092776,314.82850446676525L172.02639967600504,317.10444569585087L185.25919965108235,318.85675957118156L198.49199962615967,320.25231433168693L211.72479960123698,321.54563494153405L224.9575995763143,322.47734883665356L238.19039955139158,323.48035534476776L251.4231995264689,324.22377980324535L264.6559995015462,325.14331756618105L277.8887994766235,325.5980639878928L291.12159945170083,326.2184044222742L304.3543994267782,326.9325026326273L317.5871994018555,327.40840882791343L330.8199993769328,327.88147571468534L344.0527993520101,328.37596379916926L357.2855993270874,328.95214952358157L370.5183993021647,329.15950734069713L383.75119927724205,329.85133256078376L396.98399925231934,330.1612742482649L410.2167992273967,330.4708333216107L423.44959920247396,330.9307441685043L436.6823991775513,331.1421860885377L449.9151991526286,331.43524600935825L463.14799912770593,331.8032325118148L476.38079910278316,332.1274122927238L489.61359907786056,332.3729345713575L502.8463990529378,332.610447922438L516.0791990280152,332.91322728106314L529.3119990030924,333.0447166971331L542.5447989781698,333.27814940786703L555.777598953247,333.5719104993878L569.0103989283244,333.61366045354816L582.2431989034017,334.13907103155304L595.475998878479,334.22987783108397L608.7087988535563,334.42324339733807L621.9415988286336,334.6657324634613L635.174398803711,334.8105008406928L648.4071987787883,334.8952576624168L661.6399987538656,335.20039156956597L674.8727987289428,335.5550411127907L688.1055987040202,335.50153313193823L701.3383986790975,335.67989710777977L714.5711986541749,335.94844894852173" fill="none"></path></g></g></g></g></g></g><g transform="translate(51, 377)" clip-path="url(#clip_1)"><clipPath id="clip_1"><rect width="793" height="22"></rect></clipPath><g><g><line x1="0" y1="0" x2="0" y2="5" style="visibility: inherit;" fill="rgb(0, 0, 0)" stroke="rgb(204, 204, 204)" stroke-width="1px"></line><line x1="66.16399987538655" y1="0" x2="66.16399987538655" y2="5" style="visibility: inherit;" fill="rgb(0, 0, 0)" stroke="rgb(204, 204, 204)" stroke-width="1px"></line><line x1="132.3279997507731" y1="0" x2="132.3279997507731" y2="5" style="visibility: inherit;" fill="rgb(0, 0, 0)" stroke="rgb(204, 204, 204)" stroke-width="1px"></line><line x1="198.49199962615967" y1="0" x2="198.49199962615967" y2="5" style="visibility: inherit;" fill="rgb(0, 0, 0)" stroke="rgb(204, 204, 204)" stroke-width="1px"></line><line x1="264.6559995015462" y1="0" x2="264.6559995015462" y2="5" style="visibility: inherit;" fill="rgb(0, 0, 0)" stroke="rgb(204, 204, 204)" stroke-width="1px"></line><line x1="330.8199993769328" y1="0" x2="330.8199993769328" y2="5" style="visibility: inherit;" fill="rgb(0, 0, 0)" stroke="rgb(204, 204, 204)" stroke-width="1px"></line><line x1="396.98399925231934" y1="0" x2="396.98399925231934" y2="5" style="visibility: inherit;" fill="rgb(0, 0, 0)" stroke="rgb(204, 204, 204)" stroke-width="1px"></line><line x1="463.14799912770593" y1="0" x2="463.14799912770593" y2="5" style="visibility: inherit;" fill="rgb(0, 0, 0)" stroke="rgb(204, 204, 204)" stroke-width="1px"></line><line x1="529.3119990030924" y1="0" x2="529.3119990030924" y2="5" style="visibility: inherit;" fill="rgb(0, 0, 0)" stroke="rgb(204, 204, 204)" stroke-width="1px"></line><line x1="595.475998878479" y1="0" x2="595.475998878479" y2="5" style="visibility: inherit;" fill="rgb(0, 0, 0)" stroke="rgb(204, 204, 204)" stroke-width="1px"></line><line x1="661.6399987538656" y1="0" x2="661.6399987538656" y2="5" style="visibility: inherit;" fill="rgb(0, 0, 0)" stroke="rgb(204, 204, 204)" stroke-width="1px"></line><line x1="727.8039986292521" y1="0" x2="727.8039986292521" y2="5" style="visibility: inherit;" fill="rgb(0, 0, 0)" stroke="rgb(204, 204, 204)" stroke-width="1px"></line><line x1="793.9679985046387" y1="0" x2="793.9679985046387" y2="5" style="visibility: inherit;" fill="rgb(0, 0, 0)" stroke="rgb(204, 204, 204)" stroke-width="1px"></line></g><g transform="translate(0, 8)"><text style="text-anchor: middle; visibility: hidden; font-family: Roboto, sans-serif; font-size: 12px; font-weight: 200;" x="0" y="0" dx="0em" dy="0.95em" fill="rgb(50, 49, 63)" stroke="none" stroke-width="1px">-5</text><text style="text-anchor: middle; visibility: inherit; font-family: Roboto, sans-serif; font-size: 12px; font-weight: 200;" x="66.16399987538655" y="0" dx="0em" dy="0.95em" fill="rgb(50, 49, 63)" stroke="none" stroke-width="1px">0</text><text style="text-anchor: middle; visibility: inherit; font-family: Roboto, sans-serif; font-size: 12px; font-weight: 200;" x="132.3279997507731" y="0" dx="0em" dy="0.95em" fill="rgb(50, 49, 63)" stroke="none" stroke-width="1px">5</text><text style="text-anchor: middle; visibility: inherit; font-family: Roboto, sans-serif; font-size: 12px; font-weight: 200;" x="198.49199962615967" y="0" dx="0em" dy="0.95em" fill="rgb(50, 49, 63)" stroke="none" stroke-width="1px">10</text><text style="text-anchor: middle; visibility: inherit; font-family: Roboto, sans-serif; font-size: 12px; font-weight: 200;" x="264.6559995015462" y="0" dx="0em" dy="0.95em" fill="rgb(50, 49, 63)" stroke="none" stroke-width="1px">15</text><text style="text-anchor: middle; visibility: inherit; font-family: Roboto, sans-serif; font-size: 12px; font-weight: 200;" x="330.8199993769328" y="0" dx="0em" dy="0.95em" fill="rgb(50, 49, 63)" stroke="none" stroke-width="1px">20</text><text style="text-anchor: middle; visibility: inherit; font-family: Roboto, sans-serif; font-size: 12px; font-weight: 200;" x="396.98399925231934" y="0" dx="0em" dy="0.95em" fill="rgb(50, 49, 63)" stroke="none" stroke-width="1px">25</text><text style="text-anchor: middle; visibility: inherit; font-family: Roboto, sans-serif; font-size: 12px; font-weight: 200;" x="463.14799912770593" y="0" dx="0em" dy="0.95em" fill="rgb(50, 49, 63)" stroke="none" stroke-width="1px">30</text><text style="text-anchor: middle; visibility: inherit; font-family: Roboto, sans-serif; font-size: 12px; font-weight: 200;" x="529.3119990030924" y="0" dx="0em" dy="0.95em" fill="rgb(50, 49, 63)" stroke="none" stroke-width="1px">35</text><text style="text-anchor: middle; visibility: inherit; font-family: Roboto, sans-serif; font-size: 12px; font-weight: 200;" x="595.475998878479" y="0" dx="0em" dy="0.95em" fill="rgb(50, 49, 63)" stroke="none" stroke-width="1px">40</text><text style="text-anchor: middle; visibility: inherit; font-family: Roboto, sans-serif; font-size: 12px; font-weight: 200;" x="661.6399987538656" y="0" dx="0em" dy="0.95em" fill="rgb(50, 49, 63)" stroke="none" stroke-width="1px">45</text><text style="text-anchor: middle; visibility: inherit; font-family: Roboto, sans-serif; font-size: 12px; font-weight: 200;" x="727.8039986292521" y="0" dx="0em" dy="0.95em" fill="rgb(50, 49, 63)" stroke="none" stroke-width="1px">50</text><text style="text-anchor: middle; visibility: hidden; font-family: Roboto, sans-serif; font-size: 12px; font-weight: 200;" x="793.9679985046387" y="0" dx="0em" dy="0.95em" fill="rgb(50, 49, 63)" stroke="none" stroke-width="1px">55</text></g><line x1="0" y1="0" x2="793.9679985046387" y2="0" fill="rgb(0, 0, 0)" stroke="rgb(204, 204, 204)" stroke-width="1px"></line></g></g></g></g></svg>