<svg viewBox="0 0 591.6666870117188 400" xmlns="http://www.w3.org/2000/svg"><g><g><g><g><g><line x1="41.171875" y1="337.0336274365061" x2="36.171875" y2="337.0336274365061" style="visibility: inherit;" fill="rgb(0, 0, 0)" stroke="rgb(204, 204, 204)" stroke-width="1px"></line><line x1="41.171875" y1="303.4050534931839" x2="36.171875" y2="303.4050534931839" style="visibility: inherit;" fill="rgb(0, 0, 0)" stroke="rgb(204, 204, 204)" stroke-width="1px"></line><line x1="41.171875" y1="279.5452005683495" x2="36.171875" y2="279.5452005683495" style="visibility: inherit;" fill="rgb(0, 0, 0)" stroke="rgb(204, 204, 204)" stroke-width="1px"></line><line x1="41.171875" y1="261.03806082861246" x2="36.171875" y2="261.03806082861246" style="visibility: inherit;" fill="rgb(0, 0, 0)" stroke="rgb(204, 204, 204)" stroke-width="1px"></line><line x1="41.171875" y1="245.91662662502736" x2="36.171875" y2="245.91662662502736" style="visibility: inherit;" fill="rgb(0, 0, 0)" stroke="rgb(204, 204, 204)" stroke-width="1px"></line><line x1="41.171875" y1="233.1316361749947" x2="36.171875" y2="233.1316361749947" style="visibility: inherit;" fill="rgb(0, 0, 0)" stroke="rgb(204, 204, 204)" stroke-width="1px"></line><line x1="41.171875" y1="222.05677370019302" x2="36.171875" y2="222.05677370019302" style="visibility: inherit;" fill="rgb(0, 0, 0)" stroke="rgb(204, 204, 204)" stroke-width="1px"></line><line x1="41.171875" y1="212.28805268170524" x2="36.171875" y2="212.28805268170524" style="visibility: inherit;" fill="rgb(0, 0, 0)" stroke="rgb(204, 204, 204)" stroke-width="1px"></line><line x1="41.171875" y1="203.54963396045588" x2="36.171875" y2="203.54963396045588" style="visibility: inherit;" fill="rgb(0, 0, 0)" stroke="rgb(204, 204, 204)" stroke-width="1px"></line><line x1="41.171875" y1="146.0612070922993" x2="36.171875" y2="146.0612070922993" style="visibility: inherit;" fill="rgb(0, 0, 0)" stroke="rgb(204, 204, 204)" stroke-width="1px"></line><line x1="41.171875" y1="112.43263314897719" x2="36.171875" y2="112.43263314897719" style="visibility: inherit;" fill="rgb(0, 0, 0)" stroke="rgb(204, 204, 204)" stroke-width="1px"></line><line x1="41.171875" y1="88.57278022414279" x2="36.171875" y2="88.57278022414279" style="visibility: inherit;" fill="rgb(0, 0, 0)" stroke="rgb(204, 204, 204)" stroke-width="1px"></line><line x1="41.171875" y1="70.06564048440569" x2="36.171875" y2="70.06564048440569" style="visibility: inherit;" fill="rgb(0, 0, 0)" stroke="rgb(204, 204, 204)" stroke-width="1px"></line><line x1="41.171875" y1="54.94420628082062" x2="36.171875" y2="54.94420628082062" style="visibility: inherit;" fill="rgb(0, 0, 0)" stroke="rgb(204, 204, 204)" stroke-width="1px"></line><line x1="41.171875" y1="42.159215830787986" x2="36.171875" y2="42.159215830787986" style="visibility: inherit;" fill="rgb(0, 0, 0)" stroke="rgb(204, 204, 204)" stroke-width="1px"></line><line x1="41.171875" y1="31.084353355986227" x2="36.171875" y2="31.084353355986227" style="visibility: inherit;" fill="rgb(0, 0, 0)" stroke="rgb(204, 204, 204)" stroke-width="1px"></line><line x1="41.171875" y1="21.315632337498464" x2="36.171875" y2="21.315632337498464" style="visibility: inherit;" fill="rgb(0, 0, 0)" stroke="rgb(204, 204, 204)" stroke-width="1px"></line><line x1="41.171875" y1="12.577213616249134" x2="36.171875" y2="12.577213616249134" style="visibility: inherit;" fill="rgb(0, 0, 0)" stroke="rgb(204, 204, 204)" stroke-width="1px"></line></g><g transform="translate(31.171875, 0)"><text x="0" y="337.0336274365061" dx="0em" dy="0.3em" style="text-anchor: end; visibility: inherit; font-family: Roboto, sans-serif; font-size: 12px; font-weight: 200;" fill="rgb(50, 49, 63)" stroke="none" stroke-width="1px">0.2</text><text x="0" y="303.4050534931839" dx="0em" dy="0.3em" style="text-anchor: end; visibility: hidden; font-family: Roboto, sans-serif; font-size: 12px; font-weight: 200;" fill="rgb(50, 49, 63)" stroke="none" stroke-width="1px">0.3</text><text x="0" y="279.5452005683495" dx="0em" dy="0.3em" style="text-anchor: end; visibility: hidden; font-family: Roboto, sans-serif; font-size: 12px; font-weight: 200;" fill="rgb(50, 49, 63)" stroke="none" stroke-width="1px">0.4</text><text x="0" y="261.03806082861246" dx="0em" dy="0.3em" style="text-anchor: end; visibility: inherit; font-family: Roboto, sans-serif; font-size: 12px; font-weight: 200;" fill="rgb(50, 49, 63)" stroke="none" stroke-width="1px">0.5</text><text x="0" y="245.91662662502736" dx="0em" dy="0.3em" style="text-anchor: end; visibility: hidden; font-family: Roboto, sans-serif; font-size: 12px; font-weight: 200;" fill="rgb(50, 49, 63)" stroke="none" stroke-width="1px">0.6</text><text x="0" y="233.1316361749947" dx="0em" dy="0.3em" style="text-anchor: end; visibility: hidden; font-family: Roboto, sans-serif; font-size: 12px; font-weight: 200;" fill="rgb(50, 49, 63)" stroke="none" stroke-width="1px">0.7</text><text x="0" y="222.05677370019302" dx="0em" dy="0.3em" style="text-anchor: end; visibility: inherit; font-family: Roboto, sans-serif; font-size: 12px; font-weight: 200;" fill="rgb(50, 49, 63)" stroke="none" stroke-width="1px">0.8</text><text x="0" y="212.28805268170524" dx="0em" dy="0.3em" style="text-anchor: end; visibility: hidden; font-family: Roboto, sans-serif; font-size: 12px; font-weight: 200;" fill="rgb(50, 49, 63)" stroke="none" stroke-width="1px">0.9</text><text x="0" y="203.54963396045588" dx="0em" dy="0.3em" style="text-anchor: end; visibility: hidden; font-family: Roboto, sans-serif; font-size: 12px; font-weight: 200;" fill="rgb(50, 49, 63)" stroke="none" stroke-width="1px">1</text><text x="0" y="146.0612070922993" dx="0em" dy="0.3em" style="text-anchor: end; visibility: inherit; font-family: Roboto, sans-serif; font-size: 12px; font-weight: 200;" fill="rgb(50, 49, 63)" stroke="none" stroke-width="1px">2</text><text x="0" y="112.43263314897719" dx="0em" dy="0.3em" style="text-anchor: end; visibility: hidden; font-family: Roboto, sans-serif; font-size: 12px; font-weight: 200;" fill="rgb(50, 49, 63)" stroke="none" stroke-width="1px">3</text><text x="0" y="88.57278022414279" dx="0em" dy="0.3em" style="text-anchor: end; visibility: hidden; font-family: Roboto, sans-serif; font-size: 12px; font-weight: 200;" fill="rgb(50, 49, 63)" stroke="none" stroke-width="1px">4</text><text x="0" y="70.06564048440569" dx="0em" dy="0.3em" style="text-anchor: end; visibility: inherit; font-family: Roboto, sans-serif; font-size: 12px; font-weight: 200;" fill="rgb(50, 49, 63)" stroke="none" stroke-width="1px">5</text><text x="0" y="54.94420628082062" dx="0em" dy="0.3em" style="text-anchor: end; visibility: hidden; font-family: Roboto, sans-serif; font-size: 12px; font-weight: 200;" fill="rgb(50, 49, 63)" stroke="none" stroke-width="1px">6</text><text x="0" y="42.159215830787986" dx="0em" dy="0.3em" style="text-anchor: end; visibility: hidden; font-family: Roboto, sans-serif; font-size: 12px; font-weight: 200;" fill="rgb(50, 49, 63)" stroke="none" stroke-width="1px">7</text><text x="0" y="31.084353355986227" dx="0em" dy="0.3em" style="text-anchor: end; visibility: inherit; font-family: Roboto, sans-serif; font-size: 12px; font-weight: 200;" fill="rgb(50, 49, 63)" stroke="none" stroke-width="1px">8</text><text x="0" y="21.315632337498464" dx="0em" dy="0.3em" style="text-anchor: end; visibility: hidden; font-family: Roboto, sans-serif; font-size: 12px; font-weight: 200;" fill="rgb(50, 49, 63)" stroke="none" stroke-width="1px">9</text><text x="0" y="12.577213616249134" dx="0em" dy="0.3em" style="text-anchor: end; visibility: hidden; font-family: Roboto, sans-serif; font-size: 12px; font-weight: 200;" fill="rgb(50, 49, 63)" stroke="none" stroke-width="1px">10</text></g><line x1="41.171875" y1="0" x2="41.171875" y2="378" fill="rgb(0, 0, 0)" stroke="rgb(204, 204, 204)" stroke-width="1px"></line></g></g><g transform="translate(41, 0)" clip-path="url(#clip_0)"><clipPath id="clip_0"><rect width="550" height="378"></rect></clipPath><g><g><g><line x1="0" y1="0" x2="0" y2="378" fill="rgb(0, 0, 0)" stroke="rgb(60, 60, 60)" stroke-width="1px" opacity="0.25"></line><line x1="45.87459375" y1="0" x2="45.87459375" y2="378" fill="rgb(0, 0, 0)" stroke="rgb(60, 60, 60)" stroke-width="1px" opacity="0.25"></line><line x1="91.7491875" y1="0" x2="91.7491875" y2="378" fill="rgb(0, 0, 0)" stroke="rgb(60, 60, 60)" stroke-width="1px" opacity="0.25"></line><line x1="137.62378125" y1="0" x2="137.62378125" y2="378" fill="rgb(0, 0, 0)" stroke="rgb(60, 60, 60)" stroke-width="1px" opacity="0.25"></line><line x1="183.498375" y1="0" x2="183.498375" y2="378" fill="rgb(0, 0, 0)" stroke="rgb(60, 60, 60)" stroke-width="1px" opacity="0.25"></line><line x1="229.37296875" y1="0" x2="229.37296875" y2="378" fill="rgb(0, 0, 0)" stroke="rgb(60, 60, 60)" stroke-width="1px" opacity="0.25"></line><line x1="275.2475625" y1="0" x2="275.2475625" y2="378" fill="rgb(0, 0, 0)" stroke="rgb(60, 60, 60)" stroke-width="1px" opacity="0.25"></line><line x1="321.12215625000005" y1="0" x2="321.12215625000005" y2="378" fill="rgb(0, 0, 0)" stroke="rgb(60, 60, 60)" stroke-width="1px" opacity="0.25"></line><line x1="366.99675" y1="0" x2="366.99675" y2="378" fill="rgb(0, 0, 0)" stroke="rgb(60, 60, 60)" stroke-width="1px" opacity="0.25"></line><line x1="412.87134375000005" y1="0" x2="412.87134375000005" y2="378" fill="rgb(0, 0, 0)" stroke="rgb(60, 60, 60)" stroke-width="1px" opacity="0.25"></line><line x1="458.7459375" y1="0" x2="458.7459375" y2="378" fill="rgb(0, 0, 0)" stroke="rgb(60, 60, 60)" stroke-width="1px" opacity="0.25"></line><line x1="504.62053125" y1="0" x2="504.62053125" y2="378" fill="rgb(0, 0, 0)" stroke="rgb(60, 60, 60)" stroke-width="1px" opacity="0.25"></line><line x1="550.495125" y1="0" x2="550.495125" y2="378" fill="rgb(0, 0, 0)" stroke="rgb(60, 60, 60)" stroke-width="1px" opacity="0.25"></line></g><g><line x1="0" y1="337.0336274365061" x2="550.495125" y2="337.0336274365061" fill="rgb(0, 0, 0)" stroke="rgb(60, 60, 60)" stroke-width="1px" opacity="0.25"></line><line x1="0" y1="303.4050534931839" x2="550.495125" y2="303.4050534931839" fill="rgb(0, 0, 0)" stroke="rgb(60, 60, 60)" stroke-width="1px" opacity="0.25"></line><line x1="0" y1="279.5452005683495" x2="550.495125" y2="279.5452005683495" fill="rgb(0, 0, 0)" stroke="rgb(60, 60, 60)" stroke-width="1px" opacity="0.25"></line><line x1="0" y1="261.03806082861246" x2="550.495125" y2="261.03806082861246" fill="rgb(0, 0, 0)" stroke="rgb(60, 60, 60)" stroke-width="1px" opacity="0.25"></line><line x1="0" y1="245.91662662502736" x2="550.495125" y2="245.91662662502736" fill="rgb(0, 0, 0)" stroke="rgb(60, 60, 60)" stroke-width="1px" opacity="0.25"></line><line x1="0" y1="233.1316361749947" x2="550.495125" y2="233.1316361749947" fill="rgb(0, 0, 0)" stroke="rgb(60, 60, 60)" stroke-width="1px" opacity="0.25"></line><line x1="0" y1="222.05677370019302" x2="550.495125" y2="222.05677370019302" fill="rgb(0, 0, 0)" stroke="rgb(60, 60, 60)" stroke-width="1px" opacity="0.25"></line><line x1="0" y1="212.28805268170524" x2="550.495125" y2="212.28805268170524" fill="rgb(0, 0, 0)" stroke="rgb(60, 60, 60)" stroke-width="1px" opacity="0.25"></line><line x1="0" y1="203.54963396045588" x2="550.495125" y2="203.54963396045588" fill="rgb(0, 0, 0)" stroke="rgb(60, 60, 60)" stroke-width="1px" opacity="0.25"></line><line x1="0" y1="146.0612070922993" x2="550.495125" y2="146.0612070922993" fill="rgb(0, 0, 0)" stroke="rgb(60, 60, 60)" stroke-width="1px" opacity="0.25"></line><line x1="0" y1="112.43263314897719" x2="550.495125" y2="112.43263314897719" fill="rgb(0, 0, 0)" stroke="rgb(60, 60, 60)" stroke-width="1px" opacity="0.25"></line><line x1="0" y1="88.57278022414279" x2="550.495125" y2="88.57278022414279" fill="rgb(0, 0, 0)" stroke="rgb(60, 60, 60)" stroke-width="1px" opacity="0.25"></line><line x1="0" y1="70.06564048440569" x2="550.495125" y2="70.06564048440569" fill="rgb(0, 0, 0)" stroke="rgb(60, 60, 60)" stroke-width="1px" opacity="0.25"></line><line x1="0" y1="54.94420628082062" x2="550.495125" y2="54.94420628082062" fill="rgb(0, 0, 0)" stroke="rgb(60, 60, 60)" stroke-width="1px" opacity="0.25"></line><line x1="0" y1="42.159215830787986" x2="550.495125" y2="42.159215830787986" fill="rgb(0, 0, 0)" stroke="rgb(60, 60, 60)" stroke-width="1px" opacity="0.25"></line><line x1="0" y1="31.084353355986227" x2="550.495125" y2="31.084353355986227" fill="rgb(0, 0, 0)" stroke="rgb(60, 60, 60)" stroke-width="1px" opacity="0.25"></line><line x1="0" y1="21.315632337498464" x2="550.495125" y2="21.315632337498464" fill="rgb(0, 0, 0)" stroke="rgb(60, 60, 60)" stroke-width="1px" opacity="0.25"></line><line x1="0" y1="12.577213616249134" x2="550.495125" y2="12.577213616249134" fill="rgb(0, 0, 0)" stroke="rgb(60, 60, 60)" stroke-width="1px" opacity="0.25"></line></g></g></g><g><g><line x1="45.87459375" y1="0" x2="45.87459375" y2="378" fill="rgb(0, 0, 0)" stroke="rgb(153, 153, 153)" stroke-width="1.5px"></line></g></g><g><g><g><g><g><path stroke="rgb(255, 112, 67)" stroke-width="2px" d="M45.87459375,139.03721020137948L55.049512500000006,151.89179560265762L64.22443125000001,152.64211982877515L73.39935,149.41873613516842L82.57426875,143.94628299541228L91.7491875,136.85486335882212L100.92410625,133.30105371020645L110.09902500000001,132.79283391506263L119.27394375000002,126.14218623441606L128.44886250000002,118.68103355470855L137.62378125,121.81902851002177L146.7987,114.27680929437228L155.97361875,114.06839484596136L165.1485375,105.8200927967234L174.32345625,107.13512516208066L183.498375,102.38579080236019L192.67329375,102.43259476425001L201.8482125,92.56116900911285L211.02313125000003,97.57738523281468L220.19805000000002,93.77113609484628L229.37296875,93.37181684021235L238.54788750000003,76.25977742824817L247.72280625000002,81.99197344540964L256.89772500000004,78.98032307368445L266.07264375,81.33234512354493L275.2475625,78.98027903793312L284.42248125000003,73.75129614492023L293.5974,72.39020621081396L302.77231875000007,72.36047205283624L311.9472375,73.6755451069682L321.12215625000005,70.92576249958553L330.297075,70.67244168224632L339.47199375,64.69878513436515L348.6469125,66.96125200491431L357.82183125000006,67.25996743139355L366.99675,61.28656605331635L376.17166875000004,55.59121156628981L385.3465875,56.33976027589437L394.52150625,52.49635162512234L403.696425,56.70550049235502L412.87134375000005,54.0000000000001L422.04626250000007,53.50167354617934L431.22118125000003,53.992453972139025L440.39610000000005,51.36022571630094L449.57101875,49.88170081004359L458.7459375,47.19521602313217L467.92085625,48.48359551009015L477.09577500000006,45.207592773535204L486.27069375,42.15709721240915L495.44561250000004,40.70462713984439" style="fill: none;" fill="none"></path></g><g><path stroke="rgb(51, 187, 238)" stroke-width="2px" d="M45.87459375,295.99871627102084L55.049512500000006,301.09075333147007L64.22443125000001,301.76702145920524L73.39935,306.6019829016289L82.57426875,301.20058055132836L91.7491875,300.914602533842L100.92410625,289.9030382015546L110.09902500000001,285.4040153609721L119.27394375000002,286.7259704739784L128.44886250000002,280.14517622584236L137.62378125,270.7700393452385L146.7987,268.1342631919429L155.97361875,271.03624097745757L165.1485375,271.23488633939917L174.32345625,270.84303308282756L183.498375,263.0878050166321L192.67329375,257.3860364925227L201.8482125,260.8804436413911L211.02313125000003,257.25245873751953L220.19805000000002,252.54155305219732L229.37296875,255.14632240858472L238.54788750000003,254.50708863258484L247.72280625000002,249.33635506030217L256.89772500000004,249.78207341549677L266.07264375,249.49644942972253L275.2475625,243.94453007597753L284.42248125000003,244.01075551940306L293.5974,239.8135970299972L302.77231875000007,239.8929449546764L311.9472375,237.1417007324478L321.12215625000005,235.53826866430825L330.297075,234.80779871472075L339.47199375,232.00855487350512L348.6469125,230.6241555129393L357.82183125000006,229.53228500417734L366.99675,228.52555365801186L376.17166875000004,226.5258431149852L385.3465875,225.3469912393557L394.52150625,225.29336767499373L403.696425,219.99875668909857L412.87134375000005,222.41707660651653L422.04626250000007,221.03411258432234L431.22118125000003,219.22085822120323L440.39610000000005,220.81437323275102L449.57101875,215.5293358262895L458.7459375,216.31968730436392L467.92085625,215.96651689658296L477.09577500000006,214.5578790855689L486.27069375,213.86317041770266L495.44561250000004,213.39734779097844" style="fill: none;" fill="none"></path></g><g><path stroke="rgb(0, 119, 187)" stroke-width="2px" d="M45.87459375,262.47089795716107L55.049512500000006,280.8132754076168L64.22443125000001,290.0196507838847L73.39935,296.7219277323283L82.57426875,301.97022309005035L91.7491875,305.64218660717796L100.92410625,308.51976558744633L110.09902500000001,311.4898556981483L119.27394375000002,313.38262415784243L128.44886250000002,314.79995281231226L137.62378125,316.87948951282704L146.7987,318.6139795062697L155.97361875,319.5585162224812L165.1485375,321.15189318966026L174.32345625,321.72668650905655L183.498375,322.35780091054966L192.67329375,321.8327662717089L201.8482125,323.11287815322356L211.02313125000003,324.22484236209L220.19805000000002,324.330509710572L229.37296875,324.1212291648409L238.54788750000003,324.0074884541581L247.72280625000002,324.23218168742966L256.89772500000004,324.7263927453314L266.07264375,324.0724889615579L275.2475625,324.1497178282041L284.42248125000003,324.1717125221996L293.5974,324L302.77231875000007,324.0623945070593L311.9472375,323.4527425758818L321.12215625000005,323.07927004148246L330.297075,322.7547138039392L339.47199375,322.45088271349636L348.6469125,322.11430613081853L357.82183125000006,321.5001133260458L366.99675,320.84557506320147L376.17166875000004,320.70830721345743L385.3465875,320.3990337533324L394.52150625,318.9939853000537L403.696425,318.1684815898855L412.87134375000005,317.8619224316931L422.04626250000007,317.80633890703257L431.22118125000003,317.566665547221L440.39610000000005,316.87150318574686L449.57101875,315.78118673046396L458.7459375,316.23297924278626L467.92085625,315.34883466760465L477.09577500000006,313.9123834577975L486.27069375,312.84023602833827L495.44561250000004,313.48089419320314" style="fill: none;" fill="none"></path></g><g><path stroke="rgb(0, 153, 136)" stroke-width="2px" d="M45.87459375,148.27737305234544L55.049512500000006,179.13549784426655L64.22443125000001,201.70114840179482L73.39935,217.39174131264897L82.57426875,228.65626307185767L91.7491875,237.0712648063574L100.92410625,243.66899279316976L110.09902500000001,249.06644742748585L119.27394375000002,253.51175321007625L128.44886250000002,257.33070750124074L137.62378125,260.62907626343366L146.7987,263.56569382771295L155.97361875,266.13696899167553L165.1485375,268.46719624601093L174.32345625,270.5749818929016L183.498375,272.56354100166686L192.67329375,274.3778885389633L201.8482125,276.11811832260923L211.02313125000003,277.7274430351432L220.19805000000002,279.26392787275324L229.37296875,280.6221209449948L238.54788750000003,281.92637533758864L247.72280625000002,283.2459304863128L256.89772500000004,284.530857831007L266.07264375,285.6928301804687L275.2475625,286.760935807387L284.42248125000003,287.8607695105051L293.5974,288.8812643453986L302.77231875000007,289.91886278543785L311.9472375,290.86167325368655L321.12215625000005,291.793819049285L330.297075,292.68136704957493L339.47199375,293.5770447807929L348.6469125,294.3875249562454L357.82183125000006,295.2205513501262L366.99675,296.0611321836694L376.17166875000004,296.7934260800635L385.3465875,297.5108762513358L394.52150625,298.2096097015964L403.696425,298.90008391441273L412.87134375000005,299.63353010258356L422.04626250000007,300.40901129388794L431.22118125000003,301.01602284152636L440.39610000000005,301.64147862418633L449.57101875,302.30455236729694L458.7459375,302.87445085395683L467.92085625,303.4868808570676L477.09577500000006,304.07588718384085L486.27069375,304.55998897252397L495.44561250000004,305.1026528240948" style="fill: none;" fill="none"></path></g></g></g></g></g></g><g transform="translate(41, 378)" clip-path="url(#clip_1)"><clipPath id="clip_1"><rect width="550" height="22"></rect></clipPath><g><g><line x1="0" y1="0" x2="0" y2="5" style="visibility: inherit;" fill="rgb(0, 0, 0)" stroke="rgb(204, 204, 204)" stroke-width="1px"></line><line x1="45.87459375" y1="0" x2="45.87459375" y2="5" style="visibility: inherit;" fill="rgb(0, 0, 0)" stroke="rgb(204, 204, 204)" stroke-width="1px"></line><line x1="91.7491875" y1="0" x2="91.7491875" y2="5" style="visibility: inherit;" fill="rgb(0, 0, 0)" stroke="rgb(204, 204, 204)" stroke-width="1px"></line><line x1="137.62378125" y1="0" x2="137.62378125" y2="5" style="visibility: inherit;" fill="rgb(0, 0, 0)" stroke="rgb(204, 204, 204)" stroke-width="1px"></line><line x1="183.498375" y1="0" x2="183.498375" y2="5" style="visibility: inherit;" fill="rgb(0, 0, 0)" stroke="rgb(204, 204, 204)" stroke-width="1px"></line><line x1="229.37296875" y1="0" x2="229.37296875" y2="5" style="visibility: inherit;" fill="rgb(0, 0, 0)" stroke="rgb(204, 204, 204)" stroke-width="1px"></line><line x1="275.2475625" y1="0" x2="275.2475625" y2="5" style="visibility: inherit;" fill="rgb(0, 0, 0)" stroke="rgb(204, 204, 204)" stroke-width="1px"></line><line x1="321.12215625000005" y1="0" x2="321.12215625000005" y2="5" style="visibility: inherit;" fill="rgb(0, 0, 0)" stroke="rgb(204, 204, 204)" stroke-width="1px"></line><line x1="366.99675" y1="0" x2="366.99675" y2="5" style="visibility: inherit;" fill="rgb(0, 0, 0)" stroke="rgb(204, 204, 204)" stroke-width="1px"></line><line x1="412.87134375000005" y1="0" x2="412.87134375000005" y2="5" style="visibility: inherit;" fill="rgb(0, 0, 0)" stroke="rgb(204, 204, 204)" stroke-width="1px"></line><line x1="458.7459375" y1="0" x2="458.7459375" y2="5" style="visibility: inherit;" fill="rgb(0, 0, 0)" stroke="rgb(204, 204, 204)" stroke-width="1px"></line><line x1="504.62053125" y1="0" x2="504.62053125" y2="5" style="visibility: inherit;" fill="rgb(0, 0, 0)" stroke="rgb(204, 204, 204)" stroke-width="1px"></line><line x1="550.495125" y1="0" x2="550.495125" y2="5" style="visibility: inherit;" fill="rgb(0, 0, 0)" stroke="rgb(204, 204, 204)" stroke-width="1px"></line></g><g transform="translate(0, 8)"><text x="0" y="0" dx="0em" dy="0.95em" style="text-anchor: middle; visibility: hidden; font-family: Roboto, sans-serif; font-size: 12px; font-weight: 200;" fill="rgb(50, 49, 63)" stroke="none" stroke-width="1px">-5</text><text x="45.87459375" y="0" dx="0em" dy="0.95em" style="text-anchor: middle; visibility: inherit; font-family: Roboto, sans-serif; font-size: 12px; font-weight: 200;" fill="rgb(50, 49, 63)" stroke="none" stroke-width="1px">0</text><text x="91.7491875" y="0" dx="0em" dy="0.95em" style="text-anchor: middle; visibility: inherit; font-family: Roboto, sans-serif; font-size: 12px; font-weight: 200;" fill="rgb(50, 49, 63)" stroke="none" stroke-width="1px">5</text><text x="137.62378125" y="0" dx="0em" dy="0.95em" style="text-anchor: middle; visibility: inherit; font-family: Roboto, sans-serif; font-size: 12px; font-weight: 200;" fill="rgb(50, 49, 63)" stroke="none" stroke-width="1px">10</text><text x="183.498375" y="0" dx="0em" dy="0.95em" style="text-anchor: middle; visibility: inherit; font-family: Roboto, sans-serif; font-size: 12px; font-weight: 200;" fill="rgb(50, 49, 63)" stroke="none" stroke-width="1px">15</text><text x="229.37296875" y="0" dx="0em" dy="0.95em" style="text-anchor: middle; visibility: inherit; font-family: Roboto, sans-serif; font-size: 12px; font-weight: 200;" fill="rgb(50, 49, 63)" stroke="none" stroke-width="1px">20</text><text x="275.2475625" y="0" dx="0em" dy="0.95em" style="text-anchor: middle; visibility: inherit; font-family: Roboto, sans-serif; font-size: 12px; font-weight: 200;" fill="rgb(50, 49, 63)" stroke="none" stroke-width="1px">25</text><text x="321.12215625000005" y="0" dx="0em" dy="0.95em" style="text-anchor: middle; visibility: inherit; font-family: Roboto, sans-serif; font-size: 12px; font-weight: 200;" fill="rgb(50, 49, 63)" stroke="none" stroke-width="1px">30</text><text x="366.99675" y="0" dx="0em" dy="0.95em" style="text-anchor: middle; visibility: inherit; font-family: Roboto, sans-serif; font-size: 12px; font-weight: 200;" fill="rgb(50, 49, 63)" stroke="none" stroke-width="1px">35</text><text x="412.87134375000005" y="0" dx="0em" dy="0.95em" style="text-anchor: middle; visibility: inherit; font-family: Roboto, sans-serif; font-size: 12px; font-weight: 200;" fill="rgb(50, 49, 63)" stroke="none" stroke-width="1px">40</text><text x="458.7459375" y="0" dx="0em" dy="0.95em" style="text-anchor: middle; visibility: inherit; font-family: Roboto, sans-serif; font-size: 12px; font-weight: 200;" fill="rgb(50, 49, 63)" stroke="none" stroke-width="1px">45</text><text x="504.62053125" y="0" dx="0em" dy="0.95em" style="text-anchor: middle; visibility: inherit; font-family: Roboto, sans-serif; font-size: 12px; font-weight: 200;" fill="rgb(50, 49, 63)" stroke="none" stroke-width="1px">50</text><text x="550.495125" y="0" dx="0em" dy="0.95em" style="text-anchor: middle; visibility: hidden; font-family: Roboto, sans-serif; font-size: 12px; font-weight: 200;" fill="rgb(50, 49, 63)" stroke="none" stroke-width="1px">55</text></g><line x1="0" y1="0" x2="550.495125" y2="0" fill="rgb(0, 0, 0)" stroke="rgb(204, 204, 204)" stroke-width="1px"></line></g></g></g></g></svg>